<svg xmlns="http://www.w3.org/2000/svg" width="1200" height="100"><defs><clipPath id="a"><path data-name="パス 423" d="M0 0h50.67v40H0z" fill="none"/></clipPath><clipPath id="b"><path data-name="パス 424" d="M0 0h50.4v50H0z" fill="none"/></clipPath><clipPath id="c"><path data-name="パス 429" d="M0 0h44v44H0z" fill="none"/></clipPath><clipPath id="d"><path data-name="長方形 272" fill="none" d="M0 0h47.405v48.005H0z"/></clipPath></defs><g data-name="グループ 273" transform="translate(-83 -678)"><rect data-name="長方形 241" width="1200" height="100" rx="50" transform="translate(83 678)" fill="#fff"/><rect data-name="長方形 237" width="254" height="83" rx="5" transform="translate(414 686)" fill="none"/><g data-name="グループ 266"><g data-name="グループ 212"><path data-name="パス 419" d="M511.861 729.507a17.262 17.262 0 01-.174 2.929h3.19a18.487 18.487 0 01-.145-2.784 7.679 7.679 0 011.508 2.436 19.737 19.737 0 004.495-2.813 17.646 17.646 0 005.684 3.016 15.419 15.419 0 011.481-2.842 17.274 17.274 0 01-5.135-2.059 22.354 22.354 0 003.306-4.959 4.361 4.361 0 01.464-.841l-1.508-1.653a13.376 13.376 0 01-2.175.116h-4.872a17.317 17.317 0 01-2.436-.116v2.726a16.131 16.131 0 012.175-.116h.754l-2.465 1.1a22.933 22.933 0 002.639 3.683 14.7 14.7 0 01-3.915 2.061v-10.614H524.8a21.942 21.942 0 013.045.145v-2.813a16.2 16.2 0 01-3.016.174h-20.5a15.853 15.853 0 01-2.987-.174v2.813a20.011 20.011 0 012.871-.145v8.99c-1.218.087-2.03.145-2.494.145a2.823 2.823 0 01-.464-.029l.659 2.987c.725-.145 1.74-.319 4.06-.638 3.132-.464 3.132-.464 5.887-.986zm0-2.639c-2.726.406-3.393.493-4.814.638v-1.8h4.814zm0-3.277h-4.814V722.2h4.814zm0-3.509h-4.814v-1.3h4.814zm10.962 2.465a12.02 12.02 0 01-2.146 3.045 11.821 11.821 0 01-2.059-3.045zm1.914-13.63a19.588 19.588 0 01.116-2.523c-.986.087-1.74.116-3.074.116h-14.268c-1.334 0-2.117-.029-3.074-.116a20.47 20.47 0 01.116 2.523v3.915a20.263 20.263 0 01-.116 2.494c.9-.058 1.682-.087 2.987-.087h14.732c.986 0 2.03.029 2.7.087a19.588 19.588 0 01-.119-2.526zm-17.2-.174h14.184v1.16H507.54zm0 3.161h14.184v1.189H507.54zm27.724.2c0 2.088-.058 3.6-.116 4.553h-2.085a14.875 14.875 0 01-2.842-.174v3.306a15.267 15.267 0 012.813-.174h1.8a14.339 14.339 0 01-5.048 9.254 15.444 15.444 0 012.059 2.639 17.505 17.505 0 004.814-7.279 16.335 16.335 0 003.277 3.971 15.7 15.7 0 012.088-2.668 13.4 13.4 0 01-4.437-4.9c.087-.464.116-.609.174-1.015h1.247a20.773 20.773 0 012.523.116v-3.219a14.412 14.412 0 01-2.436.145h-1.015c.058-1.015.116-2.552.145-4.553h.261a22.665 22.665 0 012.61.116v-3.074a15.038 15.038 0 01-2.581.145h-3.306c.174-.551.261-.87.377-1.363a16.955 16.955 0 01.551-1.914l-3.045-.522a11.936 11.936 0 01-.406 2.262 16.653 16.653 0 01-2.929 6.12 11.136 11.136 0 012.378 1.972 18.049 18.049 0 002.03-3.741zm8.384 16.156a20.644 20.644 0 01-2.929-.145v3.277a20.4 20.4 0 012.929-.145h10.382a20.4 20.4 0 012.929.145v-3.277a20.644 20.644 0 01-2.929.145h-1.711a36.147 36.147 0 002.32-5.684l-3.045-1.015a31.007 31.007 0 01-2.349 6.7zm-1.945-18.27a27.884 27.884 0 012.929-.116h8.9a27.884 27.884 0 012.929.116v-3.219a19.672 19.672 0 01-2.929.145h-8.9a19.672 19.672 0 01-2.929-.145zm13.485 4.64a23.323 23.323 0 01.116-2.7 26.174 26.174 0 01-2.929.116H545.3a25.52 25.52 0 01-2.929-.116 24.307 24.307 0 01.116 2.7v4.089a23.536 23.536 0 01-.116 2.639 25.092 25.092 0 012.755-.116h7.424a25.433 25.433 0 012.755.116 17.59 17.59 0 01-.116-2.639zm-9.715.261h6.67v3.48h-6.67zm2.67 11.832a26.406 26.406 0 00-2.523-5.162l-2.697 1.189a21.665 21.665 0 012.407 5.162z" fill="#1c1c1c"/><path data-name="パス 422" d="M631 736.516a14.413 14.413 0 01-.176 1.684 11.22 11.22 0 01-3.8 6.612 13.684 13.684 0 01-4.494 2.666 10.292 10.292 0 012.117 2.842 16.8 16.8 0 007.366-6.38 15.43 15.43 0 002.262-7.424h5.568v1.684c0 3.016-.464 6.844-.9 7.714-.261.435-.58.551-1.653.551a23.84 23.84 0 01-3.509-.377 12.455 12.455 0 01.87 3.393c1.943.087 2.407.116 2.987.116 2.582.003 3.626-.408 4.262-1.684.727-1.537 1.22-6.119 1.22-12.122v-.991a29.572 29.572 0 003.6 3.045 13.5 13.5 0 012.2-3.132 22.489 22.489 0 01-8.033-8.41 10.839 10.839 0 01-1.131-2.523l-3.219 1.252a11.9 11.9 0 01.609 1.218 28.993 28.993 0 004.785 7.279c-.7.029-1.1.029-1.8.029h-10.67a14.988 14.988 0 01-1.508-.058 32.254 32.254 0 004.669-7.047 8.2 8.2 0 01.778-1.479l-3.48-1.247a9.015 9.015 0 01-1.16 2.929 22.359 22.359 0 01-7.627 8.323 10.082 10.082 0 012.233 2.842A28.829 28.829 0 00627 734.6v2.059a20.152 20.152 0 012.465-.145z" fill="#0044f2"/><path data-name="パス 420" d="M577.44 704.46h-7.194l-7 5.016v7.724l6.534-4.488V750h7.66zm36.96 32.208v-18.876c0-9.636-6.732-13.926-14.322-13.926s-14.322 4.29-14.322 13.992v18.81c0 9.438 6.732 13.926 14.322 13.926s14.322-4.488 14.322-13.926zm-7.656-18.414v17.952c0 4.884-2.574 7.722-6.666 7.722-4.158 0-6.732-2.838-6.732-7.722v-17.952c0-4.884 2.574-7.722 6.732-7.722 4.092 0 6.666 2.838 6.666 7.722z" fill="#0044f2"/><path data-name="パス 421" d="M507.83 742.826h.266a6.984 6.984 0 01.98.056v-1.232a6.373 6.373 0 01-.98.056h-.266v-.826h.28a6.731 6.731 0 01.98.056V739.7a6.61 6.61 0 01-.98.056h-.28v-.868h.378a9.3 9.3 0 011.176.056v-1.316a11.785 11.785 0 01-1.512.07h-2.226a10.342 10.342 0 01-1.568-.07 15.359 15.359 0 01.056 1.624v4.348a10.9 10.9 0 01-.056 1.386c.336-.028.742-.042 1.232-.042h2.814c0 .546-.014 1.022-.056 1.848a9.491 9.491 0 00-.434-1.526l-.6.182a9.05 9.05 0 01.49 1.974l.518-.252-.042.304c-.014.168-.028.28-.028.322-.084.77-.182.91-.672.91a5.158 5.158 0 01-1.066-.126 3.873 3.873 0 01.238 1.4c.364.028.518.028.77.028 1.2 0 1.638-.308 1.834-1.3a24.109 24.109 0 00.308-3.514c.028-1.176.028-1.176.056-1.47a7.553 7.553 0 01-1.148.056h-.462zm-1.246 0v.952h-1.092v-.952zm0-1.12h-1.092v-.826h1.092zm0-1.946h-1.092v-.868h1.092zm9.616 6.594a26.084 26.084 0 00-1.58-2.618c.294-.77.63-1.834.84-2.632a10.612 10.612 0 01.308-1.104l-1.428-.38a12.192 12.192 0 01-.64 2.772c-.476-.644-.532-.714-1.148-1.5-.1-.112-.238-.294-.42-.532l-.9.91v-2.1h3.682a9.549 9.549 0 011.414.084v-1.512a12.119 12.119 0 01-1.512.084h-3.808c-.588 0-.938-.014-1.26-.042a11.321 11.321 0 01.052 1.248v9.548a12.515 12.515 0 01-.084 1.554h1.512v-.644h3.724a11.047 11.047 0 011.488.084v-1.54a8.273 8.273 0 01-1.456.1h-3.752v-1.248a3.021 3.021 0 011.068 1.022 14.065 14.065 0 001.638-2.646 15.192 15.192 0 011.172 2.156zm-4.97-4.914c.714.882 1.148 1.47 1.834 2.478a11.84 11.84 0 01-1.834 2.926zm-7.1 3.92a11.573 11.573 0 01-.71 3.682l.994.448a14.732 14.732 0 00.686-3.92zm1.064.21a17.648 17.648 0 01.13 2.13c0 .42-.014.7-.042 1.288l.854-.14a23.21 23.21 0 00-.21-3.374zm.952-.056a12.863 12.863 0 01.35 2.87l.77-.21a16.587 16.587 0 00-.444-2.774zm16-3.262h.21c.168 0 .224 0 .63.028.364.014.882.028 1.274.028.7 0 1.428-.014 1.9-.056.014.462.014.588.014.882 0 2.072-.252 3.052-.98 3.934a5.768 5.768 0 01-2.132 1.526 5.515 5.515 0 011.358 1.316 9.106 9.106 0 001.526-1.064 5.247 5.247 0 001.6-2.716 13.89 13.89 0 00.294-3.346c0-.252 0-.378-.014-.672a9.89 9.89 0 001.354-.238 6.821 6.821 0 01.784-.14l-.1-1.666a7.7 7.7 0 01-2.084.532c-.028-.9-.056-1.428-.056-1.582-.028-.63-.028-.756-.028-.9a3.052 3.052 0 01.028-.476l-1.778.028a21.618 21.618 0 01.182 3.094c-.728.042-.952.056-1.484.056a12.473 12.473 0 01-2.492-.182zm-.9 1.806a14.445 14.445 0 00-.924 2.31c0-.224-.014-.308-.028-.532v-.252c-.014-.686-.014-.924-.014-1.078-.014-.224-.014-.392-.014-.434 0-.266.028-.672.1-1.6a18.859 18.859 0 01.364-2.758 13.525 13.525 0 01.406-1.708l-1.848-.182a6.161 6.161 0 01-.1 1.036 30.091 30.091 0 00-.508 5.31 20.145 20.145 0 00.5 4.55 2.282 2.282 0 01.1.532l1.624-.084a12.179 12.179 0 011.596-4.494zm11.098-1.638a5.107 5.107 0 011.12-.392 19.949 19.949 0 015.516-.994 3.648 3.648 0 011.806.378 2.05 2.05 0 011.064 1.82 3.087 3.087 0 01-.154.994 3.878 3.878 0 01-2.114 2.074 12.02 12.02 0 01-4.606.826 6.068 6.068 0 01.714 1.804 13.151 13.151 0 004.928-1.162 4.968 4.968 0 003.108-4.48c0-2.38-1.806-3.934-4.578-3.934a22.1 22.1 0 00-5.572.8 10.008 10.008 0 01-1.638.28zm17.808-.168h.21c.168 0 .224 0 .63.028.364.014.882.028 1.274.028.7 0 1.428-.014 1.9-.056.014.462.014.588.014.882 0 2.072-.252 3.052-.98 3.934a5.768 5.768 0 01-2.138 1.526 5.515 5.515 0 011.358 1.316 9.106 9.106 0 001.526-1.064 5.247 5.247 0 001.6-2.716 13.89 13.89 0 00.294-3.346c0-.252 0-.378-.014-.672a9.89 9.89 0 001.358-.238 6.821 6.821 0 01.784-.14l-.1-1.666a7.7 7.7 0 01-2.088.532c-.028-.9-.056-1.428-.056-1.582-.028-.63-.028-.756-.028-.9a3.052 3.052 0 01.028-.476l-1.778.028a21.618 21.618 0 01.182 3.094c-.728.042-.952.056-1.484.056a12.473 12.473 0 01-2.492-.182zm-.9 1.806a14.445 14.445 0 00-.924 2.31c0-.224-.014-.308-.028-.532v-.252c-.014-.686-.014-.924-.014-1.078-.014-.224-.014-.392-.014-.434 0-.266.028-.672.1-1.6a18.859 18.859 0 01.364-2.758 13.525 13.525 0 01.406-1.708l-1.842-.178a6.161 6.161 0 01-.1 1.036 30.091 30.091 0 00-.52 5.306 20.145 20.145 0 00.5 4.55 2.282 2.282 0 01.1.532l1.626-.084a12.179 12.179 0 011.6-4.494z" fill="#1c1c1c"/></g><g data-name="グループ 297"><g data-name="マスクグループ 62" clip-path="url(#a)" transform="translate(436 707)"><path data-name="パス 108" d="M25.33 0a25.708 25.708 0 015.028.477 22.669 22.669 0 014.675 1.471A4.744 4.744 0 0136.646 3.1a1.3 1.3 0 01.41 1.574 2.233 2.233 0 01-1.695.987 4.018 4.018 0 01-2.153-.079 19.18 19.18 0 00-3.816-1.2A20.579 20.579 0 0025.331 4a20.568 20.568 0 00-15.1 6.233A20.568 20.568 0 004 25.332a20.418 20.418 0 00.767 5.533A21.861 21.861 0 006.93 36h36.8a19.459 19.459 0 002.233-5.267 22.749 22.749 0 00.7-5.667 20.737 20.737 0 00-.377-3.875 17.613 17.613 0 00-1.186-3.818 2.8 2.8 0 01-.133-1.661 2.3 2.3 0 01.9-1.342 1.591 1.591 0 011.433-.27 1.62 1.62 0 011.1.943 24.341 24.341 0 011.687 4.946 25.614 25.614 0 01-.24 11.836 27.24 27.24 0 01-2.579 6.305 3.709 3.709 0 01-1.483 1.37 4.375 4.375 0 01-2.051.5h-36.8a4.164 4.164 0 01-2.013-.513 4.021 4.021 0 01-1.526-1.457 27.227 27.227 0 01-2.461-5.816A24.155 24.155 0 010 25.332a24.538 24.538 0 011.983-9.825A25.848 25.848 0 017.4 7.45 25.4 25.4 0 0115.458 2a24.685 24.685 0 019.872-2" fill="#1c1c1c"/><path data-name="パス 109" d="M21.607 28.923a4.728 4.728 0 003.659 1.349 3.85 3.85 0 003.285-1.615l10.755-15.579a1.216 1.216 0 00-1.7-1.7L22.01 22.113a3.893 3.893 0 00-1.695 3.218 4.478 4.478 0 001.292 3.592" fill="#fc4076"/></g></g></g><g data-name="グループ 264"><g data-name="グループ 264"><path data-name="パス 426" d="M228.282 717.336a4.408 4.408 0 01-2.09 3.1 10.992 10.992 0 01-4.292 1.454 6.9 6.9 0 011.276 2.156 11.25 11.25 0 005.588-2.64 6.747 6.747 0 002.09-4.07h1.98v4.29c0 1.65.66 1.958 4.312 1.958 2.486 0 3.432-.176 4.048-.748.55-.528.77-1.342.99-3.784a9.112 9.112 0 01-2.266-.924 6.986 6.986 0 01-.4 2.816c-.264.374-.7.462-2.4.462-1.716 0-1.914-.066-1.914-.682v-3.388h1.896c.9 0 1.76.022 2.332.066a16.418 16.418 0 01-.11-2.332v-8.03a26.18 26.18 0 01.11-2.75 16.994 16.994 0 01-2.332.11h-10.138a16.84 16.84 0 01-2.31-.11 26.8 26.8 0 01.11 2.75v8.03a17 17 0 01-.11 2.332c.572-.044 1.32-.066 2.376-.066zm-1.21-10.736h9.922v1.43h-9.922zm0 3.5h9.922v1.474h-9.922zm0 3.542h9.922v1.558h-9.922zm23.738-2.07a14.155 14.155 0 012.046-.11h9.152a14.155 14.155 0 012.046.11v-2a13.086 13.086 0 01-2.046.11h-3.652v-.77h2.772c.946 0 1.3.022 1.826.066v-1.718a13.542 13.542 0 01-1.848.088h-2.75v-.748h3.19a12.554 12.554 0 011.958.11v-1.936a14.96 14.96 0 01-2.134.132h-3.014a6.057 6.057 0 01.132-1.43H256a5.26 5.26 0 01.132 1.43h-2.6a14.063 14.063 0 01-2.09-.11v1.914a12.086 12.086 0 011.942-.11h2.75v.748h-2.464a13.088 13.088 0 01-1.782-.088v1.716c.528-.044.88-.066 1.782-.066h2.464v.77h-3.278a17.8 17.8 0 01-1.8-.066v-.726a8.317 8.317 0 01-1.452.088h-.528v-2.838a19.58 19.58 0 001.914-.682c.2-.066.242-.088.374-.132l-1.276-1.936a4.305 4.305 0 01-.9.44 19.351 19.351 0 01-5.258 1.3 8.363 8.363 0 01.836 2.046c1.1-.2 1.43-.264 2.09-.44v2.244h-1.04a9.575 9.575 0 01-1.738-.11v2.332a9.235 9.235 0 011.672-.11h.924a16.142 16.142 0 01-.836 2.44 12.2 12.2 0 01-2.222 3.67 9.466 9.466 0 011.232 2.072A13.592 13.592 0 00247 714.85a40.379 40.379 0 00-.154 3.278v3.1a20.963 20.963 0 01-.128 2.572h2.482a15.179 15.179 0 01-.132-2.6v-4.7c-.066-1.87-.066-1.87-.132-2.618a11.194 11.194 0 001.672 2.64 7.035 7.035 0 011.056-1.76 8.433 8.433 0 01-1.844-2.262 6.435 6.435 0 01-.682-1.408h.418a10.537 10.537 0 011.254.066zm3.476 8.928a12.057 12.057 0 01-4.334 1.522 8.859 8.859 0 011.148 1.936 12.911 12.911 0 005.1-2.398l-1.012-1.06h4.026l-.924 1.06a13.885 13.885 0 005.1 2.4 7.443 7.443 0 011.21-2.048 15.965 15.965 0 01-4.374-1.412h.748c.7 0 1.254.022 1.848.066a14.255 14.255 0 01-.088-2v-4.574a13.53 13.53 0 01.088-1.958 13.39 13.39 0 01-1.892.066h-7.26c-.924 0-1.32 0-1.826-.044a12.848 12.848 0 01.066 1.844v4.69a16.712 16.712 0 01-.088 1.98c.484-.044.484-.044 1.892-.066zm-.2-6.732h6.448v.732h-6.446zm0 2.134h6.448v.726h-6.446zm0 2.112h6.448v.77h-6.446zm15.93-14.142a5.171 5.171 0 01-.066.748l-.33 2.728c-.176 1.518-.308 3.96-.308 5.742 0 .44.044 2.068.066 2.706v.418a1.71 1.71 0 01-.022.286l2.644-.044v-.462a10.548 10.548 0 012.772-7.106 3.274 3.274 0 012.376-1.166c1.892 0 2.948 1.76 2.948 4.928 0 3.344-1.166 5.434-3.718 6.732a12.842 12.842 0 01-4.818 1.254 8.415 8.415 0 011.3 2.6 18.762 18.762 0 004.306-1.236 9.247 9.247 0 005.676-9.042 9.213 9.213 0 00-1.584-5.852 4.607 4.607 0 00-3.762-1.98 5.252 5.252 0 00-4.18 2.244 8.894 8.894 0 00-1.386 2.618 4.831 4.831 0 01-.132.484h-.066c.044-.528.132-1.276.286-2.2a21.581 21.581 0 01.792-4.246z" fill="#1c1c1c"/><path data-name="パス 425" d="M228.81 733.658c.506 0 .88.022 1.386.066v-2.332a6.521 6.521 0 01-1.408.11h-1.254v-1.8a14.85 14.85 0 01.132-2.266h-2.6a14.207 14.207 0 01.134 2.284v1.78h-1.364a7.779 7.779 0 01-1.628-.11v2.354a10.777 10.777 0 011.606-.088h1.078a18.384 18.384 0 01-3.366 6.864 8.425 8.425 0 011.21 2.4 12.986 12.986 0 001.3-2.244 18.251 18.251 0 001.32-3.344c-.088.77-.154 2.332-.154 3.3v4.532a22.324 22.324 0 01-.132 2.706h2.6a22.074 22.074 0 01-.132-2.706v-5.654c0-1.21-.022-1.738-.088-3.014a14.391 14.391 0 002.09 3.7 6.725 6.725 0 01.88-1.87c.066-.088.154-.242.264-.418a11.605 11.605 0 01-2.948-4.246zm4.422 14.124v-1.298h5.522v1.254h2.508a30.17 30.17 0 01-.11-2.794v-14.5c0-1.012.022-1.606.066-2.244a13.053 13.053 0 01-1.892.088h-6.6c-.946 0-1.364-.022-1.958-.066.066 1.056.088 1.584.088 2.332v14.41c0 1.078-.044 2-.11 2.816zm0-17.248h5.522v3.124h-5.522zm0 5.214h5.522v3.1h-5.522zm0 5.192h5.522v3.344h-5.522zm23.21-4.44a11.492 11.492 0 01.066 1.36c0 2.574-.484 4.29-1.628 5.61a7.783 7.783 0 01-3.74 2.354v-3.7a13.137 13.137 0 01.066-1.584 6.718 6.718 0 01-1.32.066H246.1a8.934 8.934 0 01-1.474-.088 14.2 14.2 0 01.088 1.716v3.366c0 .7-.044 1.474-.11 2.156h2.266v-1.14h2.18v.9h2.2a18.813 18.813 0 01-.088-1.516 9.966 9.966 0 011.056 2c3.036-1.252 4.642-2.858 5.566-5.5a11.105 11.105 0 005.478 5.458 8.65 8.65 0 011.254-2.332 9.746 9.746 0 01-4.18-2.882 7.469 7.469 0 01-1.518-5.016 7.213 7.213 0 01.088-1.228zm-9.636 5.9h2.288v2.332h-2.288zm-2.068-12.21c.528-.044.99-.066 1.782-.066h2.816c.792 0 1.188.022 1.782.066v-2.12a9.518 9.518 0 01-1.782.11h-2.816a9.376 9.376 0 01-1.782-.11zm-.858 3.256a13.148 13.148 0 011.76-.088h4.4a10.113 10.113 0 011.672.088v-2.266a11.949 11.949 0 01-1.76.088h-4.312a9.691 9.691 0 01-1.76-.11zm.858 3.054a11.142 11.142 0 011.386-.07h3.608a10.989 10.989 0 011.368.07v-2.05a10.054 10.054 0 01-1.364.066h-3.612a11.142 11.142 0 01-1.386-.066zm0 3.058a11.142 11.142 0 011.386-.066h3.586a10.9 10.9 0 011.39.062v-2.046a10.054 10.054 0 01-1.364.066h-3.612a11.141 11.141 0 01-1.386-.066zm8.448-10.872a8.073 8.073 0 01-1.342 3.5l2.068.836a12.713 12.713 0 001.452-3.806zm8.558-.264a11.031 11.031 0 01-2.178 3.5 6.607 6.607 0 011.87 1.122 17.53 17.53 0 002.442-3.784zm-8.668 9.812a8.5 8.5 0 01-1.476 3.608l2.046.924a13.21 13.21 0 001.564-3.872zm8.646-.22a11.272 11.272 0 01-2 3.432 7 7 0 011.846 1.144 16.2 16.2 0 002.266-3.718zm-5.236-10.34a11.253 11.253 0 01.066 1.232 7.609 7.609 0 01-.968 4.224 7.089 7.089 0 01-4.268 3.014 7.137 7.137 0 011.276 1.98 9.818 9.818 0 003.652-2.486 8.27 8.27 0 001.518-2.552 8.369 8.369 0 001.538 2.354 11.046 11.046 0 003.74 2.684 8.923 8.923 0 011.21-2.178 9.15 9.15 0 01-2.794-1.364 6.246 6.246 0 01-2.066-2.482 8.53 8.53 0 01-.55-3.168 8.2 8.2 0 01.088-1.254zm18.458 16.5c.484-.154 1.122-.33 2.09-.55l4.666-1.056v2.662a15.951 15.951 0 01-.132 2.618h2.662a16.132 16.132 0 01-.132-2.6v-3.208l.218-.04a16.07 16.07 0 012.112-.4l-.462-2.508a13.417 13.417 0 01-1.87.55v-9.548a15.549 15.549 0 01.132-2.53h-2.662a15.056 15.056 0 01.132 2.552v10.054l-5.148 1.144a14.733 14.733 0 01-2.024.308 12.828 12.828 0 01.616-1.232 11.683 11.683 0 01-2.842-3.366h.8a12.8 12.8 0 011.738.088v-2.288a11.141 11.141 0 01-1.694.088h-1.038v-5.236a13.135 13.135 0 01.11-2.134h-2.508a13.612 13.612 0 01.11 2.156v5.214h-1.474a10.925 10.925 0 01-1.98-.11v2.332a11.383 11.383 0 011.98-.11h1.144a18.55 18.55 0 01-1.166 2.486 14.466 14.466 0 01-2.376 3.256 6.627 6.627 0 011.122 2.266 15.2 15.2 0 002.86-4.95c-.044.726-.088 1.76-.088 2.64v2.838a14.246 14.246 0 01-.154 2.332h2.552a13.013 13.013 0 01-.132-2.292v-3.63c0-.7-.022-1.012-.132-2.508a16.276 16.276 0 002.222 3.1c.11-.352.132-.462.242-.748zm-8.734-14.586a17.752 17.752 0 011.364 4.712l1.848-.792a26.758 26.758 0 00-1.342-4.752zm7.568-.88a18.3 18.3 0 01-1.518 4.752l1.606.836a26.623 26.623 0 001.76-4.774zm2.09 2a18.585 18.585 0 013.894 3.392l1.5-1.848a21.369 21.369 0 00-3.85-3.234zm-.682 5.434a19.243 19.243 0 013.872 3.388l1.5-1.782a20.074 20.074 0 00-3.828-3.234z" fill="#1c1c1c"/><path data-name="パス 428" d="M332.387 736.01h17.255v7.076c0 .7-.174.783-1.305.783-1.044 0-2.494-.116-4.408-.319a11.159 11.159 0 01.9 3.132c1.131.058 2.726.116 3.857.116a7.133 7.133 0 003.045-.406c.841-.435 1.189-1.247 1.189-2.726v-18.589a28.54 28.54 0 01.116-3.161 26.585 26.585 0 01-3.161.116h-17.633a31.155 31.155 0 01-3.219-.116 24.985 24.985 0 01.116 2.784v18.966a27.547 27.547 0 01-.174 3.48h3.567a21.317 21.317 0 01-.145-3.364zm6.873-3.045h-6.873v-7.859h6.873zm3.132 0v-7.859h7.25v7.859z" fill="#0044f2"/><path data-name="パス 427" d="M322.548 735.668v-18.876c0-9.636-6.732-13.926-14.322-13.926s-14.326 4.29-14.326 13.992v18.81c0 9.438 6.736 13.926 14.326 13.926s14.322-4.488 14.322-13.926zm-7.656-18.414v17.952c0 4.884-2.574 7.722-6.666 7.722-4.158 0-6.732-2.838-6.732-7.722v-17.952c0-4.884 2.574-7.722 6.732-7.722 4.092 0 6.666 2.838 6.666 7.722z" fill="#0044f2"/></g><g data-name="グループ 296"><g data-name="マスクグループ 63" clip-path="url(#b)" transform="translate(151 698)"><path data-name="パス 106" d="M25.931 16.2l6.881 6.676a4.67 4.67 0 001.512.94 4.705 4.705 0 004.879-.939L46.12 16.2a17.268 17.268 0 003.053-3.924A9.369 9.369 0 0050.4 7.569a7.3 7.3 0 00-2.208-5.36A7.3 7.3 0 0042.83 0a7.551 7.551 0 00-3.807 1 10.834 10.834 0 00-3.017 2.531A10.871 10.871 0 0032.987 1a7.553 7.553 0 00-3.806-1 7.3 7.3 0 00-5.359 2.21 7.3 7.3 0 00-2.208 5.36 9.252 9.252 0 001.246 4.708 17.793 17.793 0 003.071 3.922m.593-11.293a3.615 3.615 0 012.66-1.089 4.063 4.063 0 012.216.632 7.024 7.024 0 011.772 1.6l1.137 1.371a2.131 2.131 0 001.707.793 2.105 2.105 0 001.7-.793l1.131-1.371a7.075 7.075 0 011.772-1.6 4.072 4.072 0 012.214-.631 3.72 3.72 0 013.75 3.749 5.692 5.692 0 01-1.007 3.271 17.989 17.989 0 01-2.289 2.737l-6.74 6.54a.769.769 0 01-1.077 0l-6.741-6.54a18.106 18.106 0 01-2.289-2.737 5.691 5.691 0 01-1.006-3.271 3.613 3.613 0 011.09-2.66" fill="#fc4076"/><path data-name="パス 107" d="M44.205 35.836h-6.364a6.461 6.461 0 00-1.146-3.821 6.043 6.043 0 00-2.877-2.269l-14.833-5.464a7.256 7.256 0 00-.765-.206 3.879 3.879 0 00-.81-.088H4.6a4.432 4.432 0 00-3.25 1.352A4.432 4.432 0 000 28.59v15.176a4.432 4.432 0 001.352 3.25A4.432 4.432 0 004.6 48.368h3.528a4.788 4.788 0 002.83-.957 4.5 4.5 0 001.771-2.538l17.261 4.949a4.542 4.542 0 002.657-.039l15.445-4.793a3.842 3.842 0 001.734-1.048A2.571 2.571 0 0050.4 42.2a6.3 6.3 0 00-1.725-4.594 5.967 5.967 0 00-4.468-1.77m-35.3 7.93a.741.741 0 01-.219.6.859.859 0 01-.564.183H4.6a.753.753 0 01-.784-.783V28.591a.755.755 0 01.783-.784H8.91zm22.514 2.316a.521.521 0 01-.441 0l-18.251-5.159V27.8h4.71a.662.662 0 01.134.013 1.032 1.032 0 01.135.036l14.77 5.424a2.114 2.114 0 011.12.925 3.022 3.022 0 01.426 1.63h-.681q-2.275-.039-3.7-.193a13.248 13.248 0 01-2.586-.521l-3.309-1.16a1.887 1.887 0 00-1.476.11 1.824 1.824 0 00-.947 1.116 2 2 0 00.092 1.5 1.752 1.752 0 001.108.979l3.993 1.307a10.75 10.75 0 002.394.558 26.522 26.522 0 002.832.127h12.462a2.237 2.237 0 011.385.463 2.2 2.2 0 01.808 1.329z" fill="#1c1c1c"/></g></g></g><path data-name="線 1" fill="none" stroke="#1c1c1c" d="M398.5 709.5v32"/><path data-name="線 2" fill="none" stroke="#1c1c1c" d="M684 709.5v32"/><path data-name="線 3" fill="none" stroke="#1c1c1c" d="M969 709.5v32"/><g data-name="グループ 267"><path data-name="パス 430" d="M804.006 719.139c0 1.827.861 2.247 4.7 2.247 4.893 0 5.229-.336 5.691-5.859a8.386 8.386 0 01-2.226-.8 10.929 10.929 0 01-.5 3.969c-.252.441-.966.588-2.835.588-1.995.002-2.536-.145-2.536-.67v-1.47a23.189 23.189 0 003.166-3.024 35.552 35.552 0 005.271-7.98c.567-1.176.567-1.176.819-1.617l-2.415-.966a19.028 19.028 0 01-2.352 5.1 30.14 30.14 0 01-4.489 5.505v-5.187a16.028 16.028 0 01.121-2.075h-2.541a15.551 15.551 0 01.126 2.142v7.056a26.838 26.838 0 01-5.376 3.125 7.272 7.272 0 011.57 1.995 26.974 26.974 0 003.8-2.31zM803.8 704a24.646 24.646 0 016.153 3.213l1.382-2.013a32.069 32.069 0 00-6.132-3zm-3.2 4.786a23.637 23.637 0 01-2.012 7.287l2.184 1.092a30.668 30.668 0 002.058-7.959zm12.541 1.239a31.362 31.362 0 013.066 8.085l2.226-1.2a42.931 42.931 0 00-3.234-7.9zm16.695-6.783a6.32 6.32 0 01.105 1.239l.021 1.323c-2.373.063-4.074.105-5.082.126-2.709.105-3.045.105-3.57.105a9.145 9.145 0 01-1.029-.042l.084 2.52a38.313 38.313 0 014.284-.357q1.543-.094 5.355-.189c0 .63 0 1.218.021 1.785v.126a.369.369 0 00.021.126 3.467 3.467 0 00-2.184-.63 3.859 3.859 0 00-4.162 3.826 3.281 3.281 0 001.449 2.835 3.81 3.81 0 002.415.756 3.459 3.459 0 003.091-1.491c-.336 2.1-2.583 3.7-6.006 4.284a7.453 7.453 0 011.491 2.369 15.561 15.561 0 003.8-1.7 6.746 6.746 0 003.13-5.692 6.391 6.391 0 00-.67-2.961v-3.675c2.163-.021 2.163-.021 2.562-.021 1.617 0 2.751.042 3.507.105l-.021-2.415a19.8 19.8 0 01-2.016.084c-.462 0-.5 0-.945.021l1.323-.609a13.473 13.473 0 00-1.934-3.09l-1.512.672a12.74 12.74 0 011.911 3.028c-1.008.021-1.974.021-2.9.021a16.774 16.774 0 01.105-2.478zm-1.617 8.064a2.1 2.1 0 011.365.5 1.165 1.165 0 01.4.945 1.919 1.919 0 01-2.037 1.89 1.665 1.665 0 01-1.785-1.638 1.838 1.838 0 012.057-1.697zm11.592-6.825a13.408 13.408 0 00-1.932-2.9l-1.407.651a14.445 14.445 0 011.869 3zm9.389 9.345h-6.071a14.407 14.407 0 01-2.268-.105v1.995a15.04 15.04 0 012.31-.105h6.029v.9h-5.021a15.252 15.252 0 01-2-.084v1.953a14.314 14.314 0 012.079-.105h4.942v1.011c0 .378-.168.483-.819.483a23.815 23.815 0 01-2.669-.189 5.977 5.977 0 01.651 2.079 38.66 38.66 0 002.016.084c2.562 0 3.087-.4 3.087-2.289v-1.176h4.641v.822h2.352a15.789 15.789 0 01-.1-2.268v-1.221a12.477 12.477 0 011.827.105v-1.995a11.865 11.865 0 01-1.827.105v-.735a14.21 14.21 0 01.063-1.911c-.588.042-1.008.063-2.247.063h-4.7v-.8h4.825c.672 0 1.218.021 1.68.063a13.27 13.27 0 01-.063-1.407v-1.386a14.3 14.3 0 01.063-1.47c-.5.042-.966.063-1.764.063h-4.75v-.8h6.027a20.251 20.251 0 012.457.126v-2.079a19.7 19.7 0 01-2.583.126h-5.9a5.933 5.933 0 01.147-1.428h-2.542a7.76 7.76 0 01.126 1.428h-5.628a19.479 19.479 0 01-2.583-.126v2.079a20.251 20.251 0 012.457-.126h5.756v.8h-4.433c-.8 0-1.239-.021-1.785-.063.042.5.063.882.063 1.47v1.387c0 .525-.021.966-.063 1.407a19.825 19.825 0 011.764-.063h4.454v.8h-4.937a15.717 15.717 0 01-1.974-.084v1.827a17.442 17.442 0 011.932-.087h4.979zm2.268 0v-.926h4.641v.924zm0 1.785h4.641v.9h-4.643zm-2.268-7.665v.861h-3.929v-.861zm2.268 0h4.221v.861h-4.223zm12.915-2.919a14.121 14.121 0 01-2.247-.126v2.268a13.365 13.365 0 012.247-.126h14.257a12.787 12.787 0 012.247.126V704.9a15.245 15.245 0 01-2.247.126h-3.234a20.984 20.984 0 001.68-2.289l-2.373-.651a11.013 11.013 0 01-1.848 2.94h-2.835a17.761 17.761 0 00-1.953-2.961l-2.268.651a13.136 13.136 0 011.7 2.31zm1.092 12.2h3.444v1.786c0 .378-.105.462-.609.462a12.447 12.447 0 01-1.47-.126 8.206 8.206 0 01.5 2.058c.756.021 1.008.021 1.323.021 1.953 0 2.415-.4 2.415-2.016v-9.03c0-1.113.021-1.6.063-2.1a12.181 12.181 0 01-1.869.084H865.2a18.007 18.007 0 01-1.974-.084c.042.525.063.861.063 1.89v9.051a18.607 18.607 0 01-.105 2.394h2.416a12.646 12.646 0 01-.127-2.247zm0-1.974v-1.47h3.444v1.47zm0-3.444v-1.469h3.444v1.47zm7.5-3.15a12.622 12.622 0 01.1 1.974v4.537a18.425 18.425 0 01-.084 2.247h2.373a17.948 17.948 0 01-.084-2.268v-4.494a11.959 11.959 0 01.105-1.995zm4.431-.567a13.524 13.524 0 01.1 2.163v8.526c0 .588-.1.672-.966.672a17.926 17.926 0 01-2.562-.231 7.454 7.454 0 01.651 2.226c1.323.063 1.764.084 2.268.084 1.344 0 1.911-.147 2.352-.567a2.45 2.45 0 00.483-1.805v-8.841a12.383 12.383 0 01.126-2.226zm10.138 12.408c-.021-.273-.021-.441-.021-.567a17.24 17.24 0 011.869-6.363l-1.68-.756a21.416 21.416 0 00-1.092 2.776c.021-.525.042-.693.042-1.155a35.062 35.062 0 01.315-4.641 28.952 28.952 0 011.323-6.279l-2.772-.294a13.741 13.741 0 01-.315 1.953 40.315 40.315 0 00-.861 8.211 36.629 36.629 0 00.548 6.279c.063.483.084.609.1.987zm2.9-12.579a24.929 24.929 0 003.78.231 37.616 37.616 0 004.494-.252c1.008-.126 1.323-.168 1.491-.189l-.126-2.541a23.158 23.158 0 01-5.712.567 15.141 15.141 0 01-3.885-.336zm1.447 3.469a6.86 6.86 0 00-1.932 4.326 3.518 3.518 0 00.63 2.058c.924 1.239 2.604 1.826 5.211 1.826a25.9 25.9 0 004.347-.4 7.019 7.019 0 01.853-.124l-.21-2.667a14.758 14.758 0 01-5 .8c-2.184 0-3.339-.63-3.339-1.827a4.75 4.75 0 011.491-3.024z" fill="#1c1c1c"/><path data-name="パス 431" d="M808.151 741.738a17.282 17.282 0 015.184-.891c2.889 0 4.779 1.512 4.779 3.834a2.774 2.774 0 01-2.727 3 1.867 1.867 0 01-1.7-.918 5.2 5.2 0 01-.378-2.376 9.362 9.362 0 01.053-1.187 11.39 11.39 0 01-3 1.188 9.02 9.02 0 00.459 3.456 4.359 4.359 0 004.428 3 6 6 0 006.129-6.156c0-3.834-3.213-6.588-7.722-6.588a18.723 18.723 0 00-5.508.756v-3.51a28.275 28.275 0 002.457-.351c1.863-.324 2.376-.4 2.862-.486l-.108-3.024a30.112 30.112 0 01-5.208 1.015v-1.728a16.577 16.577 0 01.162-2.943h-3.375a18.5 18.5 0 01.162 3.109v1.782c-.3 0-.432 0-1.08.027-.378.027-.675.027-.945.027a16.559 16.559 0 01-3.267-.243l.027 3.024a5.062 5.062 0 01.567-.027c.081 0 .324 0 .675.027.324 0 1.08.027 1.485.027.675 0 1.053 0 1.458-.027.891-.054.891-.054 1.107-.054l.027 4.158a14.444 14.444 0 00-3.942 2.295 5.762 5.762 0 00-2.322 4 3.966 3.966 0 001.485 3.046 8.41 8.41 0 005.103 1.918 2.372 2.372 0 002.484-1.566 8.04 8.04 0 00.216-2.295zm-3.024 4.914c0 .891-.135 1.134-.594 1.134a3.246 3.246 0 01-1.728-.594c-.621-.378-.891-.783-.891-1.242 0-.972 1.188-2.16 3.213-3.24zm17.442-11.394a22.9 22.9 0 00-5.346-5.535l-2.538 1.7a23.056 23.056 0 015.4 5.832zm10.368 9.018a5.409 5.409 0 01-2.565 3.807 13.49 13.49 0 01-5.265 1.782 8.472 8.472 0 011.566 2.646 13.807 13.807 0 006.858-3.24 8.28 8.28 0 002.569-4.995h2.43v5.265c0 2.025.81 2.4 5.292 2.4 3.051 0 4.212-.216 4.968-.918.671-.645.941-1.644 1.21-4.641a11.183 11.183 0 01-2.78-1.134c-.081 2.052-.22 3.078-.486 3.452-.324.459-.864.567-2.943.567-2.106 0-2.349-.081-2.349-.837v-4.154h2.322c1.107 0 2.16.027 2.862.081a20.149 20.149 0 01-.135-2.862v-9.855a32.131 32.131 0 01.135-3.375 20.857 20.857 0 01-2.862.135h-12.447a20.667 20.667 0 01-2.835-.135 32.894 32.894 0 01.135 3.375v9.855a20.857 20.857 0 01-.135 2.862c.7-.054 1.62-.081 2.916-.081zm-1.485-13.176h12.177v1.755h-12.177zm0 4.293h12.177v1.807h-12.177zm0 4.347h12.177v1.917h-12.177zm29.133-2.54a17.372 17.372 0 012.511-.135h11.232a17.372 17.372 0 012.511.135v-2.457a16.06 16.06 0 01-2.511.135h-4.482v-.945h3.4c1.161 0 1.593.027 2.241.081v-2.104a16.62 16.62 0 01-2.268.108h-3.373v-.918h3.915a15.407 15.407 0 012.4.135v-2.376a18.36 18.36 0 01-2.619.162h-3.7a7.434 7.434 0 01.162-1.755h-3.047a6.455 6.455 0 01.162 1.755h-3.186a17.26 17.26 0 01-2.565-.135v2.349a14.833 14.833 0 012.376-.135h3.375v.918H864.1a16.063 16.063 0 01-2.187-.108v2.106c.648-.054 1.08-.081 2.187-.081h3.024v.945H863.1a21.841 21.841 0 01-2.214-.081v-.891a10.208 10.208 0 01-1.782.108h-.648v-3.483a24.031 24.031 0 002.344-.833c.243-.081.3-.108.459-.162l-1.566-2.376a5.283 5.283 0 01-1.107.54 23.748 23.748 0 01-6.453 1.593 10.264 10.264 0 011.027 2.505c1.35-.243 1.755-.324 2.565-.54v2.754h-1.269a11.751 11.751 0 01-2.133-.135v2.862a11.334 11.334 0 012.052-.135h1.134a19.811 19.811 0 01-1.026 3 14.968 14.968 0 01-2.727 4.509 11.617 11.617 0 011.512 2.538 16.681 16.681 0 002.646-5.427c-.108 1.3-.189 2.7-.189 4.023v3.806a25.727 25.727 0 01-.162 3.159h3.051a18.629 18.629 0 01-.162-3.186v-5.778c-.081-2.3-.081-2.3-.162-3.213a13.738 13.738 0 002.052 3.24 8.634 8.634 0 011.3-2.16 10.35 10.35 0 01-2.268-2.781 7.9 7.9 0 01-.837-1.728h.513a12.932 12.932 0 011.539.081zm4.266 10.964a14.8 14.8 0 01-5.319 1.863 10.873 10.873 0 011.4 2.376 15.845 15.845 0 006.268-2.943l-1.242-1.3h4.942l-1.135 1.3a17.041 17.041 0 006.264 2.94 9.134 9.134 0 011.485-2.508 19.593 19.593 0 01-5.373-1.728h.918c.864 0 1.539.027 2.268.081a17.5 17.5 0 01-.108-2.457v-5.616a16.606 16.606 0 01.108-2.4 16.434 16.434 0 01-2.327.078h-8.9c-1.134 0-1.62 0-2.241-.054a15.769 15.769 0 01.081 2.268v5.751a20.51 20.51 0 01-.108 2.43c.594-.054.594-.054 2.322-.081zm-.243-8.264h7.911v.891h-7.911zm0 2.619h7.911v.891h-7.911zm0 2.592h7.911v.945h-7.911zm19.548-17.359a6.346 6.346 0 01-.081.918l-.4 3.348c-.216 1.863-.378 4.86-.378 7.047 0 .54.054 2.538.081 3.321v.514a2.1 2.1 0 01-.027.351l3.24-.054v-.567a12.945 12.945 0 013.4-8.721 4.019 4.019 0 012.909-1.432c2.322 0 3.618 2.16 3.618 6.048 0 4.1-1.431 6.669-4.563 8.262a15.761 15.761 0 01-5.913 1.539 10.328 10.328 0 011.593 3.186 23.026 23.026 0 005.296-1.512c4.536-2 6.966-5.886 6.966-11.1 0-3.186-.594-5.373-1.944-7.182a5.654 5.654 0 00-4.617-2.43 6.445 6.445 0 00-5.13 2.754 10.915 10.915 0 00-1.7 3.213 5.926 5.926 0 01-.162.594h-.081c.054-.648.162-1.566.351-2.7a26.485 26.485 0 01.972-5.211z" fill="#0044f2"/></g><path data-name="パス 436" d="M1093.58 748.892a46.326 46.326 0 00-3.888-7.641l-2.322 1.269a28.191 28.191 0 011.377 2.48c-1.161.378-2.484.729-4.32 1.134v-5.612h5.913c.945 0 1.458.027 2.214.081a26.848 26.848 0 01-.081-2.322v-8.424a19.178 19.178 0 01.081-2.457 20.484 20.484 0 01-2.538.108h-5.994a21.336 21.336 0 01-2.538-.108 27.766 27.766 0 01.108 2.781v16.5a12.633 12.633 0 01-1.755.189l.675 3.13c.378-.082.488-.136.81-.19a80.205 80.205 0 008.559-2.322c.378.945.567 1.431 1.08 2.916zm-9.153-16.092v-2.646h5.211v2.646zm0 2.484h5.211v2.727h-5.211zm19.656-5.4a20.918 20.918 0 01.108-2.484 22.67 22.67 0 01-2.43.108h-5a24.03 24.03 0 01-2.43-.108c.054.675.081 1.323.081 2.511v18.36a28.385 28.385 0 01-.135 3.186h3.132a21.986 21.986 0 01-.162-3.186v-18.063h4v13.9c0 .621-.162.756-1.053.756a17.524 17.524 0 01-2.349-.216 8.752 8.752 0 01.621 3c.648.027 1.35.054 1.89.054 2.808 0 3.726-.729 3.726-2.943zm8.208.594h-2.457a19.451 19.451 0 01-2.673-.162v2.943a17.371 17.371 0 012.511-.135h4.995a26.181 26.181 0 01-1.053 5.724c-1.026-1.188-1.485-1.7-1.7-1.917-1.593-1.647-1.593-1.647-2.133-2.187l-1.971 2a49.12 49.12 0 014.59 4.966 18.739 18.739 0 01-5.536 6.615 9.663 9.663 0 012.052 2.511 26.535 26.535 0 005.373-6.669 38.78 38.78 0 013.1 4.671l2.133-2.376c-1.917-2.7-2.133-3-3.834-5.157a27.658 27.658 0 001.836-8.181 20.146 20.146 0 012.106.081v-2.889a14.419 14.419 0 01-2.592.162h-1.912v-1.512a21.427 21.427 0 01.135-2.538h-3.132a12.787 12.787 0 01.162 2.538zm13.932 4.1v12.883c0 .567-.162.648-1.62.648a27.126 27.126 0 01-3.267-.324 8.947 8.947 0 01.837 3 41.39 41.39 0 003.186.108c1.782 0 2.754-.27 3.267-.918.4-.486.486-.945.486-2.349v-13.044h.351a15.692 15.692 0 011.89.081c.4.054.4.054.621.081v-3.024a15.482 15.482 0 01-2.538.162h-.324v-2.133a24.313 24.313 0 01.162-3.213h-3.24a18.114 18.114 0 01.189 3.213v2.133h-3.429a16.4 16.4 0 01-2.565-.135v2.97a16.824 16.824 0 012.565-.135zm-7.371 3a24.07 24.07 0 013.78 6.534l2.457-1.62a33.906 33.906 0 00-3.807-6.237zm27.648-5.993l-2.079 1.836a25.977 25.977 0 016.858 4.941l2.079-2.3a34.388 34.388 0 00-6.75-4.482h8.937a26.129 26.129 0 013.159.135v-3a23.034 23.034 0 01-3.186.162h-6.993v-1.161a6.1 6.1 0 01.135-1.566h-3.267a6.951 6.951 0 01.135 1.539v1.188h-6.885a21.715 21.715 0 01-2.808-.135c.081.918.108 1.836.108 3.78a75.743 75.743 0 01-.567 11.421 13.118 13.118 0 01-1.755 4.7 10.358 10.358 0 012.43 2.322c2.268-4.212 2.754-7.641 2.781-19.386zm-5.157 17.604a35.27 35.27 0 002.133-10.665l-2.808-.724a33.625 33.625 0 01-.594 5.211 16.355 16.355 0 01-1.458 4.428zm3.348-12.989a12.02 12.02 0 01.162 2.511v10.154c0 1.62.945 2.025 4.7 2.025 2.3 0 3.4-.3 4-1.053s.837-2.106 1.053-5.8a11.789 11.789 0 01-2.862-.945c0 4.86-.027 4.968-2.16 4.968-1.62 0-1.836-.108-1.836-.837v-8.483a19.486 19.486 0 01.135-2.538zm14.445 11.126a48.489 48.489 0 00-3.429-9.666l-2.565 1.269a32.416 32.416 0 013.105 9.771z" fill="#0044f2"/><g data-name="グループ 268" fill="#1c1c1c"><path data-name="パス 432" d="M1093.741 717.106h-7.854l4.686-5.506c1.452-1.716 3.432-4.059 3.432-7.062 0-3.762-3.1-6.6-7.194-6.6-3.927 0-7.161 2.673-7.161 6.6h4.092a2.717 2.717 0 012.838-2.777 2.663 2.663 0 012.838 2.772c0 1.485-.693 2.871-2.112 4.521l-7.623 8.976V721h14.058zm8.514-18.876l-7.788 16.335v3.2h10.1V721h4.62v-3.234h2.079v-3.927h-2.081v-5.808h-4.62v5.808h-4.356l7.091-15.609z"/><path data-name="パス 434" d="M1132.855 711.2h1.685c2.343 0 3.5 1.188 3.5 3.2a2.849 2.849 0 01-2.97 3c-2.046 0-3.135-1.056-3.366-2.508h-4.061c.165 3.699 2.904 6.408 7.722 6.408 4.686 0 7.26-2.97 7.26-6.666a5.825 5.825 0 00-3.432-5.445 5.571 5.571 0 003.1-4.983c0-3.4-3.036-6.27-7.194-6.27-3.927 0-7 2.541-7.161 6.27h4.094a2.709 2.709 0 012.838-2.442 2.639 2.639 0 012.838 2.64c0 1.914-1.287 2.9-3.168 2.9h-1.685zm22.64-12.97h-4.95l-4.59 9.27c-1.284 2.61-2.076 4.722-2.076 6.5 0 5.053 3.432 7.3 7.689 7.3 4.224 0 7.623-2.277 7.623-7.326 0-3.927-2.739-6.8-6.237-6.8a4.907 4.907 0 00-2.211.429zm-7 15.939a2.88 2.88 0 013.069-3.2c1.98 0 3 1.32 3 3.2 0 1.914-1.023 3.234-3 3.234-2.042-.003-3.065-1.32-3.065-3.234zm19.272-4.884c1.848 0 2.64 1.419 2.64 4.191 0 2.673-.99 3.927-2.64 3.927a2.617 2.617 0 01-2.702-2.277h-4.554c.363 4.026 3.564 6.174 7.392 6.174 4.686 0 7.128-2.673 7.128-8.052 0-5.445-2.442-8.118-5.94-8.118a4.647 4.647 0 00-3.366 1.188v-3.894h8.448v-4.194h-12.969v12.738h4.158a2.562 2.562 0 012.409-1.683z"/><path data-name="パス 433" d="M1121.291 701.121v1.045h-1.134a8.461 8.461 0 01-1.221-.066v1.166c.341-.033.748-.055 1.21-.055h2.607v.935h-2.607a8.163 8.163 0 01-1.2-.055v1.2a9.852 9.852 0 011.178-.063h2.629v2.343c0 .242-.066.3-.407.3a9.8 9.8 0 01-1.232-.091 2.836 2.836 0 01.264 1.155c.759.011.759.011.858.011a3.083 3.083 0 001.21-.176c.33-.149.445-.418.445-1.056v-2.486h.143a5.981 5.981 0 011.089.066v-1.2a6.709 6.709 0 01-1.089.055h-.143v-.935h.187a7.154 7.154 0 011.078.055v-1.165a8.119 8.119 0 01-1.2.066h-1.522v-1.049h1.21a7.98 7.98 0 011.133.055v-1.162a8.11 8.11 0 01-1.144.066h-1.2v-.3a5.848 5.848 0 01.058-.822h-1.267a4.916 4.916 0 01.066.825v.3h-.968a8 8 0 01-1.144-.069v1.166a9.315 9.315 0 011.177-.059zm-5.82 5.889a10.021 10.021 0 01-.066 1.311h1.155v-.926h1v.55h1.122a12.368 12.368 0 01-.033-1.1v-6.292a8.253 8.253 0 01.033-1.089 9.88 9.88 0 01-.957.033h-1.334a9.53 9.53 0 01-.968-.033 10.312 10.312 0 01.048 1.111zm1.1-6.468h.99v2.3h-.99zm0 3.311h.99v2.475h-.99zm5.181 3.19a8.442 8.442 0 00-1.441-1.683l-.935.616a8.4 8.4 0 011.408 1.804zm.528 9.492c0-.429.011-.7.033-.99a8.847 8.847 0 01-1.022.044h-2.454a8.969 8.969 0 01-1.023-.044c.022.3.033.605.033.99v2.686a7.583 7.583 0 01-.077 1.1h1.166v-.616h2.332c.088 0 .3 0 .616.011a4.178 4.178 0 01.286 1.133c.561.033.605.033.759.033a3.351 3.351 0 001.243-.132c.4-.165.528-.451.528-1.111v-7.2c0-.55.011-.825.044-1.221a9.868 9.868 0 01-1.133.044h-2.112a9.412 9.412 0 01-1.122-.051c.022.341.033.649.033 1.023v1.687c0 .473-.011.682-.033 1a13.28 13.28 0 011.012-.033h2.167v4.6c0 .22-.1.3-.407.3-.2 0-.594-.033-.836-.055a11.402 11.402 0 01-.033-.957zm-.781-4.389h2.057v.55h-2.057zm0 1.331h2.057v.561h-2.057zm-2.563 3.036h2.244v.66h-2.244zm0 1.551h2.244v.715h-2.244zm-2.3-3.179h1.991c.385 0 .726.011 1.012.033a10.469 10.469 0 01-.033-1v-1.684c0-.429.011-.671.033-1.023a9.294 9.294 0 01-1.122.044h-1.946a9.991 9.991 0 01-1.133-.044 12.2 12.2 0 01.044 1.232v7.183a9.834 9.834 0 01-.066 1.364h1.287a9.541 9.541 0 01-.066-1.353zm0-2.739h1.892v.55h-1.891zm0 1.331h1.892v.561h-1.891z"/><path data-name="パス 435" d="M1178.653 718.976a11.538 11.538 0 01-.066 1.331h1.309v-.66h5.115v.66h1.331a11.144 11.144 0 01-.066-1.331v-7.106a9.939 9.939 0 01.055-1.122 8.851 8.851 0 01-1.188.055h-5.324a9.71 9.71 0 01-1.221-.055c.033.363.055.748.055 1.177zm1.243-7.007h5.115v2.552h-5.115zm0 3.707h5.115v2.816h-5.115z"/></g><g data-name="グループ 298"><g data-name="マスクグループ 64" clip-path="url(#c)" transform="translate(739 706.999)"><path data-name="パス 110" d="M12.046 31.956v3.633a1.543 1.543 0 103.086 0v-3.633h3.633a1.543 1.543 0 100-3.086h-3.633v-3.633a1.543 1.543 0 10-3.086 0v3.633H8.413a1.543 1.543 0 100 3.086zm-2.987-17.6h9.059a1.543 1.543 0 100-3.086H9.059a1.544 1.544 0 100 3.087zM4.68 44a4.516 4.516 0 01-3.32-1.359A4.516 4.516 0 010 39.322V4.68a4.516 4.516 0 011.36-3.32A4.516 4.516 0 014.68 0h34.642a4.516 4.516 0 013.32 1.359A4.516 4.516 0 0144 4.68v34.642A4.64 4.64 0 0139.322 44zm0-3.882h34.642a.857.857 0 00.8-.8V4.681a.756.756 0 00-.249-.547.756.756 0 00-.547-.249H4.68a.756.756 0 00-.547.249.756.756 0 00-.249.547v34.642a.756.756 0 00.249.547.756.756 0 00.547.249m26.376-25.056L33.6 17.6a1.518 1.518 0 001.073.47 1.465 1.465 0 001.1-.47 1.55 1.55 0 00.04-2.17l-2.578-2.618 2.538-2.538a1.514 1.514 0 00.47-1.073 1.465 1.465 0 00-.47-1.1 1.46 1.46 0 00-2.17 0l-2.537 2.539-2.545-2.54a1.514 1.514 0 00-1.073-.47 1.465 1.465 0 00-1.1.47 1.46 1.46 0 000 2.17l2.538 2.538-2.578 2.618a1.592 1.592 0 00-.431 1.073 1.465 1.465 0 00.47 1.1 1.46 1.46 0 002.17 0z" fill="#1c1c1c"/><path data-name="パス 111" d="M26.53 35.191h9.059a1.543 1.543 0 100-3.086H26.53a1.543 1.543 0 100 3.086z" fill="#fc4076"/><path data-name="パス 112" d="M26.53 28.72h9.059a1.543 1.543 0 100-3.086H26.53a1.544 1.544 0 100 3.087z" fill="#fc4076"/></g></g><g data-name="グループ 299" clip-path="url(#d)" transform="translate(1011 703.998)"><path data-name="パス 113" d="M24 48a23.315 23.315 0 01-9.362-1.89A24.09 24.09 0 011.89 33.365 23.315 23.315 0 010 24a23.316 23.316 0 011.89-9.362A24.084 24.084 0 0114.639 1.891 23.316 23.316 0 0124 0a23.624 23.624 0 0110.122 2.24 23.965 23.965 0 018.231 6.3V3.969a2.118 2.118 0 114.235 0v9.665a2.506 2.506 0 01-2.551 2.552h-9.664a2.117 2.117 0 110-4.234h5.267A21.326 21.326 0 0032.674 6.3 18.881 18.881 0 0024 4.242 19.069 19.069 0 009.99 9.995 19.07 19.07 0 004.236 24a19.069 19.069 0 005.753 14.015A19.069 19.069 0 0024 43.768a19.148 19.148 0 0012.176-4.2 19.165 19.165 0 006.948-10.743 2.382 2.382 0 01.958-1.341 2.2 2.2 0 011.554-.342 1.96 1.96 0 011.422.82 1.756 1.756 0 01.274 1.547 23.077 23.077 0 01-8.324 13.3A23.336 23.336 0 0124 48" fill="#1c1c1c"/><path data-name="パス 114" d="M26.118 23.145l7.765 7.765a2.045 2.045 0 01.6 1.474 1.992 1.992 0 01-.6 1.5 2.111 2.111 0 01-2.975 0l-8.259-8.259a2.547 2.547 0 01-.581-.864 2.616 2.616 0 01-.184-.966V12a2.117 2.117 0 114.234 0z" fill="#fc4076"/></g></g></svg>