<?xml version="1.0" standalone="no"?>
<!DOCTYPE svg PUBLIC "-//W3C//DTD SVG 20010904//EN"
 "http://www.w3.org/TR/2001/REC-SVG-20010904/DTD/svg10.dtd">
<svg version="1.0" xmlns="http://www.w3.org/2000/svg"
 width="1024.000000pt" height="267.000000pt" viewBox="0 0 1024.000000 267.000000"
 preserveAspectRatio="xMidYMid meet">

<g transform="translate(0.000000,267.000000) scale(0.100000,-0.100000)"
fill="#000000" stroke="none">
<path d="M2180 2655 c-267 -39 -503 -155 -701 -343 -275 -261 -414 -587 -413
-967 1 -221 36 -376 129 -570 66 -137 139 -239 260 -361 212 -213 440 -332
730 -379 136 -22 125 -29 125 74 l0 88 -62 7 c-154 16 -336 83 -478 177 -443
291 -635 833 -470 1328 131 394 455 682 862 765 42 9 93 16 113 16 l35 0 0 90
c0 104 13 96 -130 75z"/>
<path d="M2036 2129 c-11 -29 -62 -122 -114 -208 -52 -86 -126 -208 -165 -271
-222 -365 -265 -568 -162 -776 89 -181 253 -284 454 -284 91 0 135 9 214 42
l47 20 0 532 0 532 -81 130 c-91 145 -136 228 -159 292 l-16 43 -18 -52z
m-294 -840 c-6 -63 18 -186 50 -258 57 -129 168 -239 279 -278 27 -10 49 -21
49 -24 0 -11 -79 -15 -142 -8 -76 9 -152 47 -209 104 -114 114 -138 279 -63
444 15 34 30 61 33 61 4 0 5 -19 3 -41z"/>
<path d="M665 1793 c-137 -8 -272 -18 -300 -22 l-50 -8 75 -2 c41 -1 176 -8
300 -16 124 -8 245 -15 270 -15 45 0 46 1 57 40 l10 40 -56 -1 c-31 -1 -168
-8 -306 -16z"/>
<path d="M4143 1090 c-50 -22 -83 -70 -83 -120 0 -76 43 -112 168 -141 105
-25 134 -56 91 -95 -28 -25 -107 -23 -179 5 -30 11 -56 21 -57 21 -2 0 -10
-17 -18 -37 -15 -35 -15 -39 2 -51 50 -37 195 -54 273 -32 47 13 99 68 106
111 4 21 0 50 -10 72 -12 31 -26 42 -71 62 -31 14 -63 25 -73 25 -31 0 -91 20
-107 36 -24 24 -18 52 15 69 46 24 93 19 181 -19 23 -10 50 71 28 85 -53 34
-200 39 -266 9z"/>
<path d="M4633 1103 l-93 -4 0 -229 0 -230 190 0 190 0 0 40 0 40 -135 0 -135
0 0 55 0 55 115 0 115 0 0 45 0 45 -115 0 -115 0 0 50 0 50 130 0 130 0 0 43
0 43 -92 0 c-51 0 -135 -1 -185 -3z"/>
<path d="M4975 1102 c-3 -3 -5 -23 -5 -44 l0 -38 80 0 80 0 0 -192 0 -193 55
3 55 4 0 189 0 189 75 0 75 0 0 45 0 45 -205 -1 c-112 -1 -207 -4 -210 -7z"/>
<path d="M5533 1091 c-50 -23 -83 -72 -83 -121 0 -76 46 -114 175 -144 51 -12
80 -24 90 -38 46 -67 -100 -97 -204 -43 -17 8 -32 15 -35 15 -7 0 -36 -56 -36
-69 0 -24 85 -53 167 -59 143 -9 223 41 223 138 0 81 -48 119 -180 146 -59 11
-90 32 -90 59 0 54 111 71 190 30 l31 -16 14 35 c8 20 15 39 15 44 0 19 -60
35 -145 39 -74 3 -97 0 -132 -16z"/>
<path d="M5924 1101 c-9 -9 -3 -263 7 -310 13 -63 44 -109 89 -135 28 -17 52
-21 126 -21 80 0 95 3 127 25 20 13 46 43 59 65 21 37 23 54 26 210 l4 170
-54 -1 -53 -2 -5 -159 c-3 -96 -10 -166 -17 -179 -30 -51 -129 -56 -170 -9
-20 23 -23 38 -25 123 -1 53 -3 126 -4 162 l-2 65 -52 0 c-28 0 -54 -2 -56 -4z"/>
<path d="M6563 1103 l-83 -4 0 -230 0 -230 184 3 c169 3 187 5 213 24 59 44
61 140 3 194 l-28 26 24 27 c29 34 32 95 7 134 -33 50 -119 65 -320 56z m215
-96 c17 -11 15 -62 -3 -77 -8 -7 -53 -15 -100 -18 l-85 -5 0 56 c0 30 4 57 10
59 17 6 165 -7 178 -15z m-3 -181 c29 -12 35 -20 35 -45 0 -51 -20 -61 -126
-61 l-94 0 0 53 c0 30 3 57 7 60 12 13 144 7 178 -7z"/>
<path d="M7073 1103 l-53 -4 0 -230 0 -229 55 0 55 0 0 235 c0 129 -1 234 -2
233 -2 -1 -27 -3 -55 -5z"/>
<path d="M7550 873 l0 -233 55 0 55 0 0 64 0 64 93 4 c70 3 101 9 127 24 52
30 80 78 80 136 0 63 -21 107 -65 137 -38 26 -64 29 -237 34 l-108 2 0 -232z
m259 132 c32 -16 41 -33 41 -74 0 -52 -20 -66 -109 -71 l-81 -5 0 83 0 82 60
0 c34 0 74 -7 89 -15z"/>
<path d="M8060 873 l0 -233 55 0 55 0 0 66 0 65 52 -3 c51 -3 53 -4 94 -63
l42 -60 61 -5 c34 -3 61 -3 61 -2 0 2 -23 36 -50 75 l-50 71 30 24 c97 76 79
234 -32 276 -31 12 -82 17 -181 19 l-137 2 0 -232z m259 132 c48 -24 57 -87
17 -124 -20 -19 -37 -23 -93 -24 l-68 -2 -3 83 -3 82 61 0 c34 0 74 -6 89 -15z"/>
<path d="M8704 1094 c-83 -30 -154 -132 -154 -222 0 -93 62 -183 152 -222 67
-29 180 -25 245 8 170 88 164 347 -11 428 -60 28 -165 31 -232 8z m202 -105
c79 -74 70 -195 -18 -249 -62 -37 -157 -18 -198 40 -50 70 -24 185 50 223 50
26 131 19 166 -14z"/>
<path d="M9260 1050 l0 -52 103 7 c56 3 163 10 237 15 74 5 200 12 280 16 91
4 136 10 120 15 -14 4 -158 14 -320 23 -162 9 -323 19 -357 22 l-63 6 0 -52z"/>
<path d="M625 1069 c-143 -9 -296 -18 -340 -20 l-80 -2 100 -8 c171 -13 686
-41 689 -37 1 1 -1 22 -6 46 l-9 42 -47 -1 c-26 -1 -164 -10 -307 -20z"/>
<path d="M7240 830 l0 -40 100 0 100 0 0 40 0 40 -100 0 -100 0 0 -40z"/>
<path d="M9260 539 l0 -42 133 8 c273 15 471 32 447 37 -27 7 -481 38 -542 38
-38 0 -38 0 -38 -41z"/>
<path d="M1000 564 c-8 -2 -132 -10 -275 -20 -143 -9 -261 -17 -262 -18 -2 -1
122 -8 275 -15 152 -7 327 -16 387 -20 61 -4 112 -6 114 -4 2 1 -9 21 -24 43
l-28 40 -86 -1 c-47 -1 -93 -3 -101 -5z"/>
<path d="M4982 388 c-16 -29 -39 -62 -51 -72 -27 -24 -26 -30 4 -44 15 -7 25
-20 25 -32 0 -19 6 -20 121 -19 67 0 124 -2 127 -6 3 -3 9 -35 13 -71 8 -75
32 -117 72 -122 47 -6 77 70 38 95 -18 11 -20 9 -23 -15 -2 -15 -7 -27 -13
-27 -13 0 -22 47 -24 123 -1 42 -5 62 -13 62 -7 1 -75 1 -150 0 -76 -1 -138 3
-138 7 1 10 36 53 44 53 3 0 6 -7 6 -15 0 -13 22 -15 135 -15 128 0 135 1 135
20 0 19 -7 20 -136 20 -104 0 -135 3 -132 13 4 9 46 13 156 15 144 2 152 4
152 22 0 19 -7 20 -139 20 -126 0 -139 2 -137 17 0 11 -7 19 -20 21 -17 2 -28
-9 -52 -50z"/>
<path d="M6080 261 l0 -181 -24 -6 c-14 -3 -34 -3 -45 1 -18 5 -19 4 -8 -25
10 -26 16 -30 48 -30 21 0 47 8 60 19 21 16 23 28 24 94 0 42 4 79 8 83 4 4 7
2 7 -5 0 -21 59 -99 96 -127 l35 -27 21 21 21 20 -62 57 c-33 32 -61 61 -61
66 0 4 25 32 56 61 l56 52 -24 19 -23 19 -40 -46 c-60 -69 -72 -61 -84 49 -6
56 -8 60 -33 63 l-28 3 0 -180z"/>
<path d="M6572 432 c-7 -5 -10 -16 -6 -25 5 -14 0 -17 -25 -17 -24 0 -31 -4
-31 -20 0 -18 7 -20 55 -20 42 0 55 -3 55 -15 0 -11 -11 -15 -40 -15 l-40 0 0
-105 0 -105 120 0 120 0 0 105 0 105 -50 0 c-38 0 -50 4 -50 15 0 12 14 15 65
15 58 0 65 2 65 20 0 16 -7 20 -35 20 -34 0 -46 12 -24 26 8 4 7 9 -2 15 -24
15 -39 10 -51 -16 -8 -18 -19 -25 -38 -25 -18 0 -33 8 -44 25 -18 27 -24 29
-44 17z m156 -159 c3 -10 -15 -13 -67 -13 -66 0 -82 6 -64 24 12 12 126 2 131
-11z m-5 -58 c-4 -15 -125 -13 -131 3 -3 10 12 12 65 10 39 -2 67 -7 66 -13z
m5 -57 c-3 -9 -26 -13 -68 -13 -42 0 -65 4 -67 13 -4 9 14 12 67 12 53 0 71
-3 68 -12z"/>
<path d="M7560 425 c0 -12 -17 -15 -90 -15 -83 0 -90 -1 -90 -20 0 -19 7 -20
90 -20 50 0 90 -4 90 -9 0 -15 -28 -21 -91 -21 l-60 0 3 -72 3 -73 109 0 c79
0 111 -4 113 -12 4 -10 -24 -13 -114 -14 -65 -1 -126 -1 -135 0 -13 2 -18 -5
-18 -24 0 -15 5 -25 13 -24 39 5 76 -2 71 -14 -2 -7 9 -26 26 -42 28 -27 31
-28 47 -12 16 16 15 18 -6 41 l-23 24 71 4 71 3 0 -27 c0 -25 -3 -28 -36 -28
-29 0 -35 -3 -30 -16 3 -9 6 -20 6 -25 0 -5 18 -9 40 -9 51 0 80 27 80 75 l0
35 50 -5 c48 -4 50 -4 50 20 0 23 -3 25 -50 25 -53 0 -70 16 -22 22 27 3 27 4
28 76 1 60 -1 72 -15 73 -9 1 -40 2 -70 3 -34 0 -56 6 -58 14 -4 9 18 12 86
12 84 0 91 1 91 20 0 19 -7 20 -90 20 -73 0 -90 3 -90 15 0 9 -9 15 -25 15
-16 0 -25 -6 -25 -15z m0 -125 c0 -5 -22 -10 -50 -10 -27 0 -50 5 -50 10 0 6
23 10 50 10 28 0 50 -4 50 -10z m140 -5 c0 -11 -8 -14 -32 -11 -18 3 -39 5
-45 5 -7 1 -13 6 -13 11 0 6 20 10 45 10 33 0 45 -4 45 -15z m-142 -52 c2 -9
-11 -13 -47 -13 -48 0 -61 7 -44 24 12 11 86 2 91 -11z m150 0 c2 -9 -11 -13
-47 -13 -39 0 -51 4 -51 16 0 12 10 14 47 12 26 -2 48 -9 51 -15z"/>
<path d="M8538 423 c-3 -14 -16 -16 -85 -14 l-83 2 0 -50 c0 -48 2 -51 25 -51
20 0 25 5 25 25 l0 25 145 0 145 0 0 -25 c0 -21 5 -25 30 -25 29 0 30 1 30 50
l0 50 -85 0 c-69 0 -85 3 -85 15 0 22 -58 20 -62 -2z"/>
<path d="M4466 423 c-3 -4 -6 -12 -6 -20 0 -10 19 -13 75 -13 43 0 75 -4 75
-10 0 -6 -37 -10 -90 -10 l-90 0 0 -46 c0 -41 2 -45 23 -42 16 2 23 11 25 31
3 26 5 27 68 27 l64 0 0 -45 c0 -41 2 -45 25 -45 23 0 25 4 25 45 l0 46 68 -3
c65 -3 67 -4 70 -30 2 -20 9 -28 23 -28 16 0 19 7 19 45 l0 45 -90 0 c-53 0
-90 4 -90 10 0 6 32 10 76 10 66 0 75 2 72 18 -3 15 -20 17 -169 19 -92 1
-169 -1 -173 -4z"/>
<path d="M6406 412 c-15 -17 -13 -21 19 -52 34 -33 35 -33 55 -15 22 20 17 31
-30 65 -26 19 -28 19 -44 2z"/>
<path d="M7880 220 l0 -200 25 0 c24 0 24 0 27 112 l3 113 63 3 62 3 0 84 0
85 -90 0 -90 0 0 -200z m128 148 c-3 -7 -20 -13 -38 -13 -18 0 -35 6 -37 13
-3 8 8 12 37 12 29 0 40 -4 38 -12z m-3 -63 c0 -5 -17 -11 -37 -13 -36 -3 -47
5 -31 22 11 10 68 3 68 -9z"/>
<path d="M8092 335 l-2 -85 65 0 66 0 -3 -87 -3 -88 -38 -3 c-30 -3 -37 -7
-33 -18 3 -9 6 -20 6 -25 0 -14 84 -10 106 5 17 13 19 30 22 200 l3 186 -94 0
-94 0 -1 -85z m126 33 c-3 -7 -20 -13 -38 -13 -18 0 -35 6 -37 13 -3 8 8 12
37 12 29 0 40 -4 38 -12z m2 -63 c0 -10 -11 -15 -35 -15 -24 0 -35 5 -35 15 0
10 11 15 35 15 24 0 35 -5 35 -15z"/>
<path d="M7005 373 c-45 -23 -86 -64 -101 -100 -29 -67 -10 -168 35 -193 74
-39 143 37 175 195 14 71 30 79 76 38 41 -37 51 -100 25 -149 -17 -31 -83 -74
-113 -74 -16 0 -15 -12 1 -34 27 -37 138 18 172 85 38 73 4 184 -70 226 -49
28 -153 31 -200 6z m55 -70 c-30 -142 -83 -207 -109 -132 -19 54 8 116 64 150
45 28 54 25 45 -18z"/>
<path d="M5900 305 c0 -23 4 -25 45 -25 34 0 45 -4 45 -15 0 -24 -37 -90 -72
-130 l-31 -36 20 -21 c12 -12 26 -17 33 -13 25 15 86 124 105 184 23 76 19 81
-77 81 -66 0 -68 -1 -68 -25z"/>
<path d="M8447 324 c-15 -16 -6 -34 18 -34 43 0 27 -17 -35 -36 -56 -18 -60
-21 -47 -38 13 -18 16 -18 65 -2 29 10 58 16 65 13 12 -4 -67 -43 -110 -53
-26 -7 -31 -32 -8 -40 8 -3 45 8 81 25 67 31 97 33 59 4 -11 -8 -55 -32 -98
-52 -73 -34 -77 -38 -63 -56 13 -19 14 -19 57 0 24 10 63 31 87 47 51 33 52
33 52 9 0 -25 -18 -39 -56 -43 -28 -3 -31 -5 -23 -25 7 -18 16 -23 44 -23 96
0 115 126 33 217 -20 21 -20 21 1 33 18 9 22 8 28 -7 23 -69 69 -146 104 -178
l41 -37 21 21 21 20 -47 41 c-26 23 -47 46 -47 51 0 5 18 20 41 35 41 26 41
26 19 41 -20 14 -24 14 -52 -7 -25 -18 -32 -20 -39 -9 -15 23 -10 39 11 39 14
0 20 7 20 24 0 24 -1 24 -118 25 -65 1 -121 -1 -125 -5z"/>
<path d="M4500 310 c0 -5 20 -10 45 -10 25 0 45 5 45 10 0 6 -20 10 -45 10
-25 0 -45 -4 -45 -10z"/>
<path d="M4685 310 c-4 -6 13 -10 44 -10 28 0 51 5 51 10 0 6 -20 10 -44 10
-25 0 -48 -4 -51 -10z"/>
<path d="M5582 274 c-32 -22 -30 -69 4 -91 24 -15 29 -15 53 -2 32 18 40 63
15 90 -21 23 -42 24 -72 3z"/>
<path d="M4490 260 c0 -5 23 -10 50 -10 28 0 50 5 50 10 0 6 -22 10 -50 10
-27 0 -50 -4 -50 -10z"/>
<path d="M4680 260 c0 -5 23 -10 50 -10 28 0 50 5 50 10 0 6 -22 10 -50 10
-27 0 -50 -4 -50 -10z"/>
<path d="M6380 245 c0 -21 5 -25 30 -25 29 0 30 -1 30 -49 0 -44 -4 -52 -30
-71 -34 -24 -35 -29 -17 -54 13 -17 15 -17 42 6 l28 25 41 -23 c37 -22 53 -24
174 -24 73 0 132 4 132 9 0 5 3 17 6 25 5 14 -9 16 -122 15 -190 -1 -204 8
-204 118 l0 73 -55 0 c-52 0 -55 -1 -55 -25z"/>
<path d="M4470 150 c0 -79 0 -80 25 -80 14 0 25 5 25 10 0 6 18 10 40 10 34 0
41 -4 46 -25 9 -37 32 -45 126 -45 88 0 111 9 122 46 9 30 -30 41 -45 13 -9
-17 -19 -19 -76 -17 -42 2 -68 8 -71 16 -3 9 15 12 67 12 l71 0 0 70 0 70
-165 0 -165 0 0 -80z m135 35 c0 -12 -50 -19 -71 -11 -9 3 -12 11 -9 16 8 14
80 9 80 -5z m140 0 c0 -5 -19 -11 -42 -13 -34 -3 -43 0 -43 13 0 13 9 16 43
13 23 -2 42 -7 42 -13z m-137 -52 c2 -9 -10 -13 -42 -13 -43 0 -55 7 -39 24
12 11 76 2 81 -11z m142 -4 c0 -5 -20 -9 -45 -9 -52 0 -61 17 -12 22 37 4 57
-1 57 -13z"/>
<path d="M5097 184 l-18 -25 -33 21 c-19 11 -40 20 -49 20 -17 0 -33 -33 -18
-38 6 -2 21 -12 33 -22 23 -19 23 -19 3 -34 -11 -8 -35 -23 -53 -31 -34 -17
-37 -31 -10 -48 15 -10 53 8 120 55 14 10 22 8 47 -16 24 -23 32 -26 50 -17
29 16 27 26 -14 57 l-36 27 28 29 c23 24 25 30 13 38 -25 16 -44 11 -63 -16z"/>
</g>
</svg>
