<svg xmlns="http://www.w3.org/2000/svg" width="134.669" height="61"><defs><clipPath id="a"><path data-name="長方形 4" fill="#0044f2" d="M0 0h134.669v15.239H0z"/></clipPath></defs><g data-name="グループ 380"><g data-name="グループ 378" fill="#0044f2"><path data-name="パス 8" d="M10.637 12.249l.735-4.169a.779.779 0 01.809-.688h14.956a.523.523 0 01.566.688l-.735 4.169a.779.779 0 01-.809.688H11.204a.523.523 0 01-.566-.688M23.83 39.797l-1.381-5.329-.773 4.384a.752.752 0 01-.809.688H7.544c-.473 0-.642-.258-.566-.688l2.1-11.9a.752.752 0 01.809-.688h13.322c.473 0 .642.258.566.688l-1.061 6.017a.593.593 0 01.265-.043 30.686 30.686 0 005.675-.988 19.561 19.561 0 01-2.8-4.814.725.725 0 01-.062-.392.683.683 0 01.564-.516l4.454-1.375h-5.074c-.473 0-.642-.258-.566-.688l.955-5.415a.752.752 0 01.809-.688h2.794l-3.446-3.61a.444.444 0 01-.139-.43.833.833 0 01.392-.516c2.609-1.633 3.576-3.954 4.455-8.939l.457-2.837a.752.752 0 01.809-.687h13.8c.473 0 .642.258.566.687l-1.387 7.865c-.091.516-.035.688.265.688h.6c.566-.043.779-.516 1.458-4.126.1-.559.445-.817.923-.6l3.165 1.547a.667.667 0 01.372.817c-1.377 7.564-2.608 8.939-7.366 9.111h-2.408c-3.5-.129-4.948-.946-4.341-4.384l.872-4.942h-1.849l-.124.946c-.568 3.223-2.11 7.091-4.926 9.412h15.816c.473 0 .642.258.566.688l-.917 5.2a2.038 2.038 0 01-.273.817 28.4 28.4 0 01-5.528 7.22 30.7 30.7 0 006.042 1.074c.508.043.662.387.364.86l-3.617 5.888a.782.782 0 01-.9.473 25.707 25.707 0 01-9.086-3.309 39.861 39.861 0 01-9.73 3.266c-.445.086-.68-.043-.784-.43M13.174 5.416l.644-3.653a.779.779 0 01.809-.688h12.765a.523.523 0 01.566.688l-.644 3.653a.779.779 0 01-.809.687H13.741a.523.523 0 01-.566-.687m-2.266 12.85l.591-3.352a.779.779 0 01.809-.688h12.549a.523.523 0 01.566.688l-.591 3.352a.779.779 0 01-.809.688H11.475a.523.523 0 01-.566-.688m-1.061 6.016l.591-3.352a.779.779 0 01.809-.688h12.544a.523.523 0 01.566.688l-.586 3.352a.779.779 0 01-.809.688H10.414a.523.523 0 01-.566-.688m6.617 9.756l.455-2.579h-2.536l-.455 2.579zm19.1-5.243a12.282 12.282 0 003.663-3.954h-6.36a10.657 10.657 0 002.7 3.954"/><path data-name="パス 9" d="M94.151 11.217l-.826 4.684a.779.779 0 01-.809.688H72.231l-.818 4.642c-1.212 6.876-2.925 13.667-5.65 18.394a.624.624 0 01-.956.3l-4.857-2.924-.477 2.707a.779.779 0 01-.809.688h-6.017a.523.523 0 01-.566-.688l3.16-17.921c-.478.516-.9.946-1.36 1.375a.83.83 0 01-.475.258c-.215 0-.349-.215-.382-.516l-.55-8.337a.929.929 0 01.367-.86c3.546-3.051 6.534-8.294 8.421-13.151A.723.723 0 0162.17.04l6 1.074a.543.543 0 01.415.817 71.826 71.826 0 01-3.927 8.38l-4.389 24.89c2.353-4.083 3.611-9.025 4.475-13.925l1.773-10.057a.779.779 0 01.809-.688h26.259a.523.523 0 01.566.688M91.453.688l-.265 1.5h3.567a.523.523 0 01.566.688l-.811 4.6a.779.779 0 01-.809.688h-3.567l-.159.9a.779.779 0 01-.809.687h-5.845a.523.523 0 01-.566-.687l.159-.9h-3.821l-.159.9a.779.779 0 01-.809.687h-5.892a.523.523 0 01-.566-.687l.159-.9h-3.524a.523.523 0 01-.566-.688l.811-4.6a.779.779 0 01.809-.688h3.524l.265-1.5a.779.779 0 01.808-.687h5.888a.523.523 0 01.567.688l-.265 1.5h3.825l.265-1.5a.779.779 0 01.808-.688h5.845a.523.523 0 01.566.688m.637 17.836l-2.766 15.687c-.872 4.942-2.244 6.146-6.112 6.146-.516 0-.817 0-.89-.558l-.516-3.653c-.089-.473.215-.731.73-.731.91-.043 1.229-.387 1.4-1.332l.121-.688h-2.063l-1.023 5.8a.779.779 0 01-.809.688h-3.008a.523.523 0 01-.566-.688l1.023-5.8h-2.106l-1.114 6.318a.779.779 0 01-.809.688h-3.868a.523.523 0 01-.566-.688l3.736-21.188a.779.779 0 01.809-.688h17.831a.523.523 0 01.566.688m-14.733 4.341l-.333 1.891h2.106l.333-1.891zm-.917 5.2l-.356 2.02h2.11l.356-2.02zm7.406-5.2l-.333 1.891h2.063l.333-1.891zm-.917 5.2l-.356 2.02h2.063l.356-2.02z"/><path data-name="パス 10" d="M133.421 32.491c.235.129.377.3.339.516a1.369 1.369 0 01-.248.43l-5.4 6.489a.727.727 0 01-.948.258c-5.815-3.094-10.5-9.67-12.044-17.492-4.446 7.908-11.185 14.44-18.255 17.492q-.626.258-.857-.258l-3.419-6.446a.786.786 0 01-.1-.43.681.681 0 01.513-.473c10.941-4.04 18.422-14.784 20.582-27.033l.856-4.856a.779.779 0 01.814-.687h7.091a.523.523 0 01.567.688l-.515 2.922c-2.185 12.635 1.242 24.153 11.024 28.881"/></g><g data-name="グループ 379"><g data-name="グループ 8" clip-path="url(#a)" fill="#0044f2" transform="translate(0 45.761)"><path data-name="パス 26" d="M5.719 15.239a11.274 11.274 0 01-3.319-.474A6.434 6.434 0 010 13.534l1.61-2.568a6.5 6.5 0 002.036 1.105A7.651 7.651 0 006.2 12.5a5.569 5.569 0 001.668-.21 2.539 2.539 0 001.014-.558 1.468 1.468 0 00.437-.81.939.939 0 00-.3-.937 3.091 3.091 0 00-1.131-.568Q7.163 9.2 6.293 9t-1.735-.486a5.991 5.991 0 01-1.55-.758 2.756 2.756 0 01-1-1.242 3.463 3.463 0 01-.113-1.926 4.928 4.928 0 011.08-2.3A5.911 5.911 0 015.318.621 9.261 9.261 0 018.89 0a10.674 10.674 0 012.687.337 6.735 6.735 0 012.2.968l-1.529 2.568a7.083 7.083 0 00-1.891-.853 7.209 7.209 0 00-1.97-.284 5.236 5.236 0 00-1.66.221 2.377 2.377 0 00-1 .6 1.645 1.645 0 00-.433.842.963.963 0 00.3.947 2.767 2.767 0 001.119.554q.723.2 1.613.4a16.277 16.277 0 011.744.5 6.677 6.677 0 011.531.747 2.784 2.784 0 011.016 1.221 3.283 3.283 0 01.138 1.9 4.786 4.786 0 01-1.085 2.273 6.114 6.114 0 01-2.37 1.666 9.213 9.213 0 01-3.584.631"/><path data-name="パス 27" d="M18.118 14.985l2.6-14.733h11.136l-.482 2.736h-7.746l-1.637 9.265h8.019l-.483 2.736zm4.22-6.146l.471-2.673h7.093l-.471 2.673z"/><path data-name="パス 28" d="M39.083 14.986l2.108-11.955h-4.715l.49-2.778h12.839l-.49 2.778H44.6l-2.108 11.955z"/><path data-name="パス 29" d="M57.538 15.239a11.274 11.274 0 01-3.316-.474 6.434 6.434 0 01-2.4-1.231l1.61-2.568a6.5 6.5 0 002.036 1.105 7.652 7.652 0 002.555.432 5.569 5.569 0 001.668-.21 2.538 2.538 0 001.014-.558 1.468 1.468 0 00.438-.81.939.939 0 00-.3-.937 3.091 3.091 0 00-1.131-.568q-.73-.221-1.6-.421t-1.735-.484a5.991 5.991 0 01-1.55-.758 2.756 2.756 0 01-1-1.242 3.464 3.464 0 01-.113-1.926 4.929 4.929 0 011.08-2.3A5.911 5.911 0 0157.137.621 9.261 9.261 0 0160.709 0a10.675 10.675 0 012.687.337 6.736 6.736 0 012.2.968L64.07 3.873a7.084 7.084 0 00-1.891-.853 7.209 7.209 0 00-1.971-.284 5.235 5.235 0 00-1.66.221 2.377 2.377 0 00-1 .6 1.646 1.646 0 00-.433.842.963.963 0 00.3.947 2.767 2.767 0 001.122.558q.723.2 1.613.4a16.281 16.281 0 011.744.495 6.676 6.676 0 011.529.747 2.784 2.784 0 011.016 1.221 3.283 3.283 0 01.138 1.9 4.787 4.787 0 01-1.085 2.273 6.114 6.114 0 01-2.366 1.663 9.213 9.213 0 01-3.584.631"/><path data-name="パス 30" d="M76.439 15.239a5.656 5.656 0 01-4.6-1.747q-1.46-1.747-.885-5.009l1.451-8.23h3.431L74.4 8.399a3.944 3.944 0 00.33 3.02 2.6 2.6 0 002.234.937 3.693 3.693 0 002.586-.937 5.192 5.192 0 001.4-3.02L82.383.253h3.347l-1.447 8.23a8.121 8.121 0 01-2.651 5.009 7.786 7.786 0 01-5.191 1.747"/><path data-name="パス 31" d="M90.312 14.985l2.6-14.733h7.2a6.068 6.068 0 013.992 1.052 2.791 2.791 0 01.91 2.778 4.184 4.184 0 01-.923 2.01 4.767 4.767 0 01-1.8 1.315 5.891 5.891 0 01-2.344.463l.556-.884a5.523 5.523 0 012.37.463 2.988 2.988 0 011.436 1.347 3.378 3.378 0 01.228 2.168 4.245 4.245 0 01-2.016 2.957 8.531 8.531 0 01-4.586 1.063zm3.841-2.567h4a4.18 4.18 0 002.077-.442 1.866 1.866 0 00.936-1.368 1.289 1.289 0 00-.45-1.389 3.329 3.329 0 00-1.922-.442h-4.251l.438-2.484h3.641a3.915 3.915 0 001.981-.432 1.809 1.809 0 00.9-1.315 1.21 1.21 0 00-.433-1.3 3.176 3.176 0 00-1.83-.421h-3.389z"/><path data-name="パス 32" d="M110.203 14.986l2.6-14.733h3.431l-2.6 14.733z"/><path data-name="パス 33" d="M123.946 14.986l2.106-11.955h-4.715l.49-2.778h12.839l-.49 2.778h-4.715l-2.109 11.955z"/></g></g></g></svg>