<svg xmlns="http://www.w3.org/2000/svg" width="490" height="133"><g data-name="グループ 531"><path data-name="長方形 308" d="M20 .5h470v132H20a20 20 0 01-20-20v-92a20 20 0 0120-20z" fill="#fbc101"/><path data-name="パス 504" d="M34.979 132.5l35.854-56.767c-1.729-.464-3.035-.848-4.354-1.167C52.546 71.248 38.615 68 24.724 64.559a18.936 18.936 0 01-4.715-2.814 18.1 18.1 0 012.945-4.647Q56.966 28.771 91.021.498H122.7q-10.319 16.984-20.639 33.965c-.458.752-.8 1.576-1.328 2.64h0l44.91 12.033a37.346 37.346 0 016.269 2.09c4.228 2 4.514 4.713.836 7.671-9.442 7.575-18.824 15.217-28.395 22.6q-33.108 25.546-66.281 51z" fill="#fbfc00" stroke="rgba(0,0,0,0)" opacity=".3"/><path data-name="パス 496" d="M32.7 56H45v1.7H32.7zm.007-2.762h13.979v7.205H32.711v-1.93H43.8v-3.341H32.711zm4.64 1.082h2.794v6.012q0 .624.291.79a3.053 3.053 0 001.271.166H45.7a1.831 1.831 0 00.828-.15.922.922 0 00.419-.6 6.953 6.953 0 00.192-1.338 5.145 5.145 0 001.151.557 8.115 8.115 0 001.271.356 6.408 6.408 0 01-.537 2.058 2.086 2.086 0 01-1.107 1.029 5.436 5.436 0 01-1.986.3h-4.5a8.716 8.716 0 01-2.47-.277 1.99 1.99 0 01-1.253-.961 4.184 4.184 0 01-.357-1.909zm-6.087-1.078h2.792v8.134H31.26zm-.491-9.742h16.389v2.126H30.769zm1.78 5.327h4.268v1.541H32.55zm-.4 2.173h4.67v1.561h-4.673zm8.946 0h4.7v1.561h-4.7zm0-2.173h4.191v1.541h-4.193zm-3.588-4.465h2.853v8.331h-2.853zM29.2 46.3h19.637v4.562h-2.7v-2.649H31.783v2.649H29.2zm26.313-1.487H70.5v2.4H55.518zm.242 3.256h12.779v2.341H55.76zm-2.638 3.254h12.548v2.44H53.122zm1.983-8.69l3.071.663a22.246 22.246 0 01-2.138 4.966 15.988 15.988 0 01-2.962 3.761 7.723 7.723 0 00-.771-.614q-.492-.352-1-.695a10.15 10.15 0 00-.894-.543 11.149 11.149 0 002.873-3.239 16.455 16.455 0 001.821-4.299zm5.32 11.161l2.846.925a19.533 19.533 0 01-2.644 3.8 21.638 21.638 0 01-3.395 3.1 24.263 24.263 0 01-3.847 2.304q-.22-.3-.6-.733t-.8-.853a10.059 10.059 0 00-.745-.683 19.763 19.763 0 003.763-1.939 17.063 17.063 0 003.148-2.668 14.5 14.5 0 002.275-3.254zm4.3-2.473h3.007q-.015 1.955.025 3.645t.2 2.971a8.721 8.721 0 00.435 2q.278.722.716.722.239-.02.322-.815t.105-2.113q.424.5.933 1.007a9.791 9.791 0 00.953.846 11.917 11.917 0 01-.348 2.259 2.5 2.5 0 01-.757 1.307 2.167 2.167 0 01-1.406.419 2.828 2.828 0 01-2.251-.956 6.267 6.267 0 01-1.246-2.652 21.974 21.974 0 01-.547-3.909q-.131-2.214-.135-4.731zm-11.7 5.045l2.087-1.923q1.168.611 2.476 1.368t2.586 1.6q1.278.842 2.387 1.673a16.305 16.305 0 011.854 1.591L62.083 62.9a18.2 18.2 0 00-1.725-1.6q-1.039-.86-2.278-1.744t-2.547-1.7q-1.308-.82-2.513-1.49zm32.27-12.748q-.042.34-.083.755t-.064.827q-.02.458-.039 1.217t-.029 1.656q-.01.9-.01 1.769v1.576q0 .865.054 1.976t.128 2.265q.075 1.154.128 2.179t.054 1.7a3.1 3.1 0 01-.509 1.755 3.4 3.4 0 01-1.5 1.207 5.984 5.984 0 01-2.441.442 6.978 6.978 0 01-4.109-1.003 3.251 3.251 0 01-1.39-2.789 3.277 3.277 0 01.66-2.031 4.343 4.343 0 011.9-1.374 7.893 7.893 0 012.96-.5 14.628 14.628 0 013.412.379 15.388 15.388 0 012.9.988 17.2 17.2 0 012.319 1.288q1.016.68 1.727 1.259l-1.751 2.716a21.694 21.694 0 00-1.78-1.5 14.709 14.709 0 00-2.127-1.331 12.572 12.572 0 00-2.423-.944 9.978 9.978 0 00-2.68-.354 3.006 3.006 0 00-1.607.354 1.03 1.03 0 00-.564.873.97.97 0 00.246.659 1.5 1.5 0 00.709.422 3.9 3.9 0 001.128.142 3.372 3.372 0 001-.128 1.126 1.126 0 00.631-.465 1.678 1.678 0 00.22-.923q0-.457-.043-1.326t-.086-1.935l-.085-2.124q-.042-1.058-.046-1.878 0-.8.01-1.709t.01-1.785q0-.878.01-1.6t.01-1.15q0-.3-.03-.765a4.622 4.622 0 00-.111-.79zm-9.325 1.965q.6.088 1.329.176t1.475.165q.748.077 1.412.11t1.161.033q2.291 0 4.524-.137a46.916 46.916 0 004.71-.543l-.02 2.78q-1.087.152-2.58.284t-3.2.21q-1.705.078-3.414.078-.677 0-1.652-.056t-1.962-.154q-.987-.1-1.726-.183zm-.127 4.774q.52.088 1.246.175t1.486.131q.76.044 1.429.077t1.074.033q2.165 0 3.87-.086t3.151-.22q1.446-.134 2.765-.3l-.02 2.858q-1.139.134-2.21.225t-2.184.15q-1.115.057-2.429.081t-2.983.019q-.6 0-1.547-.034t-1.916-.1q-.97-.066-1.694-.152zm29.31 8.943a15.805 15.805 0 002.652-.644 7.545 7.545 0 002.059-1.056 4.378 4.378 0 001.327-1.574 4.8 4.8 0 00.461-2.176 3.042 3.042 0 00-.247-1.223 3.019 3.019 0 00-.7-1 3.188 3.188 0 00-1.077-.669 3.854 3.854 0 00-1.38-.237 7.242 7.242 0 00-3.867 1.092 16.711 16.711 0 00-3.4 2.818L101 51.2a11.764 11.764 0 013.978-2.587 11.07 11.07 0 013.785-.734 6.4 6.4 0 013.127.762 5.723 5.723 0 012.2 2.123 6.026 6.026 0 01.813 3.149 8.529 8.529 0 01-.503 3.025 6.666 6.666 0 01-1.54 2.391 8.909 8.909 0 01-2.595 1.758 16.424 16.424 0 01-3.673 1.148zm-5.006-9.269q-.389.042-.938.109t-1.168.147l-1.234.16-1.14.151-.304-3.098q.5.022.956.011t1.088-.033q.55-.042 1.294-.127t1.515-.2q.771-.116 1.439-.246a6.923 6.923 0 001.024-.262l.947 1.235q-.178.249-.447.651t-.538.815q-.269.413-.465.7l-1.456 4.456q-.357.5-.87 1.262t-1.074 1.6q-.561.837-1.095 1.617t-.951 1.341l-1.895-2.674.951-1.2q.536-.677 1.119-1.446t1.149-1.53q.567-.764 1.058-1.458t.844-1.222l.034-.419zm-.274-4.409v-1.02a5.459 5.459 0 00-.1-1.042l3.531.1q-.125.545-.274 1.5t-.3 2.175q-.15 1.221-.279 2.557t-.2 2.667q-.076 1.331-.076 2.514 0 .865.01 1.819t.04 1.959q.031 1.005.092 2.049.022.286.072.84t.092.953h-3.347q.042-.4.054-.936t.012-.8l.039-2.026.039-2.026q.02-1.076.059-2.5.02-.5.064-1.269t.1-1.68q.056-.915.123-1.845t.123-1.757q.056-.827.09-1.423t.036-.805zm24.22-1.881q-.1.344-.222.869t-.253 1.113q-.133.588-.232 1.155t-.143 1a10.482 10.482 0 01.96-1.141 7.665 7.665 0 011.21-1.013 6.2 6.2 0 011.455-.73 5.058 5.058 0 011.674-.272 4.535 4.535 0 012.821.961 6.467 6.467 0 012 2.736 10.977 10.977 0 01.739 4.229 11.347 11.347 0 01-.682 4.106 8.432 8.432 0 01-1.961 3.019 10.325 10.325 0 01-3.077 2.054 17.734 17.734 0 01-4.019 1.206l-1.847-2.828a22.288 22.288 0 003.361-.769 8.648 8.648 0 002.628-1.32 5.471 5.471 0 001.7-2.16 8.062 8.062 0 00.6-3.3 9.638 9.638 0 00-.349-2.812 3.706 3.706 0 00-.985-1.7 2.162 2.162 0 00-1.495-.572 2.985 2.985 0 00-1.818.642 6.549 6.549 0 00-1.53 1.66 9.077 9.077 0 00-1.057 2.2 7.784 7.784 0 00-.4 2.278q-.014.4.005.938t.112 1.281l-3 .2q-.086-.636-.181-1.618t-.1-2.1q0-.772.049-1.629t.121-1.755q.072-.9.184-1.827t.237-1.824q.086-.668.128-1.321t.048-1.1zm24.7 5.4q-.194 1.374-.48 2.919a28.608 28.608 0 01-.792 3.191 16.478 16.478 0 01-1.238 3.149 6.949 6.949 0 01-1.578 2.062 2.857 2.857 0 01-1.886.733 2.971 2.971 0 01-1.922-.7 4.767 4.767 0 01-1.368-1.923 7.111 7.111 0 01-.505-2.742 7.146 7.146 0 01.64-2.988 7.963 7.963 0 011.778-2.494 8.436 8.436 0 012.665-1.706 8.661 8.661 0 013.3-.622 8.175 8.175 0 013.06.543 6.771 6.771 0 012.324 1.518 6.7 6.7 0 011.482 2.276 7.542 7.542 0 01.515 2.8 7.4 7.4 0 01-.764 3.4 6.456 6.456 0 01-2.29 2.5 9.847 9.847 0 01-3.829 1.37l-1.5-2.366q.55-.066.946-.143t.778-.163a6.4 6.4 0 001.587-.613 4.8 4.8 0 001.254-.992 4.259 4.259 0 00.821-1.368 4.844 4.844 0 00.291-1.71 5.667 5.667 0 00-.309-1.917 4.148 4.148 0 00-.915-1.5 4.051 4.051 0 00-1.481-.972 5.526 5.526 0 00-2.009-.34 5.843 5.843 0 00-2.5.5 5.614 5.614 0 00-1.805 1.3 5.733 5.733 0 00-1.1 1.71 4.568 4.568 0 00-.368 1.707 4.56 4.56 0 00.186 1.4 2.076 2.076 0 00.476.85.89.89 0 00.631.284.972.972 0 00.712-.372 4.138 4.138 0 00.667-1.124 18.34 18.34 0 00.676-1.882 23.772 23.772 0 00.7-2.762 28.633 28.633 0 00.412-2.9zM34.765 89.346v-12.6q0-.626-.061-1.394a11.021 11.021 0 00-.186-1.364h3.8q-.064.594-.136 1.307a14.4 14.4 0 00-.072 1.451V89.35q0 .3.029.879t.091 1.207q.061.626.1 1.108h-3.807q.1-.673.172-1.6t.07-1.598zm2.623-9.686q1.1.291 2.47.742t2.771.958q1.4.507 2.62 1t2 .879l-1.383 3.381q-.926-.489-2.032-.971t-2.241-.942q-1.135-.459-2.219-.848t-1.986-.692zm17.479-5.18q.457.064 1.135.1t1.24.032h8.4q.526 0 1.272-.032t1.216-.1v3.142q-.45-.044-1.178-.064t-1.351-.02h-8.36q-.54 0-1.209.021t-1.165.062zm15.189 6.563q-.122.225-.255.511a4.535 4.535 0 00-.195.472 25.693 25.693 0 01-1.281 3.14 12.439 12.439 0 01-1.985 2.91 14.986 14.986 0 01-3.7 3.02 18.806 18.806 0 01-4.161 1.793l-2.427-2.753a17.1 17.1 0 004.452-1.553 12.786 12.786 0 003.148-2.257 8.265 8.265 0 001.354-1.761 10.938 10.938 0 00.794-1.731H55.493q-.413 0-1.185.021t-1.493.084v-3.146q.741.064 1.444.106t1.234.043h10.673a6.689 6.689 0 001.039-.071 3.138 3.138 0 00.7-.176zm18.664-8.151q.3.428.612.956t.593 1.038q.281.51.464.91l-2.006.837q-.22-.46-.49-.961t-.562-1.009q-.292-.508-.6-.958zm3.144-.57q.284.408.614.944t.632 1.065q.3.529.5.913l-2.006.854q-.355-.682-.822-1.519a12.378 12.378 0 00-.926-1.444zm-.785 4.765a4.581 4.581 0 00-.295.8l-.234.839q-.193.787-.471 1.779t-.676 2.066a20.546 20.546 0 01-.936 2.136 14.332 14.332 0 01-1.232 2.009 16.521 16.521 0 01-2.323 2.484 17.672 17.672 0 01-2.979 2.089 20.033 20.033 0 01-3.6 1.563l-2.65-2.912a18.342 18.342 0 003.808-1.286 13.18 13.18 0 002.77-1.756 15.363 15.363 0 002.057-2.079 10.415 10.415 0 001.221-1.933 14.708 14.708 0 00.825-2.066 12.9 12.9 0 00.457-1.946h-9.962q-.785 0-1.543.031t-1.2.072v-3.438q.345.042.844.084t1.022.073q.523.03.875.03H86.8q.352 0 .877-.03a5.108 5.108 0 00.994-.153zM104.933 91a6.345 6.345 0 00.136-.79 8.087 8.087 0 00.053-.929V76.554a9 9 0 00-.091-1.363q-.091-.583-.093-.608h3.612q0 .024-.082.618a10.447 10.447 0 00-.08 1.373v11.161a9.814 9.814 0 001.783-1.021 14.38 14.38 0 001.791-1.514 13.5 13.5 0 001.586-1.884L115.414 86a17.43 17.43 0 01-2.175 2.3 27.525 27.525 0 01-2.657 2.1 23.425 23.425 0 01-2.615 1.59 4.842 4.842 0 00-.605.383q-.231.177-.4.3zm-10.22-.379a8.582 8.582 0 002.382-2.453 12.1 12.1 0 001.338-2.778 8.4 8.4 0 00.365-1.746q.123-1.05.188-2.26t.076-2.419q.011-1.209.011-2.223a10.3 10.3 0 00-.061-1.221 8.052 8.052 0 00-.164-.924h3.575q0 .022-.043.347t-.081.8q-.04.471-.04.963 0 1-.022 2.285t-.089 2.633q-.067 1.343-.189 2.543a13.22 13.22 0 01-.345 2.034 12.907 12.907 0 01-1.507 3.5 13.176 13.176 0 01-2.426 2.887z" fill="#1c1c1c"/><g data-name="グループ 427" transform="translate(-190 -3330.5)"><rect data-name="長方形 313" width="297" height="75" rx="10" transform="translate(363 3367)" fill="#fff"/><g data-name="グループ 422"><g data-name="グループ 421" fill="#fb7502"><path data-name="パス 501" d="M575.161 3414.402h10.981v1.49h-9.473v10.674h-1.508zm10.269 0h1.517v10.358a2.447 2.447 0 01-.159.98 1.1 1.1 0 01-.58.545 3.025 3.025 0 01-1.046.232q-.64.045-1.582.045a3 3 0 00-.124-.49q-.091-.274-.2-.543a3.812 3.812 0 00-.227-.471q.429.023.846.028t.742 0h.455a.415.415 0 00.278-.082.344.344 0 00.082-.259zm-9.45 5.195h10.18v1.485h-10.18zm4.228-4.4h1.5v5.138h-1.5zm9.229 12.555v-13.6h3.083v1h-1.72v11.606h1.72v1zm9.948-13.7l1.246-.539a12.624 12.624 0 01.758 1.213 6.077 6.077 0 01.511 1.166l-1.321.6a6.8 6.8 0 00-.478-1.178 11.738 11.738 0 00-.716-1.262zm5.156-.571l1.536.515q-.364.649-.745 1.286t-.716 1.1l-1.265-.478q.21-.336.436-.756t.427-.856a8.341 8.341 0 00.327-.808zm-3.941 7.284h1.48a15.383 15.383 0 01-.247 1.816 6.709 6.709 0 01-.533 1.607 4.852 4.852 0 01-.974 1.354 5.372 5.372 0 01-1.6 1.048 3.182 3.182 0 00-.389-.625 3.712 3.712 0 00-.506-.555 4.445 4.445 0 001.365-.83 3.6 3.6 0 00.804-1.085 5.153 5.153 0 00.415-1.287 13.979 13.979 0 00.185-1.443zm2.335-.178h1.452v4a1.024 1.024 0 00.042.383q.042.075.2.075h.593a.194.194 0 00.178-.119 1.471 1.471 0 00.1-.474q.03-.364.044-1.105a1.928 1.928 0 00.37.232 4.252 4.252 0 00.48.2q.251.089.438.141a7.415 7.415 0 01-.22 1.507 1.355 1.355 0 01-.451.752 1.289 1.289 0 01-.774.215h-1.01a1.907 1.907 0 01-.9-.171.891.891 0 01-.428-.564 3.96 3.96 0 01-.112-1.067zm-2.144-2.969v2.14h3.744v-2.14zm-1.428-1.316h6.666v4.771h-6.666zm-3.535-1.543h1.461v11.793h-1.462zm-2.094 2.677h5.125v1.4h-5.125zm2.173.558l.889.389q-.205.747-.492 1.554t-.627 1.6q-.34.789-.725 1.482a8.449 8.449 0 01-.791 1.2 5.064 5.064 0 00-.321-.731q-.213-.408-.4-.689a7.563 7.563 0 00.735-.994q.361-.574.692-1.227t.6-1.315a13.143 13.143 0 00.44-1.269zm2.073-4.342l1.02 1.161a14.976 14.976 0 01-1.541.488q-.845.222-1.729.38t-1.71.271a3.131 3.131 0 00-.171-.583 4.941 4.941 0 00-.255-.569q.779-.131 1.589-.3t1.54-.392a10.869 10.869 0 001.257-.456zm-.728 5.686q.131.107.394.371l.569.571q.305.308.553.574t.35.387l-.866 1.18q-.126-.243-.336-.577t-.457-.7q-.247-.364-.475-.689t-.4-.53zm15.548-5.221h2.95v1.419h-2.95zm2.164 0h1.586a26.909 26.909 0 00.337 2.9 12.721 12.721 0 00.7 2.533 7.536 7.536 0 001.2 2.042 5.659 5.659 0 001.823 1.435 3.842 3.842 0 00-.4.323q-.222.2-.429.419a4.727 4.727 0 00-.346.405 6.687 6.687 0 01-1.86-1.616 8.6 8.6 0 01-1.239-2.175 13.95 13.95 0 01-.739-2.622 27.223 27.223 0 01-.37-2.962h-.262zm-.02 2.862l1.546.22a13.964 13.964 0 01-1.437 4.128 8.5 8.5 0 01-2.529 2.858 3.834 3.834 0 00-.316-.361q-.208-.215-.438-.431a4.011 4.011 0 00-.407-.342 6.578 6.578 0 002.358-2.462 11.387 11.387 0 001.222-3.609zm-3.99 1.991v5.107h-1.467v-3.715h-1.719v-1.391zm0 4.452a2.669 2.669 0 001.266 1.052 5.675 5.675 0 001.939.385q.607.023 1.447.03t1.769-.009q.929-.016 1.814-.052t1.567-.091a4.769 4.769 0 00-.185.452q-.1.279-.178.564t-.119.515q-.621.033-1.419.052t-1.65.026q-.852.007-1.65 0t-1.414-.041a7.111 7.111 0 01-2.241-.412 3.918 3.918 0 01-1.612-1.178q-.471.415-.968.842t-1.071.884l-.749-1.56q.485-.3 1.033-.683t1.051-.776zm-3.13-8.694l1.11-.9a10.484 10.484 0 01.9.658q.459.373.854.76a6.016 6.016 0 01.637.718l-1.194.993a4.865 4.865 0 00-.59-.73q-.38-.4-.83-.8a10.79 10.79 0 00-.889-.699zm13.922 13.024v-1h1.716v-11.6h-1.716v-1h3.084v13.6zm10.954-7.177a4.64 4.64 0 00-.955-.769 2.37 2.37 0 00-1.208-.275 2.106 2.106 0 00-1.33.478 3.88 3.88 0 00-1.018 1.243l-1.381-.75a5.173 5.173 0 011.667-1.91 3.751 3.751 0 012.091-.635 3.947 3.947 0 011.77.383 5.338 5.338 0 011.5 1.148 4.713 4.713 0 00.96.767 2.36 2.36 0 001.2.277 2.106 2.106 0 001.33-.478 3.88 3.88 0 001.018-1.247l1.381.754a5.173 5.173 0 01-1.667 1.91 3.751 3.751 0 01-2.091.635 3.958 3.958 0 01-1.763-.383 5.3 5.3 0 01-1.504-1.148z"/><path data-name="パス 500" d="M484.328 3428.352h-6.6v-21.016l-6.486 1.895v-5l12.48-4.316h.605zm11 7.656l-3.328-1.562.664-1.328a10.832 10.832 0 001.43-4.844v-4.883h5.273l-.02 4.238a10.594 10.594 0 01-1.147 4.571 11.612 11.612 0 01-2.876 3.808zm22.945-7.656h-6.6v-21.016l-6.484 1.895v-5l12.48-4.316h.605zm28.32-11.621q0 5.762-2.588 8.887a8.943 8.943 0 01-7.294 3.125 8.991 8.991 0 01-7.344-3.145q-2.6-3.145-2.6-8.867v-5.2q0-5.762 2.588-8.887a8.965 8.965 0 017.314-3.125 8.969 8.969 0 017.331 3.149q2.6 3.145 2.6 8.887zm-6.582-6.035a10.143 10.143 0 00-.8-4.58 2.677 2.677 0 00-2.539-1.514 2.613 2.613 0 00-2.472 1.406 9.555 9.555 0 00-.83 4.258v7.266a10.219 10.219 0 00.8 4.658 2.687 2.687 0 002.539 1.475 2.651 2.651 0 002.48-1.436 9.756 9.756 0 00.82-4.5zm29.746 6.035q0 5.762-2.588 8.887a8.943 8.943 0 01-7.294 3.125 8.991 8.991 0 01-7.344-3.145q-2.6-3.145-2.6-8.867v-5.2q0-5.762 2.588-8.887a8.965 8.965 0 017.314-3.125 8.969 8.969 0 017.324 3.145q2.6 3.145 2.6 8.887zm-6.582-6.035a10.143 10.143 0 00-.8-4.58 2.677 2.677 0 00-2.539-1.514 2.613 2.613 0 00-2.471 1.406 9.555 9.555 0 00-.83 4.258v7.266a10.219 10.219 0 00.8 4.658 2.687 2.687 0 002.539 1.475 2.651 2.651 0 002.48-1.436 9.756 9.756 0 00.82-4.5z"/></g><path data-name="パス 502" d="M393.056 3422.168c.9 0 1.456.028 2.114.084v-1.852a14.71 14.71 0 01-2.044.112h-3.92a3.375 3.375 0 01.794-1.256 12.248 12.248 0 011.666-1.4 17.527 17.527 0 002.356-1.722 2.842 2.842 0 00.994-2.24c0-1.918-1.512-3.094-3.962-3.094a4.071 4.071 0 00-3.206 1.246 4.2 4.2 0 00-.966 2.24l2 .238a2.661 2.661 0 01.434-1.288 1.978 1.978 0 011.784-.826c1.19 0 1.932.588 1.932 1.54 0 .714-.392 1.176-1.68 2.058a19.28 19.28 0 00-2.314 1.692 6.91 6.91 0 00-1.918 2.746 7.153 7.153 0 00-.364 1.792 12.9 12.9 0 011.806-.07zm5.824-2.044h-2.058v2.044H398c-.014.868-.21 1.12-1.064 1.358l.5.742a1.843 1.843 0 001.444-2.1zm9.94-6.818a4.041 4.041 0 00-.882-1.428 3.857 3.857 0 00-2.87-1.064 3.976 3.976 0 00-3.416 1.666 7.626 7.626 0 00-1.152 4.326 6.137 6.137 0 001.628 4.694 4.41 4.41 0 002.842.92 3.771 3.771 0 004.06-3.78 4.022 4.022 0 00-.5-2.1 3.641 3.641 0 00-3.248-1.666 3.249 3.249 0 00-3 1.4 6.157 6.157 0 01.574-2.474 2.326 2.326 0 012.2-1.456 1.762 1.762 0 011.874 1.41zm-3.864 3.094a2.021 2.021 0 012.212 2.2 2.388 2.388 0 01-.322 1.274 2.227 2.227 0 01-1.918.98 2.221 2.221 0 01-2.366-2.214 2.259 2.259 0 012.394-2.24zm9.73 5.992a3.974 3.974 0 003.4-1.652 7.353 7.353 0 001.038-4.14 9.415 9.415 0 00-.546-3.248 3.922 3.922 0 00-.924-1.414 4.067 4.067 0 00-2.954-1.138 3.981 3.981 0 00-3.57 1.946 8.243 8.243 0 00-.854 3.878 9.37 9.37 0 00.546 3.22 3.922 3.922 0 00.924 1.414 4.033 4.033 0 002.94 1.134zm.014-1.624a2.051 2.051 0 01-1.792-.91 6.3 6.3 0 01-.714-3.332 5.224 5.224 0 01.924-3.4 1.883 1.883 0 011.568-.714 2.023 2.023 0 011.526.588 5.429 5.429 0 01.98 3.584 5.4 5.4 0 01-.98 3.6 2.035 2.035 0 01-1.512.584zm9.954 1.624a3.974 3.974 0 003.4-1.652 7.353 7.353 0 001.038-4.14 9.415 9.415 0 00-.546-3.248 3.922 3.922 0 00-.924-1.414 4.067 4.067 0 00-2.954-1.138 3.981 3.981 0 00-3.568 1.946 8.243 8.243 0 00-.854 3.878 9.37 9.37 0 00.546 3.22 3.922 3.922 0 00.924 1.414 4.033 4.033 0 002.938 1.134zm.014-1.624a2.051 2.051 0 01-1.792-.91 6.3 6.3 0 01-.714-3.332 5.224 5.224 0 01.924-3.4 1.883 1.883 0 011.568-.714 2.023 2.023 0 011.526.588 5.429 5.429 0 01.98 3.584 5.4 5.4 0 01-.98 3.6 2.035 2.035 0 01-1.512.584zm7.826-3.108h8.33v3.416c0 .336-.084.378-.63.378-.5 0-1.2-.056-2.128-.154a5.387 5.387 0 01.434 1.512c.546.028 1.316.056 1.862.056a3.443 3.443 0 001.47-.2c.406-.21.574-.6.574-1.316v-8.97a13.777 13.777 0 01.056-1.526 12.834 12.834 0 01-1.526.056h-8.512a15.04 15.04 0 01-1.554-.056 12.062 12.062 0 01.056 1.344v9.156a13.3 13.3 0 01-.084 1.68h1.722a10.291 10.291 0 01-.07-1.624zm3.318-1.47h-3.318v-3.79h3.318zm1.512 0v-3.79h3.5v3.79z"/><path data-name="パス 503" d="M464 3416.5l-10 12v-24z" fill="#fbc102"/></g><g data-name="グループ 423" transform="translate(-136.785 -392.155)"><rect data-name="長方形 311" width="257" height="36" rx="18" transform="translate(518 3743)" fill="#fff"/><g data-name="グループ 426"><path data-name="パス 499" d="M690.947 3754.514h12.556v2.1h-10.424v12h-2.132zm11.528 0h2.146v11.68a3.451 3.451 0 01-.2 1.3 1.454 1.454 0 01-.733.741 3.455 3.455 0 01-1.273.328q-.756.065-1.829.065a4.279 4.279 0 00-.171-.692q-.126-.387-.279-.767a5.26 5.26 0 00-.316-.659q.441.03.9.037t.825.008h.515a.471.471 0 00.319-.09.389.389 0 00.1-.3zm-10.374 5.958h11.42v2.1h-11.42zm4.5-4.8h2.119v5.851h-2.117zm18.771-.451h2v9.028h-2zm3.332-1.4h2.061v12.269a3.833 3.833 0 01-.184 1.345 1.351 1.351 0 01-.687.726 3.483 3.483 0 01-1.257.343 17.161 17.161 0 01-1.778.08 4.176 4.176 0 00-.144-.702q-.11-.4-.25-.791a5.976 5.976 0 00-.287-.689q.672.03 1.291.037t.858.005a.436.436 0 00.291-.08.378.378 0 00.086-.286zm-10.664 12.557h4.811v1.562h-4.811zm-1.72-4.737h8.285v1.589h-8.285zm.709-4.015h6.929v1.475h-6.928zm.186 2.045h6.525v1.391h-6.525zm2.23-6.04h2.059v2.194h-2.057zm.057 3.178h1.959v5.661h-1.958zm-2.353 6.9h6.786v4.778h-2v-3.222h-2.88v3.372h-1.9zm-.881-8.766h8.512v2.831h-1.958v-1.242h-4.694v1.242h-1.859zm21.647 6.267h2.2l-.008.163q-.008.163-.015.363a2.134 2.134 0 01-.037.348q-.115 1.731-.268 2.877a12.352 12.352 0 01-.352 1.814 2.544 2.544 0 01-.5 1 1.983 1.983 0 01-.742.546 3.6 3.6 0 01-.934.215 8.712 8.712 0 01-1.1.063q-.676 0-1.419-.015a4.372 4.372 0 00-.24-1.149 4.249 4.249 0 00-.539-1.087q.709.066 1.389.083t1.007.017a1.893 1.893 0 00.4-.038.877.877 0 00.328-.15 1.448 1.448 0 00.345-.712 11.36 11.36 0 00.265-1.537q.117-.99.2-2.506zm-4.422-3.5h2.176q-.142 1.035-.317 2.16t-.35 2.166q-.175 1.041-.348 1.859l-2.129-.334q.189-.789.372-1.78t.342-2.05q.159-1.06.257-2.019zm9.869-3.929h2.144v14.85h-2.141zm-9.347 7.429h4.52v1.959h-4.775zm.218-3.5h3.657v-1.616h-4.74v-1.973h6.825v5.563h-5.745zm20.574 5.259l-.452-5.264-.085-2.519h2.889l-.084 2.52-.452 5.264zm.908 4.357a1.476 1.476 0 01-1.1-.432 1.49 1.49 0 01-.428-1.095 1.442 1.442 0 01.435-1.084 1.5 1.5 0 011.093-.421 1.5 1.5 0 011.088.421 1.442 1.442 0 01.435 1.084 1.477 1.477 0 01-.435 1.095 1.482 1.482 0 01-1.088.432z" fill="#1c1c1c"/><path data-name="パス 498" d="M636.102 3769.155h-3.387V3756.1l-4.043 1.255v-2.754l7.066-2.531h.363zm6.563 4.277l-1.77-.926.42-.761a6.089 6.089 0 00.81-2.848v-2.625h2.86l-.012 2.344a6.088 6.088 0 01-.658 2.625 6.729 6.729 0 01-1.651 2.191zm5.343-12.668l.984-8.672h9.563v2.824h-6.785l-.422 3.668a5.369 5.369 0 012.566-.645 4.918 4.918 0 013.821 1.516 6.038 6.038 0 011.38 4.227 6.186 6.186 0 01-.7 2.959 4.921 4.921 0 01-2 2.027 6.237 6.237 0 01-3.07.721 6.624 6.624 0 01-2.871-.627 5.093 5.093 0 01-2.092-1.764 4.807 4.807 0 01-.814-2.59h3.352a2.5 2.5 0 00.744 1.658 2.359 2.359 0 001.67.592 2.082 2.082 0 001.77-.826 3.827 3.827 0 00.621-2.338 3.165 3.165 0 00-.71-2.226 2.623 2.623 0 00-2.027-.773 2.932 2.932 0 00-1.957.633l-.328.3zm24.75 1.336a8.644 8.644 0 01-1.465 5.414 5.113 5.113 0 01-4.289 1.875 5.149 5.149 0 01-4.266-1.84 8.391 8.391 0 01-1.512-5.273v-3.141a8.53 8.53 0 011.482-5.426 5.151 5.151 0 014.273-1.854 5.156 5.156 0 014.266 1.834 8.365 8.365 0 011.511 5.266zm-3.387-3.445a6.237 6.237 0 00-.58-3.088 1.961 1.961 0 00-1.811-.967 1.926 1.926 0 00-1.764.92 5.837 5.837 0 00-.6 2.877v4.148a6.547 6.547 0 00.568 3.1 1.935 1.935 0 001.82 1.01 1.9 1.9 0 001.793-.973 6.39 6.39 0 00.574-2.977zm17.157 3.445a8.644 8.644 0 01-1.465 5.414 5.113 5.113 0 01-4.289 1.875 5.149 5.149 0 01-4.266-1.84 8.391 8.391 0 01-1.512-5.273v-3.141a8.53 8.53 0 011.482-5.426 5.151 5.151 0 014.272-1.854 5.156 5.156 0 014.265 1.837 8.365 8.365 0 011.513 5.263zm-3.387-3.445a6.237 6.237 0 00-.58-3.088 1.961 1.961 0 00-1.811-.967 1.926 1.926 0 00-1.764.92 5.837 5.837 0 00-.6 2.877v4.148a6.547 6.547 0 00.568 3.1 1.935 1.935 0 001.82 1.01 1.9 1.9 0 001.793-.973 6.39 6.39 0 00.574-2.977z" fill="#1c1c1c"/><g data-name="グループ 420" transform="translate(227.715 -47.845)"><rect data-name="長方形 310" width="77" height="20" rx="5" transform="translate(316 3799)"/><path data-name="パス 497" d="M333.173 3814l-1.861-8.8h1.137l.923 4.8q.14.7.27 1.415t.258 1.428h.048q.154-.72.312-1.432t.318-1.411l1.213-4.8h1.009l1.229 4.8q.161.7.317 1.413t.316 1.434h.06q.128-.72.249-1.432t.241-1.415l.939-4.8h1.062l-1.819 8.8h-1.339l-1.33-5.308-.22-1.007q-.105-.484-.209-1h-.048q-.106.511-.222 1t-.226 1.007l-1.307 5.308zm9.574 0v-8.8h5.064v.939h-3.956v2.761h3.332v.944h-3.332v3.212h4.087v.944zm7.062 0v-8.8h2.608a5.193 5.193 0 011.574.216 2.189 2.189 0 011.065.689 1.915 1.915 0 01.385 1.249 2.226 2.226 0 01-.151.819 1.935 1.935 0 01-.435.67 1.736 1.736 0 01-.7.421v.055a2.325 2.325 0 011.286.681 1.992 1.992 0 01.5 1.43 2.336 2.336 0 01-.424 1.432 2.55 2.55 0 01-1.172.857 4.847 4.847 0 01-1.735.281zm1.108-5.059h1.305a2.664 2.664 0 001.631-.389 1.276 1.276 0 00.494-1.058 1.187 1.187 0 00-.522-1.1 2.989 2.989 0 00-1.552-.323h-1.355zm0 4.176h1.537a3.175 3.175 0 001.767-.417 1.462 1.462 0 00.635-1.312 1.311 1.311 0 00-.624-1.206 3.418 3.418 0 00-1.778-.382h-1.536zm13.283-7.9h.861v6.621h-.861zm2.457-1.088h.879v9.588a1.548 1.548 0 01-.12.683.747.747 0 01-.4.347 2.609 2.609 0 01-.788.153q-.505.033-1.2.033a1.97 1.97 0 00-.066-.305q-.05-.17-.112-.344a2.41 2.41 0 00-.131-.3q.558.016 1.034.019t.649 0a.325.325 0 00.2-.06.279.279 0 00.059-.209zm-8.357 9.471h4.028v.719H358.3zm-1.156-3.772h6.2v.718h-6.2zm.656-2.951h4.981v.68H357.8zm.068 1.468h4.774v.655h-4.772zm1.967-4.392h.872v1.49h-.872zm.021 2.147h.844v4.126h-.839zm-1.987 5.114h4.931v3.586h-.854v-2.877H358.7v3h-.828zm-.721-6.184h6.33v1.9h-.839v-1.182h-4.685v1.184h-.807zm16.459 4.7h.926l-.006.077q-.006.077-.008.173a.79.79 0 01-.019.165q-.1 1.418-.216 2.311a9.362 9.362 0 01-.264 1.382 1.692 1.692 0 01-.36.7 1.028 1.028 0 01-.412.281 2.238 2.238 0 01-.556.1 8.025 8.025 0 01-.806.017q-.519-.009-1.1-.035a2.092 2.092 0 00-.1-.477 1.677 1.677 0 00-.224-.458q.6.055 1.141.071t.752.016a1.794 1.794 0 00.318-.023.462.462 0 00.219-.107 1.216 1.216 0 00.289-.588 9.783 9.783 0 00.229-1.29q.106-.844.2-2.185zm-3.557-2.548h.924q-.1.65-.229 1.374t-.257 1.4q-.128.676-.246 1.187l-.902-.143q.129-.5.264-1.158t.251-1.355q.115-.7.195-1.305zm7.72-3.138h.9v10.913h-.9zm-7.7 5.683h3.812v.839h-3.934zm.308-2.545h3.212v-1.92h-3.944v-.844h4.825v3.608h-4.092z" fill="#fff"/></g></g><path data-name="パス 409" d="M755.955 3779.951H651.777a.895.895 0 110-1.789h104.178a17.186 17.186 0 000-34.372H536.476a17.186 17.186 0 000 34.372h105.877a.9.9 0 110 1.791H536.476a18.976 18.976 0 010-37.952h219.479a18.976 18.976 0 110 37.951z" fill="#fbc102"/><path data-name="パス 410" d="M642.957 3783.738a.9.9 0 010-1.266l5.4-5.4a.9.9 0 011.266 1.266l-5.4 5.4a.9.9 0 01-1.266 0z" fill="#fbc102"/></g></g></g></svg>