<svg xmlns="http://www.w3.org/2000/svg" width="40" height="40"><g data-name="グループ 360" transform="translate(-749 -3617)"><circle data-name="楕円形 64" cx="20" cy="20" r="20" transform="translate(749 3617)" fill="#fff"/><path d="M759.68 3647.448a2.2 2.2 0 01-1.62-.663 2.2 2.2 0 01-.663-1.62v-14.38a2.2 2.2 0 01.663-1.62 2.2 2.2 0 011.62-.663h19.433a2.2 2.2 0 011.62.663 2.2 2.2 0 01.663 1.62v14.38a2.2 2.2 0 01-.663 1.62 2.2 2.2 0 01-1.62.663zm19.822-15.231l-9.491 6.075a1.491 1.491 0 01-.3.13 1.07 1.07 0 01-.313.047 1.07 1.07 0 01-.313-.047 1.491 1.491 0 01-.3-.13l-9.491-6.075v12.947a.379.379 0 00.109.279.378.378 0 00.279.109h19.433a.378.378 0 00.279-.109.379.379 0 00.109-.279zm-10.105 4.495l9.911-6.316h-19.822zm-10.105-4.494z" fill="#fc4076"/></g></svg>