<svg xmlns="http://www.w3.org/2000/svg" width="315" height="110.862"><defs><clipPath id="a"><path data-name="パス 482" d="M0 0h30.992v24.465H0z" fill="none"/></clipPath><clipPath id="b"><path data-name="パス 476" d="M0 0h30.83v30.584H0z" fill="none"/></clipPath><clipPath id="c"><path data-name="パス 487" d="M0 0h26.914v26.914H0z" fill="none"/></clipPath><clipPath id="d"><path data-name="パス 490" d="M0 0h29v29.362H0z" fill="none"/></clipPath></defs><g data-name="グループ 596"><g data-name="グループ 433" transform="translate(159.029)"><rect data-name="長方形 291" width="155.971" height="53.519" rx="10" fill="#eff0ff"/><g data-name="グループ 266"><g data-name="グループ 212"><path data-name="パス 483" d="M59.758 26.292a9.524 9.524 0 01-.1 1.616h1.76a10.2 10.2 0 01-.08-1.536 4.237 4.237 0 01.836 1.344 10.89 10.89 0 002.48-1.552 9.736 9.736 0 003.136 1.664 8.507 8.507 0 01.816-1.564 9.53 9.53 0 01-2.832-1.14 12.333 12.333 0 001.824-2.736 2.406 2.406 0 01.256-.464l-.832-.912a7.38 7.38 0 01-1.2.064h-2.688a9.554 9.554 0 01-1.344-.064v1.5a8.9 8.9 0 011.2-.064h.416l-1.36.608a12.653 12.653 0 001.456 2.036 8.109 8.109 0 01-2.16 1.136v-5.856h5.552a12.106 12.106 0 011.68.08V18.9a8.939 8.939 0 01-1.664.1H55.598a8.747 8.747 0 01-1.648-.1v1.552a11.041 11.041 0 011.584-.08v4.96c-.672.048-1.12.08-1.376.08a1.558 1.558 0 01-.256-.016l.368 1.648c.4-.08.96-.176 2.24-.352 1.728-.256 1.728-.256 3.248-.544zm0-1.456c-1.5.224-1.872.272-2.656.352v-.992h2.656zm0-1.808h-2.656v-.764h2.656zm0-1.936h-2.656v-.72h2.656zm6.048 1.36a6.632 6.632 0 01-1.184 1.68 6.522 6.522 0 01-1.136-1.68zm1.056-7.52a10.808 10.808 0 01.064-1.392c-.544.048-.96.064-1.7.064h-7.872c-.736 0-1.168-.016-1.7-.064a11.294 11.294 0 01.064 1.392v2.16a11.179 11.179 0 01-.056 1.372c.5-.032.928-.048 1.648-.048h8.128c.544 0 1.12.016 1.488.048a10.808 10.808 0 01-.064-1.392zm-9.488-.1h7.824v.64h-7.824zm0 1.744h7.824v.656h-7.824zm15.3.112c0 1.152-.032 1.984-.064 2.512h-1.156a8.207 8.207 0 01-1.568-.1v1.824a8.423 8.423 0 011.552-.1h.992a7.911 7.911 0 01-2.784 5.116 8.521 8.521 0 011.136 1.456 9.658 9.658 0 002.656-4.016 9.013 9.013 0 001.808 2.192 8.664 8.664 0 011.152-1.472 7.4 7.4 0 01-2.448-2.7c.048-.256.064-.336.1-.56h.684a11.461 11.461 0 011.392.064v-1.78a7.952 7.952 0 01-1.344.08h-.56c.032-.56.064-1.408.08-2.512h.144a12.5 12.5 0 011.44.064v-1.7a8.3 8.3 0 01-1.424.08h-1.824c.1-.3.144-.48.208-.752a9.354 9.354 0 01.3-1.056l-1.68-.288a6.585 6.585 0 01-.224 1.248 9.188 9.188 0 01-1.612 3.376 6.144 6.144 0 011.312 1.092 9.958 9.958 0 001.12-2.064zm4.62 8.916a11.39 11.39 0 01-1.616-.08v1.808a11.254 11.254 0 011.616-.08h5.728a11.254 11.254 0 011.616.08v-1.808a11.39 11.39 0 01-1.616.08h-.944a19.943 19.943 0 001.28-3.14l-1.68-.56a17.107 17.107 0 01-1.3 3.7zm-1.072-10.08a15.384 15.384 0 011.616-.06h4.912a15.384 15.384 0 011.616.064v-1.776a10.853 10.853 0 01-1.616.08h-4.912a10.853 10.853 0 01-1.616-.08zm7.44 2.56a12.868 12.868 0 01.064-1.488 14.441 14.441 0 01-1.612.068h-3.9a14.08 14.08 0 01-1.616-.064 13.411 13.411 0 01.056 1.484v2.256a12.985 12.985 0 01-.064 1.456 13.844 13.844 0 011.524-.064h4.1a14.032 14.032 0 011.52.064 9.7 9.7 0 01-.064-1.456zm-5.36.144h3.68v1.92h-3.68zm1.472 6.528a14.569 14.569 0 00-1.392-2.848l-1.488.656a11.953 11.953 0 011.328 2.848z" fill="#1c1c1c"/><path data-name="パス 486" d="M133.016 31.237a7.952 7.952 0 01-.1.928 6.19 6.19 0 01-2.092 3.648 7.55 7.55 0 01-2.48 1.472 5.678 5.678 0 011.168 1.568 9.267 9.267 0 004.064-3.52 8.513 8.513 0 001.248-4.096h3.072v.928a15.718 15.718 0 01-.5 4.256c-.144.24-.32.3-.912.3a13.153 13.153 0 01-1.932-.204 6.872 6.872 0 01.48 1.872c1.072.048 1.328.064 1.648.064 1.424 0 2-.224 2.352-.928.4-.848.672-3.376.672-6.688v-.544a16.315 16.315 0 001.984 1.68 7.449 7.449 0 011.216-1.728 12.408 12.408 0 01-4.432-4.64 5.98 5.98 0 01-.624-1.392l-1.776.688a6.563 6.563 0 01.336.672 16 16 0 002.64 4.016c-.384.016-.608.016-.992.016h-5.888a8.269 8.269 0 01-.832-.032 17.8 17.8 0 002.576-3.888 4.525 4.525 0 01.432-.812l-1.92-.688a4.974 4.974 0 01-.64 1.616 12.336 12.336 0 01-4.208 4.588 5.563 5.563 0 011.232 1.568 15.905 15.905 0 002-1.776v1.136a11.118 11.118 0 011.36-.08z" fill="#0044f2"/><path data-name="パス 485" d="M100.115 12.537h-4.251l-4.134 2.964v4.563l3.861-2.652v22.035h4.524zm21.84 19.032V20.415c0-5.694-3.978-8.229-8.463-8.229s-8.463 2.535-8.463 8.268v11.115c0 5.577 3.978 8.229 8.463 8.229s8.463-2.651 8.463-8.229zm-4.524-10.881v10.608c0 2.886-1.521 4.563-3.939 4.563-2.457 0-3.978-1.677-3.978-4.563V20.688c0-2.886 1.521-4.563 3.978-4.563 2.418 0 3.939 1.677 3.939 4.563z" fill="#0044f2"/><path data-name="パス 484" d="M57.464 35.496h.133a3.492 3.492 0 01.49.028v-.616a3.186 3.186 0 01-.49.028h-.133v-.413h.14a3.366 3.366 0 01.49.028v-.616a3.3 3.3 0 01-.49.028h-.14v-.434h.189a4.649 4.649 0 01.588.028v-.658a5.893 5.893 0 01-.756.035h-1.113a5.171 5.171 0 01-.784-.035 7.68 7.68 0 01.028.812v2.172a5.448 5.448 0 01-.028.693c.168-.014.371-.021.616-.021h1.407c0 .273-.007.511-.028.924a4.746 4.746 0 00-.217-.763l-.3.091a4.525 4.525 0 01.245.987l.259-.126-.021.154c-.007.084-.014.14-.014.161-.042.385-.091.455-.336.455a2.579 2.579 0 01-.532-.063 1.937 1.937 0 01.119.7c.182.014.259.014.385.014.6 0 .819-.154.917-.651a12.055 12.055 0 00.153-1.755c.014-.588.014-.588.028-.735a3.777 3.777 0 01-.574.028h-.231zm-.623 0v.476h-.546v-.476zm0-.56h-.546v-.413h.546zm0-.973h-.546v-.434h.546zm4.809 3.3a13.042 13.042 0 00-.791-1.312c.147-.385.315-.917.42-1.316a5.306 5.306 0 01.154-.552l-.714-.19a6.1 6.1 0 01-.322 1.39c-.238-.322-.266-.357-.574-.749a6.13 6.13 0 01-.21-.266l-.448.455v-1.05h1.841a4.774 4.774 0 01.707.042v-.756a6.059 6.059 0 01-.756.042h-1.908c-.294 0-.469-.007-.63-.021a5.66 5.66 0 01.028.623v4.77a6.257 6.257 0 01-.042.777h.756v-.322h1.862a5.524 5.524 0 01.746.042v-.77a4.137 4.137 0 01-.728.049h-1.876v-.623a1.511 1.511 0 01.532.511 7.032 7.032 0 00.819-1.323 7.6 7.6 0 01.588 1.078zm-2.485-2.46c.357.441.574.735.917 1.239a5.92 5.92 0 01-.917 1.463zm-3.549 1.96a5.786 5.786 0 01-.357 1.841l.5.224a7.366 7.366 0 00.343-1.96zm.532.1a8.824 8.824 0 01.063 1.064c0 .21-.007.35-.021.644l.427-.07a11.605 11.605 0 00-.1-1.687zm.476-.028a6.432 6.432 0 01.175 1.44l.385-.1a8.294 8.294 0 00-.224-1.392zm8-1.631h.1c.084 0 .112 0 .315.014.182.007.441.014.637.014.35 0 .714-.007.952-.028.007.231.007.294.007.441a2.765 2.765 0 01-.486 1.972 2.884 2.884 0 01-1.069.766 2.757 2.757 0 01.679.655 4.553 4.553 0 00.763-.532 2.623 2.623 0 00.8-1.358 6.945 6.945 0 00.147-1.673c0-.126 0-.189-.007-.336a4.945 4.945 0 00.677-.119 3.41 3.41 0 01.392-.07l-.049-.833a3.851 3.851 0 01-1.043.266c-.014-.448-.028-.714-.028-.791-.014-.315-.014-.378-.014-.448a1.526 1.526 0 01.014-.238l-.889.014a10.809 10.809 0 01.091 1.547c-.364.021-.476.028-.742.028a6.236 6.236 0 01-1.246-.091zm-.448.9a7.223 7.223 0 00-.462 1.155c0-.112-.007-.154-.014-.266v-.126c-.007-.343-.007-.462-.007-.539-.007-.112-.007-.2-.007-.217 0-.133.014-.336.049-.8a9.429 9.429 0 01.182-1.379 6.762 6.762 0 01.2-.854l-.924-.091a3.081 3.081 0 01-.049.518 15.045 15.045 0 00-.255 2.663 10.073 10.073 0 00.252 2.275 1.141 1.141 0 01.049.266l.812-.042a6.09 6.09 0 01.8-2.247zm5.545-.811a2.554 2.554 0 01.56-.2 9.975 9.975 0 012.758-.5 1.824 1.824 0 01.9.189 1.025 1.025 0 01.532.91 1.543 1.543 0 01-.077.5 1.939 1.939 0 01-1.054 1.04 6.01 6.01 0 01-2.3.413 3.034 3.034 0 01.357.9 6.576 6.576 0 002.461-.578 2.484 2.484 0 001.554-2.24 2.015 2.015 0 00-2.289-1.967 11.049 11.049 0 00-2.786.4 5 5 0 01-.819.14zm8.9-.084h.1c.084 0 .112 0 .315.014.182.007.441.014.637.014.35 0 .714-.007.952-.028.007.231.007.294.007.441a2.765 2.765 0 01-.483 1.967 2.884 2.884 0 01-1.069.766 2.757 2.757 0 01.679.658 4.553 4.553 0 00.763-.532 2.623 2.623 0 00.8-1.358 6.945 6.945 0 00.147-1.673c0-.126 0-.189-.007-.336a4.945 4.945 0 00.679-.119 3.41 3.41 0 01.392-.07l-.049-.833a3.851 3.851 0 01-1.045.263c-.014-.448-.028-.714-.028-.791-.014-.315-.014-.378-.014-.448a1.526 1.526 0 01.014-.238l-.889.014a10.809 10.809 0 01.091 1.547c-.364.021-.476.028-.742.028a6.236 6.236 0 01-1.246-.091zm-.448.9a7.223 7.223 0 00-.462 1.155c0-.112-.007-.154-.014-.266v-.126c-.007-.343-.007-.462-.007-.539-.007-.112-.007-.2-.007-.217 0-.133.014-.336.049-.8a9.43 9.43 0 01.182-1.379 6.762 6.762 0 01.2-.854l-.924-.091a3.081 3.081 0 01-.049.518 15.045 15.045 0 00-.252 2.658 10.073 10.073 0 00.252 2.275 1.141 1.141 0 01.049.266l.812-.042a6.09 6.09 0 01.8-2.247z" fill="#1c1c1c"/></g><g data-name="グループ 297"><g data-name="マスクグループ 90" transform="translate(14.068 14.68)" clip-path="url(#a)"><path data-name="パス 108" d="M15.493 0a15.724 15.724 0 013.075.292 13.865 13.865 0 012.859.9 2.9 2.9 0 01.987.706.8.8 0 01.251.963 1.366 1.366 0 01-1.037.6 2.458 2.458 0 01-1.317-.048 11.732 11.732 0 00-2.334-.731 12.587 12.587 0 00-2.484-.239 12.581 12.581 0 00-9.235 3.815 12.581 12.581 0 00-3.812 9.236 12.488 12.488 0 00.469 3.384 13.371 13.371 0 001.324 3.141h22.508a11.9 11.9 0 001.366-3.219 13.914 13.914 0 00.428-3.466 12.684 12.684 0 00-.231-2.37 10.773 10.773 0 00-.724-2.335 1.713 1.713 0 01-.081-1.016 1.41 1.41 0 01.55-.821.973.973 0 01.877-.164.991.991 0 01.673.577 14.889 14.889 0 011.032 3.025 15.667 15.667 0 01-.147 7.239 16.661 16.661 0 01-1.577 3.856 2.269 2.269 0 01-.91.836 2.676 2.676 0 01-1.254.306H4.241a2.547 2.547 0 01-1.231-.314 2.46 2.46 0 01-.933-.891A16.653 16.653 0 01.571 19.7 14.774 14.774 0 010 15.494a15.008 15.008 0 011.213-6.009 15.81 15.81 0 013.311-4.928 15.539 15.539 0 014.931-3.334A15.1 15.1 0 0115.493 0" fill="#1c1c1c"/><path data-name="パス 109" d="M13.219 17.691a2.892 2.892 0 002.238.825 2.355 2.355 0 002.009-.988l6.578-9.529a.744.744 0 00-1.037-1.037l-9.542 6.564a2.381 2.381 0 00-1.037 1.968 2.739 2.739 0 00.79 2.2" fill="#fc4076"/></g></g></g></g><g data-name="グループ 432"><rect data-name="長方形 316" width="155.971" height="53.519" rx="10" fill="#eff0ff"/><g data-name="グループ 431"><g data-name="グループ 264"><g data-name="グループ 264"><path data-name="パス 477" d="M52.926 21.571a2.6 2.6 0 01-1.232 1.833 6.5 6.5 0 01-2.535.858 4.079 4.079 0 01.754 1.274 6.648 6.648 0 003.3-1.56 3.987 3.987 0 001.237-2.405h1.17v2.535c0 .975.39 1.157 2.548 1.157 1.469 0 2.028-.1 2.392-.442.325-.312.455-.793.585-2.236a5.384 5.384 0 01-1.339-.546 4.128 4.128 0 01-.234 1.664c-.156.221-.416.273-1.417.273s-1.129-.039-1.129-.403v-2h1.116c.533 0 1.04.013 1.378.039a9.7 9.7 0 01-.065-1.378v-4.747a15.47 15.47 0 01.065-1.625 10.042 10.042 0 01-1.378.065h-5.993a9.951 9.951 0 01-1.365-.065 15.838 15.838 0 01.065 1.625v4.745a10.042 10.042 0 01-.065 1.378c.338-.026.78-.039 1.4-.039zm-.712-6.344h5.863v.845h-5.863zm0 2.067h5.863v.871h-5.863zm0 2.093h5.863v.923h-5.863zm14.027-1.222a8.364 8.364 0 011.209-.065h5.408a8.364 8.364 0 011.209.065v-1.183a7.733 7.733 0 01-1.209.065H70.7v-.455h1.638c.559 0 .767.013 1.079.039v-1.014a8 8 0 01-1.092.052H70.7v-.442h1.885a7.418 7.418 0 011.157.065v-1.144a8.84 8.84 0 01-1.261.078H70.7a3.579 3.579 0 01.078-.845h-1.469a3.108 3.108 0 01.078.845h-1.534a8.31 8.31 0 01-1.235-.065v1.131a7.142 7.142 0 011.144-.065h1.625v.442h-1.456a7.734 7.734 0 01-1.053-.052v1.01c.312-.026.52-.039 1.053-.039h1.456v.455H67.45a10.516 10.516 0 01-1.066-.039v-.429a4.915 4.915 0 01-.858.052h-.312v-1.673a11.57 11.57 0 001.131-.4c.117-.039.143-.052.221-.078l-.754-1.149a2.544 2.544 0 01-.533.26 11.434 11.434 0 01-3.107.767 4.942 4.942 0 01.494 1.209c.65-.117.845-.156 1.235-.26v1.324h-.611a5.658 5.658 0 01-1.027-.065v1.378a5.457 5.457 0 01.988-.065h.546a9.539 9.539 0 01-.494 1.443 7.207 7.207 0 01-1.313 2.171 5.594 5.594 0 01.728 1.222 8.032 8.032 0 001.274-2.613 23.86 23.86 0 00-.091 1.937v1.837a12.387 12.387 0 01-.075 1.521h1.469a8.969 8.969 0 01-.078-1.534v-2.782c-.039-1.105-.039-1.105-.078-1.547a6.615 6.615 0 00.988 1.56 4.157 4.157 0 01.624-1.04 4.983 4.983 0 01-1.095-1.339 3.8 3.8 0 01-.4-.832h.247a6.227 6.227 0 01.741.039zm2.054 5.278a7.124 7.124 0 01-2.561.9 5.235 5.235 0 01.676 1.144 7.629 7.629 0 003.016-1.42l-.6-.624h2.379l-.546.624a8.2 8.2 0 003.016 1.417 4.4 4.4 0 01.715-1.209 9.434 9.434 0 01-2.587-.832h.442c.416 0 .741.013 1.092.039a8.423 8.423 0 01-.052-1.183v-2.7a8 8 0 01.052-1.157 7.913 7.913 0 01-1.111.035h-4.29c-.546 0-.78 0-1.079-.026a7.592 7.592 0 01.039 1.092v2.769a9.875 9.875 0 01-.052 1.17c.286-.026.286-.026 1.118-.039zm-.117-3.978h3.809v.429h-3.809zm0 1.261h3.809v.429h-3.809zm0 1.248h3.809v.453h-3.809zm9.412-8.359a3.055 3.055 0 01-.039.442l-.195 1.612c-.1.9-.182 2.34-.182 3.393 0 .26.026 1.222.039 1.6v.247a1.011 1.011 0 01-.013.169l1.56-.026v-.273a6.233 6.233 0 011.638-4.2 1.935 1.935 0 011.4-.689c1.118 0 1.742 1.04 1.742 2.912a3.963 3.963 0 01-2.2 3.978 7.589 7.589 0 01-2.847.741 4.973 4.973 0 01.774 1.534 11.087 11.087 0 002.548-.728 5.464 5.464 0 003.354-5.343 5.444 5.444 0 00-.936-3.457 2.722 2.722 0 00-2.223-1.17 3.1 3.1 0 00-2.47 1.326 5.256 5.256 0 00-.819 1.544 2.854 2.854 0 01-.078.286h-.039c.026-.312.078-.754.169-1.3a12.752 12.752 0 01.468-2.509zm10.972 7.823a1.524 1.524 0 01.342.054c.36.081.711.135 1.251.207a6.147 6.147 0 00-.045.765c0 1.449.891 2.232 2.529 2.232a3.234 3.234 0 002.034-.594 2.141 2.141 0 00.864-1.683 2.8 2.8 0 00-.387-1.323 3.459 3.459 0 00-.424-.569 3.325 3.325 0 01-1.116.225 2.1 2.1 0 01.81 1.521c0 .882-.657 1.386-1.8 1.386a1.637 1.637 0 01-1.115-.332 1.125 1.125 0 01-.333-.927 6.382 6.382 0 01.045-.639c.351.018.432.018.576.018a13.108 13.108 0 001.35-.081 1.157 1.157 0 01.27-.027l.027-1.035a7.2 7.2 0 01-1.719.18c-.1 0-.171 0-.441-.009.054-.432.081-.612.171-1.269.387.009.468.009.558.009.324 0 .612-.018 1.26-.072.2-.018.243-.027.36-.036l.036-1.053a8.941 8.941 0 01-2.052.189 7.307 7.307 0 01.288-1.521l-1.2-.108a.373.373 0 01.009.09 10.593 10.593 0 01-.18 1.494 6.829 6.829 0 01-1.629-.324l-.09.99c.135.027.18.036.306.063a11.8 11.8 0 001.287.225c-.045.333-.126.936-.162 1.26a5.9 5.9 0 01-1.584-.342z" fill="#1c1c1c"/><path data-name="パス 478" d="M53.241 31.714c.3 0 .52.013.819.039v-1.378a3.853 3.853 0 01-.832.065h-.741v-1.066a8.775 8.775 0 01.078-1.339h-1.539a8.4 8.4 0 01.083 1.352v1.053h-.806a4.6 4.6 0 01-.962-.065v1.391a6.368 6.368 0 01.949-.052h.636a10.863 10.863 0 01-1.988 4.056 4.978 4.978 0 01.715 1.417 7.673 7.673 0 00.767-1.326 10.784 10.784 0 00.78-1.976 22.099 22.099 0 00-.091 1.95v2.678a13.192 13.192 0 01-.078 1.6h1.534a13.044 13.044 0 01-.078-1.6v-3.341c0-.715-.013-1.027-.052-1.781a8.5 8.5 0 001.235 2.184 3.974 3.974 0 01.52-1.105c.039-.052.091-.143.156-.247a6.857 6.857 0 01-1.742-2.509zm2.613 8.346v-.767h3.263v.741h1.482a17.78 17.78 0 01-.065-1.651v-8.567c0-.6.013-.949.039-1.326a7.713 7.713 0 01-1.118.052h-3.9c-.559 0-.806-.013-1.157-.039.039.624.052.936.052 1.378v8.515c0 .637-.026 1.183-.065 1.664zm0-10.192h3.263v1.846h-3.263zm0 3.081h3.263v1.833h-3.263zm0 3.068h3.263v1.976h-3.263zm13.715-2.626a6.791 6.791 0 01.039.806 4.746 4.746 0 01-.962 3.31 4.6 4.6 0 01-2.21 1.4v-2.188a7.763 7.763 0 01.039-.936 3.97 3.97 0 01-.78.039h-2.236a5.279 5.279 0 01-.871-.052 8.394 8.394 0 01.052 1.014v1.989c0 .416-.026.871-.065 1.274h1.339v-.676h1.287v.536h1.3c-.026-.286-.039-.429-.052-.9a5.889 5.889 0 01.624 1.183 5.145 5.145 0 003.289-3.25 6.562 6.562 0 003.237 3.224 5.111 5.111 0 01.741-1.378 5.759 5.759 0 01-2.47-1.7 4.414 4.414 0 01-.9-2.964 4.262 4.262 0 01.052-.728zm-5.694 3.484h1.351v1.378h-1.351zm-1.222-7.215a11.52 11.52 0 011.053-.039h1.664c.468 0 .7.013 1.053.039v-1.253a5.624 5.624 0 01-1.053.065h-1.664a5.54 5.54 0 01-1.053-.065zm-.507 1.924a7.77 7.77 0 011.04-.052h2.6a5.976 5.976 0 01.988.052v-1.339a7.061 7.061 0 01-1.04.052h-2.548a5.726 5.726 0 01-1.04-.065zm.507 1.807a6.584 6.584 0 01.819-.039h2.132a6.493 6.493 0 01.806.039v-1.209a5.941 5.941 0 01-.806.039h-2.132a6.584 6.584 0 01-.819-.039zm0 1.807a6.584 6.584 0 01.819-.039h2.119a6.441 6.441 0 01.819.039v-1.209a5.941 5.941 0 01-.806.039h-2.132a6.584 6.584 0 01-.819-.039zm4.992-6.422a4.77 4.77 0 01-.793 2.067l1.222.494a7.512 7.512 0 00.858-2.249zm5.057-.156a6.518 6.518 0 01-1.287 2.067 3.9 3.9 0 011.1.663 10.359 10.359 0 001.443-2.236zm-5.122 5.8a5.022 5.022 0 01-.871 2.132l1.209.546a7.806 7.806 0 00.923-2.291zm5.109-.13a6.661 6.661 0 01-1.183 2.026 4.138 4.138 0 011.092.676 9.575 9.575 0 001.339-2.2zm-3.094-6.11a6.65 6.65 0 01.039.728 4.5 4.5 0 01-.572 2.5 4.189 4.189 0 01-2.522 1.781 4.218 4.218 0 01.754 1.17 5.8 5.8 0 002.158-1.469 4.887 4.887 0 00.9-1.508 4.946 4.946 0 00.91 1.391 6.527 6.527 0 002.21 1.586 5.273 5.273 0 01.715-1.287 5.407 5.407 0 01-1.651-.806 3.691 3.691 0 01-1.222-1.469 5.041 5.041 0 01-.325-1.872 4.847 4.847 0 01.052-.741zm10.907 9.75a15.07 15.07 0 011.235-.325l2.756-.624v1.571a9.426 9.426 0 01-.078 1.547h1.573a9.533 9.533 0 01-.078-1.534v-1.9l.13-.026a9.5 9.5 0 011.248-.232l-.273-1.482a7.928 7.928 0 01-1.1.325v-5.643a9.188 9.188 0 01.078-1.495h-1.578a8.9 8.9 0 01.078 1.508v5.941l-3.042.676a8.706 8.706 0 01-1.2.182 7.58 7.58 0 01.364-.728 6.9 6.9 0 01-1.673-1.984h.468a7.561 7.561 0 011.027.052v-1.352a6.584 6.584 0 01-1 .052h-.611v-3.098a7.761 7.761 0 01.065-1.261h-1.483a8.044 8.044 0 01.065 1.274v3.081h-.871a6.456 6.456 0 01-1.17-.065v1.378a6.726 6.726 0 011.17-.065h.676a10.961 10.961 0 01-.689 1.469 8.548 8.548 0 01-1.4 1.924 3.916 3.916 0 01.663 1.339 8.98 8.98 0 001.686-2.928 27.94 27.94 0 00-.052 1.56v1.68a8.418 8.418 0 01-.091 1.378h1.508a7.689 7.689 0 01-.077-1.352v-2.145c0-.416-.013-.6-.078-1.482a9.617 9.617 0 001.313 1.833c.065-.208.078-.273.143-.442zm-5.161-8.623a10.49 10.49 0 01.806 2.782l1.092-.468a15.811 15.811 0 00-.793-2.808zm4.472-.52a10.814 10.814 0 01-.9 2.808l.949.494a15.732 15.732 0 001.04-2.821zm1.235 1.183a10.982 10.982 0 012.3 2l.884-1.092a12.627 12.627 0 00-2.275-1.911zm-.4 3.211a11.371 11.371 0 012.288 2l.884-1.053a11.862 11.862 0 00-2.262-1.911zm7.917 2.935a1.524 1.524 0 01.342.054c.36.081.711.135 1.251.207a6.147 6.147 0 00-.045.765c0 1.449.891 2.232 2.529 2.232a3.234 3.234 0 002.034-.594 2.141 2.141 0 00.864-1.683 2.8 2.8 0 00-.387-1.323 3.459 3.459 0 00-.427-.567 3.325 3.325 0 01-1.116.225 2.1 2.1 0 01.81 1.521c0 .882-.657 1.386-1.8 1.386a1.637 1.637 0 01-1.115-.332 1.125 1.125 0 01-.333-.927 6.382 6.382 0 01.045-.639c.351.018.432.018.576.018a13.108 13.108 0 001.35-.081 1.157 1.157 0 01.27-.027l.027-1.035a7.2 7.2 0 01-1.719.18c-.1 0-.171 0-.441-.009.054-.432.081-.612.171-1.269.387.009.468.009.558.009.324 0 .612-.018 1.26-.072.2-.018.243-.027.36-.036l.036-1.053a8.941 8.941 0 01-2.052.189 7.307 7.307 0 01.288-1.521l-1.2-.108a.373.373 0 01.009.09 10.593 10.593 0 01-.18 1.494 6.829 6.829 0 01-1.629-.324l-.09.99c.135.027.18.036.306.063a11.8 11.8 0 001.287.225c-.045.333-.126.936-.162 1.26a5.9 5.9 0 01-1.584-.342z" fill="#1c1c1c"/><path data-name="パス 481" d="M130.318 31.542h9.52v3.9c0 .384-.1.432-.72.432-.576 0-1.376-.064-2.432-.176a6.157 6.157 0 01.5 1.728c.624.032 1.5.064 2.128.064a3.935 3.935 0 001.676-.22c.464-.24.656-.688.656-1.5V25.51a15.746 15.746 0 01.064-1.744 14.668 14.668 0 01-1.744.064h-9.728a17.189 17.189 0 01-1.776-.064 13.785 13.785 0 01.064 1.536v10.464a15.2 15.2 0 01-.1 1.92h1.968a11.761 11.761 0 01-.08-1.856zm3.792-1.68h-3.792v-4.336h3.792zm1.728 0v-4.336h4v4.336z" fill="#0044f2"/><path data-name="パス 480" d="M125.222 31.721V20.567c0-5.694-3.978-8.229-8.463-8.229s-8.463 2.535-8.463 8.268v11.115c0 5.578 3.978 8.229 8.463 8.229s8.463-2.651 8.463-8.229zm-4.524-10.881v10.608c0 2.886-1.521 4.563-3.939 4.563-2.457 0-3.979-1.677-3.979-4.563V20.84c0-2.886 1.521-4.563 3.978-4.563 2.422 0 3.94 1.677 3.94 4.563z" fill="#0044f2"/></g><g data-name="グループ 296"><g data-name="マスクグループ 87" clip-path="url(#b)" transform="translate(14.068 9.939)"><path data-name="パス 106" d="M15.861 9.909l4.209 4.083a2.857 2.857 0 00.925.575 2.878 2.878 0 002.984-.574l4.228-4.084a10.562 10.562 0 001.867-2.4 5.731 5.731 0 00.749-2.88 4.464 4.464 0 00-1.351-3.278A4.465 4.465 0 0026.197 0a4.619 4.619 0 00-2.329.608 6.626 6.626 0 00-1.845 1.548A6.649 6.649 0 0020.177.609 4.62 4.62 0 0017.849 0a4.463 4.463 0 00-3.278 1.351 4.466 4.466 0 00-1.35 3.279 5.659 5.659 0 00.762 2.88 10.883 10.883 0 001.878 2.4M16.224 3a2.211 2.211 0 011.627-.666 2.485 2.485 0 011.353.386 4.3 4.3 0 011.084.979l.7.839a1.3 1.3 0 001.044.485 1.288 1.288 0 001.04-.485l.694-.839a4.328 4.328 0 011.084-.979 2.491 2.491 0 011.354-.386 2.275 2.275 0 012.294 2.293 3.482 3.482 0 01-.616 2A11 11 0 0126.477 8.3l-4.123 4a.47.47 0 01-.659 0l-4.123-4a11.075 11.075 0 01-1.4-1.674 3.481 3.481 0 01-.615-2A2.21 2.21 0 0116.224 3" fill="#fc4076"/><path data-name="パス 107" d="M27.038 21.919h-3.893a3.952 3.952 0 00-.7-2.337 3.7 3.7 0 00-1.76-1.388l-9.073-3.342a4.437 4.437 0 00-.468-.126 2.372 2.372 0 00-.5-.054H2.815a2.711 2.711 0 00-1.988.827A2.711 2.711 0 000 17.484v9.282a2.711 2.711 0 00.827 1.988 2.711 2.711 0 001.988.827h2.156a2.929 2.929 0 001.729-.582 2.755 2.755 0 001.083-1.552l10.558 3.027a2.778 2.778 0 001.625-.024l9.447-2.932a2.35 2.35 0 001.061-.641 1.573 1.573 0 00.35-1.065 3.855 3.855 0 00-1.055-2.81 3.65 3.65 0 00-2.733-1.083M5.45 26.769a.453.453 0 01-.134.367.526.526 0 01-.345.112H2.816a.461.461 0 01-.48-.479v-9.285a.462.462 0 01.479-.48H5.45zm13.77 1.415a.318.318 0 01-.27 0L7.786 25.03v-8.025h2.881a.4.4 0 01.082.008.631.631 0 01.083.022l9.034 3.318a1.293 1.293 0 01.685.566 1.848 1.848 0 01.261 1h-.417q-1.392-.024-2.266-.118a8.1 8.1 0 01-1.582-.319l-2.024-.71a1.154 1.154 0 00-.9.067 1.116 1.116 0 00-.579.683 1.223 1.223 0 00.056.917 1.071 1.071 0 00.678.6l2.442.8a6.575 6.575 0 001.464.341 16.222 16.222 0 001.732.078h7.625a1.368 1.368 0 01.847.283 1.344 1.344 0 01.494.813z" fill="#1c1c1c"/></g></g><path data-name="パス 479" d="M103.23 19.088a5.616 5.616 0 01.77.042v-.791a5.07 5.07 0 01-.77.035h-2.66c.182-.385.182-.385.273-.567l.14-.294-.84-.126a4.5 4.5 0 01-.42.987h-1.2a5.078 5.078 0 01-.763-.035v.791a5.366 5.366 0 01.763-.042h.8a9.767 9.767 0 01-.839 1.174 14.586 14.586 0 011.88.576 6.368 6.368 0 01-2.618.749 3.455 3.455 0 01.385.749 6.761 6.761 0 003.027-1.174 13.865 13.865 0 012.156 1.153l.581-.644a18.423 18.423 0 00-2.149-1.029 4.259 4.259 0 00.889-1.554zm-1.407 0a2.957 2.957 0 01-.812 1.267c-.5-.182-.665-.231-1.358-.434a9.21 9.21 0 00.539-.833zm-1.421-2.548h-1.771a6.527 6.527 0 01-.805-.035 4.852 4.852 0 01.038.539v.518a3.691 3.691 0 01-.035.518h.77v-.84h4.519v.84h.77a2.916 2.916 0 01-.035-.518v-.518a4.478 4.478 0 01.028-.539 6.6 6.6 0 01-.805.035h-1.89v-.126a3.647 3.647 0 01.035-.525h-.857a3.083 3.083 0 01.035.532zm-2.086 12.774a8.733 8.733 0 00.8-3.115l-.777-.161a6.865 6.865 0 01-.791 2.842zm4-4.4a12.273 12.273 0 00-2.4-1.057l-.448.665a9.593 9.593 0 012.369 1.124zm1.915 3.84a13.14 13.14 0 00-1.183-2.835l-.749.336a11.48 11.48 0 011.127 2.907zm-3.927-2.653a4.365 4.365 0 01.049-.693h-.9a5.032 5.032 0 01.049.714v3.3c0 .637.21.749 1.449.749 1.12 0 1.428-.084 1.624-.441a4.245 4.245 0 00.289-1.634 3.3 3.3 0 01-.784-.28 4.446 4.446 0 01-.159 1.386c-.077.161-.28.21-.84.21-.644 0-.777-.035-.777-.21zm1.106 7.174a1.53 1.53 0 01.707.21 1.734 1.734 0 01.861 1.554 1.96 1.96 0 01-.973 1.75 3.72 3.72 0 01-1.393.385 2.233 2.233 0 01.427.819 4.577 4.577 0 001.1-.294 2.7 2.7 0 001.7-2.611 2.523 2.523 0 00-2.775-2.597 3.142 3.142 0 00-2.408.98 3.007 3.007 0 00-.77 2.037c0 1.127.574 1.939 1.372 1.939.574 0 1.022-.413 1.421-1.316a10.127 10.127 0 00.731-2.856zm-.854.007a9.226 9.226 0 01-.581 2.366c-.252.6-.49.9-.721.9-.308 0-.553-.455-.553-1.029a2.344 2.344 0 01.952-1.89 1.782 1.782 0 01.903-.347z" fill="#0044f2"/></g></g></g><g data-name="グループ 434" transform="translate(0 57.342)"><rect data-name="長方形 317" width="155.971" height="53.519" rx="10" fill="#eff0ff"/><g data-name="グループ 267"><path data-name="パス 488" d="M64.597 21.459c0 1.044.492 1.284 2.688 1.284 2.8 0 2.988-.192 3.252-3.348a4.792 4.792 0 01-1.272-.456 6.245 6.245 0 01-.288 2.268c-.144.252-.552.336-1.62.336-1.14 0-1.452-.084-1.452-.384v-.84a13.251 13.251 0 001.812-1.728 20.316 20.316 0 003.012-4.56c.324-.672.324-.672.468-.924l-1.38-.556a10.873 10.873 0 01-1.344 2.92 17.223 17.223 0 01-2.568 3.144v-2.964a9.159 9.159 0 01.072-1.188h-1.452a8.887 8.887 0 01.072 1.224v4.032a15.336 15.336 0 01-3.072 1.788 4.156 4.156 0 01.9 1.144 15.414 15.414 0 002.172-1.324zm-.12-8.652a14.083 14.083 0 013.516 1.836l.792-1.152a18.325 18.325 0 00-3.5-1.716zm-1.824 2.736a13.507 13.507 0 01-1.152 4.164l1.248.624a17.525 17.525 0 001.176-4.548zm7.164.708a17.921 17.921 0 011.748 4.62l1.272-.684a24.532 24.532 0 00-1.844-4.512zm9.54-3.876a3.612 3.612 0 01.06.708l.012.756c-1.356.036-2.328.06-2.9.072-1.548.06-1.74.06-2.04.06a5.226 5.226 0 01-.592-.02l.048 1.44a21.894 21.894 0 012.448-.2q.882-.054 3.06-.108c0 .36 0 .7.012 1.02v.072a.211.211 0 00.012.072 1.981 1.981 0 00-1.248-.36 2.205 2.205 0 00-2.376 2.184 1.875 1.875 0 00.828 1.62 2.177 2.177 0 001.38.432 1.977 1.977 0 001.764-.852c-.192 1.2-1.476 2.112-3.432 2.448a4.259 4.259 0 01.852 1.356 8.892 8.892 0 002.172-.98 3.855 3.855 0 001.788-3.252 3.652 3.652 0 00-.384-1.692v-2.1c1.236-.012 1.236-.012 1.464-.012.924 0 1.572.024 2 .06l-.012-1.38a11.314 11.314 0 01-1.152.048c-.264 0-.288 0-.54.012l.756-.348a7.7 7.7 0 00-1.1-1.764l-.864.384a7.28 7.28 0 011.092 1.728c-.576.012-1.128.012-1.656.012a9.585 9.585 0 01.06-1.416zm-.924 4.608a1.2 1.2 0 01.78.288.666.666 0 01.228.54 1.1 1.1 0 01-1.164 1.08.952.952 0 01-1.02-.94 1.05 1.05 0 011.176-.968zm6.624-3.9a7.662 7.662 0 00-1.1-1.656l-.8.372a8.254 8.254 0 011.068 1.716zm5.364 5.34h-3.468a8.232 8.232 0 01-1.3-.06v1.14a8.594 8.594 0 011.32-.06h3.444v.516h-2.864a8.715 8.715 0 01-1.14-.048v1.116a8.179 8.179 0 011.188-.06h2.82v.576c0 .216-.1.276-.468.276a13.608 13.608 0 01-1.524-.108 3.415 3.415 0 01.372 1.188c.384.024.864.052 1.152.052 1.464 0 1.764-.228 1.764-1.308v-.676h2.648v.468h1.344a9.022 9.022 0 01-.06-1.3v-.7a7.13 7.13 0 011.044.06v-1.14a6.78 6.78 0 01-1.044.06v-.42a8.119 8.119 0 01.036-1.092c-.336.024-.576.036-1.284.036h-2.684v-.448h2.76c.384 0 .7.012.96.036a7.583 7.583 0 01-.036-.8v-.796a8.169 8.169 0 01.036-.84c-.288.024-.552.036-1.008.036h-2.712v-.456h3.448a11.572 11.572 0 011.4.072v-1.192a11.256 11.256 0 01-1.476.072h-3.372a3.39 3.39 0 01.084-.816h-1.452a4.434 4.434 0 01.072.816h-3.216a11.131 11.131 0 01-1.476-.072v1.188a11.572 11.572 0 011.4-.072h3.288v.456h-2.528c-.456 0-.708-.012-1.02-.036.024.288.036.5.036.84v.792c0 .3-.012.552-.036.8.276-.024.576-.036 1.008-.036h2.544v.468h-2.82a8.981 8.981 0 01-1.128-.048v1.044a9.967 9.967 0 011.1-.048h2.844zm1.3 0v-.528h2.644v.528zm0 1.02h2.644v.516h-2.648zm-1.3-4.38v.488h-2.244v-.492zm1.3 0h2.412v.488h-2.416zm7.38-1.668a8.069 8.069 0 01-1.284-.072v1.3a7.637 7.637 0 011.28-.072h8.148a7.307 7.307 0 011.284.072v-1.3a8.712 8.712 0 01-1.284.072h-1.848a11.992 11.992 0 00.96-1.308l-1.356-.372a6.293 6.293 0 01-1.056 1.68h-1.62a10.149 10.149 0 00-1.116-1.692l-1.3.372a7.507 7.507 0 01.972 1.32zm.624 6.972h1.968v1.02c0 .216-.06.264-.348.264a7.113 7.113 0 01-.84-.072 4.689 4.689 0 01.284 1.172c.432.012.576.012.756.012 1.116 0 1.38-.228 1.38-1.152v-5.16c0-.636.012-.912.036-1.2a6.961 6.961 0 01-1.068.048h-2.328a10.29 10.29 0 01-1.128-.048c.024.3.036.492.036 1.08v5.176a10.633 10.633 0 01-.06 1.368h1.38a7.226 7.226 0 01-.072-1.284zm0-1.128v-.84h1.968v.84zm0-1.968v-.84h1.968v.84zm4.284-1.8a7.213 7.213 0 01.06 1.128v2.592a10.529 10.529 0 01-.048 1.284h1.356a10.256 10.256 0 01-.048-1.3v-2.564a6.833 6.833 0 01.06-1.14zm2.528-.32a7.728 7.728 0 01.06 1.236v4.864c0 .336-.06.384-.552.384a10.244 10.244 0 01-1.464-.132 4.26 4.26 0 01.372 1.276c.756.036 1.008.048 1.3.048.768 0 1.092-.084 1.344-.324a1.4 1.4 0 00.268-1.032v-5.052a7.076 7.076 0 01.076-1.268zm5.8 7.092c-.012-.156-.012-.252-.012-.324a9.851 9.851 0 011.068-3.636l-.96-.432a12.239 12.239 0 00-.628 1.58c.012-.3.024-.4.024-.66a20.035 20.035 0 01.18-2.652 16.544 16.544 0 01.756-3.588l-1.584-.168a7.852 7.852 0 01-.18 1.116 23.037 23.037 0 00-.492 4.692 20.931 20.931 0 00.312 3.588c.036.276.048.348.06.564zm1.652-7.192a14.245 14.245 0 002.16.132 21.5 21.5 0 002.568-.144c.576-.072.756-.1.852-.108l-.072-1.452a13.233 13.233 0 01-3.264.324 8.652 8.652 0 01-2.22-.192zm.828 1.98a3.92 3.92 0 00-1.1 2.472 2.01 2.01 0 00.36 1.176c.528.708 1.488 1.044 2.976 1.044a14.8 14.8 0 002.484-.228 4.011 4.011 0 01.492-.072l-.12-1.524a8.433 8.433 0 01-2.856.456c-1.248 0-1.908-.36-1.908-1.044a2.715 2.715 0 01.852-1.728z" fill="#1c1c1c"/><path data-name="パス 489" d="M67.161 35.119a10.241 10.241 0 013.072-.524c1.712 0 2.832.9 2.832 2.272a1.644 1.644 0 01-1.612 1.776 1.107 1.107 0 01-1.012-.544 3.083 3.083 0 01-.224-1.408 5.548 5.548 0 01.032-.7 6.75 6.75 0 01-1.776.7 5.345 5.345 0 00.272 2.048 2.583 2.583 0 002.624 1.78 3.554 3.554 0 003.632-3.648c0-2.272-1.9-3.9-4.576-3.9a11.1 11.1 0 00-3.264.448v-2.08c.608-.064.928-.112 1.456-.208 1.1-.192 1.408-.24 1.7-.288l-.064-1.8a17.844 17.844 0 01-3.088.608v-1.024a9.823 9.823 0 01.1-1.744h-2a10.963 10.963 0 01.1 1.84v1.056c-.176 0-.256 0-.64.016-.224.016-.4.016-.56.016a9.813 9.813 0 01-1.936-.144l.004 1.792a3 3 0 01.336-.016c.048 0 .192 0 .4.016.192 0 .64.016.88.016.4 0 .624 0 .864-.016.528-.032.528-.032.656-.032l.016 2.464a8.56 8.56 0 00-2.332 1.36 3.415 3.415 0 00-1.38 2.368 2.35 2.35 0 00.88 1.808 4.984 4.984 0 003.024 1.136 1.406 1.406 0 001.476-.928 4.764 4.764 0 00.128-1.36zm-1.792 2.916c0 .528-.08.672-.352.672a1.923 1.923 0 01-1.024-.352c-.368-.224-.528-.464-.528-.736 0-.576.7-1.28 1.9-1.92zm10.336-6.752a13.571 13.571 0 00-3.168-3.28l-1.5 1.008a13.663 13.663 0 013.2 3.456zm6.148 5.344a3.206 3.206 0 01-1.52 2.256 7.994 7.994 0 01-3.124 1.056 5.02 5.02 0 01.928 1.568 8.182 8.182 0 004.064-1.92 4.907 4.907 0 001.52-2.96h1.44v3.12c0 1.2.48 1.424 3.136 1.424 1.808 0 2.5-.128 2.944-.544.4-.384.56-.976.72-2.752a6.627 6.627 0 01-1.648-.672 5.081 5.081 0 01-.288 2.048c-.192.272-.512.336-1.744.336-1.248 0-1.392-.048-1.392-.5v-2.46h1.376c.656 0 1.28.016 1.7.048a11.94 11.94 0 01-.08-1.7v-5.84a19.041 19.041 0 01.08-2 12.36 12.36 0 01-1.7.08h-7.376a12.247 12.247 0 01-1.68-.08 19.492 19.492 0 01.08 2v5.84a12.36 12.36 0 01-.08 1.7c.416-.032.96-.048 1.728-.048zm-.88-7.808h7.216v1.04h-7.22zm0 2.544h7.216v1.072h-7.22zm0 2.576h7.216v1.136h-7.22zm17.264-1.5a10.294 10.294 0 011.488-.08h6.656a10.294 10.294 0 011.488.08v-1.46a9.517 9.517 0 01-1.488.08h-2.66v-.56h2.016c.688 0 .944.016 1.328.048v-1.248a9.849 9.849 0 01-1.344.064h-2v-.544h2.32a9.13 9.13 0 011.424.08v-1.408a10.88 10.88 0 01-1.552.1h-2.192a4.4 4.4 0 01.1-1.04h-1.812a3.825 3.825 0 01.1 1.04h-1.892a10.228 10.228 0 01-1.52-.08v1.392a8.79 8.79 0 011.408-.08h2v.544h-1.792a9.518 9.518 0 01-1.3-.064v1.248c.384-.032.64-.048 1.3-.048h1.792v.56h-2.384a12.943 12.943 0 01-1.312-.048v-.528a6.049 6.049 0 01-1.056.064h-.384v-2.064a14.24 14.24 0 001.392-.5c.144-.048.176-.064.272-.1l-.928-1.408a3.131 3.131 0 01-.656.32 14.073 14.073 0 01-3.824.944 6.082 6.082 0 01.608 1.488c.8-.144 1.04-.192 1.52-.32v1.632h-.752a6.963 6.963 0 01-1.264-.08v1.7a6.716 6.716 0 011.216-.08h.672a11.74 11.74 0 01-.608 1.776 8.87 8.87 0 01-1.616 2.672 6.884 6.884 0 01.9 1.5 9.885 9.885 0 001.564-3.212c-.064.768-.112 1.6-.112 2.384v2.256a15.245 15.245 0 01-.1 1.872h1.808a11.039 11.039 0 01-.1-1.888v-3.424c-.048-1.36-.048-1.36-.1-1.9a8.141 8.141 0 001.216 1.92 5.117 5.117 0 01.768-1.28 6.133 6.133 0 01-1.332-1.652 4.68 4.68 0 01-.5-1.024h.3a7.664 7.664 0 01.912.048zm2.528 6.5a8.768 8.768 0 01-3.152 1.1 6.443 6.443 0 01.832 1.408 9.39 9.39 0 003.708-1.748l-.736-.768h2.928l-.672.768a10.1 10.1 0 003.712 1.744 5.413 5.413 0 01.88-1.488 11.611 11.611 0 01-3.184-1.024h.544c.512 0 .912.016 1.344.048a10.367 10.367 0 01-.064-1.46v-3.324a9.84 9.84 0 01.064-1.424 9.738 9.738 0 01-1.376.048h-5.28c-.672 0-.96 0-1.328-.032a9.344 9.344 0 01.048 1.344v3.408a12.154 12.154 0 01-.064 1.44c.352-.032.352-.032 1.376-.048zm-.144-4.9h4.688v.528h-4.692zm0 1.552h4.688v.528h-4.692zm0 1.536h4.688v.56h-4.692zm11.58-10.292a3.76 3.76 0 01-.048.544l-.24 1.984c-.128 1.1-.224 2.88-.224 4.176 0 .32.032 1.5.048 1.968v.3a1.244 1.244 0 01-.016.212l1.92-.032v-.336a7.671 7.671 0 012.012-5.168 2.381 2.381 0 011.728-.848c1.376 0 2.144 1.28 2.144 3.584 0 2.432-.848 3.952-2.7 4.9a9.34 9.34 0 01-3.5.912 6.12 6.12 0 01.94 1.888 13.645 13.645 0 003.136-.9 6.725 6.725 0 004.128-6.576 6.7 6.7 0 00-1.152-4.256 3.351 3.351 0 00-2.736-1.44 3.82 3.82 0 00-3.04 1.632 6.468 6.468 0 00-1.008 1.9 3.514 3.514 0 01-.1.352h-.04c.032-.384.1-.928.208-1.6a15.7 15.7 0 01.576-3.088z" fill="#0044f2"/></g><g data-name="グループ 298"><g data-name="マスクグループ 93" transform="translate(25.078 14.679)" clip-path="url(#c)"><path data-name="パス 110" d="M7.368 19.546v2.222a.944.944 0 101.888 0v-2.222h2.222a.944.944 0 100-1.888H9.256v-2.222a.944.944 0 10-1.888 0v2.222H5.146a.944.944 0 100 1.888zM5.541 8.78h5.541a.944.944 0 100-1.888H5.541a.944.944 0 100 1.888zM2.863 26.913a2.762 2.762 0 01-2.031-.831A2.762 2.762 0 010 24.051V2.863A2.762 2.762 0 01.832.832 2.762 2.762 0 012.863 0h21.188a2.762 2.762 0 012.031.831 2.762 2.762 0 01.831 2.031v21.189a2.838 2.838 0 01-2.862 2.862zm0-2.374h21.188a.524.524 0 00.487-.487V2.863a.463.463 0 00-.152-.335.463.463 0 00-.335-.152H2.863a.463.463 0 00-.335.152.463.463 0 00-.152.335v21.189a.463.463 0 00.152.335.463.463 0 00.335.152M19 9.213l1.557 1.552a.929.929 0 00.656.287.9.9 0 00.673-.287.948.948 0 00.024-1.327l-1.577-1.6 1.552-1.552a.926.926 0 00.287-.656.9.9 0 00-.287-.673.893.893 0 00-1.327 0L19 6.508l-1.555-1.553a.926.926 0 00-.656-.287.9.9 0 00-.673.287.893.893 0 000 1.327l1.552 1.552-1.577 1.6a.974.974 0 00-.264.656.9.9 0 00.287.673.893.893 0 001.327 0z" fill="#1c1c1c"/><path data-name="パス 111" d="M16.228 21.524h5.541a.944.944 0 100-1.888h-5.541a.944.944 0 100 1.888z" fill="#fc4076"/><path data-name="パス 112" d="M16.228 17.566h5.541a.944.944 0 100-1.888h-5.541a.944.944 0 100 1.888z" fill="#fc4076"/></g></g></g><g data-name="グループ 436" transform="translate(159.029 57.342)"><rect data-name="長方形 318" width="155.971" height="53.519" rx="10" fill="#eff0ff"/><g data-name="グループ 435"><path data-name="パス 495" d="M73.637 41.637a27.452 27.452 0 00-2.3-4.528l-1.38.752a16.706 16.706 0 01.816 1.472c-.688.224-1.472.432-2.56.672v-3.328h3.5c.56 0 .864.016 1.312.048a15.91 15.91 0 01-.048-1.376v-4.992a11.365 11.365 0 01.052-1.456 12.139 12.139 0 01-1.5.064h-3.556a12.644 12.644 0 01-1.5-.064 16.454 16.454 0 01.064 1.648v9.776a7.486 7.486 0 01-1.04.112l.4 1.856c.224-.048.288-.08.48-.112a47.529 47.529 0 005.068-1.38c.224.56.336.848.64 1.728zm-5.424-9.536v-1.568h3.084v1.568zm0 1.472h3.084v1.616h-3.084zm11.648-3.2a12.4 12.4 0 01.064-1.472 13.434 13.434 0 01-1.44.064h-2.96a14.24 14.24 0 01-1.44-.064c.032.4.048.784.048 1.488v10.88a16.821 16.821 0 01-.08 1.888h1.856a13.028 13.028 0 01-.1-1.888v-10.7h2.368v8.232c0 .368-.1.448-.624.448a10.384 10.384 0 01-1.392-.128 5.187 5.187 0 01.372 1.78c.384.016.8.032 1.12.032 1.664 0 2.208-.432 2.208-1.744zm4.864.352h-1.456a11.527 11.527 0 01-1.584-.1v1.744a10.294 10.294 0 011.488-.08h2.96a15.515 15.515 0 01-.624 3.392c-.608-.7-.88-1.008-1.008-1.136-.944-.976-.944-.976-1.264-1.3l-1.168 1.192a29.108 29.108 0 012.72 2.944 11.1 11.1 0 01-3.28 3.92 5.726 5.726 0 011.216 1.488 15.725 15.725 0 003.184-3.952 22.981 22.981 0 011.84 2.764l1.264-1.4c-1.136-1.6-1.264-1.78-2.272-3.06a16.39 16.39 0 001.088-4.848 11.939 11.939 0 011.248.048v-1.712a8.545 8.545 0 01-1.536.1h-1.136v-.9a12.7 12.7 0 01.08-1.5h-1.856a7.578 7.578 0 01.1 1.5zm8.256 2.432v7.632c0 .336-.1.384-.96.384a16.075 16.075 0 01-1.936-.192 5.3 5.3 0 01.5 1.776c.64.048 1.232.064 1.888.064 1.056 0 1.632-.16 1.936-.544.24-.288.288-.56.288-1.392v-7.728h.2a9.3 9.3 0 011.12.048l.368.048v-1.792a9.175 9.175 0 01-1.5.1h-.188v-1.264a14.408 14.408 0 01.1-1.9h-1.92a10.734 10.734 0 01.112 1.9v1.264h-2.04a9.717 9.717 0 01-1.52-.08v1.76a9.97 9.97 0 011.52-.08zm-4.368 1.776a14.264 14.264 0 012.24 3.868l1.456-.96a20.092 20.092 0 00-2.256-3.7zm16.384-3.552l-1.232 1.088a15.394 15.394 0 014.064 2.932l1.232-1.36a20.378 20.378 0 00-4-2.656h5.3a15.484 15.484 0 011.872.08v-1.776a13.65 13.65 0 01-1.888.1h-4.148v-.688a3.613 3.613 0 01.08-.928h-1.936a4.12 4.12 0 01.08.912v.7h-4.08a12.868 12.868 0 01-1.664-.084c.048.544.064 1.088.064 2.24a44.885 44.885 0 01-.336 6.768 7.774 7.774 0 01-1.04 2.784 6.138 6.138 0 011.44 1.376c1.344-2.5 1.632-4.528 1.648-11.488zm-3.056 10.432a20.9 20.9 0 001.264-6.32l-1.664-.432a19.926 19.926 0 01-.352 3.088 9.692 9.692 0 01-.864 2.624zm1.984-7.7a7.123 7.123 0 01.1 1.488v6.02c0 .96.56 1.2 2.784 1.2 1.36 0 2.016-.176 2.368-.624s.5-1.248.624-3.44a6.986 6.986 0 01-1.7-.56c0 2.88-.016 2.944-1.28 2.944-.96 0-1.088-.064-1.088-.5v-5.02a11.547 11.547 0 01.08-1.5zm8.56 6.592a28.734 28.734 0 00-2.032-5.724l-1.52.752a19.209 19.209 0 011.84 5.792z" fill="#0044f2"/><g data-name="グループ 268" fill="#1c1c1c"><path data-name="パス 491" d="M73.449 22.333h-4.522l2.7-3.173a6.519 6.519 0 001.974-4.066 3.9 3.9 0 00-4.142-3.8 3.879 3.879 0 00-4.123 3.8h2.356a1.564 1.564 0 011.634-1.6 1.533 1.533 0 011.634 1.6 4.015 4.015 0 01-1.216 2.6l-4.389 5.171v1.71h8.094zm4.9-10.868l-4.482 9.41v1.843h5.819v1.857h2.66v-1.862h1.2v-2.261h-1.2v-3.344h-2.66v3.344h-2.513l4.085-8.987z"/><path data-name="パス 493" d="M97.903 19.635h1.02c1.42 0 2.12.72 2.12 1.94a1.727 1.727 0 01-1.8 1.82 1.826 1.826 0 01-2.04-1.52h-2.46c.1 2.24 1.76 3.88 4.68 3.88 2.84 0 4.4-1.8 4.4-4.04a3.53 3.53 0 00-2.08-3.3 3.376 3.376 0 001.88-3.02c0-2.06-1.84-3.8-4.36-3.8a4.062 4.062 0 00-4.34 3.8h2.48a1.642 1.642 0 011.72-1.48 1.6 1.6 0 011.72 1.6 1.7 1.7 0 01-1.92 1.76h-1.02zm13.72-7.86h-3l-2.78 5.62a9.61 9.61 0 00-1.26 3.94c0 3.06 2.08 4.42 4.66 4.42 2.56 0 4.62-1.38 4.62-4.44a3.877 3.877 0 00-3.78-4.12 2.974 2.974 0 00-1.34.26zm-4.24 9.66a1.745 1.745 0 011.86-1.94 1.735 1.735 0 011.82 1.94 1.742 1.742 0 01-1.82 1.96 1.752 1.752 0 01-1.86-1.96zm11.68-2.96c1.12 0 1.6.86 1.6 2.54 0 1.62-.6 2.38-1.6 2.38a1.586 1.586 0 01-1.64-1.38h-2.76c.22 2.44 2.16 3.74 4.48 3.74 2.84 0 4.32-1.62 4.32-4.88 0-3.3-1.48-4.92-3.6-4.92a2.816 2.816 0 00-2.04.72v-2.36h5.12v-2.54h-7.86v7.72h2.52a1.552 1.552 0 011.46-1.02z"/><path data-name="パス 492" d="M89.618 12.527v.48h-.515a3.846 3.846 0 01-.555-.03v.53c.155-.015.34-.025.55-.025h1.185v.425h-1.185a3.71 3.71 0 01-.545-.03v.545a4.478 4.478 0 01.535-.03h1.195v1.065c0 .11-.03.135-.185.135a4.454 4.454 0 01-.56-.04 1.289 1.289 0 01.12.525h.39a1.4 1.4 0 00.55-.07c.15-.07.2-.19.2-.48v-1.13h.065a2.719 2.719 0 01.495.03v-.55a3.05 3.05 0 01-.495.025h-.065v-.425h.085a3.252 3.252 0 01.49.025v-.53a3.69 3.69 0 01-.545.03h-.69v-.475h.55a3.627 3.627 0 01.515.025v-.53a3.686 3.686 0 01-.52.03h-.545v-.135a2.658 2.658 0 01.025-.375h-.575a2.235 2.235 0 01.03.375v.135h-.44a3.637 3.637 0 01-.52-.03v.53a4.234 4.234 0 01.535-.025zm-2.645 2.68a4.555 4.555 0 01-.03.59h.525v-.42h.455v.25h.51a5.622 5.622 0 01-.015-.5v-2.86a3.751 3.751 0 01.015-.495c-.12.01-.21.015-.435.015h-.6a4.332 4.332 0 01-.44-.015 4.687 4.687 0 01.02.505zm.5-2.94h.45v1.04h-.45zm0 1.505h.45v1.12h-.45zm2.355 1.445a3.837 3.837 0 00-.655-.765l-.425.28a3.819 3.819 0 01.64.82zm.24 4.86c0-.195.005-.32.015-.45a4.021 4.021 0 01-.465.02h-1.115a4.077 4.077 0 01-.465-.02c.01.135.015.275.015.45v1.22a3.447 3.447 0 01-.035.5h.53v-.28h1.06c.04 0 .135 0 .28.005a1.9 1.9 0 01.13.515c.255.015.275.015.345.015a1.523 1.523 0 00.565-.06c.18-.075.24-.2.24-.5v-3.28c0-.25 0-.375.02-.555a4.485 4.485 0 01-.515.02h-.96a4.278 4.278 0 01-.51-.02c.01.155.015.3.015.465v.765c0 .215-.005.31-.015.455.125-.01.285-.015.46-.015h.985v2.09c0 .1-.045.135-.185.135-.09 0-.27-.015-.38-.025a5.183 5.183 0 01-.015-.435zm-.355-1.995h.935v.25h-.935zm0 .605h.935v.255h-.935zm-1.165 1.38h1.02v.3h-1.02zm0 .705h1.02v.325h-1.02zm-1.045-1.445h.9c.175 0 .33.005.46.015a4.763 4.763 0 01-.015-.455v-.765c0-.195 0-.3.015-.465a4.225 4.225 0 01-.51.02h-.88a4.541 4.541 0 01-.515-.02 5.543 5.543 0 01.02.56v3.265a4.47 4.47 0 01-.03.62h.585a4.337 4.337 0 01-.03-.615zm0-1.245h.86v.25h-.86zm0 .605h.86v.255h-.86z"/><path data-name="パス 494" d="M125.686 22.431a5.244 5.244 0 01-.03.6h.6v-.295h2.32v.3h.605a5.065 5.065 0 01-.03-.6v-3.23a4.518 4.518 0 01.025-.51 4.023 4.023 0 01-.54.025h-2.415a4.414 4.414 0 01-.56-.03c.015.165.025.34.025.535zm.565-3.185h2.325v1.16h-2.325zm0 1.685h2.325v1.28h-2.325z"/></g><g data-name="グループ 299"><g data-name="マスクグループ 96" transform="translate(23.405 13.607)" clip-path="url(#d)"><path data-name="パス 113" d="M14.68 29.361a14.261 14.261 0 01-5.726-1.156 14.735 14.735 0 01-7.8-7.8A14.26 14.26 0 010 14.682a14.261 14.261 0 011.157-5.727 14.731 14.731 0 017.8-7.8A14.261 14.261 0 0114.68 0a14.45 14.45 0 016.191 1.37 14.658 14.658 0 015.034 3.853v-2.8a1.3 1.3 0 112.59 0v5.916A1.533 1.533 0 0126.936 9.9h-5.912a1.295 1.295 0 110-2.59h3.222a13.044 13.044 0 00-4.261-3.459 11.548 11.548 0 00-5.3-1.257 11.664 11.664 0 00-8.57 3.519 11.664 11.664 0 00-3.519 8.568 11.664 11.664 0 003.519 8.57 11.664 11.664 0 008.57 3.519 11.712 11.712 0 007.443-2.57 11.722 11.722 0 004.25-6.571 1.457 1.457 0 01.586-.82 1.345 1.345 0 01.951-.209 1.2 1.2 0 01.87.5 1.074 1.074 0 01.168.946 14.115 14.115 0 01-5.091 8.135 14.273 14.273 0 01-9.18 3.177" fill="#1c1c1c"/><path data-name="パス 114" d="M15.975 14.161l4.749 4.749a1.251 1.251 0 01.367.9 1.218 1.218 0 01-.367.917 1.291 1.291 0 01-1.82 0l-5.052-5.052a1.558 1.558 0 01-.35-.53 1.6 1.6 0 01-.113-.591V7.342a1.295 1.295 0 112.59 0z" fill="#fc4076"/></g></g></g></g></g></svg>