<svg data-name="グループ 57" xmlns="http://www.w3.org/2000/svg" width="17.744" height="23.226"><defs><clipPath id="a"><path data-name="長方形 166" fill="#ff4176" d="M0 0h17.744v23.226H0z"/></clipPath></defs><g data-name="グループ 56" clip-path="url(#a)"><path data-name="パス 17" d="M16.766 17.716a5.555 5.555 0 00-1.935-2.055 2.309 2.309 0 00-2.434.16 5.473 5.473 0 00-1.709 1.8 9.661 9.661 0 01-4.4-4 9.585 9.585 0 01-1.65-5.809 5.464 5.464 0 002.349-.727 2.31 2.31 0 001.228-2.108 5.556 5.556 0 00-.978-2.648A5.555 5.555 0 005.3.274a2.31 2.31 0 00-2.434.16A5.792 5.792 0 00.71 3.118a5.2 5.2 0 00-.278.925 7.152 7.152 0 00-.325 1.4c-.394 3.017.257 6.317 2.758 10.32s5.182 6.035 8.07 7a7.132 7.132 0 001.471.328 5.324 5.324 0 00.746.112 5.794 5.794 0 003.364-.736 2.311 2.311 0 001.227-2.108 5.557 5.557 0 00-.978-2.648" fill="#ff4176"/></g></svg>