<svg xmlns="http://www.w3.org/2000/svg" width="828" height="70"><defs><clipPath id="a"><path data-name="パス 462" d="M0 0h40.536v32H0z" fill="none"/></clipPath><clipPath id="b"><path data-name="パス 456" d="M0 0h40.323v40H0z" fill="none"/></clipPath><clipPath id="c"><path data-name="パス 467" d="M0 0h35.2v35.2H0z" fill="none"/></clipPath><clipPath id="d"><path data-name="パス 470" d="M0 0h37.924v38.4H0z" fill="none"/></clipPath></defs><g data-name="グループ 439"><g data-name="グループ 433" transform="translate(-269 -3216)"><rect data-name="長方形 291" width="204" height="70" rx="10" transform="translate(477 3216)" fill="#eff0ff"/><g data-name="グループ 266"><g data-name="グループ 212"><path data-name="パス 463" d="M555.6 3251.826a13.1 13.1 0 01-.132 2.222h2.42a14.024 14.024 0 01-.11-2.112 5.825 5.825 0 011.142 1.848 14.973 14.973 0 003.41-2.134 13.387 13.387 0 004.312 2.288 11.7 11.7 0 011.122-2.156 13.1 13.1 0 01-3.894-1.562 16.958 16.958 0 002.508-3.762 3.308 3.308 0 01.352-.638l-1.144-1.254a10.148 10.148 0 01-1.65.088h-3.7a13.137 13.137 0 01-1.848-.088v2.068a12.237 12.237 0 011.65-.088h.572l-1.87.836a17.4 17.4 0 002 2.794 11.15 11.15 0 01-2.97 1.562v-8.052h7.64a16.646 16.646 0 012.31.114v-2.134a12.291 12.291 0 01-2.288.132h-15.554a12.027 12.027 0 01-2.266-.132v2.134a15.181 15.181 0 012.178-.11v6.82c-.924.066-1.54.11-1.892.11a2.142 2.142 0 01-.352-.022l.506 2.262c.55-.11 1.32-.242 3.08-.484 2.376-.352 2.376-.352 4.468-.748zm0-2c-2.068.308-2.574.374-3.652.484v-1.366h3.652zm0-2.486h-3.652v-1.058h3.652zm0-2.662h-3.652v-.99h3.652zm8.316 1.87a9.118 9.118 0 01-1.628 2.31 8.967 8.967 0 01-1.562-2.31zm1.452-10.34a14.86 14.86 0 01.088-1.914 23.76 23.76 0 01-2.332.088H552.3c-1.012 0-1.606-.022-2.332-.088a15.529 15.529 0 01.088 1.914v2.97a15.372 15.372 0 01-.088 1.892 32.03 32.03 0 012.266-.066h11.174c.748 0 1.54.022 2.046.066a14.86 14.86 0 01-.088-1.914zm-13.046-.132h10.756v.88H552.32zm0 2.4h10.756v.9H552.32zm21.032.154c0 1.584-.044 2.728-.088 3.454h-1.586a11.285 11.285 0 01-2.156-.132v2.508a11.582 11.582 0 012.134-.132h1.364a10.878 10.878 0 01-3.828 7.014 11.716 11.716 0 011.562 2 13.28 13.28 0 003.652-5.52 12.392 12.392 0 002.486 3.014 11.913 11.913 0 011.584-2.024 10.168 10.168 0 01-3.366-3.718c.066-.352.088-.462.132-.77h.946a15.759 15.759 0 011.91.088v-2.442a10.933 10.933 0 01-1.848.11h-.77c.044-.77.088-1.936.11-3.454h.2a17.194 17.194 0 011.98.088v-2.332a11.408 11.408 0 01-1.958.11h-2.506c.132-.418.2-.66.286-1.034a12.862 12.862 0 01.418-1.452l-2.31-.4a9.055 9.055 0 01-.308 1.716 12.633 12.633 0 01-2.222 4.646 8.448 8.448 0 011.8 1.5 13.693 13.693 0 001.54-2.838zm6.356 12.25a15.661 15.661 0 01-2.222-.11v2.486a15.474 15.474 0 012.222-.11h7.876a15.474 15.474 0 012.222.11v-2.486a15.661 15.661 0 01-2.222.11h-1.3a27.422 27.422 0 001.76-4.312l-2.31-.77a23.522 23.522 0 01-1.78 5.082zm-1.474-13.86a21.154 21.154 0 012.222-.088h6.754a21.153 21.153 0 012.222.088v-2.442a14.924 14.924 0 01-2.222.11h-6.754a14.924 14.924 0 01-2.222-.11zm10.23 3.52a17.693 17.693 0 01.088-2.046 19.856 19.856 0 01-2.222.088h-5.368a19.36 19.36 0 01-2.222-.088 18.44 18.44 0 01.088 2.046v3.1a17.855 17.855 0 01-.088 2 19.035 19.035 0 012.09-.088h5.632a19.294 19.294 0 012.09.088 13.344 13.344 0 01-.088-2zm-7.37.2h5.06v2.64H581.1zm2.024 8.974a20.032 20.032 0 00-1.914-3.914l-2.046.9a16.435 16.435 0 011.826 3.916z" fill="#1c1c1c"/><path data-name="パス 466" d="M651.364 3257.888a10.934 10.934 0 01-.132 1.276 8.512 8.512 0 01-2.882 5.016 10.381 10.381 0 01-3.41 2.02 7.808 7.808 0 011.606 2.16 12.743 12.743 0 005.588-4.84 11.705 11.705 0 001.716-5.632h4.224v1.276a21.612 21.612 0 01-.682 5.852c-.2.33-.44.418-1.254.418a18.085 18.085 0 01-2.662-.286 9.449 9.449 0 01.66 2.574c1.474.066 1.826.088 2.264.088 1.96 0 2.752-.31 3.236-1.276.55-1.166.924-4.642.924-9.2v-.748a22.434 22.434 0 002.728 2.314 10.243 10.243 0 011.672-2.376 17.061 17.061 0 01-6.094-6.38 8.222 8.222 0 01-.858-1.914l-2.442.946a9.024 9.024 0 01.462.924 22 22 0 003.63 5.522c-.528.022-.836.022-1.364.022H650.2a11.37 11.37 0 01-1.146-.044 24.469 24.469 0 003.546-5.346 6.221 6.221 0 01.594-1.122l-2.64-.946a6.839 6.839 0 01-.88 2.222 16.962 16.962 0 01-5.786 6.314 7.649 7.649 0 011.69 2.156 21.87 21.87 0 002.75-2.442V3258a15.288 15.288 0 011.87-.11z" fill="#0044f2"/><path data-name="パス 465" d="M608.28 3233.32h-5.668l-5.512 3.952v6.084l5.148-3.536v29.38h6.032zm29.12 25.38v-14.876c0-7.592-5.3-10.972-11.284-10.972s-11.284 3.38-11.284 11.024v14.824c0 7.436 5.3 10.972 11.284 10.972s11.284-3.54 11.284-10.972zm-6.032-14.512v14.144c0 3.848-2.028 6.084-5.252 6.084-3.276 0-5.3-2.236-5.3-6.084v-14.144c0-3.848 2.028-6.084 5.3-6.084 3.224-.004 5.252 2.236 5.252 6.084z" fill="#0044f2"/><path data-name="パス 464" d="M552.45 3263.59h.19a4.988 4.988 0 01.7.04v-.88a4.552 4.552 0 01-.7.04h-.19v-.59h.2a4.808 4.808 0 01.7.04v-.88a4.721 4.721 0 01-.7.04h-.2v-.62h.27a6.641 6.641 0 01.84.04v-.94a8.418 8.418 0 01-1.08.05h-1.59a7.387 7.387 0 01-1.12-.05 10.972 10.972 0 01.04 1.16v3.1a7.784 7.784 0 01-.04.99c.24-.02.53-.03.88-.03h2.01c0 .39-.01.73-.04 1.32a6.779 6.779 0 00-.31-1.09l-.43.13a6.464 6.464 0 01.35 1.41l.37-.18-.03.22c-.01.12-.02.2-.02.23-.06.55-.13.65-.48.65a3.684 3.684 0 01-.76-.09 2.766 2.766 0 01.17 1c.26.02.37.02.55.02.86 0 1.17-.22 1.31-.93a17.221 17.221 0 00.22-2.51c.02-.84.02-.84.04-1.05a5.4 5.4 0 01-.82.04h-.33zm-.89 0v.68h-.78v-.68zm0-.8h-.78v-.59h.78zm0-1.39h-.78v-.62h.78zm6.87 4.71a18.632 18.632 0 00-1.13-1.87c.21-.55.45-1.31.6-1.88a7.58 7.58 0 01.22-.79l-1.02-.27a8.709 8.709 0 01-.46 1.98c-.34-.46-.38-.51-.82-1.07-.07-.08-.17-.21-.3-.38l-.64.65v-1.5h2.63a6.821 6.821 0 011.01.06v-1.08a8.656 8.656 0 01-1.08.06h-2.72c-.42 0-.67-.01-.9-.03a8.086 8.086 0 01.04.89v6.82a8.939 8.939 0 01-.06 1.11h1.08v-.46h2.66a7.891 7.891 0 011.06.06v-1.1a5.909 5.909 0 01-1.04.07h-2.68v-.89a2.158 2.158 0 01.76.73 10.046 10.046 0 001.17-1.89 10.852 10.852 0 01.84 1.54zm-3.55-3.51c.51.63.82 1.05 1.31 1.77a8.457 8.457 0 01-1.31 2.09zm-5.07 2.8a8.266 8.266 0 01-.51 2.63l.71.32a10.523 10.523 0 00.49-2.8zm.76.15a12.606 12.606 0 01.09 1.52c0 .3-.01.5-.03.92l.61-.1a16.579 16.579 0 00-.15-2.41zm.68-.04a9.188 9.188 0 01.25 2.05l.55-.15a11.848 11.848 0 00-.32-1.98zm11.43-2.33h.15c.12 0 .16 0 .45.02.26.01.63.02.91.02.5 0 1.02-.01 1.36-.04.01.33.01.42.01.63a3.95 3.95 0 01-.7 2.81 4.12 4.12 0 01-1.53 1.09 3.939 3.939 0 01.97.94 6.5 6.5 0 001.09-.76 3.748 3.748 0 001.14-1.94 9.921 9.921 0 00.21-2.39c0-.18 0-.27-.01-.48a7.064 7.064 0 00.97-.17 4.872 4.872 0 01.56-.1l-.07-1.19a5.5 5.5 0 01-1.49.38c-.02-.64-.04-1.02-.04-1.13-.02-.45-.02-.54-.02-.64a2.18 2.18 0 01.02-.34l-1.27.02a15.441 15.441 0 01.13 2.21c-.52.03-.68.04-1.06.04a8.909 8.909 0 01-1.78-.13zm-.64 1.29a10.318 10.318 0 00-.66 1.65c0-.16-.01-.22-.02-.38v-.18c-.01-.49-.01-.66-.01-.77-.01-.16-.01-.28-.01-.31 0-.19.02-.48.07-1.14a13.471 13.471 0 01.26-1.97 9.661 9.661 0 01.29-1.22l-1.32-.13a4.4 4.4 0 01-.07.74 21.493 21.493 0 00-.37 3.79 14.389 14.389 0 00.36 3.25 1.63 1.63 0 01.07.38l1.16-.06a8.7 8.7 0 011.14-3.21zm7.92-1.17a3.648 3.648 0 01.8-.28 14.25 14.25 0 013.94-.71 2.606 2.606 0 011.29.27 1.464 1.464 0 01.76 1.3 2.2 2.2 0 01-.11.71 2.77 2.77 0 01-1.51 1.48 8.586 8.586 0 01-3.29.59 4.334 4.334 0 01.51 1.29 9.394 9.394 0 003.52-.83 3.548 3.548 0 002.22-3.2c0-1.7-1.29-2.81-3.27-2.81a15.785 15.785 0 00-3.98.57 7.148 7.148 0 01-1.17.2zm12.72-.12h.15c.12 0 .16 0 .45.02.26.01.63.02.91.02.5 0 1.02-.01 1.36-.04.01.33.01.42.01.63a3.95 3.95 0 01-.7 2.81 4.12 4.12 0 01-1.53 1.09 3.939 3.939 0 01.97.94 6.5 6.5 0 001.09-.76 3.748 3.748 0 001.14-1.94 9.921 9.921 0 00.21-2.39c0-.18 0-.27-.01-.48a7.064 7.064 0 00.97-.17 4.872 4.872 0 01.56-.1l-.07-1.19a5.5 5.5 0 01-1.49.38c-.02-.64-.04-1.02-.04-1.13-.02-.45-.02-.54-.02-.64a2.18 2.18 0 01.02-.34l-1.27.02a15.441 15.441 0 01.13 2.21c-.52.03-.68.04-1.06.04a8.909 8.909 0 01-1.78-.13zm-.64 1.29a10.318 10.318 0 00-.66 1.65c0-.16-.01-.22-.02-.38v-.18c-.01-.49-.01-.66-.01-.77-.01-.16-.01-.28-.01-.31 0-.19.02-.48.07-1.14a13.471 13.471 0 01.26-1.97 9.661 9.661 0 01.29-1.22l-1.32-.13a4.4 4.4 0 01-.07.74 21.493 21.493 0 00-.37 3.79 14.389 14.389 0 00.36 3.25 1.63 1.63 0 01.07.38l1.16-.06a8.7 8.7 0 011.14-3.21z" fill="#1c1c1c"/></g><g data-name="グループ 297"><g data-name="マスクグループ 76" transform="translate(495.4 3235.2)" clip-path="url(#a)"><path data-name="パス 108" d="M20.264 0a20.566 20.566 0 014.022.382 18.135 18.135 0 013.74 1.177 3.8 3.8 0 011.29.923 1.04 1.04 0 01.328 1.259 1.787 1.787 0 01-1.356.79 3.214 3.214 0 01-1.722-.063 15.344 15.344 0 00-3.053-.956 16.463 16.463 0 00-3.248-.312 16.455 16.455 0 00-12.08 4.986A16.455 16.455 0 003.2 20.266a16.334 16.334 0 00.614 4.426 17.489 17.489 0 001.73 4.108h29.44a15.567 15.567 0 001.786-4.214 18.2 18.2 0 00.56-4.534 16.59 16.59 0 00-.3-3.1 14.09 14.09 0 00-.946-3.054 2.241 2.241 0 01-.106-1.329A1.844 1.844 0 0136.7 11.5a1.273 1.273 0 011.147-.214 1.3 1.3 0 01.88.754 19.473 19.473 0 011.35 3.957 20.491 20.491 0 01-.192 9.469 21.792 21.792 0 01-2.063 5.044 2.968 2.968 0 01-1.19 1.094 3.5 3.5 0 01-1.641.4H5.547a3.332 3.332 0 01-1.61-.41 3.217 3.217 0 01-1.221-1.166 21.782 21.782 0 01-1.969-4.657A19.324 19.324 0 010 20.266a19.63 19.63 0 011.586-7.86A20.679 20.679 0 015.918 5.96a20.324 20.324 0 016.448-4.36 19.748 19.748 0 017.9-1.6" fill="#1c1c1c"/><path data-name="パス 109" d="M17.286 23.138a3.782 3.782 0 002.927 1.079 3.08 3.08 0 002.628-1.292l8.6-12.463a.973.973 0 00-1.357-1.357l-12.48 8.585a3.114 3.114 0 00-1.356 2.574 3.582 3.582 0 001.034 2.874" fill="#fc4076"/></g></g></g></g><g data-name="グループ 432" transform="translate(-269 -3216)"><rect data-name="長方形 316" width="204" height="70" rx="10" transform="translate(269 3216)" fill="#eff0ff"/><g data-name="グループ 431"><g data-name="グループ 264"><g data-name="グループ 264"><path data-name="パス 458" d="M338.227 3244.6a3.406 3.406 0 01-1.615 2.4 8.494 8.494 0 01-3.312 1.115 5.334 5.334 0 01.986 1.666 8.694 8.694 0 004.314-2.04 5.213 5.213 0 001.616-3.141h1.53v3.311c0 1.275.51 1.513 3.332 1.513 1.921 0 2.652-.136 3.128-.578.425-.408.6-1.037.765-2.924a7.041 7.041 0 01-1.751-.714 5.4 5.4 0 01-.306 2.176c-.2.289-.544.357-1.853.357-1.326 0-1.479-.051-1.479-.527v-2.614h1.462c.7 0 1.36.017 1.8.051a12.686 12.686 0 01-.085-1.8v-6.211a20.231 20.231 0 01.085-2.125 13.132 13.132 0 01-1.8.085h-7.837a13.013 13.013 0 01-1.785-.085 20.711 20.711 0 01.085 2.125v6.205a13.132 13.132 0 01-.085 1.8c.442-.034 1.02-.051 1.836-.051zm-.935-8.3h7.667v1.1h-7.667zm0 2.7h7.667v1.139h-7.667zm0 2.737h7.667v1.207h-7.667zm18.343-1.6a10.938 10.938 0 011.581-.085h7.072a10.938 10.938 0 011.581.085v-1.537a10.112 10.112 0 01-1.581.085h-2.822v-.6h2.142c.731 0 1 .017 1.411.051v-1.326a10.464 10.464 0 01-1.428.068h-2.125v-.578h2.465a9.7 9.7 0 011.513.085v-1.5a11.56 11.56 0 01-1.649.1h-2.329a4.68 4.68 0 01.1-1.1h-1.919a4.064 4.064 0 01.1 1.1h-2.004a10.867 10.867 0 01-1.615-.085v1.479a9.339 9.339 0 011.5-.085h2.125v.578h-1.9a10.113 10.113 0 01-1.377-.068v1.326c.408-.034.68-.051 1.377-.051h1.9v.6h-2.537a13.752 13.752 0 01-1.394-.051v-.561a6.427 6.427 0 01-1.122.068h-.408v-2.193a15.13 15.13 0 001.479-.527c.153-.051.187-.068.289-.1l-.986-1.5a3.327 3.327 0 01-.7.34 14.953 14.953 0 01-4.063 1 6.462 6.462 0 01.646 1.581c.85-.153 1.1-.2 1.615-.34v1.734h-.8a7.4 7.4 0 01-1.343-.085v1.8a7.136 7.136 0 011.292-.085h.714a12.474 12.474 0 01-.646 1.887 9.424 9.424 0 01-1.717 2.839 7.315 7.315 0 01.952 1.6 10.5 10.5 0 001.666-3.417c-.068.816-.119 1.7-.119 2.533v2.398a16.2 16.2 0 01-.1 1.989h1.921a11.729 11.729 0 01-.1-2.006v-3.633c-.051-1.445-.051-1.445-.1-2.023a8.65 8.65 0 001.292 2.04 5.437 5.437 0 01.816-1.36 6.517 6.517 0 01-1.43-1.751 4.972 4.972 0 01-.527-1.088h.323a8.142 8.142 0 01.969.051zm2.686 6.9a9.317 9.317 0 01-3.349 1.18 6.846 6.846 0 01.884 1.5 9.977 9.977 0 003.944-1.857l-.782-.816h3.111l-.714.816a10.73 10.73 0 003.944 1.853 5.751 5.751 0 01.935-1.581 12.336 12.336 0 01-3.383-1.088h.578c.544 0 .969.017 1.428.051a11.015 11.015 0 01-.068-1.547v-3.536a10.455 10.455 0 01.068-1.512 10.347 10.347 0 01-1.462.051h-5.61c-.714 0-1.02 0-1.411-.034a9.928 9.928 0 01.051 1.428v3.621a12.913 12.913 0 01-.068 1.53c.374-.034.374-.034 1.462-.051zm-.153-5.2h4.981v.563h-4.981zm0 1.649h4.981v.561h-4.981zm0 1.632h4.981v.6h-4.981zm12.308-10.926a4 4 0 01-.051.578l-.255 2.108c-.136 1.173-.238 3.06-.238 4.437 0 .34.034 1.6.051 2.091v.323a1.322 1.322 0 01-.017.221l2.04-.034v-.357a8.151 8.151 0 012.142-5.491 2.53 2.53 0 011.836-.9c1.462 0 2.278 1.36 2.278 3.808 0 2.584-.9 4.2-2.873 5.2a9.924 9.924 0 01-3.723.969 6.5 6.5 0 011 2.006 14.5 14.5 0 003.334-.951 7.145 7.145 0 004.386-6.987 7.12 7.12 0 00-1.224-4.522 3.56 3.56 0 00-2.907-1.53 4.058 4.058 0 00-3.23 1.734 6.873 6.873 0 00-1.071 2.023 3.732 3.732 0 01-.1.374h-.054c.034-.408.1-.986.221-1.7a16.676 16.676 0 01.612-3.281zm14.372 10.156a2.032 2.032 0 01.456.072c.48.108.948.18 1.668.276a8.2 8.2 0 00-.06 1.02c0 1.932 1.188 2.976 3.372 2.976a4.311 4.311 0 002.716-.792 2.855 2.855 0 001.152-2.244 3.732 3.732 0 00-.516-1.764 4.612 4.612 0 00-.564-.756 4.434 4.434 0 01-1.488.3 2.8 2.8 0 011.08 2.028c0 1.176-.876 1.848-2.4 1.848a2.183 2.183 0 01-1.488-.444 1.5 1.5 0 01-.444-1.236 8.509 8.509 0 01.06-.852c.468.024.576.024.768.024a17.477 17.477 0 001.8-.108 1.542 1.542 0 01.36-.036l.036-1.38a9.594 9.594 0 01-2.292.24c-.132 0-.228 0-.588-.012.072-.576.108-.816.228-1.692.516.012.624.012.744.012.432 0 .816-.024 1.68-.1.264-.024.324-.036.48-.048l.048-1.4a11.921 11.921 0 01-2.736.252 9.743 9.743 0 01.38-2.032l-1.6-.14a.5.5 0 01.012.12 14.125 14.125 0 01-.24 1.992 9.105 9.105 0 01-2.172-.432l-.12 1.32c.18.036.24.048.408.084a15.739 15.739 0 001.716.3c-.06.444-.168 1.248-.216 1.68a7.869 7.869 0 01-2.112-.456z" fill="#1c1c1c"/><path data-name="パス 457" d="M338.635 3257.863c.391 0 .68.017 1.071.051v-1.8a5.039 5.039 0 01-1.088.085h-.969v-1.399a11.475 11.475 0 01.1-1.751h-2.004a10.978 10.978 0 01.1 1.768v1.383h-1.052a6.011 6.011 0 01-1.258-.085v1.819a8.328 8.328 0 011.241-.068h.833a14.206 14.206 0 01-2.6 5.3 6.51 6.51 0 01.934 1.854 10.034 10.034 0 001-1.734 14.1 14.1 0 001.023-2.586c-.068.595-.119 1.8-.119 2.55v3.5a17.251 17.251 0 01-.1 2.091h2.004a17.057 17.057 0 01-.1-2.091v-4.365c0-.935-.017-1.343-.068-2.329a11.12 11.12 0 001.617 2.856 5.2 5.2 0 01.68-1.445c.051-.068.119-.187.2-.323a8.967 8.967 0 01-2.28-3.281zm3.417 10.914v-1h4.267v.969h1.938a23.314 23.314 0 01-.085-2.159v-11.2c0-.782.017-1.241.051-1.734a10.086 10.086 0 01-1.462.068h-5.1c-.731 0-1.054-.017-1.513-.051.051.816.068 1.224.068 1.8v11.13c0 .833-.034 1.547-.085 2.176zm0-13.328h4.267v2.414h-4.267zm0 4.029h4.267v2.4h-4.267zm0 4.012h4.267v2.584h-4.267zm17.935-3.434a8.88 8.88 0 01.051 1.054 6.206 6.206 0 01-1.258 4.335 6.014 6.014 0 01-2.89 1.819v-2.856a10.152 10.152 0 01.051-1.224 5.191 5.191 0 01-1.02.051H352a6.9 6.9 0 01-1.139-.068 10.976 10.976 0 01.068 1.326v2.6c0 .544-.034 1.139-.085 1.666h1.751v-.883h1.683v.7h1.7a13.24 13.24 0 01-.071-1.176 7.7 7.7 0 01.816 1.547 6.728 6.728 0 004.3-4.25 8.582 8.582 0 004.233 4.216 6.684 6.684 0 01.969-1.8 7.531 7.531 0 01-3.225-2.229 5.772 5.772 0 01-1.173-3.876 5.574 5.574 0 01.068-.952zm-7.446 4.556h1.768v1.8h-1.768zm-1.6-9.435c.408-.034.765-.051 1.377-.051h2.182c.612 0 .918.017 1.377.051v-1.632a7.355 7.355 0 01-1.377.085h-2.18a7.245 7.245 0 01-1.377-.085zm-.661 2.516a10.16 10.16 0 011.36-.068h3.4a7.815 7.815 0 011.292.068v-1.751a9.233 9.233 0 01-1.36.068h-3.332a7.488 7.488 0 01-1.36-.085zm.663 2.363a8.609 8.609 0 011.071-.051h2.786a8.491 8.491 0 011.054.051v-1.581a7.769 7.769 0 01-1.054.051h-2.786a8.609 8.609 0 01-1.071-.051zm0 2.363a8.609 8.609 0 011.071-.051h2.771a8.423 8.423 0 011.071.051v-1.581a7.769 7.769 0 01-1.054.051h-2.788a8.609 8.609 0 01-1.071-.051zm6.528-8.4a6.238 6.238 0 01-1.037 2.7l1.6.646a9.824 9.824 0 001.122-2.941zm6.613-.2a8.524 8.524 0 01-1.683 2.7 5.105 5.105 0 011.445.867 13.546 13.546 0 001.887-2.924zm-6.698 7.581a6.567 6.567 0 01-1.139 2.788l1.581.714a10.208 10.208 0 001.207-2.992zm6.681-.17a8.71 8.71 0 01-1.547 2.651 5.411 5.411 0 011.428.884 12.521 12.521 0 001.752-2.873zm-4.046-7.99a8.7 8.7 0 01.051.952 5.88 5.88 0 01-.748 3.264 5.478 5.478 0 01-3.3 2.329 5.515 5.515 0 01.986 1.53 7.587 7.587 0 002.822-1.921 6.39 6.39 0 001.173-1.972 6.467 6.467 0 001.195 1.818 8.535 8.535 0 002.89 2.074 6.9 6.9 0 01.935-1.683 7.07 7.07 0 01-2.159-1.054 4.826 4.826 0 01-1.6-1.921 6.591 6.591 0 01-.425-2.448 6.338 6.338 0 01.068-.969zm14.263 12.749c.374-.119.867-.255 1.615-.425l3.6-.816v2.052a12.326 12.326 0 01-.1 2.023h2.057a12.466 12.466 0 01-.1-2.006v-2.477l.17-.034a12.418 12.418 0 011.632-.306l-.358-1.938a10.368 10.368 0 01-1.445.425v-7.378a12.016 12.016 0 01.1-1.955H379.4a11.634 11.634 0 01.1 1.972v7.774l-3.978.884a11.385 11.385 0 01-1.564.238 9.913 9.913 0 01.476-.952 9.028 9.028 0 01-2.193-2.6h.612a9.887 9.887 0 011.343.068v-1.774a8.609 8.609 0 01-1.309.068h-.8v-4.046a10.149 10.149 0 01.085-1.649h-1.934a10.519 10.519 0 01.085 1.666v4.029h-1.139a8.442 8.442 0 01-1.53-.085v1.8a8.8 8.8 0 011.53-.085h.884a14.334 14.334 0 01-.9 1.921 11.178 11.178 0 01-1.837 2.517 5.121 5.121 0 01.869 1.752 11.743 11.743 0 002.21-3.825c-.034.561-.068 1.36-.068 2.04v2.193a11.008 11.008 0 01-.119 1.8h1.972a10.055 10.055 0 01-.1-1.768v-2.803c0-.544-.017-.782-.1-1.938a12.576 12.576 0 001.717 2.4c.085-.272.1-.357.187-.578zm-6.749-11.271a13.717 13.717 0 011.054 3.638l1.428-.612a20.676 20.676 0 00-1.037-3.672zm5.848-.68a14.142 14.142 0 01-1.173 3.672l1.241.646a20.572 20.572 0 001.36-3.689zm1.617 1.547a14.361 14.361 0 013.007 2.615l1.156-1.428a16.513 16.513 0 00-2.975-2.5zm-.527 4.2a14.87 14.87 0 012.99 2.615l1.156-1.377a15.512 15.512 0 00-2.958-2.5zm10.375 3.763a2.032 2.032 0 01.456.072c.48.108.948.18 1.668.276a8.2 8.2 0 00-.06 1.02c0 1.932 1.188 2.976 3.372 2.976a4.311 4.311 0 002.716-.792 2.855 2.855 0 001.152-2.244 3.732 3.732 0 00-.516-1.764 4.612 4.612 0 00-.564-.756 4.434 4.434 0 01-1.488.3 2.8 2.8 0 011.08 2.028c0 1.176-.876 1.848-2.4 1.848a2.183 2.183 0 01-1.488-.444 1.5 1.5 0 01-.444-1.236 8.509 8.509 0 01.06-.852c.468.024.576.024.768.024a17.477 17.477 0 001.8-.108 1.542 1.542 0 01.36-.036l.036-1.38a9.594 9.594 0 01-2.292.24c-.132 0-.228 0-.588-.012.072-.576.108-.816.228-1.692.516.012.624.012.744.012.432 0 .816-.024 1.68-.1.264-.024.324-.036.48-.048l.048-1.4a11.921 11.921 0 01-2.736.252 9.743 9.743 0 01.38-2.032l-1.6-.14a.5.5 0 01.012.12 14.125 14.125 0 01-.24 1.992 9.105 9.105 0 01-2.172-.432l-.12 1.32c.18.036.24.048.408.084a15.739 15.739 0 001.716.3c-.06.444-.168 1.248-.216 1.68a7.869 7.869 0 01-2.112-.456z" fill="#1c1c1c"/><path data-name="パス 461" d="M439.666 3258.38h13.09v5.368c0 .528-.132.594-.99.594-.792 0-1.892-.088-3.344-.242a8.465 8.465 0 01.678 2.376c.858.044 2.068.088 2.926.088a5.411 5.411 0 002.31-.308c.638-.33.9-.946.9-2.068v-14.1a21.651 21.651 0 01.088-2.4 20.168 20.168 0 01-2.4.088h-13.368a23.635 23.635 0 01-2.442-.088 18.954 18.954 0 01.086 2.112v14.388a20.9 20.9 0 01-.132 2.64h2.706a16.172 16.172 0 01-.11-2.552zm5.214-2.31h-5.214v-5.962h5.214zm2.376 0v-5.962h5.5v5.962z" fill="#0044f2"/><path data-name="パス 460" d="M433.256 3258.9v-14.876c0-7.592-5.3-10.972-11.284-10.972s-11.284 3.38-11.284 11.024v14.824c0 7.432 5.304 10.968 11.284 10.968s11.284-3.536 11.284-10.968zm-6.032-14.512v14.144c0 3.848-2.028 6.084-5.252 6.084-3.276 0-5.3-2.236-5.3-6.084v-14.144c0-3.848 2.028-6.084 5.3-6.084 3.228-.004 5.252 2.236 5.252 6.084z" fill="#0044f2"/></g><g data-name="グループ 296"><g data-name="マスクグループ 72" clip-path="url(#b)" transform="translate(287.4 3229)"><path data-name="パス 106" d="M20.744 12.961l5.5 5.341a3.736 3.736 0 001.21.752 3.764 3.764 0 003.9-.751l5.534-5.342a13.814 13.814 0 002.442-3.139 7.5 7.5 0 00.98-3.766 5.838 5.838 0 00-1.766-4.288A5.84 5.84 0 0034.264 0a6.041 6.041 0 00-3.046.8 8.667 8.667 0 00-2.414 2.025A8.7 8.7 0 0026.389.8a6.042 6.042 0 00-3.045-.8 5.837 5.837 0 00-4.287 1.768 5.841 5.841 0 00-1.766 4.288 7.4 7.4 0 001 3.766 14.234 14.234 0 002.457 3.138m.474-9.034a2.892 2.892 0 012.128-.871 3.251 3.251 0 011.77.5 5.619 5.619 0 011.418 1.28l.91 1.1a1.7 1.7 0 001.366.634 1.684 1.684 0 001.36-.634l.908-1.1a5.66 5.66 0 011.418-1.28 3.258 3.258 0 011.771-.5 2.976 2.976 0 013 3 4.554 4.554 0 01-.806 2.617 14.391 14.391 0 01-1.831 2.19l-5.397 5.231a.615.615 0 01-.862 0l-5.393-5.232a14.485 14.485 0 01-1.831-2.19 4.553 4.553 0 01-.8-2.617 2.891 2.891 0 01.872-2.128" fill="#fc4076"/><path data-name="パス 107" d="M35.364 28.668h-5.091a5.169 5.169 0 00-.917-3.057 4.834 4.834 0 00-2.3-1.815l-11.868-4.371a5.8 5.8 0 00-.612-.165 3.1 3.1 0 00-.648-.07H3.682a3.546 3.546 0 00-2.6 1.082A3.546 3.546 0 000 22.872v12.14a3.546 3.546 0 001.082 2.6 3.546 3.546 0 002.6 1.082H6.5a3.831 3.831 0 002.264-.766 3.6 3.6 0 001.417-2.03l13.809 3.959a3.634 3.634 0 002.126-.031l12.358-3.834a3.074 3.074 0 001.387-.838 2.057 2.057 0 00.458-1.394 5.042 5.042 0 00-1.38-3.675 4.774 4.774 0 00-3.574-1.416M7.128 35.012a.593.593 0 01-.175.48.687.687 0 01-.451.146H3.683a.6.6 0 01-.627-.626v-12.14a.6.6 0 01.626-.627h3.446zm18.011 1.853a.417.417 0 01-.353 0l-14.6-4.124V22.242h3.768a.53.53 0 01.107.01.826.826 0 01.108.029l11.816 4.339a1.691 1.691 0 01.9.74 2.417 2.417 0 01.341 1.3h-.545q-1.82-.031-2.963-.154a10.6 10.6 0 01-2.069-.417L19 27.165a1.51 1.51 0 00-1.181.088 1.459 1.459 0 00-.758.893 1.6 1.6 0 00.074 1.2 1.4 1.4 0 00.886.783l3.194 1.046a8.6 8.6 0 001.915.446 21.217 21.217 0 002.266.1h9.973a1.79 1.79 0 011.108.37 1.758 1.758 0 01.646 1.063z" fill="#1c1c1c"/></g></g><path data-name="パス 459" d="M405.38 3242.18a8.023 8.023 0 011.1.06v-1.13a7.244 7.244 0 01-1.1.05h-3.8c.26-.55.26-.55.39-.81l.2-.42-1.2-.18a6.424 6.424 0 01-.6 1.41h-1.72a7.255 7.255 0 01-1.09-.05v1.13a7.666 7.666 0 011.09-.06h1.15a13.953 13.953 0 01-1.2 1.67 20.836 20.836 0 012.68.83 9.1 9.1 0 01-3.74 1.07 4.936 4.936 0 01.55 1.07 9.658 9.658 0 004.33-1.67 19.807 19.807 0 013.08 1.64l.83-.92a26.318 26.318 0 00-3.07-1.47 6.085 6.085 0 001.27-2.22zm-2.01 0a4.224 4.224 0 01-1.16 1.81c-.71-.26-.95-.33-1.94-.62a13.157 13.157 0 00.77-1.19zm-2.03-3.64h-2.53a9.324 9.324 0 01-1.15-.05 6.932 6.932 0 01.05.77v.74a5.273 5.273 0 01-.05.74h1.1v-1.2h6.46v1.2h1.1a4.166 4.166 0 01-.05-.74v-.74a6.4 6.4 0 01.04-.77 9.423 9.423 0 01-1.15.05h-2.7v-.18a5.21 5.21 0 01.05-.75h-1.22a4.4 4.4 0 01.05.76zm-2.98 17.82a12.476 12.476 0 001.14-4.45l-1.11-.23a9.807 9.807 0 01-1.13 4.06zm5.72-6.29a17.533 17.533 0 00-3.43-1.51l-.64.95a13.7 13.7 0 013.38 1.61zm2.73 5.49a18.771 18.771 0 00-1.69-4.05l-1.07.48a16.4 16.4 0 011.61 4.15zm-5.61-3.79a6.236 6.236 0 01.07-.99h-1.29a7.189 7.189 0 01.07 1.02v4.72c0 .91.3 1.07 2.07 1.07 1.6 0 2.04-.12 2.32-.63a6.064 6.064 0 00.41-2.34 4.719 4.719 0 01-1.12-.4 6.352 6.352 0 01-.22 1.98c-.11.23-.4.3-1.2.3-.92 0-1.11-.05-1.11-.3zm1.58 9.82a2.186 2.186 0 011.01.3 2.477 2.477 0 011.23 2.22 2.8 2.8 0 01-1.39 2.5 5.314 5.314 0 01-1.99.55 3.19 3.19 0 01.61 1.17 6.538 6.538 0 001.57-.42 3.852 3.852 0 002.43-3.73c0-2.25-1.56-3.71-3.96-3.71a4.489 4.489 0 00-3.44 1.4 4.3 4.3 0 00-1.1 2.91c0 1.61.82 2.77 1.96 2.77.82 0 1.46-.59 2.03-1.88a14.467 14.467 0 001.04-4.08zm-1.22.01a13.179 13.179 0 01-.83 3.38c-.36.86-.7 1.28-1.03 1.28-.44 0-.79-.65-.79-1.47a3.348 3.348 0 011.36-2.7 2.546 2.546 0 011.29-.49z" fill="#0044f2"/></g></g></g><g data-name="グループ 434" transform="translate(-269 -3216)"><rect data-name="長方形 317" width="204" height="70" rx="10" transform="translate(685 3216)" fill="#eff0ff"/><g data-name="グループ 267"><path data-name="パス 468" d="M769.576 3243.744c0 1.392.656 1.712 3.584 1.712 3.728 0 3.984-.256 4.336-4.464a6.389 6.389 0 01-1.7-.608 8.327 8.327 0 01-.384 3.024c-.192.336-.736.448-2.16.448-1.52 0-1.936-.112-1.936-.512v-1.12a17.668 17.668 0 002.416-2.3 27.088 27.088 0 004.016-6.08c.432-.9.432-.9.624-1.232l-1.84-.736a14.5 14.5 0 01-1.788 3.884 22.963 22.963 0 01-3.424 4.192V3236a12.212 12.212 0 01.1-1.584h-1.94a11.849 11.849 0 01.1 1.632v5.376a20.448 20.448 0 01-4.1 2.384 5.541 5.541 0 011.2 1.52 20.552 20.552 0 002.9-1.76zm-.16-11.536a18.778 18.778 0 014.684 2.448l1.06-1.536a24.434 24.434 0 00-4.672-2.288zm-2.432 3.648a18.009 18.009 0 01-1.536 5.552l1.664.832a23.366 23.366 0 001.568-6.064zm9.552.944a23.9 23.9 0 012.336 6.16l1.7-.912a32.709 32.709 0 00-2.472-6.016zm12.72-5.168a4.816 4.816 0 01.08.944l.016 1.008c-1.808.048-3.1.08-3.872.1-2.064.08-2.32.08-2.72.08a6.968 6.968 0 01-.784-.032l.064 1.92a29.191 29.191 0 013.26-.276q1.176-.072 4.08-.144c0 .48 0 .928.016 1.36v.1a.281.281 0 00.016.1 2.641 2.641 0 00-1.664-.48 2.94 2.94 0 00-3.168 2.912 2.5 2.5 0 001.1 2.16 2.9 2.9 0 001.84.576 2.636 2.636 0 002.36-1.144c-.256 1.6-1.968 2.816-4.58 3.264a5.678 5.678 0 011.14 1.808 11.856 11.856 0 002.9-1.3 5.14 5.14 0 002.38-4.332 4.869 4.869 0 00-.512-2.256v-2.8c1.648-.016 1.648-.016 1.952-.016 1.232 0 2.1.032 2.672.08l-.016-1.84a15.085 15.085 0 01-1.536.064c-.352 0-.384 0-.72.016l1.008-.464a10.266 10.266 0 00-1.468-2.352l-1.152.512a9.706 9.706 0 011.452 2.3c-.768.016-1.5.016-2.208.016a12.78 12.78 0 01.08-1.888zm-1.232 6.144a1.6 1.6 0 011.04.384.888.888 0 01.3.72 1.462 1.462 0 01-1.552 1.44 1.269 1.269 0 01-1.36-1.248 1.4 1.4 0 011.572-1.296zm8.832-5.2a10.216 10.216 0 00-1.472-2.208l-1.072.5a11.006 11.006 0 011.424 2.288zm7.152 7.124h-4.624a10.977 10.977 0 01-1.728-.08v1.52a11.459 11.459 0 011.76-.08h4.592v.688h-3.824a11.621 11.621 0 01-1.52-.064v1.488a10.906 10.906 0 011.584-.08h3.76v.768c0 .288-.128.368-.624.368a18.145 18.145 0 01-2.032-.148 4.554 4.554 0 01.5 1.584c.512.032 1.152.064 1.536.064 1.952 0 2.352-.3 2.352-1.744v-.9h3.536v.624h1.792a12.03 12.03 0 01-.08-1.728v-.928a9.506 9.506 0 011.392.08v-1.52a9.04 9.04 0 01-1.392.08v-.56a10.828 10.828 0 01.048-1.456c-.448.032-.768.048-1.712.048h-3.588v-.604h3.68c.512 0 .928.016 1.28.048a10.111 10.111 0 01-.048-1.068v-1.06a10.892 10.892 0 01.048-1.12c-.384.032-.736.048-1.344.048h-3.616v-.608h4.592a15.429 15.429 0 011.872.1v-1.584a15.008 15.008 0 01-1.968.1h-4.5a4.52 4.52 0 01.112-1.088h-1.932a5.912 5.912 0 01.1 1.088h-4.292a14.841 14.841 0 01-1.968-.1v1.584a15.429 15.429 0 011.872-.1h4.384v.608h-3.376c-.608 0-.944-.016-1.36-.048.032.384.048.672.048 1.12v1.06c0 .4-.016.736-.048 1.072.368-.032.768-.048 1.344-.048h3.392v.608h-3.76a11.975 11.975 0 01-1.5-.064v1.392a13.289 13.289 0 011.472-.064h3.792zm1.728 0v-.7h3.536v.7zm0 1.36h3.536v.688h-3.536zm-1.728-5.84v.656h-2.992v-.656zm1.728 0h3.216v.656h-3.216zm9.84-2.224a10.759 10.759 0 01-1.712-.1v1.728a10.183 10.183 0 011.712-.1h10.864a9.742 9.742 0 011.712.1v-1.724a11.616 11.616 0 01-1.712.1h-2.464a15.988 15.988 0 001.28-1.744l-1.808-.5a8.391 8.391 0 01-1.408 2.24h-2.16a13.532 13.532 0 00-1.488-2.256l-1.728.5a10.009 10.009 0 011.3 1.76zm.832 9.3h2.624v1.36c0 .288-.08.352-.464.352a9.484 9.484 0 01-1.12-.1 6.252 6.252 0 01.384 1.568c.576.016.768.016 1.008.016 1.488 0 1.84-.3 1.84-1.536v-6.88c0-.848.016-1.216.048-1.6a9.281 9.281 0 01-1.424.064H816.2a13.72 13.72 0 01-1.5-.064c.032.4.048.656.048 1.44v6.9a14.177 14.177 0 01-.08 1.824h1.832a9.634 9.634 0 01-.1-1.712zm0-1.5v-1.12h2.624v1.12zm0-2.624v-1.132h2.624v1.12zm5.712-2.4a9.617 9.617 0 01.08 1.5v3.448a14.04 14.04 0 01-.064 1.712h1.808a13.674 13.674 0 01-.064-1.732v-3.42a9.112 9.112 0 01.08-1.52zm3.38-.444a10.3 10.3 0 01.08 1.648v6.5c0 .448-.08.512-.736.512a13.658 13.658 0 01-1.952-.176 5.68 5.68 0 01.5 1.7c1.008.048 1.344.064 1.728.064 1.024 0 1.456-.112 1.792-.432a1.866 1.866 0 00.36-1.384v-6.736a9.435 9.435 0 01.1-1.7zm7.724 9.456c-.016-.208-.016-.336-.016-.432a13.135 13.135 0 011.424-4.852l-1.28-.576a16.318 16.318 0 00-.832 2.116c.016-.4.032-.528.032-.88a26.715 26.715 0 01.24-3.536 22.059 22.059 0 011.008-4.784l-2.112-.224a10.47 10.47 0 01-.24 1.488 30.717 30.717 0 00-.656 6.256 27.908 27.908 0 00.416 4.784c.048.368.064.464.08.752zm2.208-9.584a18.994 18.994 0 002.88.176 28.659 28.659 0 003.424-.192c.768-.1 1.008-.128 1.136-.144l-.1-1.936a17.644 17.644 0 01-4.352.432 11.536 11.536 0 01-2.96-.256zm1.1 2.64a5.227 5.227 0 00-1.472 3.3 2.68 2.68 0 00.48 1.568c.7.944 1.984 1.392 3.968 1.392a19.731 19.731 0 003.312-.3 5.348 5.348 0 01.656-.1l-.16-2.032a11.244 11.244 0 01-3.808.608c-1.664 0-2.544-.48-2.544-1.392a3.619 3.619 0 011.136-2.3z" fill="#1c1c1c"/><path data-name="パス 469" d="M772.873 3262.374a13.441 13.441 0 014.027-.693c2.247 0 3.717 1.176 3.717 2.982a2.158 2.158 0 01-2.117 2.331 1.452 1.452 0 01-1.323-.714 4.046 4.046 0 01-.294-1.848 7.281 7.281 0 01.042-.924 8.859 8.859 0 01-2.331.924 7.016 7.016 0 00.357 2.688 3.39 3.39 0 003.449 2.331 4.665 4.665 0 004.767-4.788c0-2.982-2.5-5.124-6.006-5.124a14.562 14.562 0 00-4.284.588v-2.727c.8-.084 1.218-.147 1.911-.273 1.449-.252 1.848-.315 2.226-.378l-.084-2.352a23.42 23.42 0 01-4.053.8v-1.344a12.893 12.893 0 01.123-2.294h-2.626a14.389 14.389 0 01.126 2.415v1.386c-.231 0-.336 0-.84.021-.294.021-.525.021-.735.021a12.879 12.879 0 01-2.541-.189l.016 2.352a3.937 3.937 0 01.441-.021c.063 0 .252 0 .525.021.252 0 .84.021 1.155.021.525 0 .819 0 1.134-.021.693-.042.693-.042.861-.042l.021 3.234a11.234 11.234 0 00-3.061 1.785 4.482 4.482 0 00-1.806 3.108 3.085 3.085 0 001.155 2.373 6.541 6.541 0 003.969 1.491 1.845 1.845 0 001.932-1.214 6.253 6.253 0 00.168-1.785zm-2.352 3.826c0 .693-.105.882-.462.882a2.524 2.524 0 01-1.344-.462c-.483-.294-.693-.609-.693-.966 0-.756.924-1.68 2.5-2.52zm13.566-8.862a17.811 17.811 0 00-4.158-4.305l-1.974 1.323a17.933 17.933 0 014.2 4.536zm8.064 7.014a4.207 4.207 0 01-2 2.961 10.492 10.492 0 01-4.09 1.387 6.589 6.589 0 011.218 2.058 10.739 10.739 0 005.334-2.52 6.44 6.44 0 002-3.885h1.887v4.1c0 1.575.63 1.869 4.116 1.869 2.373 0 3.276-.168 3.864-.714.525-.5.735-1.281.945-3.612a8.7 8.7 0 01-2.165-.896 6.668 6.668 0 01-.378 2.688c-.252.357-.672.441-2.289.441-1.638 0-1.827-.063-1.827-.651v-3.23h1.806c.861 0 1.68.021 2.226.063a15.672 15.672 0 01-.1-2.226v-7.665a24.991 24.991 0 01.1-2.625 16.222 16.222 0 01-2.226.1h-9.681a16.074 16.074 0 01-2.2-.1 25.584 25.584 0 01.1 2.625v7.665a16.222 16.222 0 01-.1 2.226 30.59 30.59 0 012.268-.063zM791 3254.1h9.471v1.365H791zm0 3.339h9.471v1.407H791zm0 3.381h9.471v1.491H791zm22.655-1.974a13.511 13.511 0 011.953-.1h8.736a13.511 13.511 0 011.953.1v-1.911a12.492 12.492 0 01-1.953.1h-3.486v-.735h2.642c.9 0 1.239.021 1.743.063v-1.633a12.927 12.927 0 01-1.764.084h-2.621v-.714h3.042a11.983 11.983 0 011.869.1v-1.848a14.28 14.28 0 01-2.037.126h-2.874a5.781 5.781 0 01.126-1.365h-2.373a5.021 5.021 0 01.126 1.365h-2.478a13.424 13.424 0 01-1.995-.105v1.827a11.537 11.537 0 011.848-.1h2.625v.714h-2.352a12.493 12.493 0 01-1.7-.084v1.638c.5-.042.84-.063 1.7-.063h2.352v.735h-3.129a16.987 16.987 0 01-1.722-.063v-.693a7.939 7.939 0 01-1.386.084h-.5v-2.709a18.69 18.69 0 001.827-.651c.189-.063.231-.084.357-.126l-1.218-1.848a4.11 4.11 0 01-.861.42 18.471 18.471 0 01-5.019 1.239 7.983 7.983 0 01.8 1.953c1.05-.189 1.365-.252 1.995-.42v2.142h-.987a9.139 9.139 0 01-1.659-.1v2.226a8.815 8.815 0 011.6-.1h.882a15.408 15.408 0 01-.8 2.331 11.642 11.642 0 01-2.121 3.507 9.036 9.036 0 011.168 1.968 12.974 12.974 0 002.058-4.221 38.543 38.543 0 00-.147 3.129v2.957a20.01 20.01 0 01-.126 2.457h2.373a14.489 14.489 0 01-.122-2.478v-4.494c-.063-1.785-.063-1.785-.126-2.5a10.685 10.685 0 001.6 2.52 6.716 6.716 0 011.008-1.68 8.05 8.05 0 01-1.772-2.162 6.142 6.142 0 01-.651-1.344h.4a10.058 10.058 0 011.2.063zm3.318 8.526a11.509 11.509 0 01-4.137 1.449 8.457 8.457 0 011.092 1.848 12.324 12.324 0 004.872-2.289l-.966-1.008h3.843l-.877 1.008a13.254 13.254 0 004.872 2.289 7.1 7.1 0 011.15-1.953 15.239 15.239 0 01-4.179-1.344h.714c.672 0 1.2.021 1.764.063a13.607 13.607 0 01-.084-1.911v-4.368a12.915 12.915 0 01.084-1.869 12.782 12.782 0 01-1.806.063h-6.93c-.882 0-1.26 0-1.743-.042a12.264 12.264 0 01.063 1.764v4.473a15.951 15.951 0 01-.084 1.89c.462-.042.462-.042 1.806-.063zm-.189-6.426h6.153v.693h-6.153zm0 2.037h6.153v.693h-6.153zm0 2.016h6.153v.735h-6.153zm15.2-13.5a4.936 4.936 0 01-.063.714l-.315 2.6c-.168 1.449-.294 3.78-.294 5.481 0 .42.042 1.974.063 2.583v.4a1.632 1.632 0 01-.021.273l2.52-.042v-.441a10.069 10.069 0 012.646-6.783 3.126 3.126 0 012.268-1.113c1.806 0 2.814 1.68 2.814 4.7 0 3.192-1.113 5.187-3.549 6.426a12.259 12.259 0 01-4.6 1.2 8.033 8.033 0 011.247 2.479 17.909 17.909 0 004.113-1.176 8.827 8.827 0 005.418-8.631 8.8 8.8 0 00-1.512-5.586 4.4 4.4 0 00-3.591-1.89 5.013 5.013 0 00-3.99 2.142 8.49 8.49 0 00-1.323 2.5 4.61 4.61 0 01-.126.462h-.063c.042-.5.126-1.218.273-2.1a20.6 20.6 0 01.756-4.053z" fill="#0044f2"/></g><g data-name="グループ 298"><g data-name="マスクグループ 80" transform="translate(717.8 3235.199)" clip-path="url(#c)"><path data-name="パス 110" d="M9.637 25.565v2.906a1.235 1.235 0 102.469 0v-2.906h2.906a1.235 1.235 0 100-2.469h-2.906V20.19a1.235 1.235 0 10-2.469 0v2.91H6.73a1.235 1.235 0 100 2.469zm-2.39-14.081h7.247a1.235 1.235 0 100-2.469H7.247a1.235 1.235 0 100 2.47zM3.744 35.2a3.613 3.613 0 01-2.656-1.087A3.613 3.613 0 010 31.458V3.744a3.613 3.613 0 011.088-2.656A3.613 3.613 0 013.744 0h27.714a3.613 3.613 0 012.656 1.087A3.613 3.613 0 0135.2 3.744v27.714a3.712 3.712 0 01-3.742 3.742zm0-3.106h27.714a.686.686 0 00.637-.637V3.745a.605.605 0 00-.2-.438.605.605 0 00-.438-.2H3.744a.605.605 0 00-.438.2.605.605 0 00-.2.438v27.713a.605.605 0 00.2.438.605.605 0 00.438.2m21.1-20.045l2.036 2.03a1.214 1.214 0 00.858.376 1.172 1.172 0 00.88-.376 1.24 1.24 0 00.032-1.736l-2.061-2.095 2.03-2.03A1.211 1.211 0 0029 7.362a1.172 1.172 0 00-.376-.88 1.168 1.168 0 00-1.736 0l-2.03 2.03-2.041-2.031a1.211 1.211 0 00-.858-.376 1.172 1.172 0 00-.88.376 1.168 1.168 0 000 1.736l2.03 2.03-2.062 2.094a1.274 1.274 0 00-.345.858 1.172 1.172 0 00.376.88 1.168 1.168 0 001.736 0z" fill="#1c1c1c"/><path data-name="パス 111" d="M21.224 28.153h7.247a1.235 1.235 0 100-2.469h-7.247a1.235 1.235 0 100 2.469z" fill="#fc4076"/><path data-name="パス 112" d="M21.224 22.973h7.247a1.235 1.235 0 100-2.469h-7.247a1.235 1.235 0 100 2.47z" fill="#fc4076"/></g></g></g><g data-name="グループ 436" transform="translate(-269 -3216)"><rect data-name="長方形 318" width="204" height="70" rx="10" transform="translate(893 3216)" fill="#eff0ff"/><g data-name="グループ 435"><path data-name="パス 475" d="M989.352 3270.916a36.031 36.031 0 00-3.024-5.943l-1.806.987a21.926 21.926 0 011.071 1.932c-.9.294-1.932.567-3.36.882v-4.368h4.6c.735 0 1.134.021 1.722.063a20.882 20.882 0 01-.063-1.806v-6.552a14.916 14.916 0 01.063-1.911 15.932 15.932 0 01-1.974.084h-4.663a16.6 16.6 0 01-1.974-.084 21.6 21.6 0 01.084 2.163v12.831a9.826 9.826 0 01-1.365.147l.525 2.436c.294-.063.378-.1.63-.147a62.382 62.382 0 006.657-1.806c.294.735.441 1.113.84 2.268zm-7.119-12.516v-2.058h4.053v2.058zm0 1.932h4.053v2.121h-4.053zm15.288-4.2a16.27 16.27 0 01.084-1.932 17.632 17.632 0 01-1.89.084h-3.885a18.69 18.69 0 01-1.89-.084c.042.525.063 1.029.063 1.953v14.28a22.077 22.077 0 01-.1 2.478h2.436a17.1 17.1 0 01-.127-2.478v-14.049h3.1v10.816c0 .483-.126.588-.819.588a13.63 13.63 0 01-1.827-.168 6.807 6.807 0 01.483 2.331c.5.021 1.05.042 1.47.042 2.184 0 2.9-.567 2.9-2.289zm6.384.462h-1.911a15.129 15.129 0 01-2.079-.126v2.289a13.511 13.511 0 011.953-.1h3.885a20.363 20.363 0 01-.819 4.443c-.8-.924-1.155-1.323-1.323-1.491-1.239-1.281-1.239-1.281-1.659-1.7l-1.533 1.557a38.2 38.2 0 013.57 3.864 14.575 14.575 0 01-4.305 5.145 7.516 7.516 0 011.6 1.953 20.638 20.638 0 004.179-5.187 30.162 30.162 0 012.411 3.633l1.659-1.848c-1.491-2.1-1.659-2.331-2.982-4.011a21.512 21.512 0 001.428-6.363 15.669 15.669 0 011.638.063v-2.247a11.215 11.215 0 01-2.016.126h-1.489v-1.176a16.666 16.666 0 01.1-1.974h-2.433a9.946 9.946 0 01.126 1.974zm10.836 3.192v10.014c0 .441-.126.5-1.26.5a21.1 21.1 0 01-2.541-.252 6.959 6.959 0 01.651 2.331c.84.063 1.617.084 2.478.084 1.386 0 2.142-.21 2.541-.714.315-.378.378-.735.378-1.827v-10.136h.273a12.2 12.2 0 011.47.063l.483.063v-2.352a12.042 12.042 0 01-1.974.126h-.252v-1.659a18.91 18.91 0 01.126-2.5h-2.52a14.089 14.089 0 01.147 2.5v1.659h-2.667a12.754 12.754 0 01-1.995-.1v2.31a13.085 13.085 0 011.995-.105zm-5.729 2.331a18.721 18.721 0 012.936 5.083l1.911-1.26a26.371 26.371 0 00-2.961-4.851zm21.5-4.662l-1.617 1.428a20.2 20.2 0 015.334 3.843l1.617-1.785a26.746 26.746 0 00-5.25-3.486h6.951a20.323 20.323 0 012.457.105v-2.331a17.915 17.915 0 01-2.478.126h-5.439v-.9a4.742 4.742 0 01.1-1.218h-2.536a5.407 5.407 0 01.1 1.2v.924h-5.35a16.889 16.889 0 01-2.184-.1c.063.714.084 1.428.084 2.94a58.911 58.911 0 01-.441 8.883 10.2 10.2 0 01-1.365 3.643 8.056 8.056 0 011.89 1.806c1.764-3.276 2.142-5.943 2.163-15.078zm-4.011 13.692a27.432 27.432 0 001.659-8.3l-2.184-.567a26.153 26.153 0 01-.464 4.058 12.721 12.721 0 01-1.134 3.444zm2.6-10.1a9.349 9.349 0 01.13 1.953v7.9c0 1.26.735 1.575 3.654 1.575 1.785 0 2.646-.231 3.108-.819s.651-1.638.819-4.515a9.169 9.169 0 01-2.226-.741c0 3.78-.021 3.864-1.68 3.864-1.26 0-1.428-.084-1.428-.651v-6.593a15.156 15.156 0 01.1-1.974zm11.239 8.653a37.714 37.714 0 00-2.667-7.52l-2 .987a25.212 25.212 0 012.415 7.6z" fill="#0044f2"/><g data-name="グループ 268" fill="#1c1c1c"><path data-name="パス 471" d="M989.612 3246.532h-6.186l3.692-4.342c1.144-1.352 2.7-3.2 2.7-5.564 0-2.964-2.444-5.2-5.668-5.2-3.094 0-5.642 2.106-5.642 5.2h3.228a2.14 2.14 0 012.236-2.184 2.1 2.1 0 012.24 2.184 5.494 5.494 0 01-1.668 3.562l-6.006 7.072v2.34h11.074zm6.71-14.872l-6.136 12.87v2.522h7.956v2.548h3.64v-2.548h1.638v-3.094h-1.638v-4.576h-3.64v4.576h-3.43l5.59-12.3z"/><path data-name="パス 473" d="M1021.02 3241.878h1.326c1.846 0 2.756.936 2.756 2.522a2.244 2.244 0 01-2.34 2.366 2.374 2.374 0 01-2.652-1.976h-3.198c.13 2.91 2.288 5.044 6.084 5.044 3.692 0 5.72-2.34 5.72-5.252a4.589 4.589 0 00-2.7-4.29 4.389 4.389 0 002.444-3.926c0-2.678-2.392-4.94-5.668-4.94-3.094 0-5.512 2-5.642 4.94h3.22a2.134 2.134 0 012.236-1.924 2.079 2.079 0 012.236 2.08 2.2 2.2 0 01-2.5 2.288h-1.322zm17.836-10.218h-3.9l-3.614 7.306a12.493 12.493 0 00-1.638 5.122c0 3.978 2.7 5.746 6.058 5.746 3.328 0 6.006-1.794 6.006-5.772a5.04 5.04 0 00-4.914-5.356 3.866 3.866 0 00-1.742.338zm-5.512 12.558a2.269 2.269 0 012.418-2.518 2.256 2.256 0 012.366 2.522 2.264 2.264 0 01-2.366 2.548 2.277 2.277 0 01-2.418-2.552zm15.184-3.848c1.456 0 2.08 1.118 2.08 3.3 0 2.106-.78 3.094-2.08 3.094a2.062 2.062 0 01-2.132-1.792h-3.588c.286 3.172 2.808 4.862 5.824 4.862 3.692 0 5.616-2.106 5.616-6.344 0-4.29-1.924-6.4-4.68-6.4a3.661 3.661 0 00-2.652.936v-3.068h6.66v-3.3h-10.222v10.042h3.276a2.018 2.018 0 011.898-1.33z"/><path data-name="パス 472" d="M1011.757 3232.609v.76h-.824a6.154 6.154 0 01-.888-.048v.848c.248-.024.544-.04.88-.04h1.9v.68h-1.9a5.937 5.937 0 01-.872-.04v.872a7.165 7.165 0 01.856-.044h1.912v1.7c0 .176-.048.216-.3.216a7.127 7.127 0 01-.9-.064 2.062 2.062 0 01.192.84l.632.008a2.242 2.242 0 00.88-.128c.24-.112.32-.3.32-.768v-1.804h.1a4.35 4.35 0 01.792.048v-.872a4.879 4.879 0 01-.792.04h-.1v-.68h.14a5.2 5.2 0 01.784.04v-.848a5.9 5.9 0 01-.872.048h-1.112v-.76h.88a5.8 5.8 0 01.824.04v-.856a5.9 5.9 0 01-.832.048h-.872v-.216a4.253 4.253 0 01.04-.6h-.916a3.576 3.576 0 01.048.6v.216h-.7a5.82 5.82 0 01-.836-.048v.848a6.775 6.775 0 01.856-.04zm-4.232 4.28a7.288 7.288 0 01-.048.952h.84v-.672h.728v.4h.816a8.995 8.995 0 01-.024-.8v-4.572a6 6 0 01.024-.8 7.225 7.225 0 01-.7.024h-.968a6.931 6.931 0 01-.7-.024 7.5 7.5 0 01.032.808zm.8-4.7h.72v1.668h-.72zm0 2.408h.72v1.8h-.72zm3.768 2.316a6.139 6.139 0 00-1.048-1.224l-.68.448a6.111 6.111 0 011.02 1.312zm.384 7.176c0-.312.008-.512.024-.72a6.434 6.434 0 01-.744.028h-1.784a6.523 6.523 0 01-.744-.032c.016.216.024.44.024.72v1.956a5.515 5.515 0 01-.056.8h.848v-.444h1.7c.064 0 .216 0 .448.008a3.038 3.038 0 01.208.824c.408.024.44.024.552.024a2.437 2.437 0 00.9-.1c.288-.12.384-.328.384-.808v-5.24c0-.4.008-.6.032-.888a7.176 7.176 0 01-.824.032h-1.536a6.845 6.845 0 01-.816-.032c.016.248.024.472.024.744v1.224c0 .344-.008.5-.024.728.2-.016.456-.024.736-.024h1.576v3.344c0 .16-.072.216-.3.216-.144 0-.432-.024-.608-.04a8.33 8.33 0 01-.024-.7zm-.568-3.192h1.5v.4h-1.5zm0 .968h1.5v.408h-1.5zm-1.864 2.208h1.632v.48h-1.632zm0 1.128h1.632v.52h-1.632zm-1.672-2.312h1.448c.28 0 .528.008.736.024a7.621 7.621 0 01-.024-.728v-1.224c0-.312.008-.488.024-.744a6.759 6.759 0 01-.816.032h-1.416a7.266 7.266 0 01-.824-.032 8.869 8.869 0 01.032.9v5.22a7.152 7.152 0 01-.048.992h.936a6.939 6.939 0 01-.048-.984zm0-1.992h1.376v.4h-1.376zm0 .968h1.376v.408h-1.376z"/><path data-name="パス 474" d="M1057.612 3246.42a8.391 8.391 0 01-.048.968h.952v-.476h3.72v.48h.968a8.1 8.1 0 01-.048-.968v-5.172a7.228 7.228 0 01.04-.816 6.437 6.437 0 01-.864.04h-3.872a7.062 7.062 0 01-.888-.04c.024.264.04.544.04.856zm.9-5.1h3.72v1.856h-3.716zm0 2.7h3.72v2.048h-3.716z"/></g><g data-name="グループ 299"><g data-name="マスクグループ 84" transform="translate(923.612 3233.798)" clip-path="url(#d)"><path data-name="パス 113" d="M19.2 38.4a18.652 18.652 0 01-7.49-1.512 19.272 19.272 0 01-10.2-10.2A18.652 18.652 0 010 19.2a18.652 18.652 0 011.512-7.49 19.268 19.268 0 0110.2-10.2A18.652 18.652 0 0119.2 0a18.9 18.9 0 018.1 1.792 19.172 19.172 0 016.585 5.04V3.175a1.694 1.694 0 113.388 0v7.732a2 2 0 01-2.041 2.042H27.5a1.694 1.694 0 110-3.387h4.214a17.061 17.061 0 00-5.573-4.524A15.1 15.1 0 0019.2 3.394 15.255 15.255 0 007.992 8a15.256 15.256 0 00-4.603 11.2 15.255 15.255 0 004.6 11.21 15.255 15.255 0 0011.21 4.6 15.318 15.318 0 009.741-3.36 15.332 15.332 0 005.56-8.59 1.906 1.906 0 01.766-1.073 1.759 1.759 0 011.243-.274 1.568 1.568 0 011.138.656 1.405 1.405 0 01.219 1.238 18.462 18.462 0 01-6.659 10.64A18.669 18.669 0 0119.2 38.4" fill="#1c1c1c"/><path data-name="パス 114" d="M20.894 18.516l6.212 6.212a1.636 1.636 0 01.48 1.179 1.593 1.593 0 01-.48 1.2 1.689 1.689 0 01-2.38 0L18.123 20.5a2.038 2.038 0 01-.465-.691 2.093 2.093 0 01-.147-.773V9.602a1.694 1.694 0 113.387 0z" fill="#fc4076"/></g></g></g></g></g></svg>