<svg xmlns="http://www.w3.org/2000/svg" width="355" height="96"><g data-name="グループ 602"><path data-name="長方形 308" d="M20 .5h315a20 20 0 0120 20v75H0v-75a20 20 0 0120-20z" fill="#fbc101"/><path data-name="交差 3" d="M25.343 95.5l25.976-40.855c-1.253-.334-2.2-.61-3.154-.84-10.095-2.388-20.189-4.726-30.253-7.205a13.736 13.736 0 01-3.416-2.023 13.01 13.01 0 012.133-3.344Q41.271 20.847 65.943.5h22.953L73.943 24.943c-.332.541-.578 1.134-.963 1.9h0l32.536 8.663a26.992 26.992 0 014.541 1.5c3.064 1.441 3.271 3.392.606 5.521-6.84 5.455-13.637 10.956-20.567 16.265Q66.105 77.178 42.072 95.5z" fill="#fbfc00" stroke="rgba(0,0,0,0)" stroke-miterlimit="10" opacity=".3"/><path data-name="パス 512" d="M23.493 41.953h8.384v1.157h-8.384zm0-1.883h9.533v4.912h-9.528v-1.316h7.558v-2.28h-7.558zm3.164.738h1.91v4.1q0 .425.2.538a2.082 2.082 0 00.867.113h2.72a1.248 1.248 0 00.565-.1.628.628 0 00.286-.411 4.741 4.741 0 00.133-.912 3.508 3.508 0 00.785.379 5.533 5.533 0 00.867.243 4.369 4.369 0 01-.366 1.4 1.422 1.422 0 01-.755.7 3.707 3.707 0 01-1.354.2h-3.072a5.943 5.943 0 01-1.684-.189 1.357 1.357 0 01-.854-.65 2.852 2.852 0 01-.243-1.3zm-4.148-.739h1.9v5.546h-1.9zm-.335-6.645h11.174v1.45H22.174zm1.212 3.632h2.91v1.051h-2.91zm-.273 1.482h3.186V39.6h-3.186zm6.1 0h3.207V39.6h-3.207zm0-1.481h2.857v1.051h-2.857zm-2.445-3.042h1.946v5.68h-1.946zm-5.661 1.32h13.386v3.11h-1.838v-1.806h-9.79v1.806h-1.758zm17.941-1.014h10.215v1.638H39.048zm.165 2.22h8.71v1.6h-8.71zm-1.8 2.218h8.552v1.663h-8.55zm1.349-5.923l2.094.452a15.168 15.168 0 01-1.458 3.386 10.9 10.9 0 01-2.019 2.564 5.266 5.266 0 00-.525-.419q-.335-.24-.685-.474a6.92 6.92 0 00-.61-.37 7.6 7.6 0 001.959-2.208 11.219 11.219 0 001.246-2.931zm3.627 7.609l1.94.63a13.318 13.318 0 01-1.8 2.589 14.753 14.753 0 01-2.316 2.112 16.543 16.543 0 01-2.627 1.576q-.15-.205-.41-.5t-.544-.581a6.859 6.859 0 00-.508-.465 13.475 13.475 0 002.562-1.322 11.634 11.634 0 002.15-1.819 9.886 9.886 0 001.555-2.219zm2.937-1.686h2.051q-.01 1.333.017 2.485t.134 2.025a5.946 5.946 0 00.3 1.366q.19.493.488.493.163-.013.22-.556t.072-1.441q.289.34.636.686a6.676 6.676 0 00.65.577 8.125 8.125 0 01-.244 1.54 1.708 1.708 0 01-.516.891 1.477 1.477 0 01-.959.286 1.928 1.928 0 01-1.534-.652 4.273 4.273 0 01-.849-1.808 14.983 14.983 0 01-.373-2.665q-.09-1.51-.093-3.227zM37.345 42.2l1.423-1.311q.8.416 1.688.933t1.763 1.091q.872.574 1.628 1.141a11.117 11.117 0 011.264 1.084l-1.586 1.516a12.41 12.41 0 00-1.177-1.091q-.708-.587-1.553-1.189t-1.737-1.16q-.891-.558-1.713-1.014zm22-8.692q-.028.232-.057.514t-.043.564q-.013.312-.027.83t-.02 1.129q-.007.612-.007 1.206v1.074q0 .59.037 1.347t.088 1.544q.051.787.088 1.486t.037 1.161a2.114 2.114 0 01-.347 1.2 2.32 2.32 0 01-1.023.825 4.08 4.08 0 01-1.664.3A4.758 4.758 0 0153.606 46a2.217 2.217 0 01-.948-1.9 2.234 2.234 0 01.45-1.384 2.961 2.961 0 011.3-.937 5.382 5.382 0 012.013-.341 9.974 9.974 0 012.326.258 10.492 10.492 0 011.974.673 11.726 11.726 0 011.588.878q.693.463 1.178.858l-1.201 1.851a14.793 14.793 0 00-1.213-1.02 10.029 10.029 0 00-1.449-.91 8.572 8.572 0 00-1.653-.647 6.8 6.8 0 00-1.827-.242 2.05 2.05 0 00-1.1.244.7.7 0 00-.385.6.661.661 0 00.167.45 1.02 1.02 0 00.484.288 2.66 2.66 0 00.769.1 2.3 2.3 0 00.679-.088.768.768 0 00.43-.317 1.144 1.144 0 00.15-.63q0-.311-.029-.9t-.058-1.32l-.05-1.464q-.029-.722-.029-1.279t.007-1.165q.007-.619.007-1.217t.007-1.091q.007-.493.007-.784 0-.207-.021-.522a3.151 3.151 0 00-.076-.539zm-6.359 1.339q.41.06.906.12t1.006.113q.51.052.963.075t.792.023q1.562 0 3.084-.093a31.989 31.989 0 003.211-.37l-.013 1.9q-.741.1-1.759.193t-2.18.143Q57.836 37 56.67 37q-.462 0-1.127-.038t-1.338-.1q-.673-.067-1.177-.125zm-.084 3.253q.355.06.85.119t1.013.089q.518.03.974.052t.732.023q1.476 0 2.639-.058t2.149-.15q.986-.092 1.886-.2l-.013 1.949q-.777.092-1.507.153t-1.49.1q-.76.039-1.656.055t-2.033.016q-.412 0-1.055-.023t-1.305-.069q-.663-.045-1.155-.105zm19.984 6.1a10.776 10.776 0 001.809-.442 5.144 5.144 0 001.4-.721 2.985 2.985 0 00.9-1.073 3.276 3.276 0 00.314-1.484 2.074 2.074 0 00-.167-.833 2.058 2.058 0 00-.477-.68 2.174 2.174 0 00-.735-.456 2.628 2.628 0 00-.941-.161 4.938 4.938 0 00-2.636.744 11.394 11.394 0 00-2.307 1.924l.012-2.342a8.021 8.021 0 012.712-1.764 7.548 7.548 0 012.581-.5 4.365 4.365 0 012.135.518 3.9 3.9 0 011.5 1.448 4.108 4.108 0 01.554 2.147 5.815 5.815 0 01-.346 2.064 4.545 4.545 0 01-1.05 1.63 6.075 6.075 0 01-1.768 1.2 11.2 11.2 0 01-2.5.783zm-3.413-6.32q-.265.028-.639.074l-.8.1-.841.109-.777.1-.207-2.117q.34.015.652.007t.742-.022q.375-.028.882-.087t1.033-.137q.526-.079.981-.167a4.72 4.72 0 00.7-.178l.645.842q-.122.17-.305.444t-.367.556q-.183.282-.317.48l-.993 3.037q-.243.343-.593.861t-.732 1.088q-.383.571-.746 1.1t-.649.915l-1.291-1.82.648-.819q.365-.461.762-.983t.783-1.043q.387-.521.722-.994t.575-.833l.023-.286zm-.187-3.003v-.7a3.722 3.722 0 00-.071-.71l2.407.07q-.085.372-.187 1.023t-.2 1.483q-.1.832-.19 1.743t-.139 1.818q-.052.907-.052 1.714 0 .59.007 1.24t.025 1.342q.021.685.063 1.4.015.195.049.573t.063.65h-2.275q.028-.275.037-.638t.008-.543q.013-.733.027-1.381t.028-1.387q.013-.734.04-1.706.013-.343.043-.865t.068-1.146q.038-.624.084-1.258t.084-1.2q.038-.564.062-.971t.019-.551zM85.8 33.595q-.07.235-.152.592t-.173.759q-.091.4-.158.788t-.1.679a7.147 7.147 0 01.654-.778 5.226 5.226 0 01.825-.691 4.228 4.228 0 01.992-.5 3.449 3.449 0 011.141-.186 3.092 3.092 0 011.924.655 4.409 4.409 0 011.362 1.865 7.484 7.484 0 01.5 2.884 7.737 7.737 0 01-.465 2.8 5.749 5.749 0 01-1.337 2.059 7.04 7.04 0 01-2.1 1.4 12.091 12.091 0 01-2.741.823l-1.247-1.927a15.2 15.2 0 002.292-.524 5.9 5.9 0 001.79-.9 3.731 3.731 0 001.157-1.473 5.5 5.5 0 00.406-2.251 6.571 6.571 0 00-.238-1.917 2.527 2.527 0 00-.671-1.159 1.474 1.474 0 00-1.019-.39 2.035 2.035 0 00-1.24.438 4.465 4.465 0 00-1.043 1.132 6.189 6.189 0 00-.721 1.5 5.307 5.307 0 00-.276 1.553q-.01.275 0 .639t.077.873l-2.042.138q-.058-.433-.123-1.1t-.065-1.429q0-.527.033-1.111t.083-1.2q.049-.612.126-1.246t.162-1.244q.058-.455.088-.9t.032-.747zm16.676 3.87q-.129.916-.32 1.946a19.072 19.072 0 01-.528 2.128 10.986 10.986 0 01-.823 2.093 4.633 4.633 0 01-1.05 1.376 1.9 1.9 0 01-1.257.492 1.981 1.981 0 01-1.281-.468 3.178 3.178 0 01-.912-1.282 4.74 4.74 0 01-.337-1.828 4.764 4.764 0 01.427-1.992 5.309 5.309 0 011.186-1.663 5.624 5.624 0 011.777-1.138 5.774 5.774 0 012.2-.415 5.45 5.45 0 012.04.362 4.514 4.514 0 011.548 1.009 4.465 4.465 0 01.988 1.515 5.028 5.028 0 01.343 1.868 4.935 4.935 0 01-.509 2.264 4.3 4.3 0 01-1.527 1.668 6.565 6.565 0 01-2.555.918l-1-1.578q.367-.044.631-.1t.519-.109a4.266 4.266 0 001.05-.403 3.2 3.2 0 00.836-.661 2.839 2.839 0 00.548-.912 3.229 3.229 0 00.194-1.14 3.778 3.778 0 00-.206-1.278 2.765 2.765 0 00-.61-1 2.7 2.7 0 00-.988-.648 3.684 3.684 0 00-1.34-.227 3.9 3.9 0 00-1.664.335 3.743 3.743 0 00-1.2.868 3.822 3.822 0 00-.73 1.14 3.045 3.045 0 00-.24 1.141 3.04 3.04 0 00.124.936 1.384 1.384 0 00.318.567.593.593 0 00.42.189.648.648 0 00.474-.248 2.759 2.759 0 00.445-.75 12.227 12.227 0 00.45-1.255 15.849 15.849 0 00.465-1.841 19.088 19.088 0 00.275-1.932zM24.898 64.231v-8.593q0-.427-.042-.95a7.515 7.515 0 00-.127-.93h2.59q-.043.4-.093.891a9.817 9.817 0 00-.049.99v8.594q0 .2.02.6t.062.823q.042.427.07.756h-2.6q.07-.459.118-1.09t.051-1.091zm1.789-6.6q.748.2 1.684.506t1.889.653q.953.346 1.787.68t1.363.6l-.943 2.307q-.632-.333-1.386-.662t-1.528-.642q-.774-.313-1.513-.578t-1.354-.477zM38.604 54.1q.312.043.774.065t.845.022h5.725q.358 0 .867-.022t.829-.065v2.142q-.307-.03-.8-.043t-.921-.013h-5.7q-.368 0-.824.014t-.794.043zm10.356 4.47q-.083.153-.174.349a3.092 3.092 0 00-.133.322 17.518 17.518 0 01-.874 2.141 8.481 8.481 0 01-1.353 1.984 10.218 10.218 0 01-2.52 2.059 12.822 12.822 0 01-2.837 1.223l-1.654-1.878a11.656 11.656 0 003.035-1.059 8.718 8.718 0 002.146-1.539 5.635 5.635 0 00.923-1.2 7.457 7.457 0 00.541-1.18h-7.03q-.282 0-.808.014t-1.018.058v-2.146q.505.043.985.073t.841.029h7.277a4.561 4.561 0 00.708-.048 2.14 2.14 0 00.474-.12zm12.726-5.557q.205.292.418.652t.4.707q.192.347.317.621l-1.368.57q-.15-.313-.334-.655t-.383-.688q-.2-.347-.406-.653zm2.144-.388q.193.278.418.643t.431.726q.206.361.344.622l-1.368.584q-.242-.465-.56-1.036a8.439 8.439 0 00-.632-.984zm-.535 3.249a3.123 3.123 0 00-.2.547l-.159.572q-.132.537-.321 1.213t-.461 1.409a14.009 14.009 0 01-.638 1.457 9.772 9.772 0 01-.84 1.369 11.264 11.264 0 01-1.59 1.688 12.049 12.049 0 01-2.031 1.424 13.659 13.659 0 01-2.452 1.066l-1.807-1.985a12.506 12.506 0 002.6-.877 8.986 8.986 0 001.89-1.197 10.475 10.475 0 001.4-1.417 7.1 7.1 0 00.832-1.318 10.028 10.028 0 00.562-1.408 8.793 8.793 0 00.311-1.327h-6.792q-.535 0-1.052.021t-.815.049v-2.343q.235.028.575.058t.7.05q.357.021.6.021h6.778q.24 0 .6-.021a3.483 3.483 0 00.678-.1zm9.445 9.487a4.327 4.327 0 00.093-.539 5.514 5.514 0 00.036-.634V55.51a6.133 6.133 0 00-.062-.93q-.062-.4-.063-.414h2.462q0 .017-.056.421a7.122 7.122 0 00-.054.936v7.609a6.691 6.691 0 001.216-.7 9.8 9.8 0 001.221-1.032 9.2 9.2 0 001.081-1.284l1.272 1.835a11.884 11.884 0 01-1.483 1.566 18.767 18.767 0 01-1.812 1.431 15.971 15.971 0 01-1.783 1.084 3.3 3.3 0 00-.413.261l-.271.206zm-6.968-.261a5.852 5.852 0 001.624-1.673 8.249 8.249 0 00.912-1.894 5.727 5.727 0 00.249-1.191q.084-.716.128-1.541t.052-1.649q.008-.824.007-1.516a7.024 7.024 0 00-.042-.832 5.489 5.489 0 00-.112-.63h2.438l-.029.237q-.028.222-.055.543t-.028.656q0 .679-.015 1.558t-.061 1.795q-.046.916-.129 1.734a9.014 9.014 0 01-.235 1.387 8.8 8.8 0 01-1.028 2.389 8.983 8.983 0 01-1.654 1.969z" fill="#1c1c1c"/><g data-name="グループ 427" transform="translate(125.337 14.553)"><rect data-name="長方形 313" width="215.173" height="54.337" rx="10" transform="translate(0 12.428)" fill="#fff"/><g data-name="グループ 422"><g data-name="グループ 421" fill="#fb7502"><path data-name="パス 517" d="M153.696 45.291h7.844v1.064h-6.767v7.624h-1.077zm7.335 0h1.084v7.4a1.748 1.748 0 01-.113.7.786.786 0 01-.414.39 2.161 2.161 0 01-.747.166q-.457.032-1.13.032a2.144 2.144 0 00-.089-.35q-.066-.198-.145-.39a2.722 2.722 0 00-.162-.337q.306.017.6.02t.53 0h.325a.3.3 0 00.2-.058.246.246 0 00.058-.185zm-6.749 3.71h7.271v1.06h-7.271zm3.02-3.141h1.07v3.67h-1.07zm6.592 8.969v-9.717h2.2v.716h-1.227v8.284h1.226v.712zM171 45.043l.89-.385a9.017 9.017 0 01.542.867 4.341 4.341 0 01.368.83l-.943.428a4.855 4.855 0 00-.342-.842 8.384 8.384 0 00-.516-.898zm3.683-.408l1.1.368q-.26.463-.532.918t-.511.785l-.9-.341q.15-.24.311-.54t.3-.612a5.958 5.958 0 00.231-.578zm-2.816 5.2h1.057a10.988 10.988 0 01-.176 1.3 4.792 4.792 0 01-.381 1.146 3.466 3.466 0 01-.7.967 3.837 3.837 0 01-1.145.749 2.273 2.273 0 00-.278-.447 2.651 2.651 0 00-.361-.4 3.175 3.175 0 00.975-.593 2.575 2.575 0 00.576-.774 3.681 3.681 0 00.3-.919 9.985 9.985 0 00.133-1.029zm1.669-.123h1.037v2.85a.731.731 0 00.03.274q.03.053.143.053h.421a.139.139 0 00.13-.082 1.051 1.051 0 00.07-.341q.022-.26.032-.79a1.377 1.377 0 00.264.166 3.037 3.037 0 00.343.145q.179.064.313.1a5.3 5.3 0 01-.158 1.078.968.968 0 01-.322.537.921.921 0 01-.553.154h-.719a1.362 1.362 0 01-.641-.122.637.637 0 01-.306-.4 2.829 2.829 0 01-.082-.762zm-1.532-2.124v1.524h2.674v-1.524zm-1.02-.94h4.762v3.408h-4.763zm-2.525-1.1h1.044v8.422h-1.045zm-1.492 1.91h3.66v1h-3.66zm1.552.4l.635.278q-.147.533-.352 1.11t-.448 1.14q-.243.563-.518 1.059a6.035 6.035 0 01-.565.855 3.617 3.617 0 00-.229-.522q-.152-.291-.282-.492a5.4 5.4 0 00.525-.71q.258-.41.495-.876t.426-.939a9.388 9.388 0 00.309-.905zm1.48-3.1l.726.826a10.7 10.7 0 01-1.1.348q-.6.158-1.235.272t-1.218.2a2.237 2.237 0 00-.122-.417 3.529 3.529 0 00-.183-.409q.557-.093 1.135-.217t1.1-.28a7.764 7.764 0 00.893-.324zm-.52 4.061q.093.077.282.265l.406.408q.218.22.395.41t.25.276l-.619.843q-.09-.174-.24-.412t-.33-.497q-.176-.26-.34-.492t-.283-.379zm11.101-3.732h2.107v1.014h-2.107zm1.546 0h1.134a19.222 19.222 0 00.241 2.072 9.086 9.086 0 00.5 1.81 5.383 5.383 0 00.855 1.458 4.042 4.042 0 001.3 1.025 2.745 2.745 0 00-.286.231q-.159.144-.306.3a3.377 3.377 0 00-.248.289 4.777 4.777 0 01-1.329-1.154 6.144 6.144 0 01-.885-1.554 9.964 9.964 0 01-.528-1.873 19.445 19.445 0 01-.264-2.116h-.187zm-.014 2.045l1.1.157a9.974 9.974 0 01-1.026 2.948 6.069 6.069 0 01-1.803 2.042 2.739 2.739 0 00-.226-.258q-.149-.154-.313-.308a2.865 2.865 0 00-.291-.244 4.7 4.7 0 001.685-1.757 8.134 8.134 0 00.874-2.58zm-2.85 1.422v3.648h-1.047v-2.654h-1.228v-.994zm0 3.18a1.906 1.906 0 00.906.751 4.053 4.053 0 001.385.275q.434.017 1.034.022t1.264-.007q.664-.012 1.3-.037t1.116-.066a3.406 3.406 0 00-.132.323q-.072.2-.127.4t-.085.368q-.444.023-1.014.037t-1.181.021h-1.179q-.571 0-1.01-.028a5.08 5.08 0 01-1.6-.295 2.8 2.8 0 01-1.152-.841q-.336.3-.691.6t-.765.631l-.535-1.113q.347-.216.738-.488t.751-.554zm-2.236-6.21l.793-.642a7.488 7.488 0 01.641.47q.328.267.61.543a4.3 4.3 0 01.455.513l-.858.704a3.475 3.475 0 00-.421-.522q-.272-.285-.593-.568a7.708 7.708 0 00-.627-.499zm9.941 9.305v-.717h1.23v-8.29h-1.23v-.71h2.2v9.717zm7.824-5.129a3.314 3.314 0 00-.682-.549 1.693 1.693 0 00-.863-.2 1.5 1.5 0 00-.95.341 2.771 2.771 0 00-.727.891l-.987-.538a3.7 3.7 0 011.195-1.361 2.679 2.679 0 011.49-.454 2.819 2.819 0 011.264.273 3.813 3.813 0 011.07.82 3.367 3.367 0 00.685.548 1.685 1.685 0 00.859.2 1.5 1.5 0 00.95-.341 2.771 2.771 0 00.727-.891l.987.538a3.7 3.7 0 01-1.191 1.364 2.679 2.679 0 01-1.494.453 2.827 2.827 0 01-1.257-.274 3.784 3.784 0 01-1.071-.82z"/><path data-name="パス 516" d="M87.909 57.071h-4.786V41.835l-4.7 1.374v-3.625l9.048-3.13h.439zm7.972 5.551l-2.41-1.133.481-.963a7.853 7.853 0 001.037-3.512v-3.543h3.823l-.014 3.076a7.681 7.681 0 01-.835 3.313 8.419 8.419 0 01-2.082 2.762zm16.638-5.551h-4.786V41.835l-4.7 1.374v-3.625l9.048-3.129h.439zm20.532-8.425a9.844 9.844 0 01-1.88 6.443 6.484 6.484 0 01-5.285 2.265 6.518 6.518 0 01-5.324-2.283 9.829 9.829 0 01-1.883-6.429v-3.767a9.844 9.844 0 011.876-6.443 6.5 6.5 0 015.3-2.266 6.5 6.5 0 015.31 2.28 9.854 9.854 0 011.883 6.443zm-4.772-4.375a7.353 7.353 0 00-.581-3.321 1.941 1.941 0 00-1.841-1.1 1.9 1.9 0 00-1.786 1.021 6.927 6.927 0 00-.6 3.087v5.268a7.409 7.409 0 00.581 3.377 1.948 1.948 0 001.834 1.068 1.922 1.922 0 001.8-1.041 7.073 7.073 0 00.593-3.259zm21.566 4.375a9.844 9.844 0 01-1.874 6.443 6.484 6.484 0 01-5.291 2.265 6.518 6.518 0 01-5.324-2.283 9.829 9.829 0 01-1.885-6.425v-3.767a9.844 9.844 0 011.876-6.443 6.5 6.5 0 015.3-2.266 6.5 6.5 0 015.31 2.28 9.854 9.854 0 011.883 6.443zm-4.774-4.375a7.353 7.353 0 00-.581-3.321 1.941 1.941 0 00-1.841-1.1 1.9 1.9 0 00-1.788 1.021 6.927 6.927 0 00-.6 3.087v5.268a7.409 7.409 0 00.581 3.377 1.948 1.948 0 001.838 1.068 1.922 1.922 0 001.8-1.041 7.073 7.073 0 00.591-3.259z"/></g><path data-name="パス 518" d="M21.703 51.701c.64 0 1.04.02 1.51.06v-1.32a10.507 10.507 0 01-1.46.08h-2.8a2.411 2.411 0 01.57-.9 8.748 8.748 0 011.19-1 12.519 12.519 0 001.68-1.23 2.03 2.03 0 00.71-1.6c0-1.37-1.08-2.21-2.83-2.21a2.908 2.908 0 00-2.29.89 3 3 0 00-.69 1.6l1.43.17a1.9 1.9 0 01.31-.92 1.413 1.413 0 011.27-.59c.85 0 1.38.42 1.38 1.1 0 .51-.28.84-1.2 1.47a13.771 13.771 0 00-1.65 1.21 4.935 4.935 0 00-1.37 1.96 5.11 5.11 0 00-.26 1.28 9.216 9.216 0 011.29-.05zm4.16-1.46h-1.47v1.46h.84c-.01.62-.15.8-.76.97l.36.53a1.316 1.316 0 001.03-1.5zm7.1-4.87a2.887 2.887 0 00-.63-1.02 2.755 2.755 0 00-2.05-.76 2.84 2.84 0 00-2.44 1.19 5.447 5.447 0 00-.82 3.09 4.384 4.384 0 001.16 3.35 3.15 3.15 0 002.03.66 2.693 2.693 0 002.9-2.7 2.873 2.873 0 00-.36-1.5 2.6 2.6 0 00-2.32-1.19 2.321 2.321 0 00-2.14 1 4.4 4.4 0 01.41-1.77 1.662 1.662 0 011.57-1.04 1.258 1.258 0 011.34 1.01zm-2.76 2.21a1.444 1.444 0 011.58 1.57 1.706 1.706 0 01-.23.91 1.591 1.591 0 01-1.37.7 1.587 1.587 0 01-1.69-1.58 1.614 1.614 0 011.71-1.6zm6.95 4.28a2.838 2.838 0 002.43-1.18 5.252 5.252 0 00.74-2.96 6.725 6.725 0 00-.39-2.32 2.8 2.8 0 00-.66-1.01 2.9 2.9 0 00-2.11-.81 2.843 2.843 0 00-2.55 1.39 5.888 5.888 0 00-.61 2.77 6.693 6.693 0 00.39 2.3 2.8 2.8 0 00.66 1.01 2.881 2.881 0 002.1.81zm.01-1.16a1.465 1.465 0 01-1.28-.65 4.5 4.5 0 01-.51-2.38 3.731 3.731 0 01.66-2.43 1.345 1.345 0 011.12-.51 1.445 1.445 0 011.09.42 3.878 3.878 0 01.7 2.56 3.853 3.853 0 01-.7 2.57 1.453 1.453 0 01-1.08.42zm7.11 1.16a2.838 2.838 0 002.43-1.18 5.252 5.252 0 00.74-2.96 6.725 6.725 0 00-.39-2.32 2.8 2.8 0 00-.66-1.01 2.9 2.9 0 00-2.11-.81 2.843 2.843 0 00-2.55 1.39 5.888 5.888 0 00-.61 2.77 6.693 6.693 0 00.39 2.3 2.8 2.8 0 00.66 1.01 2.881 2.881 0 002.1.81zm.01-1.16a1.465 1.465 0 01-1.28-.65 4.5 4.5 0 01-.51-2.38 3.731 3.731 0 01.66-2.43 1.345 1.345 0 011.12-.51 1.445 1.445 0 011.09.42 3.878 3.878 0 01.7 2.56 3.853 3.853 0 01-.7 2.57 1.453 1.453 0 01-1.08.42zm5.59-2.22h5.95v2.44c0 .24-.06.27-.45.27-.36 0-.86-.04-1.52-.11a3.848 3.848 0 01.31 1.08c.39.02.94.04 1.33.04a2.46 2.46 0 001.05-.14c.29-.15.41-.43.41-.94v-6.41a9.841 9.841 0 01.04-1.09 9.167 9.167 0 01-1.09.04h-6.08a10.743 10.743 0 01-1.11-.04 8.615 8.615 0 01.04.96v6.54a9.5 9.5 0 01-.06 1.2h1.23a7.351 7.351 0 01-.05-1.16zm2.37-1.05h-2.37v-2.71h2.37zm1.08 0v-2.71h2.5v2.71z"/><path data-name="多角形 7" d="M73.173 48.291l-7.245 8.694V39.597z" fill="#fbc102"/></g><g data-name="グループ 423" transform="translate(12.835)"><rect data-name="長方形 311" width="186.194" height="26.082" rx="13.041" transform="translate(.362 .724)" fill="#fff"/><g data-name="グループ 426"><path data-name="パス 515" d="M125.616 8.767h8.632v1.446h-7.167v8.252h-1.465zm7.925 0h1.476v8.03a2.372 2.372 0 01-.137.895 1 1 0 01-.5.51 2.376 2.376 0 01-.875.226q-.519.045-1.258.045a2.941 2.941 0 00-.121-.478q-.087-.266-.192-.527a3.616 3.616 0 00-.217-.453q.3.021.618.026t.568 0h.354a.324.324 0 00.219-.062.268.268 0 00.065-.2zm-7.131 4.1h7.85v1.441h-7.85zm3.094-3.309h1.456v4.022h-1.456zm12.905-.31h1.378v6.21h-1.377zm2.291-.964h1.417v8.442a2.635 2.635 0 01-.128.925.929.929 0 01-.473.5 2.4 2.4 0 01-.864.236 11.8 11.8 0 01-1.223.054 2.871 2.871 0 00-.1-.483q-.076-.272-.172-.544a4.109 4.109 0 00-.2-.474q.462.021.888.026t.59 0a.3.3 0 00.2-.055.26.26 0 00.059-.2zm-7.331 8.639h3.308v1.075h-3.308zm-1.184-3.256h5.7v1.091h-5.7zm.487-2.76h4.764v1.014h-4.767zm.129 1.406h4.486v.956h-4.486zm1.534-4.155h1.415v1.509h-1.415zm.034 2.187h1.347v3.892h-1.347zm-1.613 4.741h4.664v3.288h-1.376v-2.216h-1.975v2.319h-1.313zm-.606-6.028h5.852v1.946h-1.347v-.854h-3.227v.854h-1.278zm14.884 4.312h1.515l-.006.112-.01.25a1.467 1.467 0 01-.026.239q-.079 1.19-.185 1.978a8.492 8.492 0 01-.242 1.247 1.749 1.749 0 01-.343.685 1.363 1.363 0 01-.51.375 2.475 2.475 0 01-.642.148 5.989 5.989 0 01-.756.044q-.464 0-.975-.01a3.006 3.006 0 00-.17-.787 2.921 2.921 0 00-.371-.747q.487.045.955.057t.692.012a1.3 1.3 0 00.278-.026.6.6 0 00.225-.1 1 1 0 00.237-.489 7.81 7.81 0 00.182-1.056q.081-.681.14-1.723zm-3.04-2.4h1.5q-.1.712-.218 1.485t-.241 1.489q-.12.716-.239 1.278l-1.466-.231q.13-.543.255-1.224t.235-1.41q.106-.732.173-1.391zm6.785-2.7h1.474v10.203h-1.475zm-6.43 5.105h3.11v1.347h-3.284zm.15-2.4h2.514V9.858h-3.258V8.499h4.693v3.824h-3.95zm14.146 3.605l-.31-3.622-.059-1.732h1.987l-.059 1.732-.311 3.619zm.624 3a1.015 1.015 0 01-.753-.3 1.025 1.025 0 01-.294-.753.991.991 0 01.3-.745 1.033 1.033 0 01.748-.289 1.033 1.033 0 01.748.289.991.991 0 01.3.745 1.016 1.016 0 01-.3.753 1.019 1.019 0 01-.749.296z" fill="#1c1c1c"/><path data-name="パス 514" d="M85.775 19.734h-2.399v-9.247l-2.864.888V9.424l5.006-1.79h.257zm4.651 3.03l-1.253-.656.3-.54a4.313 4.313 0 00.573-2.017v-1.859h2.025l-.008 1.66a4.313 4.313 0 01-.465 1.859 4.767 4.767 0 01-1.172 1.553zm3.785-8.973l.7-6.143h6.773v2h-4.811l-.3 2.6a3.8 3.8 0 011.818-.457 3.484 3.484 0 012.706 1.071 4.277 4.277 0 01.979 3 4.382 4.382 0 01-.494 2.1 3.486 3.486 0 01-1.414 1.428 4.418 4.418 0 01-2.175.51 4.692 4.692 0 01-2.034-.444 3.607 3.607 0 01-1.482-1.249 3.4 3.4 0 01-.577-1.834h2.374a1.773 1.773 0 00.527 1.175 1.671 1.671 0 001.183.419 1.475 1.475 0 001.253-.585 2.711 2.711 0 00.44-1.656 2.242 2.242 0 00-.506-1.577 1.858 1.858 0 00-1.436-.548 2.077 2.077 0 00-1.386.448l-.232.216zm17.529.943a6.123 6.123 0 01-1.038 3.835 3.622 3.622 0 01-3.038 1.331 3.647 3.647 0 01-3.021-1.3 5.943 5.943 0 01-1.071-3.735v-2.231a6.042 6.042 0 011.054-3.84 3.649 3.649 0 013.026-1.312 3.652 3.652 0 013.021 1.3 5.925 5.925 0 011.071 3.731zm-2.4-2.44a4.418 4.418 0 00-.414-2.185 1.389 1.389 0 00-1.282-.685 1.364 1.364 0 00-1.249.652 4.134 4.134 0 00-.427 2.038v2.938a4.637 4.637 0 00.4 2.2 1.37 1.37 0 001.291.718 1.348 1.348 0 001.27-.689 4.526 4.526 0 00.407-2.108zm12.153 2.44a6.123 6.123 0 01-1.037 3.838 3.622 3.622 0 01-3.038 1.328 3.647 3.647 0 01-3.021-1.3 5.943 5.943 0 01-1.071-3.739v-2.227a6.042 6.042 0 011.05-3.843 3.649 3.649 0 013.026-1.312 3.652 3.652 0 013.021 1.3 5.925 5.925 0 011.071 3.731zm-2.4-2.44a4.418 4.418 0 00-.411-2.187 1.389 1.389 0 00-1.282-.685 1.364 1.364 0 00-1.249.652 4.134 4.134 0 00-.425 2.04v2.938a4.637 4.637 0 00.4 2.2 1.37 1.37 0 001.291.718 1.348 1.348 0 001.27-.689 4.526 4.526 0 00.407-2.108z" fill="#1c1c1c"/><g data-name="グループ 420" transform="translate(18.993 6.632)"><rect data-name="長方形 310" width="55.786" height="14.49" rx="3"/><path data-name="パス 513" d="M10.678 10.724L9.127 3.39h.948l.769 4q.117.586.225 1.179t.215 1.191h.04q.128-.6.26-1.193t.266-1.179l1.01-4h.845l1.02 4q.135.582.264 1.177t.263 1.195h.05q.107-.6.207-1.193t.2-1.179l.783-4h.885l-1.51 7.336h-1.12l-1.11-4.423q-.1-.436-.183-.839t-.174-.829h-.04q-.088.426-.185.829t-.188.839l-1.089 4.423zm7.978 0V3.39h4.22v.782h-3.3v2.3h2.781v.786H19.58v2.68h3.406v.786zm5.885 0V3.39h2.173a4.328 4.328 0 011.312.18 1.824 1.824 0 01.887.574 1.6 1.6 0 01.321 1.041 1.855 1.855 0 01-.126.683 1.613 1.613 0 01-.363.559 1.447 1.447 0 01-.585.351v.046a1.937 1.937 0 011.074.565 1.66 1.66 0 01.417 1.191 1.947 1.947 0 01-.353 1.193 2.125 2.125 0 01-.977.714 4.039 4.039 0 01-1.445.237zm.926-4.215h1.088a2.22 2.22 0 001.36-.325 1.063 1.063 0 00.411-.882.989.989 0 00-.435-.913 2.491 2.491 0 00-1.294-.27h-1.13zm0 3.48h1.28a2.646 2.646 0 001.472-.351 1.218 1.218 0 00.528-1.094 1.092 1.092 0 00-.52-1 2.848 2.848 0 00-1.481-.32h-1.279zm11.066-6.584h.717v5.519h-.717zm2.047-.907h.733v7.99a1.29 1.29 0 01-.1.571.623.623 0 01-.337.289 2.174 2.174 0 01-.653.122q-.421.028-1 .028a1.641 1.641 0 00-.056-.255q-.044-.142-.1-.287a2.009 2.009 0 00-.11-.253q.465.014.862.016t.541 0a.271.271 0 00.167-.05.233.233 0 00.049-.174zm-6.966 7.895h3.353v.6h-3.353zm-.96-3.146h5.168v.6h-5.168zm.548-2.459h4.15v.567h-4.15zm.057 1.223h3.978v.55h-3.978zm1.639-3.66h.727v1.241h-.727zm.015 1.786h.7v3.438h-.7zm-1.655 4.266h4.109v2.984h-.711V8.993h-2.7v2.5h-.69zm-.6-5.154h5.275v1.585h-.7v-.986h-3.9v.986h-.676zm13.715 3.914h.772v.064q-.005.064-.007.144a.659.659 0 01-.016.137q-.082 1.182-.18 1.925a7.8 7.8 0 01-.22 1.151 1.41 1.41 0 01-.3.587.856.856 0 01-.344.234 1.865 1.865 0 01-.464.087 6.688 6.688 0 01-.672.015q-.432-.007-.917-.029a1.743 1.743 0 00-.085-.4 1.4 1.4 0 00-.187-.382q.5.046.951.059t.627.013a1.5 1.5 0 00.265-.019.385.385 0 00.182-.089 1.014 1.014 0 00.241-.49 8.153 8.153 0 00.19-1.075q.088-.7.163-1.821zm-2.964-2.121h.77q-.084.542-.191 1.145t-.214 1.167q-.107.563-.2.99l-.757-.12q.108-.418.22-.965t.208-1.135q.097-.578.164-1.082zm6.433-2.618h.75v9.1h-.75zm-6.416 4.739h3.177v.7h-3.28zm.256-2.121h2.676v-1.6h-3.286v-.7h4.021v3.007h-3.41z" fill="#fff"/></g></g><path data-name="パス 409" d="M172.758 27.496H97.282a.65.65 0 110-1.3h75.476a12.451 12.451 0 000-24.9H13.748a12.451 12.451 0 000 24.9h76.707a.65.65 0 110 1.3H13.748a13.75 13.75 0 010-27.5h159.01a13.75 13.75 0 110 27.5z" fill="#fbc102"/><path data-name="パス 410" d="M90.892 30.235a.649.649 0 010-.917l3.914-3.914a.649.649 0 11.917.917l-3.914 3.914a.649.649 0 01-.917 0z" fill="#fbc102"/></g></g></g></svg>