<svg xmlns="http://www.w3.org/2000/svg" width="230.22" height="60"><defs><clipPath id="a"><path data-name="長方形 3" fill="#0044f2" d="M0 0h97.365v60H0z"/></clipPath><clipPath id="b"><path data-name="長方形 4" fill="#0044f2" d="M0 0h103v11.655H0z"/></clipPath></defs><g data-name="グループ 12"><g data-name="グループ 10" fill="#0044f2"><path data-name="パス 8" d="M108.134 20.368l.562-3.188a.6.6 0 01.619-.526h11.439a.4.4 0 01.433.526l-.562 3.188a.6.6 0 01-.619.526h-11.438a.4.4 0 01-.433-.526m10.091 21.07l-1.056-4.076-.591 3.353a.575.575 0 01-.619.526h-10.191c-.362 0-.491-.2-.433-.526l1.606-9.105a.575.575 0 01.619-.526h10.193c.362 0 .491.2.433.526l-.811 4.6a.454.454 0 01.2-.033 23.47 23.47 0 004.341-.756 14.961 14.961 0 01-2.145-3.682.555.555 0 01-.047-.3.522.522 0 01.429-.388l3.407-1.052h-3.878c-.362 0-.491-.2-.433-.526l.73-4.142a.575.575 0 01.619-.526h2.137l-2.636-2.761a.34.34 0 01-.106-.329.637.637 0 01.3-.394c2-1.249 2.735-3.024 3.408-6.837l.35-2.17a.575.575 0 01.619-.526h10.55c.362 0 .491.2.433.526l-1.061 6.015c-.07.394-.027.526.2.526h.46c.433-.033.6-.394 1.115-3.155.075-.427.34-.625.706-.46l2.421 1.183a.51.51 0 01.284.625c-1.049 5.785-1.991 6.841-5.625 6.969h-1.845c-2.678-.1-3.784-.723-3.32-3.353l.667-3.78h-1.415l-.095.723a12.28 12.28 0 01-3.767 7.2h12.1c.362 0 .491.2.433.526l-.7 3.977a1.559 1.559 0 01-.209.625 21.721 21.721 0 01-4.228 5.522 23.478 23.478 0 004.621.822c.389.033.507.3.279.657l-2.766 4.5a.6.6 0 01-.688.362 19.662 19.662 0 01-6.95-2.531 30.487 30.487 0 01-7.442 2.5c-.34.066-.52-.033-.6-.329m-8.15-26.3l.493-2.794a.6.6 0 01.619-.526h9.763a.4.4 0 01.433.526l-.493 2.794a.6.6 0 01-.619.526h-9.767a.4.4 0 01-.433-.526m-1.733 9.828l.452-2.564a.6.6 0 01.619-.526h9.6a.4.4 0 01.433.526l-.452 2.564a.6.6 0 01-.619.526h-9.6a.4.4 0 01-.433-.526m-.811 4.6l.452-2.564a.6.6 0 01.619-.526h9.6a.4.4 0 01.433.526l-.452 2.564a.6.6 0 01-.619.526h-9.6a.4.4 0 01-.433-.526m5.061 7.462l.348-1.972H111l-.346 1.977zm14.611-4.01a9.394 9.394 0 002.8-3.024h-4.863a8.151 8.151 0 002.063 3.024"/><path data-name="パス 9" d="M172.011 19.579l-.632 3.583a.6.6 0 01-.619.526h-15.511l-.626 3.55c-.927 5.259-2.238 10.453-4.321 14.068a.478.478 0 01-.731.23l-3.722-2.235-.365 2.071a.6.6 0 01-.619.526h-4.6a.4.4 0 01-.433-.526l2.417-13.707c-.365.394-.686.723-1.04 1.052a.634.634 0 01-.364.2c-.164 0-.267-.164-.292-.394l-.421-6.377a.71.71 0 01.28-.657c2.712-2.334 5-6.344 6.441-10.058a.553.553 0 01.696-.398l4.588.822a.415.415 0 01.317.625 54.938 54.938 0 01-3 6.41l-3.358 19.031a32.936 32.936 0 003.423-10.65l1.356-7.692a.6.6 0 01.619-.526h20.084a.4.4 0 01.433.526m-2.062-8.053l-.2 1.15h2.728a.4.4 0 01.433.526l-.62 3.517a.6.6 0 01-.619.526h-2.728l-.122.69a.6.6 0 01-.619.526h-4.47a.4.4 0 01-.433-.526l.122-.69h-2.926l-.122.69a.6.6 0 01-.619.526h-4.5a.4.4 0 01-.433-.526l.122-.69h-2.7a.4.4 0 01-.433-.526l.62-3.517a.6.6 0 01.619-.526h2.7l.2-1.15a.6.6 0 01.613-.525h4.5a.4.4 0 01.433.526l-.2 1.15h2.926l.2-1.15a.6.6 0 01.622-.526h4.47a.4.4 0 01.433.526m.487 13.641l-2.116 12c-.667 3.78-1.716 4.7-4.675 4.7-.395 0-.625 0-.681-.427l-.395-2.794c-.068-.362.164-.559.559-.559.7-.033.94-.3 1.067-1.019l.093-.526h-1.576l-.783 4.437a.6.6 0 01-.619.526h-2.3a.4.4 0 01-.433-.526l.783-4.437h-1.608l-.852 4.832a.6.6 0 01-.619.526h-2.958a.4.4 0 01-.433-.526l2.857-16.205a.6.6 0 01.619-.526h13.641a.4.4 0 01.433.526m-11.268 3.32l-.255 1.446h1.611l.255-1.446zm-.7 3.977l-.272 1.545h1.611l.272-1.545zm5.665-3.977l-.255 1.446h1.57l.255-1.446zm-.7 3.977l-.272 1.545h1.578l.272-1.545z"/><path data-name="パス 10" d="M202.045 35.85c.18.1.288.23.259.394a1.046 1.046 0 01-.189.329l-4.129 4.963a.556.556 0 01-.725.2c-4.448-2.367-8.031-7.4-9.211-13.378-3.4 6.048-8.555 11.045-13.962 13.378q-.479.2-.655-.2l-2.615-4.93a.6.6 0 01-.073-.329.521.521 0 01.392-.362c8.368-3.09 14.09-11.307 15.742-20.676l.655-3.714a.6.6 0 01.619-.524h5.424a.4.4 0 01.433.526l-.397 2.234c-1.671 9.664.95 18.473 8.432 22.089"/></g><g data-name="グループ 5" clip-path="url(#a)" fill="#0044f2"><path data-name="パス 19" d="M62.783 18.762h9.741a7.8 7.8 0 011.382.083c.964.176 1.169.709.585 1.507-1.5 2.045-2.984 4.1-4.521 6.112q-7.91 10.366-15.859 20.7c-.3.393-.516 1.013-1.418.76L58.827 28.2c-.375 0-.66-.007-.944 0-3 .084-5.995.182-8.993.239a3.971 3.971 0 01-1.107-.314 3.806 3.806 0 01.344-1.1Q57.27 14.07 66.448 1.139a3.349 3.349 0 01.481-.657 5.223 5.223 0 01.83-.482 2.437 2.437 0 01.162.924c-.273 1.108-.62 2.2-.94 3.293l-4.072 13.938c-.052.177-.076.362-.126.606"/><path data-name="パス 20" d="M64.704 37.125c-3.206 4.185-6.225 8.119-8.776 11.44l-.055.081a3.305 3.305 0 01-2.794 1.634 3.728 3.728 0 01-1-.143 2.29 2.29 0 01-1.57-2.886l5.191-16.7h-.1c-2.18.063-4.435.129-6.659.172h-.061a4.2 4.2 0 01-1.559-.342c-.064-.024-.152-.058-.184-.068a2.29 2.29 0 01-1.54-2.853c.009-.03.028-.119.042-.184a4.037 4.037 0 01.625-1.576c2.364-3.349 4.748-6.721 7.127-10.083a106.253 106.253 0 01-6.51-10.7c-.138-.265-.3-.521-.451-.777q-.529-.876-1.051-.851-.523-.025-1.051.851c-.155.257-.312.512-.451.777a125.387 125.387 0 01-9.3 14.692 66.829 66.829 0 00-5.874 9.025c-2.8 5.674-3.755 11.521-1.8 17.643a19.295 19.295 0 0036.942 0 21.1 21.1 0 00.861-9.159M44.047 53.59c-5.328 1.093-10.406-2.191-12.382-7.028a13.217 13.217 0 01.811-12.447 2.277 2.277 0 01.184-.267 1.819 1.819 0 01.3-.181c0 .356.007.622 0 .888a23.2 23.2 0 00.726 7.765c1.517 4.791 4.841 7.894 9.307 9.92.658.3 1.332.563 2 .843l.006.188a8.07 8.07 0 01-.954.32"/><path data-name="パス 21" d="M3.765 36.54l.009.1c.124.009.247.02.371.026 4.3.209 15.736.749 17.152.811.67.029.946-.332.921-.957-.024-.594-.377-.794-.936-.739-.488.048-17.342.726-17.516.758"/><path data-name="パス 22" d="M96.051 42.342q-4.488-.033-8.975.023a1.327 1.327 0 01-1.218-.631c-.774-1.086-1.614-2.127-2.344-3.241a1.748 1.748 0 010-2.026c.73-1.114 1.57-2.155 2.344-3.241a1.327 1.327 0 011.218-.631q4.487.054 8.975.023c1.29-.009 1.668-.783.964-1.9a13.568 13.568 0 00-17.092-5.249 16.969 16.969 0 00-5.012 3.743 1.987 1.987 0 01-1.2.658H70.26c-4.1 5.373-8.165 10.671-11.656 15.219 1.738 0 13.561.009 15.107 0a1.987 1.987 0 011.2.658 16.964 16.964 0 005.012 3.743 13.568 13.568 0 0017.092-5.249c.7-1.114.326-1.888-.964-1.9"/><path data-name="パス 23" d="M8.358 30.988l.009.1c.124.009.247.02.371.026 4.3.209 12.463.749 13.879.811.67.029.946-.332.921-.957-.024-.594-.376-.794-.936-.739-.488.048-14.07.726-14.244.758"/><path data-name="パス 24" d="M8.358 48.002l.009.1c.124.009.247.02.371.026 4.3.209 12.463.749 13.879.811.67.029.946-.332.921-.957-.024-.594-.376-.794-.936-.739-.488.048-14.07.726-14.244.758"/><path data-name="パス 25" d="M0 42.507c0 .034.007.068.01.1.149.009.3.02.447.026 5.179.209 18.946.749 20.651.811.807.029 1.14-.332 1.109-.957-.029-.594-.453-.794-1.127-.739-.587.048-20.88.726-21.09.758"/></g><g data-name="グループ 6" fill="#0044f2"><path data-name="パス 21" d="M226.454 36.32l-.009.1c-.124.009-.247.02-.371.026-4.3.209-15.736.749-17.152.811-.67.029-.946-.332-.921-.957.024-.594.377-.794.936-.739.488.048 17.342.726 17.516.758"/><path data-name="パス 23" d="M223.182 30.767l-.009.1c-.124.009-.247.02-.371.026-4.3.209-12.463.749-13.879.811-.67.029-.946-.332-.921-.957.024-.594.376-.794.936-.739.488.048 14.07.726 14.244.758"/><path data-name="パス 24" d="M223.182 47.781l-.009.1c-.124.009-.247.02-.371.026-4.3.209-12.463.749-13.879.811-.67.029-.946-.332-.921-.957.024-.594.376-.794.936-.739.488.048 14.07.726 14.244.758"/><path data-name="パス 25" d="M230.22 42.286c0 .034-.007.068-.01.1-.149.009-.3.02-.447.026-5.179.209-18.946.749-20.651.811-.807.029-1.14-.332-1.109-.957.029-.594.453-.794 1.127-.739.587.048 20.88.726 21.09.758"/></g><g data-name="グループ 11"><g data-name="グループ 8" clip-path="url(#b)" fill="#0044f2" transform="translate(100 46)"><path data-name="パス 26" d="M4.374 11.655a8.623 8.623 0 01-2.536-.362A4.921 4.921 0 010 10.351l1.232-1.964a4.974 4.974 0 001.557.845 5.852 5.852 0 001.954.33A4.259 4.259 0 006.019 9.4a1.942 1.942 0 00.776-.427 1.123 1.123 0 00.335-.62.718.718 0 00-.23-.714 2.364 2.364 0 00-.864-.439q-.558-.169-1.223-.322t-1.327-.37A4.582 4.582 0 012.3 5.932a2.108 2.108 0 01-.766-.95 2.649 2.649 0 01-.086-1.473 3.769 3.769 0 01.826-1.763A4.521 4.521 0 014.068.475 7.083 7.083 0 016.8 0a8.164 8.164 0 012.055.257A5.151 5.151 0 0110.536 1L9.368 2.962a5.418 5.418 0 00-1.446-.652 5.514 5.514 0 00-1.507-.217 4 4 0 00-1.269.169 1.818 1.818 0 00-.765.459 1.258 1.258 0 00-.331.644.736.736 0 00.227.724 2.116 2.116 0 00.858.427q.553.153 1.234.306A12.449 12.449 0 017.7 5.2a5.107 5.107 0 011.171.571 2.129 2.129 0 01.779.929 2.511 2.511 0 01.105 1.457A3.661 3.661 0 018.926 9.9a4.677 4.677 0 01-1.81 1.272 7.047 7.047 0 01-2.741.483"/><path data-name="パス 27" d="M13.858 11.462L15.845.194h8.516l-.367 2.092H18.07l-1.249 7.083h6.134l-.369 2.093zm3.228-4.7l.361-2.044h5.425l-.361 2.044z"/><path data-name="パス 28" d="M29.891 11.462l1.614-9.143h-3.606l.375-2.125h9.82l-.375 2.125h-3.606l-1.612 9.144z"/><path data-name="パス 29" d="M44.008 11.655a8.623 8.623 0 01-2.536-.362 4.921 4.921 0 01-1.838-.942l1.232-1.964a4.975 4.975 0 001.557.845 5.853 5.853 0 001.954.33 4.259 4.259 0 001.276-.161 1.941 1.941 0 00.776-.427 1.123 1.123 0 00.335-.62.718.718 0 00-.228-.716 2.364 2.364 0 00-.865-.435q-.558-.169-1.223-.322t-1.327-.37a4.582 4.582 0 01-1.186-.58 2.108 2.108 0 01-.766-.95 2.649 2.649 0 01-.086-1.473 3.77 3.77 0 01.826-1.763 4.521 4.521 0 011.793-1.27A7.083 7.083 0 0146.438 0a8.165 8.165 0 012.055.257A5.151 5.151 0 0150.17 1l-1.167 1.964a5.418 5.418 0 00-1.447-.652 5.514 5.514 0 00-1.507-.217 4 4 0 00-1.269.169 1.818 1.818 0 00-.765.459 1.259 1.259 0 00-.331.644.736.736 0 00.227.724 2.116 2.116 0 00.858.427q.553.153 1.234.306a12.45 12.45 0 011.335.376 5.106 5.106 0 011.171.571 2.13 2.13 0 01.777.934 2.511 2.511 0 01.105 1.457 3.661 3.661 0 01-.83 1.739 4.676 4.676 0 01-1.81 1.272 7.047 7.047 0 01-2.741.483"/><path data-name="パス 30" d="M58.464 11.655a4.326 4.326 0 01-3.515-1.336 4.53 4.53 0 01-.677-3.831l1.11-6.294h2.624l-1.1 6.23a3.016 3.016 0 00.253 2.31 1.99 1.99 0 001.709.716 2.825 2.825 0 001.978-.716 3.971 3.971 0 001.067-2.31l1.1-6.23h2.56l-1.11 6.294a6.211 6.211 0 01-2.028 3.831 5.955 5.955 0 01-3.97 1.336"/><path data-name="パス 31" d="M69.074 11.462L71.061.194h5.506a4.641 4.641 0 013.054.8 2.135 2.135 0 01.7 2.125 3.2 3.2 0 01-.706 1.537 3.646 3.646 0 01-1.377 1.006 4.505 4.505 0 01-1.793.354l.425-.676a4.224 4.224 0 011.813.354 2.285 2.285 0 011.1 1.03 2.583 2.583 0 01.174 1.658 3.247 3.247 0 01-1.542 2.262 6.525 6.525 0 01-3.508.813zm2.941-1.968h3.059a3.2 3.2 0 001.589-.338 1.427 1.427 0 00.716-1.046.986.986 0 00-.344-1.062 2.546 2.546 0 00-1.47-.338h-3.25l.335-1.9h2.785a3 3 0 001.515-.33 1.384 1.384 0 00.685-1.006.926.926 0 00-.331-1 2.429 2.429 0 00-1.4-.322h-2.592z"/><path data-name="パス 32" d="M84.288 11.462L86.275.194h2.624l-1.987 11.269z"/><path data-name="パス 33" d="M94.799 11.462l1.612-9.144h-3.606L93.18.193H103l-.375 2.125h-3.607l-1.612 9.144z"/></g></g></g></svg>