<svg xmlns="http://www.w3.org/2000/svg" width="16" height="16" viewBox="0 0 16 16"><path d="M8 0C3.58 0 0 3.13 0 7c0 1.98.87 3.76 2.27 5.03L1.6 14.4a.4.4 0 00.52.52l2.93-1.17A8.64 8.64 0 008 14c4.42 0 8-3.13 8-7S12.42 0 8 0zm0 1.6c3.53 0 6.4 2.42 6.4 5.4S11.53 12.4 8 12.4a7.04 7.04 0 01-2.74-.55.4.4 0 00-.31 0L2.72 12.9l.52-1.73a.4.4 0 00-.12-.42A5.06 5.06 0 011.6 7C1.6 4.02 4.47 1.6 8 1.6zM4 7a1 1 0 100 2 1 1 0 000-2zm4 0a1 1 0 100 2 1 1 0 000-2zm4 0a1 1 0 100 2 1 1 0 000-2z" fill="#0044f2"/></svg>
