<svg xmlns="http://www.w3.org/2000/svg" width="11.2" height="16"><path d="M5.6 16a7.743 7.743 0 01-3.46-.67A1.985 1.985 0 01.8 13.6a1.469 1.469 0 01.17-.7 2.009 2.009 0 01.51-.6.843.843 0 01.61-.16.737.737 0 01.53.32.806.806 0 01.15.61.771.771 0 01-.33.53 2.367 2.367 0 001.2.56 7.894 7.894 0 001.96.24 7.894 7.894 0 001.96-.24 2.367 2.367 0 001.2-.56.771.771 0 01-.33-.53.806.806 0 01.15-.61.737.737 0 01.53-.32.843.843 0 01.61.16 2.009 2.009 0 01.51.6 1.469 1.469 0 01.17.7 1.985 1.985 0 01-1.34 1.73A7.743 7.743 0 015.6 16zm.02-4.4A12.581 12.581 0 008.6 8.67a5.212 5.212 0 001-2.95 3.708 3.708 0 00-1.3-3.08A4.276 4.276 0 005.6 1.6a4.276 4.276 0 00-2.7 1.04 3.708 3.708 0 00-1.3 3.08 5.009 5.009 0 00.98 2.79 14.682 14.682 0 003.04 3.09zm-.02 1.62a1.51 1.51 0 01-.48-.08 1.415 1.415 0 01-.44-.24 16.064 16.064 0 01-3.52-3.67A6.444 6.444 0 010 5.72a5.727 5.727 0 01.51-2.49 5.634 5.634 0 011.31-1.79A5.4 5.4 0 013.62.36 5.817 5.817 0 015.6 0a5.817 5.817 0 011.98.36 5.4 5.4 0 011.8 1.08 5.633 5.633 0 011.31 1.79 5.727 5.727 0 01.51 2.49 6.444 6.444 0 01-1.16 3.51 16.064 16.064 0 01-3.52 3.67 1.415 1.415 0 01-.44.24 1.51 1.51 0 01-.48.08zm0-6.02a1.541 1.541 0 001.13-.47A1.541 1.541 0 007.2 5.6a1.541 1.541 0 00-.47-1.13A1.541 1.541 0 005.6 4a1.541 1.541 0 00-1.13.47A1.541 1.541 0 004 5.6a1.541 1.541 0 00.47 1.13 1.541 1.541 0 001.13.47zm0-1.6z" fill="#0044f2"/></svg>