<svg xmlns="http://www.w3.org/2000/svg" width="16" height="16"><path d="M4 4.8a1.541 1.541 0 01-1.13-.47A1.541 1.541 0 012.4 3.2V1.6A1.541 1.541 0 012.87.47 1.541 1.541 0 014 0h8a1.541 1.541 0 011.13.47 1.541 1.541 0 01.47 1.13v1.6a1.541 1.541 0 01-.47 1.13A1.541 1.541 0 0112 4.8zm.8-1.6h6.4a.457.457 0 00.45-.29A1.694 1.694 0 0112 2.4a.774.774 0 00-.23-.57.774.774 0 00-.57-.23H4.8a.774.774 0 00-.57.23.774.774 0 00-.23.57 1.694 1.694 0 01.35.51.457.457 0 00.45.29zM1.6 16a1.541 1.541 0 01-1.13-.47A1.541 1.541 0 010 14.4v-.8h16v.8a1.541 1.541 0 01-.47 1.13 1.541 1.541 0 01-1.13.47zM0 12.8l2.78-6.26a1.551 1.551 0 01.6-.69 1.594 1.594 0 01.86-.25h7.52a1.594 1.594 0 01.86.25 1.551 1.551 0 01.6.69L16 12.8zm5.2-1.6H6a.383.383 0 00.28-.12.384.384 0 00.12-.28.384.384 0 00-.12-.28.383.383 0 00-.28-.12h-.8a.383.383 0 00-.28.12.384.384 0 00-.12.28.384.384 0 00.12.28.383.383 0 00.28.12zm0-1.6H6a.384.384 0 00.28-.12.384.384 0 00.12-.28.384.384 0 00-.12-.28A.384.384 0 006 8.8h-.8a.384.384 0 00-.28.12.384.384 0 00-.12.28.384.384 0 00.12.28.384.384 0 00.28.12zm0-1.6H6a.384.384 0 00.28-.12.384.384 0 00.12-.28.384.384 0 00-.12-.28A.384.384 0 006 7.2h-.8a.384.384 0 00-.28.12.384.384 0 00-.12.28.384.384 0 00.12.28.384.384 0 00.28.12zm2.4 3.2h.8a.383.383 0 00.28-.12.384.384 0 00.12-.28.384.384 0 00-.12-.28.383.383 0 00-.28-.12h-.8a.383.383 0 00-.28.12.384.384 0 00-.12.28.384.384 0 00.12.28.383.383 0 00.28.12zm0-1.6h.8a.384.384 0 00.28-.12.384.384 0 00.12-.28.384.384 0 00-.12-.28.384.384 0 00-.28-.12h-.8a.384.384 0 00-.28.12.384.384 0 00-.12.28.384.384 0 00.12.28.384.384 0 00.28.12zm0-1.6h.8a.384.384 0 00.28-.12.384.384 0 00.12-.28.384.384 0 00-.12-.28.384.384 0 00-.28-.12h-.8a.384.384 0 00-.28.12.384.384 0 00-.12.28.384.384 0 00.12.28.384.384 0 00.28.12zm2.4 3.2h.8a.383.383 0 00.28-.12.384.384 0 00.12-.28.384.384 0 00-.12-.28.383.383 0 00-.28-.12H10a.383.383 0 00-.28.12.384.384 0 00-.12.28.384.384 0 00.12.28.383.383 0 00.28.12zm0-1.6h.8a.384.384 0 00.28-.12.384.384 0 00.12-.28.384.384 0 00-.12-.28.384.384 0 00-.28-.12H10a.384.384 0 00-.28.12.384.384 0 00-.12.28.384.384 0 00.12.28.384.384 0 00.28.12zM10 8h.8a.384.384 0 00.28-.12.384.384 0 00.12-.28.384.384 0 00-.12-.28.384.384 0 00-.28-.12H10a.384.384 0 00-.28.12.384.384 0 00-.12.28.384.384 0 00.12.28A.384.384 0 0010 8z" fill="#0044f2"/></svg>