<svg xmlns="http://www.w3.org/2000/svg" width="16" height="16"><path d="M7.96 12.8a.966.966 0 00.71-.29.965.965 0 00.29-.71.966.966 0 00-.29-.71.966.966 0 00-.71-.29.966.966 0 00-.71.29.966.966 0 00-.29.71.966.966 0 00.29.71.966.966 0 00.71.29zM8 16a7.79 7.79 0 01-3.12-.63 8.079 8.079 0 01-2.54-1.71 8.078 8.078 0 01-1.71-2.54A7.79 7.79 0 010 8a7.79 7.79 0 01.63-3.12 8.079 8.079 0 011.71-2.54A8.079 8.079 0 014.88.63 7.789 7.789 0 018 0a7.789 7.789 0 013.12.63 8.079 8.079 0 012.54 1.71 8.079 8.079 0 011.71 2.54A7.79 7.79 0 0116 8a7.79 7.79 0 01-.63 3.12 8.079 8.079 0 01-1.71 2.54 8.079 8.079 0 01-2.54 1.71A7.79 7.79 0 018 16zm0-1.6a6.177 6.177 0 004.54-1.86A6.177 6.177 0 0014.4 8a6.177 6.177 0 00-1.86-4.54A6.177 6.177 0 008 1.6a6.177 6.177 0 00-4.54 1.86A6.177 6.177 0 001.6 8a6.177 6.177 0 001.86 4.54A6.177 6.177 0 008 14.4zM8 8zm.08-3.44a1.288 1.288 0 01.87.32 1.014 1.014 0 01.37.8 1.219 1.219 0 01-.27.78 5 5 0 01-.61.64 5.31 5.31 0 00-.81.88 1.788 1.788 0 00-.35 1.08.608.608 0 00.21.47.708.708 0 00.49.19.712.712 0 00.51-.2.922.922 0 00.27-.5 1.606 1.606 0 01.36-.75 7.635 7.635 0 01.6-.63 5.131 5.131 0 00.79-.96 2.12 2.12 0 00.33-1.16 2.029 2.029 0 00-.83-1.67 3.041 3.041 0 00-1.93-.65 3.407 3.407 0 00-1.45.32 2.237 2.237 0 00-1.05.98.721.721 0 00-.09.51.591.591 0 00.27.41.814.814 0 00.58.1.8.8 0 00.5-.34 1.467 1.467 0 01.55-.46 1.562 1.562 0 01.69-.16z" fill="#0044f2"/></svg>