<svg xmlns="http://www.w3.org/2000/svg" width="17.778" height="16"><path d="M1.778 16a1.712 1.712 0 01-1.256-.522A1.712 1.712 0 010 14.222V1.778A1.712 1.712 0 01.522.522 1.712 1.712 0 011.778 0h5.333a1.712 1.712 0 011.256.522 1.712 1.712 0 01.522 1.256v1.778H16a1.712 1.712 0 011.256.522 1.712 1.712 0 01.522 1.256v8.889a1.712 1.712 0 01-.522 1.256A1.712 1.712 0 0116 16zm0-1.778h5.333v-1.778H1.778zm0-3.556h5.333V8.888H1.778zm0-3.556h5.333V5.332H1.778zm0-3.556h5.333V1.776H1.778zm7.111 10.667H16V5.332H8.889zm2.667-5.333a.86.86 0 01-.633-.256.86.86 0 01-.256-.633.86.86 0 01.256-.633.86.86 0 01.633-.256h1.778a.86.86 0 01.633.256.86.86 0 01.256.633.86.86 0 01-.256.633.86.86 0 01-.633.256zm0 3.556a.86.86 0 01-.633-.256.86.86 0 01-.256-.633.86.86 0 01.256-.633.86.86 0 01.633-.256h1.778a.86.86 0 01.633.256.86.86 0 01.256.633.86.86 0 01-.256.633.86.86 0 01-.633.256z" fill="#0044f2"/></svg>