<svg xmlns="http://www.w3.org/2000/svg" width="16" height="16"><path d="M5.525 11.05a5.328 5.328 0 01-3.914-1.612A5.328 5.328 0 010 5.525a6.2 6.2 0 01.069-.921 3.377 3.377 0 01.253-.875.869.869 0 01.288-.345 1.115 1.115 0 01.38-.161.891.891 0 01.426.012.888.888 0 01.4.242l2.417 2.417 1.658-1.658-2.417-2.417a.888.888 0 01-.242-.4.892.892 0 01-.012-.426 1.114 1.114 0 01.161-.38.869.869 0 01.345-.288 3.375 3.375 0 01.875-.253 6.194 6.194 0 01.921-.069 5.328 5.328 0 013.914 1.612 5.328 5.328 0 011.612 3.914 5.224 5.224 0 01-.092 1 5.176 5.176 0 01-.276.932l4.65 4.6A2.223 2.223 0 0116 13.7a2.223 2.223 0 01-.668 1.635A2.223 2.223 0 0113.7 16a2.186 2.186 0 01-1.635-.691l-4.6-4.627a5.169 5.169 0 01-.932.276 5.223 5.223 0 01-1.008.092zm0-1.842a4.051 4.051 0 001.2-.184 3.2 3.2 0 001.082-.576l5.594 5.594a.386.386 0 00.311.1.461.461 0 00.311-.127.42.42 0 00.115-.311.42.42 0 00-.115-.311L8.429 7.822a2.779 2.779 0 00.6-1.07 4.24 4.24 0 00.184-1.232 3.561 3.561 0 00-.886-2.406 3.562 3.562 0 00-2.2-1.232l1.7 1.7a.884.884 0 01.276.645.883.883 0 01-.276.645L4.88 7.819a.883.883 0 01-.645.276.883.883 0 01-.645-.276l-1.7-1.7a3.562 3.562 0 001.232 2.2 3.561 3.561 0 002.403.89zm2.51-1.173z" fill="#0044f2"/></svg>