<svg xmlns="http://www.w3.org/2000/svg" width="16" height="13.6"><path d="M4 2.4v-.8A1.541 1.541 0 014.47.47 1.541 1.541 0 015.6 0h4.8a1.541 1.541 0 011.13.47A1.541 1.541 0 0112 1.6v.8h.56a1.549 1.549 0 01.86.26 1.489 1.489 0 01.58.7l1.88 4.32a1.916 1.916 0 01.09.32 1.734 1.734 0 01.03.32V12a1.541 1.541 0 01-.47 1.13 1.541 1.541 0 01-1.13.47H1.6a1.541 1.541 0 01-1.13-.47A1.541 1.541 0 010 12V8.32A1.734 1.734 0 01.03 8a1.916 1.916 0 01.09-.32L2 3.36a1.489 1.489 0 01.58-.7 1.549 1.549 0 01.86-.26zm1.6 0h4.8v-.8H5.6zM4 7.2v-.02a.774.774 0 01.23-.57.774.774 0 01.57-.23.774.774 0 01.57.23.774.774 0 01.23.57v.02h4.8v-.02a.774.774 0 01.23-.57.774.774 0 01.57-.23.774.774 0 01.57.23.774.774 0 01.23.57v.02h1.92L12.56 4H3.44L2.08 7.2zm0 1.6H1.6V12h12.8V8.8H12v.02a.774.774 0 01-.23.57.774.774 0 01-.57.23.774.774 0 01-.57-.23.774.774 0 01-.23-.57V8.8H5.6v.02a.774.774 0 01-.23.57.774.774 0 01-.57.23.774.774 0 01-.57-.23.774.774 0 01-.23-.57zM8 8zm0-.8zm0 1.6z" fill="#0044f2"/></svg>