<svg xmlns="http://www.w3.org/2000/svg" width="18" height="16"><path d="M8 14zm-6.4-3.45a14.844 14.844 0 013.15-1.162A13.757 13.757 0 018 9a1.074 1.074 0 00.175-.013A.435.435 0 018.35 9a.953.953 0 01.637.475.993.993 0 01.087.8.875.875 0 01-.488.587 1.659 1.659 0 01-.787.138 8 8 0 00-2.687.313 14.834 14.834 0 00-2.613 1.037.973.973 0 00-.363.35.94.94 0 00-.137.5v.8h6.65a.9.9 0 01.75.313 1.076 1.076 0 01.25.688 1.076 1.076 0 01-.25.688.9.9 0 01-.75.313H2a1.926 1.926 0 01-1.413-.588A1.926 1.926 0 010 14v-.8a2.929 2.929 0 01.438-1.562A2.916 2.916 0 011.6 10.55zM8 8a3.852 3.852 0 01-2.825-1.175A3.852 3.852 0 014 4a3.852 3.852 0 011.175-2.825A3.852 3.852 0 018 0a3.852 3.852 0 012.825 1.175A3.852 3.852 0 0112 4a3.852 3.852 0 01-1.175 2.825A3.852 3.852 0 018 8zm0-2a1.926 1.926 0 001.413-.588A1.926 1.926 0 0010 4a1.926 1.926 0 00-.587-1.412A1.926 1.926 0 008 2a1.926 1.926 0 00-1.413.588A1.926 1.926 0 006 4a1.926 1.926 0 00.587 1.412A1.926 1.926 0 008 6zm0-2zm5.9 6.2q.5-.5.913-.85A1.7 1.7 0 0115.95 9a1.887 1.887 0 011.488.638 2.116 2.116 0 01.563 1.438 2.006 2.006 0 01-.15.75 2 2 0 01-.45.675l-2.8 2.8a.959.959 0 01-.7.3.959.959 0 01-.7-.3l-2.8-2.8a1.934 1.934 0 01-.462-.7 2.166 2.166 0 01-.137-.75 2.046 2.046 0 01.575-1.425A1.914 1.914 0 0111.85 9a1.7 1.7 0 011.1.325q.4.325.95.875z" fill="#0044f2"/></svg>