<svg xmlns="http://www.w3.org/2000/svg" width="41.724" height="30"><path d="M24.224 16.12a4.334 4.334 0 01-3.189-1.293 4.334 4.334 0 01-1.293-3.19 4.334 4.334 0 011.293-3.189 4.333 4.333 0 013.189-1.293 4.333 4.333 0 013.189 1.293 4.334 4.334 0 011.293 3.189 4.335 4.335 0 01-1.293 3.19 4.334 4.334 0 01-3.189 1.293zm-13.879 7.156a3.486 3.486 0 01-2.557-1.064 3.486 3.486 0 01-1.064-2.557V3.621a3.487 3.487 0 011.064-2.557A3.487 3.487 0 0110.345 0h27.758a3.487 3.487 0 012.557 1.064 3.487 3.487 0 011.064 2.557v16.034a3.486 3.486 0 01-1.064 2.557 3.486 3.486 0 01-2.557 1.064zm2.241-2.241h23.275a3.483 3.483 0 011.064-2.563 3.5 3.5 0 012.557-1.058V5.863a3.481 3.481 0 01-2.562-1.064 3.5 3.5 0 01-1.058-2.557H12.586a3.481 3.481 0 01-1.064 2.562 3.5 3.5 0 01-2.557 1.058v11.551a3.481 3.481 0 012.562 1.064 3.5 3.5 0 011.059 2.558zM35.086 30H3.621a3.486 3.486 0 01-2.557-1.064A3.486 3.486 0 010 26.379V6.638h2.241v19.741a1.318 1.318 0 00.431.948 1.319 1.319 0 00.949.432h31.465zm-24.741-8.965h-1.38V2.242h1.38a1.326 1.326 0 00-.97.41 1.326 1.326 0 00-.41.97v16.034a1.326 1.326 0 00.41.97 1.326 1.326 0 00.97.409z" fill="#1c1c1c"/></svg>