<svg xmlns="http://www.w3.org/2000/svg" width="140" height="140"><g data-name="グループ 745"><path data-name="パス 134" d="M128.148 11.852c21.517 21.517 12.926 64.993-19.188 97.108s-75.59 40.7-97.107 19.187S-1.073 63.154 31.04 31.04s75.591-40.7 97.108-19.188" fill="#fff"/><path data-name="パス 290" d="M61.388 60.005a2.56 2.56 0 01-1.218-.542 6.644 6.644 0 01-1.95-3.163 6.1 6.1 0 01.178-4.3 2.041 2.041 0 011.833-1.018 2.2 2.2 0 011.59.582s-2.322-14.748 14.56-14.748 13.087 14.746 13.087 14.746a2.2 2.2 0 011.59-.582 2.041 2.041 0 011.833 1.018 6.1 6.1 0 01.178 4.3 6.643 6.643 0 01-1.95 3.163A2.422 2.422 0 0189.25 60l-.129-.022c-.221.646-.5 1.22-.592 1.5-.485 1.317-3.235 6.039-6.672 7.658.064.694.09 1.164.176 1.908a2.375 2.375 0 001.491 2.305c.087.032 4.31 2.007 4.57 2.094 0 0-1.531 6.035-12.453 6.035s-12.453-6.035-12.453-6.035c.26-.087 4.483-2.062 4.57-2.094a2.376 2.376 0 001.491-2.305c.083-.727.111-1.193.171-1.86a13.913 13.913 0 01-4.209-3.509 16.53 16.53 0 01-3.074-5.7 2.037 2.037 0 01-.755.025z" fill="#fff"/><path data-name="パス 291" d="M49.844 53.846a5.4 5.4 0 00-.423 3.212 10.91 10.91 0 00.779 2.3c.2.472 1.418 2.94 1.4 2.491a18.654 18.654 0 013.913-1.5 2.738 2.738 0 011.322-.089l.093.032.237-.177.781-.588c.911-.844 1.256-1.364 1.329-1.848a2.84 2.84 0 00-.354-2.028c-.373-.8-1.064-1.882-1.495-2.617a4.485 4.485 0 00-.64-.909 2.9 2.9 0 00-1.144-.666 4.563 4.563 0 00-5.8 2.393z" fill="#fff"/><path data-name="パス 292" d="M69.644 74.971a2.354 2.354 0 00-.144-.574 4.462 4.462 0 00-.578-.95 29.109 29.109 0 00-1.813-2.347 2.9 2.9 0 00-1.718-1.1 3.228 3.228 0 00-2.214.375l-.771.391-.954.483a1.206 1.206 0 01.035.151 1.823 1.823 0 01-1.05 2.016 18.7 18.7 0 01-1.926 1.1l.138.516a8.451 8.451 0 003.293 4.138 5.4 5.4 0 005.118.456 4.727 4.727 0 002.588-3.914 3.6 3.6 0 00-.009-.741z" fill="#fff"/><path data-name="パス 293" d="M60.155 70.388c.11 0 .22.007.323.014a1.139 1.139 0 011.01 1 1.821 1.821 0 01-1.046 2.021 22.536 22.536 0 01-2.96 1.592 12 12 0 00.4 1.982 4.007 4.007 0 01.082 1.864 1.664 1.664 0 01-1.574 1.379 7.361 7.361 0 01.209 1.985 2.3 2.3 0 01-.776 1.62 2.339 2.339 0 01-.627.34 3.335 3.335 0 01-2.322.028 4.94 4.94 0 01-.829-.422 15.748 15.748 0 01-3.5-2.864 1.511 1.511 0 01-.5-.932 1.556 1.556 0 01.308-.823l1.7-2.793-2.435-7.394a5.834 5.834 0 01.553-4.342 10.634 10.634 0 012.712-2.382 17.534 17.534 0 014.633-1.914 2.758 2.758 0 011.322-.089 1.684 1.684 0 011.2 1.134 3.021 3.021 0 01-.113 1.776l.035.266a1.73 1.73 0 01.652.014 1.692 1.692 0 011.241 1.092 3.05 3.05 0 01-.053 1.779l-.124.652a1.258 1.258 0 01.124.025 1.64 1.64 0 011.2 1.06 2.929 2.929 0 01-.05 1.726l-.794.61z" fill="#fff"/><path data-name="パス 294" d="M75.326 89.663c-10.78.078-21.507.14-25.316.154a1.094 1.094 0 00-1.092 1.1c.022 6.189.321 27.606.548 35.478a1.1 1.1 0 001.115 1.064c3.442-.053 14.1-.02 24.745.016 10.641-.036 21.3-.069 24.745-.016a1.1 1.1 0 001.115-1.064c.227-7.872.526-29.29.548-35.478a1.094 1.094 0 00-1.092-1.1c-3.809-.014-14.537-.076-25.316-.154z" fill="#fff"/><g fill="#979af3"><path data-name="パス 295" d="M81.364 40.998c-4.245 3.866-13.151 8.287-19.707 10.424a2.235 2.235 0 00-1.427-.442 2.094 2.094 0 00-1.669.771c-2.326-7.986.175-14.169 3.89-17.726a19.888 19.888 0 0112.777-5 20.249 20.249 0 017.6 1.352c3.894 2.04 3.811 2 5.594 3.723a16.232 16.232 0 013.7 5.934 18.487 18.487 0 011.3 5.495 17.237 17.237 0 01-.629 6.3 2.07 2.07 0 00-1.731-.857 2.229 2.229 0 00-1.456.465 16.807 16.807 0 01-5.711-5.233 40.511 40.511 0 01-2.531-4.964"/><path data-name="パス 296" d="M58.282 62.036a12.314 12.314 0 00-.087 1.373 1.379 1.379 0 01.414.034 1.692 1.692 0 011.241 1.092 3.05 3.05 0 01-.053 1.779l-.124.652a1.262 1.262 0 01.124.025 1.64 1.64 0 011.2 1.06 2.928 2.928 0 01-.05 1.726l-.794.61c.11 0 .22.007.323.014a1.106 1.106 0 01.978.857v-.01l.953-.483.771-.391a3.226 3.226 0 012.214-.375 2.9 2.9 0 011.718 1.1c.309.333.668.792 1.012 1.253l.966-.375a5.056 5.056 0 00.167-.927c.083-.726.111-1.192.171-1.859a13.917 13.917 0 01-4.209-3.509 16.527 16.527 0 01-3.074-5.7 2.387 2.387 0 01-1.973-.517 4.9 4.9 0 01-.705-.711 7.334 7.334 0 00-.859 1.8 8.5 8.5 0 00-.324 1.48z"/><path data-name="パス 297" d="M109.045 109.118a102.946 102.946 0 00-2.85-12.868c-.983-3.526-1.808-7.451-3.35-10.875-2.538-5.636-9.067-7.834-14.439-9.981-1.38-.536-2.046-.8-3.331-1.29a1.841 1.841 0 01.078-.186 1.849 1.849 0 00-.441-1.723c-.642-.7-1.452-1.721-2.109-2.416-.26.2-5.218 3.534-6.241 4.221l-1.448-.011c-1.057-.71-5.965-4.011-6.224-4.21-.42.445-.9 1.022-1.365 1.564.532.621 1.157 1.5 1.6 2.105a4.5 4.5 0 01.578.95 2.352 2.352 0 01.144.574 3.6 3.6 0 01.009.741 4.727 4.727 0 01-2.588 3.914 5.4 5.4 0 01-5.118-.456 10.458 10.458 0 01-1.782-1.567 10.675 10.675 0 01-1.5-2.546 16.31 16.31 0 00-1.123.442c.083.5.232 1 .348 1.495a4.007 4.007 0 01.082 1.864 1.664 1.664 0 01-1.578 1.373 7.361 7.361 0 01.209 1.985 2.3 2.3 0 01-.776 1.62 2.34 2.34 0 01-.627.34 3.335 3.335 0 01-2.322.028 4.939 4.939 0 01-.829-.422 15.748 15.748 0 01-3.5-2.864 1.511 1.511 0 01-.5-.932.929.929 0 01.052-.3 3.832 3.832 0 00-2.634 1.8 63.257 63.257 0 00-7.311 16.845c-.838 3.11-1.385 6.629.275 9.389s5.277 3.971 8.448 3.369a10.4 10.4 0 002.269-.714c-.123-7.9-.221-16.023-.233-19.458a1.094 1.094 0 011.092-1.1 9049.95 9049.95 0 0025.316-.154c10.78.078 21.507.14 25.316.154a1.094 1.094 0 011.092 1.1c-.017 4.683-.192 18.084-.374 27.74a10.449 10.449 0 003.731-1.054 8.5 8.5 0 002.835-2.787 8.092 8.092 0 001.119-5.7z"/></g><g fill="#1c1c1c"><path data-name="パス 298" d="M82.744 70.225c-.02-.258-.041-.515-.065-.773a.808.808 0 00-.786-.786l-.209.028a.785.785 0 00-.347.2l-.123.159a.784.784 0 00-.107.4c.025.257.046.515.065.773a.808.808 0 00.786.786l.209-.028a.785.785 0 00.347-.2l.123-.159a.784.784 0 00.107-.4z"/><path data-name="パス 299" d="M68.618 69.452q-.032.386-.062.773a.808.808 0 00.786.786l.209-.028a.784.784 0 00.347-.2l.123-.159a.784.784 0 00.107-.4q.03-.387.062-.773a.808.808 0 00-.786-.786l-.209.028a.785.785 0 00-.347.2l-.123.159a.784.784 0 00-.107.4z"/><path data-name="パス 300" d="M82.047 70.333c.722.771 1.465 1.58 2.109 2.416a1.4 1.4 0 01.241.465 1.3 1.3 0 01.045.261c.005.051-.012.2.02.07-.06.246-.2.5-.282.746a40.625 40.625 0 01-1.783 4.99l1.075-.282a16.326 16.326 0 01-3.662-2.587 39.405 39.405 0 01-3.053-2.862l-.159 1.234q1.631-1.093 3.257-2.192c1.046-.706 2.134-1.377 3.143-2.136a.811.811 0 00.282-1.075.791.791 0 00-1.075-.282c-1.009.759-2.1 1.43-3.143 2.136q-1.628 1.1-3.257 2.192a.8.8 0 00-.159 1.234 39.691 39.691 0 003.139 2.935 17.594 17.594 0 003.893 2.759.8.8 0 001.075-.282 50.124 50.124 0 002-5.555c.024-.07.163-.421.047-.151a2.167 2.167 0 00.2-.777 2.727 2.727 0 00-.484-1.622 16.661 16.661 0 00-1.126-1.327c-.407-.479-.812-.96-1.242-1.419-.693-.74-1.8.373-1.111 1.111z"/><path data-name="パス 301" d="M74.537 73.553a38.847 38.847 0 01-3.061 2.863 16.441 16.441 0 01-3.67 2.587l1.075.282c-.067-.138-.134-.276-.193-.418l-.2.765a5.612 5.612 0 001.967-4.356 4.171 4.171 0 00-.989-2.411c-.511-.7-1.021-1.412-1.584-2.076V71.9c.449-.527.893-1.059 1.365-1.565l-.952.123c2.078 1.515 4.268 2.893 6.4 4.329.842.566 1.629-.795.793-1.357-2.134-1.435-4.323-2.813-6.4-4.329a.788.788 0 00-.952.123c-.472.507-.916 1.039-1.365 1.565a.812.812 0 000 1.111c.45.531.858 1.1 1.266 1.658a3.166 3.166 0 01.846 1.717 4.106 4.106 0 01-1.506 3.244.758.758 0 00-.2.765c.111.268.225.533.351.793a.8.8 0 001.075.282 17.737 17.737 0 003.9-2.76 38.81 38.81 0 003.146-2.936c.694-.736-.416-1.849-1.111-1.111z"/><path data-name="パス 302" d="M72.153 80.388c.013 3.139 0 6.278 0 9.417a.786.786 0 001.572 0c0-3.139.01-6.278 0-9.417a.786.786 0 00-1.572 0z"/><path data-name="パス 303" d="M77.566 80.238v9.567a.786.786 0 001.572 0v-9.568a.786.786 0 00-1.572 0z"/><path data-name="パス 304" d="M83.177 87.042h8.429a.786.786 0 000-1.572h-8.429a.786.786 0 000 1.572z"/><path data-name="パス 305" d="M58.98 63.406a10.86 10.86 0 01.088-1.371c-.021.155.024-.141.029-.168q.043-.251.1-.5a7.7 7.7 0 01.294-.973l.071-.18c-.073.183.032-.07.047-.1.069-.15.144-.3.222-.442a.786.786 0 10-1.357-.793 9.655 9.655 0 00-1.063 4.527.786.786 0 101.572 0z"/><path data-name="パス 306" d="M83.556 29.827a21.913 21.913 0 00-8.615-1.584 20.344 20.344 0 00-8.874 2.34 16.77 16.77 0 00-5.427 4.249 16.642 16.642 0 00-3.266 6.62 20.583 20.583 0 00.337 10.176.787.787 0 001.516-.418 19.183 19.183 0 01-.519-8.477 15.426 15.426 0 012.706-6.351 14.5 14.5 0 014.619-3.989 19.075 19.075 0 017.907-2.527 20.354 20.354 0 019.2 1.476.791.791 0 00.967-.549.8.8 0 00-.549-.967z"/><path data-name="パス 307" d="M93.612 51.844a18.4 18.4 0 00.092-9.464 19.642 19.642 0 00-4.1-8.185 14.626 14.626 0 00-3.361-2.87.787.787 0 00-.793 1.357 13.226 13.226 0 012.615 2.168 13.859 13.859 0 012.394 3.377 19.034 19.034 0 012.219 8.5 16.124 16.124 0 01-.583 4.693.787.787 0 001.516.418z"/><path data-name="パス 308" d="M80.689 41.645a28.1 28.1 0 003.236 5.957 18.3 18.3 0 005.088 4.4.787.787 0 00.793-1.357 16.408 16.408 0 01-4.712-4.086 28.459 28.459 0 01-3.048-5.711.791.791 0 00-1.075-.282.806.806 0 00-.282 1.075z"/><path data-name="パス 309" d="M80.808 40.441a35.961 35.961 0 01-6.422 4.431 74.573 74.573 0 01-8.14 4 64.206 64.206 0 01-4.508 1.7c-.954.319-.545 1.838.418 1.516a73.147 73.147 0 008.384-3.436 62.984 62.984 0 007.911-4.436 30.156 30.156 0 003.468-2.661c.751-.681-.363-1.789-1.111-1.111z"/><path data-name="パス 310" d="M105.159 118.348h12.731a.786.786 0 000-1.572h-12.731a.786.786 0 000 1.572z"/><path data-name="パス 311" d="M32.76 118.348h16.516a.786.786 0 000-1.572H32.76a.786.786 0 000 1.572z"/><path data-name="パス 312" d="M73.033 63.192a5.73 5.73 0 002.76.64 4.507 4.507 0 002.8-.833.787.787 0 000-1.111.81.81 0 00-1.111 0c.243-.189.071-.056.009-.016s-.111.067-.168.1l-.09.045c-.063.032-.129.021.047-.017-.077.017-.156.06-.232.084a4.271 4.271 0 01-.649.148c.119-.019.027 0-.041 0l-.191.016a6.45 6.45 0 01-.874-.002l-.189-.016c-.023 0-.254-.041-.07-.007a5.807 5.807 0 01-.606-.135c-.085-.026-.168-.056-.251-.084-.194-.066.135.067-.04-.015q-.156-.074-.308-.154a.786.786 0 10-.793 1.357z"/><path data-name="パス 313" d="M75.358 56.735a12.721 12.721 0 01.3 1.374l-.028-.209a.835.835 0 01.005.19l.028-.209a.458.458 0 01-.021.085l.079-.188a.359.359 0 01-.03.055l.123-.159a.285.285 0 01-.045.044l.159-.123a.907.907 0 01-.109.058l.188-.079a.8.8 0 01-.183.053l.209-.028a.739.739 0 01-.172 0l.209.028c-.065-.009-.129-.025-.194-.034a.6.6 0 00-.313-.014.581.581 0 00-.292.093.786.786 0 00-.282 1.075.753.753 0 00.47.361c.155.021.305.06.463.067a1.49 1.49 0 00.692-.166 1.015 1.015 0 00.558-.668 1.639 1.639 0 00-.007-.71 15.219 15.219 0 00-.291-1.316.786.786 0 00-.967-.549.8.8 0 00-.549.967z"/><path data-name="パス 314" d="M68.169 52.822c-.23.746-.08 2.461 1.333 2.607 1.867-.011 1.967-2.085 1.338-3.061a1.478 1.478 0 00-2.671.453z"/><path data-name="パス 315" d="M83.123 52.822c.23.746.08 2.461-1.333 2.607-1.867-.011-1.967-2.085-1.338-3.061a1.479 1.479 0 012.671.453z"/><path data-name="パス 316" d="M88.622 58.825a7.008 7.008 0 01-.531 1.671c-.085.208-.177.413-.258.623-.028.072-.176.434-.072.2a15 15 0 01-.928 1.722 17.2 17.2 0 01-3.7 4.364 6.788 6.788 0 01-2.726 1.409c-.985.228-.568 1.744.418 1.516a10.532 10.532 0 005.3-3.669 18.961 18.961 0 002.953-4.463 12.441 12.441 0 001.115-3.377c.057-.421-.4-.786-.786-.786a.806.806 0 00-.786.786z"/><path data-name="パス 317" d="M61.061 58.979a16.715 16.715 0 007.581 10.68 9.876 9.876 0 003.4 1.211.812.812 0 00.967-.549.791.791 0 00-.549-.967 10.873 10.873 0 01-6.413-3.908 15.9 15.9 0 01-3.472-6.885c-.229-.985-1.745-.568-1.516.418z"/><path data-name="パス 318" d="M58.404 58.614a5.653 5.653 0 001.55 1.661 3.21 3.21 0 00.984.438 3.168 3.168 0 001.31.046.787.787 0 00.47-.361.785.785 0 00-.282-1.075.909.909 0 00-.605-.079c.033-.005.172-.016.063-.009-.041 0-.081.006-.122.007h-.194a.506.506 0 00-.121-.011c.03-.007.175.03.065.007-.071-.015-.142-.029-.212-.049s-.138-.043-.206-.067c-.1-.034.025.008.055.025-.027-.015-.058-.026-.086-.04a3.028 3.028 0 01-.361-.212c-.087-.058.028.021.05.042-.024-.022-.051-.041-.076-.062-.061-.051-.12-.1-.179-.157q-.161-.149-.307-.312-.076-.084-.148-.171l-.063-.077c-.062-.075.1.137.018.023s-.167-.235-.245-.357a.786.786 0 00-1.357.793z"/><path data-name="パス 319" d="M58.715 53.857c0-.07.009-.139.015-.209 0-.046.009-.092.014-.138.01-.081.011-.091 0-.032-.014.1.018-.107.022-.13a4.58 4.58 0 01.146-.598.744.744 0 01.062-.174c-.038.086-.045.1-.021.05l.037-.08a2.425 2.425 0 01.121-.22c.024-.038.157-.221.06-.094s-.009.013.014-.012.057-.063.086-.092.055-.053.084-.079c.056-.05.146-.068-.033.021.077-.038.146-.1.222-.141.021-.011.116-.041.127-.064q-.169.069-.049.022l.049-.017c.116-.04.233-.06.351-.09q.087-.015-.058.005l.1-.01c.073-.007.147-.011.22-.012h.223q.133.014-.038-.007a.858.858 0 00.172.034q.087.021.172.048c.077.025.164.04.038.008a.752.752 0 01.164.083c.064.036.123.078.184.117q.068.049-.034-.026l.1.086a.786.786 0 101.111-1.111 3.019 3.019 0 00-2.034-.811 3.08 3.08 0 00-1.772.5 3.96 3.96 0 00-1.427 3.173.791.791 0 00.786.786.8.8 0 00.786-.786z"/><path data-name="パス 320" d="M90.028 52.118a1.52 1.52 0 011.342-.316 1.362 1.362 0 01.561.245c-.07-.053.095.092.094.091q.053.053.1.11-.075-.1 0 0a4.166 4.166 0 01.441 2.629 6.689 6.689 0 01-.791 2.525c-.51.962-1.32 1.973-2.52 1.814a.79.79 0 00-.786.786.806.806 0 00.786.786c2.492.33 4.018-2.413 4.623-4.425a7.517 7.517 0 00.173-3.367 3.394 3.394 0 00-1.326-2.306 3.155 3.155 0 00-3.807.316c-.754.677.36 1.785 1.111 1.111z"/><path data-name="パス 321" d="M101.357 119.448a9.48 9.48 0 005.549-2.2 9.062 9.062 0 002.926-5.376 20.6 20.6 0 00-.658-6.645 107.742 107.742 0 00-1.619-6.963c-.572-2.165-1.157-4.327-1.737-6.49a46.593 46.593 0 00-2.121-6.4 15.575 15.575 0 00-7.162-7.288 90.139 90.139 0 00-10.984-4.639.792.792 0 00-.967.549.8.8 0 00.549.967c3.109 1.2 6.279 2.328 9.278 3.792 2.836 1.385 5.613 3.2 7.229 5.992a25.058 25.058 0 012.126 5.523c.588 2 1.075 4.038 1.632 6.051.6 2.164 1.173 4.334 1.67 6.525a61.521 61.521 0 011.233 6.6 8.355 8.355 0 01-.194 3.091 7.071 7.071 0 01-1.435 2.657 6.587 6.587 0 01-2.3 1.894 9.57 9.57 0 01-3.01.791.809.809 0 00-.786.786.791.791 0 00.786.786z"/><path data-name="パス 322" d="M66.116 90.205a3.561 3.561 0 00.626-2.97c-.2-.589-1.123-.837-1.436-.188a1.127 1.127 0 01-.076.147q-.084.132.065-.046h.418q.188.191.1.062-.2-.361-.364.571c-.142-.007-.244-.172-.141.059a.79.79 0 001.357 0 4.146 4.146 0 00.328-2.92.793.793 0 00-1.313-.347c-.035.036-.067.071-.073.06-.042.025-.05.029-.025.012a.063.063 0 01.059-.012c.069.08.272.154.34.267q-.318.711-.523.412l.02.026c.2.478.9.863 1.313.347a2.774 2.774 0 00.494-1.554 6.2 6.2 0 00-.043-1.794c-.124-.705-1.1-.713-1.436-.188-.04.063.022.021.033.038.078-.027.14.008.185.1a.183.183 0 01.132.258c-.017.084-.235.273-.344.235s-.139-.229-.085-.03a.8.8 0 001.436.188 2.644 2.644 0 00-.63-3.048c-.74-.688-1.854.421-1.111 1.111.274.255.57.757.385 1.143l1.436.188a1.458 1.458 0 00-1.323-1.116 1.244 1.244 0 00-1.293 1 1.281 1.281 0 00.944 1.485 1.475 1.475 0 001.593-.765l-1.436-.188a4.313 4.313 0 01.017 1.065 6.166 6.166 0 01-.053.488c-.016.1-.171.464-.011.266l1.313.347a1.535 1.535 0 00-1.379-1.114 1.21 1.21 0 00-1.192 1.206c.03 1.319 1.6 1.463 2.368.672l-1.313-.347a2.475 2.475 0 01-.17 1.71h1.357a1.334 1.334 0 00-1.308-.826 1.171 1.171 0 00-1.1 1.11 1.458 1.458 0 00.945 1.31 1.27 1.27 0 001.466-.8l-1.436-.188a2.125 2.125 0 01-.468 1.759c-.55.852.81 1.641 1.357.793z"/><path data-name="パス 323" d="M44.785 81.085a64.292 64.292 0 00-7.167 16.247 17.932 17.932 0 00-.856 8.145 7.78 7.78 0 004.352 5.622 10.113 10.113 0 008.433-.046.791.791 0 00.282-1.075.806.806 0 00-1.075-.282 8.5 8.5 0 01-6.56.172 6.3 6.3 0 01-3.878-4.616c-.518-2.441.117-5.01.777-7.359a61.718 61.718 0 012.722-7.72 63.647 63.647 0 014.327-8.295c.533-.863-.825-1.653-1.357-.793z"/><path data-name="パス 324" d="M50.484 61.578a10.309 10.309 0 00-3.093 2.8 5.811 5.811 0 00-.745 3.176 11.871 11.871 0 00.88 3.653l1.535 4.66c.315.956 1.833.547 1.516-.418l-1.381-4.194a14.286 14.286 0 01-.969-3.385 4.847 4.847 0 01.451-2.584 5.817 5.817 0 011.114-1.232 10.282 10.282 0 011.486-1.122c.853-.538.066-1.9-.793-1.357z"/><path data-name="パス 325" d="M58.681 63.371a3.257 3.257 0 00-.279-2.969 2.563 2.563 0 00-2.389-.951 12.481 12.481 0 00-2.776.8 16.134 16.134 0 00-2.752 1.326c-.86.529-.071 1.889.793 1.357a16.7 16.7 0 014.321-1.8 1.467 1.467 0 011.451.1c.425.37.3 1.153.115 1.719-.307.966 1.21 1.379 1.516.418z"/><path data-name="パス 326" d="M60.555 66.523a3.265 3.265 0 00-.411-3.028 2.641 2.641 0 00-2.567-.795 13.4 13.4 0 00-2.7.931 16.64 16.64 0 00-2.779 1.448.8.8 0 00-.282 1.075.794.794 0 001.075.282 17.7 17.7 0 014.366-2.02c.565-.183 1.093-.37 1.573-.014s.359 1.167.208 1.7a.787.787 0 001.516.418z"/><path data-name="パス 327" d="M61.707 69.985a3.206 3.206 0 00-.4-2.952 2.547 2.547 0 00-2.413-.8 12.118 12.118 0 00-2.482.791 13.205 13.205 0 00-2.451 1.261.8.8 0 00-.282 1.07.794.794 0 001.075.282 14.862 14.862 0 013.912-1.738 2.667 2.667 0 01.827-.158c.142 0-.128-.042.091.009.036.009.179.058.171.054a2.374 2.374 0 01.281.164.786.786 0 01.264.527 2.472 2.472 0 01-.113 1.073.787.787 0 001.516.418z"/><path data-name="パス 328" d="M56.708 75.147a10.126 10.126 0 00.283 1.5 7.488 7.488 0 01.263 1.321 2.52 2.52 0 01-.021.584 3.361 3.361 0 01-.09.315l-.05.1a1.741 1.741 0 01-.137.216c.091-.121-.1.09-.117.111-.069.059-.072.063-.008.011a1.866 1.866 0 01-.12.076c-.082.04-.084.044-.006.011a1.255 1.255 0 01-.137.043.786.786 0 10.418 1.515 2.716 2.716 0 001.837-2.514 5.628 5.628 0 00-.2-1.75 13.5 13.5 0 01-.342-1.541.8.8 0 00-.786-.786.794.794 0 00-.786.786z"/><path data-name="パス 329" d="M48.56 77.317l-.806 1.325a2.219 2.219 0 00-.427 1.789 3.722 3.722 0 001.053 1.458 15.777 15.777 0 001.368 1.236 9.771 9.771 0 003.12 1.906 3.874 3.874 0 003.653-.76c1.108-1.092.923-2.709.661-4.095a.793.793 0 00-.967-.549.8.8 0 00-.549.967c.178.944.443 2.363-.676 2.828a3.167 3.167 0 01-3.086-.655 14.847 14.847 0 01-2.707-2.3c-.106-.114-.328-.3-.355-.458-.031-.193.175-.423.269-.578q.4-.664.806-1.325a.787.787 0 00-1.357-.793z"/><path data-name="パス 330" d="M58.38 75.452a18.768 18.768 0 002.6-1.45 2.687 2.687 0 001.327-2.172 2.114 2.114 0 00-1.289-2.107 3.876 3.876 0 00-2.1.034 10.222 10.222 0 00-2.81 1.242.786.786 0 10.793 1.357c.38-.226.767-.441 1.166-.631q.122-.058.245-.113l.1-.045c-.125.053-.012.006.012 0 .157-.059.312-.119.472-.17a6.784 6.784 0 01.843-.2c.087-.016-.078.012-.08.011a.682.682 0 00.1-.011c.058-.006.116-.01.174-.013q.178-.009.356 0c.061 0 .122 0 .183.011-.183-.02.137.052.029.012-.09-.033.005.008.019.013.039.014.115.093-.014-.022.058.051.16.186.066.045.034.051.064.1.1.157.094.159-.021-.1.006.014.011.048.026.1.04.145 0 .017.019.1.008.027s.008.115.008.114c0 .076-.012.16 0 .234s.007-.035.01-.053c-.008.039-.014.079-.024.118s-.075.231-.034.126 0-.008-.008.01l-.071.122c-.093.162.06-.05-.032.047-.048.051-.094.1-.145.15s-.109.095-.164.143c.114-.1.033-.025 0 0l-.139.1a19.921 19.921 0 01-2.543 1.412.79.79 0 00-.282 1.075.807.807 0 001.075.282z"/><path data-name="パス 331" d="M52.075 61.295c.173.212-.014-.035-.053-.1-.076-.123-.146-.251-.216-.378-.16-.292-.313-.589-.462-.887a18.161 18.161 0 01-.789-1.773 5.37 5.37 0 01-.387-2.7 4.408 4.408 0 01.986-2.221 3.94 3.94 0 014.46-.961c.85.359 1.216 1.286 1.665 2.031a10.673 10.673 0 011.192 2.292 1.6 1.6 0 01-.4 1.677 7.669 7.669 0 01-1.3 1.154.811.811 0 00-.282 1.075.791.791 0 001.075.282c1.272-.957 2.567-2.007 2.554-3.739a6.2 6.2 0 00-1.106-2.9c-.239-.411-.488-.816-.732-1.224a6.081 6.081 0 00-1.035-1.453 5.37 5.37 0 00-6.319-.122 5.96 5.96 0 00-2.285 5.79 11.759 11.759 0 001.143 3.18 10.382 10.382 0 001.177 2.088.791.791 0 001.111 0 .8.8 0 000-1.111z"/><path data-name="パス 332" d="M62.806 71.443a8.278 8.278 0 011.369-.605 2.148 2.148 0 01.812-.118c.231.007-.143-.037.069.008l.127.029a2.877 2.877 0 01.527.175 5.059 5.059 0 011.517 1.532c.276.358.541.726.806 1.092a4.884 4.884 0 01.76 1.194 3.415 3.415 0 01-.348 2.438 3.862 3.862 0 01-1.661 1.7 4.6 4.6 0 01-4.675-.56 9.36 9.36 0 01-1.143-1.024c-.115-.118-.23-.235-.336-.361.128.154-.024-.035-.039-.057-.048-.069-.1-.137-.144-.206q-.342-.5-.642-1.027a4.35 4.35 0 01-.395-.827.787.787 0 00-1.516.418 8.135 8.135 0 001.144 2.155 8.83 8.83 0 001.84 1.956 6.288 6.288 0 006.182 1.127 5.535 5.535 0 003.39-5.206A5.424 5.424 0 0069 72.232a11.08 11.08 0 00-2.114-2.418 3.479 3.479 0 00-2.6-.611 7.924 7.924 0 00-2.266.884c-.9.457-.108 1.813.793 1.357z"/><path data-name="パス 333" d="M50.01 89.03a1.945 1.945 0 00-1.64.966 2.533 2.533 0 00-.236 1.317q0 .9.012 1.8.02 2.391.048 4.782.071 6.179.169 12.358.093 5.975.215 11.95.026 1.194.055 2.387a11.791 11.791 0 00.094 2.179 1.938 1.938 0 002.015 1.474l.681-.006c1.834-.012 3.668-.014 5.5-.018q4.385-.008 8.77-.011h20.532q4.221 0 8.443.012c1.653 0 3.306 0 4.959.019a3.086 3.086 0 001.083-.1 1.891 1.891 0 001.23-1.424 7.543 7.543 0 00.06-1.145q.063-2.367.108-4.734.125-6.161.213-12.322.09-6 .158-12 .024-2.212.041-4.424a4.077 4.077 0 00-.258-2.143 2.047 2.047 0 00-1.882-.921q-2.354-.005-4.708 0h-45.66a.786.786 0 000 1.572h50.069a3.928 3.928 0 01.569 0c.487.077.3 1.008.294 1.376-.021 3.249-.062 6.5-.1 9.746q-.081 6.255-.186 12.51c-.06 3.573-.124 7.146-.214 10.719q-.012.49-.026.979c-.007.244.065.621-.218.73a1.947 1.947 0 01-.6.009q-.961-.008-1.922-.01-3.373-.013-6.746-.015-4.649-.006-9.3-.008H71.361q-4.832 0-9.663.006-3.738 0-7.476.013-1.212 0-2.424.009l-.791.005c-.21 0-.539.064-.683-.106s-.084-.571-.09-.794l-.026-1q-.029-1.157-.054-2.314-.059-2.739-.108-5.478-.113-6.251-.2-12.5-.075-5.385-.127-10.771l-.014-1.816c0-.332-.182-1.26.3-1.287 1.006-.054 1.012-1.626 0-1.572z"/><path data-name="パス 334" d="M54.072 123.693c5.208-.032 10.417 0 15.625.011 6.3.019 12.605-.01 18.908-.019 2.474 0 4.948-.007 7.422.008a.786.786 0 000-1.572c-5.087-.032-10.175 0-15.263.011-6.368.02-12.736-.01-19.1-.02-2.529 0-5.059-.008-7.589.008a.786.786 0 000 1.572z"/><path data-name="パス 335" d="M72.167 105.297v2a2.749 2.749 0 00.462 2.11 2.625 2.625 0 002.025.45h1.968a2.089 2.089 0 001.071-.2 1.551 1.551 0 00.744-.976 5.077 5.077 0 00.05-1.079v-2.014a1.974 1.974 0 00-.235-1.109 1.541 1.541 0 00-1.082-.707 6.886 6.886 0 00-.916-.025h-2.2a2.009 2.009 0 00-1.183.251 1.6 1.6 0 00-.709 1.3.792.792 0 00.786.786.8.8 0 00.786-.786v-.066c-.014.1-.009.109.012.021l-.028.074c.047-.074.043-.071-.014.009l.022-.022c.041-.039.028-.031-.04.025.192-.071-.15.063.041-.022l-.082.007h3.039a2.949 2.949 0 01.309 0l-.082-.007q.128.041-.013-.01.111.071-.009-.015l.044.044-.046-.062q.064.116 0-.02l.019.061q-.01-.156 0-.016v3.013c0-.166 0-.016-.017.045.039-.111-.014-.039-.005-.021l.046-.062q-.1.089.017 0l-.053.032c.084-.03.1-.037.043-.02-.121.024.194.009-.015 0h-3.267c.091.013.108.012.051 0s-.041-.011.043.02l-.053-.032q.113.093.017 0 .084.12.013.009l.028.074c-.021-.06-.014-.211-.017-.045V105.3a.786.786 0 10-1.572 0z"/></g></g></svg>