<svg xmlns="http://www.w3.org/2000/svg" width="140" height="140"><g data-name="グループ 746"><path data-name="パス 134" d="M128.148 11.852c21.517 21.517 12.926 64.993-19.188 97.108s-75.59 40.7-97.107 19.187S-1.073 63.154 31.04 31.04s75.591-40.7 97.108-19.188" fill="#fff"/><g data-name="グループ 394"><g data-name="17314_color" transform="translate(20.74 52.668)"><path data-name="パス 190" d="M33.767 53.153V45.17a2.706 2.706 0 00-2.706-2.706H18.665a2.706 2.706 0 00-2.706 2.706v7.335a2.762 2.762 0 00.867 2q1.6 1.528 3.123 3.142a2.718 2.718 0 01.732 1.863v4.135a2.707 2.707 0 002.707 2.707h7.672a2.707 2.707 0 002.707-2.706z" fill="#979af3"/><path data-name="パス 191" d="M40.783 55.624v4.682a2.7 2.7 0 002.706 2.7h11.213a2.706 2.706 0 002.706-2.706v-4.682a2.706 2.706 0 00-2.706-2.706H43.489a2.708 2.708 0 00-2.706 2.712z" fill="#979af3"/><rect data-name="長方形 305" width="10.952" height="4.655" rx="2.328" transform="translate(.801 72.062)" fill="#979af3"/><path data-name="パス 192" d="M38.955 44.817v-3.715a2.706 2.706 0 012.706-2.706h27.91a2.708 2.708 0 002.707-2.708v-6.5a2.708 2.708 0 012.707-2.708h14.373a2.7 2.7 0 012.707 2.7v30.641a2.7 2.7 0 01-2.7 2.7H65.378a2.7 2.7 0 01-2.7-2.706V50.22a2.706 2.706 0 00-2.706-2.706H41.66a2.707 2.707 0 01-2.705-2.697z" fill="#979af3"/><path data-name="パス 193" d="M95.002.801h-16.85a2.706 2.706 0 00-2.706 2.706v15.005a2.706 2.706 0 002.706 2.706h16.849a2.707 2.707 0 002.707-2.706V3.501a2.7 2.7 0 00-2.706-2.7z" fill="#979af3"/><path data-name="パス 194" d="M34.566 53.153v-6.672a5.583 5.583 0 00-.534-3.171 3.572 3.572 0 00-2.744-1.634c-.212-.017-.428-.01-.64-.01H19.661a5.361 5.361 0 00-2.673.427 3.5 3.5 0 00-1.781 2.528 7.427 7.427 0 00-.05 1.119v3.927c0 .943-.018 1.889 0 2.832a3.78 3.78 0 00.337 1.5 5.048 5.048 0 001.22 1.512q.767.743 1.516 1.506a9.731 9.731 0 011.34 1.443 2.686 2.686 0 01.308 1.55v2.232a5.436 5.436 0 00.657 3.442 3.577 3.577 0 002.85 1.47h.731c2.3 0 4.607.032 6.908 0a3.56 3.56 0 003.542-3.512c.012-.737 0-1.475 0-2.212v-8.277a.8.8 0 00-1.6 0v9.495a3.187 3.187 0 01-.449 2.228c-.672.792-1.653.674-2.58.674H26c-.867 0-1.734.013-2.6 0a1.928 1.928 0 01-1.661-.944 2.26 2.26 0 01-.26-1.21v-2.15c0-1.258.158-2.611-.6-3.7a11.668 11.668 0 00-1.3-1.434q-.717-.737-1.453-1.456c-.661-.646-1.357-1.18-1.372-2.178v-.963c0-2.13-.058-4.269 0-6.4a1.919 1.919 0 011.241-1.732 2.527 2.527 0 01.9-.116h10.468c.564 0 1.129-.01 1.693 0a1.934 1.934 0 011.75 1.137 2.588 2.588 0 01.156 1.076v7.675a.802.802 0 001.604-.002z" fill="#1c1c1c"/><path data-name="パス 195" d="M39.983 55.624v2.6c0 .746-.041 1.506.006 2.251a3.56 3.56 0 002.412 3.161 4.748 4.748 0 001.562.173h1.838c2.956 0 5.916.043 8.873 0a3.58 3.58 0 002.971-1.6 4.2 4.2 0 00.564-2.42c0-1.423.062-2.861 0-4.283a3.557 3.557 0 00-2.364-3.2 4.683 4.683 0 00-1.595-.192h-9.586c-.381 0-.762-.005-1.143 0a3.513 3.513 0 00-3.535 3.509.8.8 0 001.6 0 1.926 1.926 0 011.791-1.906c.274-.015.552 0 .826 0h9.165c1.034 0 2.212-.167 2.9.808a2.728 2.728 0 01.346 1.7v2.437c0 .547.009 1.094 0 1.64a1.934 1.934 0 01-1.667 1.905 7.543 7.543 0 01-.864.008H43.642a1.913 1.913 0 01-2.05-2.021v-4.566a.805.805 0 00-1.609-.004z" fill="#1c1c1c"/><path data-name="パス 196" d="M.001 74.389a3.163 3.163 0 002.9 3.117c.556.047 1.126.011 1.682.011 1.61 0 3.223.033 4.832 0a3.128 3.128 0 00.9-6.129 7.064 7.064 0 00-2-.127H5.377c-.741 0-1.484-.013-2.226 0a3.178 3.178 0 00-3.15 3.128.8.8 0 001.6 0 1.55 1.55 0 011.578-1.527c.552-.008 1.1 0 1.656 0 1.493 0 2.986-.007 4.478 0a1.567 1.567 0 011.623 1.285 1.546 1.546 0 01-1.517 1.77c-1.346.027-2.7 0-4.042 0H3.253a1.558 1.558 0 01-1.652-1.528.8.8 0 00-1.6 0z" fill="#1c1c1c"/><path data-name="パス 197" d="M39.758 44.816v-3.239a2.664 2.664 0 01.233-1.39 1.932 1.932 0 011.676-.991c1.082-.018 2.166 0 3.247 0h22.513c1.384 0 3 .209 4.182-.658a3.571 3.571 0 001.467-2.737c.057-1.232 0-2.479 0-3.713v-1.877a5.325 5.325 0 01.1-1.634 1.911 1.911 0 011.749-1.3c1.687-.047 3.382 0 5.069 0h7.83c.51 0 1.021-.009 1.532 0a1.94 1.94 0 011.753 1.138 3.22 3.22 0 01.154 1.346v29.361a2.455 2.455 0 01-.762 2.234 3.469 3.469 0 01-2.2.374h-22.5a2.16 2.16 0 01-1.974-.808 2.129 2.129 0 01-.345-1.264v-7.062c0-.781.012-1.564 0-2.345a3.559 3.559 0 00-3.516-3.529c-1.482-.025-2.968 0-4.45 0H41.803a1.947 1.947 0 01-2.045-1.906.8.8 0 00-1.6 0 3.561 3.561 0 003.539 3.507c.538.007 1.076 0 1.613 0h15.187c.488 0 .976-.008 1.464 0a1.926 1.926 0 011.656.944 2.239 2.239 0 01.26 1.18v7.3c0 .729-.03 1.465 0 2.194a3.568 3.568 0 001.51 2.768 4.363 4.363 0 002.684.626h22.921a3.561 3.561 0 003.874-3.913v-28.4a8.361 8.361 0 00-.252-3.125 3.545 3.545 0 00-2.27-2.073 7.594 7.594 0 00-2.136-.141h-11.55c-.555 0-1.111-.01-1.667 0a3.547 3.547 0 00-2.592 1.144 3.608 3.608 0 00-.792 1.432 6.764 6.764 0 00-.126 1.8v3.791c0 .663.049 1.348-.006 2.008a1.908 1.908 0 01-.408 1.021 2.185 2.185 0 01-1.868.716h-26.9a5.563 5.563 0 00-1.615.14 3.548 3.548 0 00-2.27 2.075 4.653 4.653 0 00-.252 1.8v3.209a.8.8 0 001.596-.003z" fill="#1c1c1c"/><path data-name="パス 198" d="M95.001.003H78.304a3.56 3.56 0 00-3.6 2.9 13.526 13.526 0 00-.058 2.115v12.385a5.891 5.891 0 00.355 2.643 3.648 3.648 0 003.475 1.976h15.331a7.753 7.753 0 002.18-.14 3.564 3.564 0 002.365-2.329 5.8 5.8 0 00.157-1.786V4.703a5.193 5.193 0 00-.594-3.143A3.59 3.59 0 0095.001.003a.8.8 0 000 1.6 1.923 1.923 0 011.838 1.4 5.033 5.033 0 01.069 1.334v12.456c0 .923.21 2.078-.38 2.868a2.4 2.4 0 01-2.179.756H79.258a5.052 5.052 0 01-1.82-.135 1.931 1.931 0 01-1.19-1.779V3.744a2.444 2.444 0 01.135-.949 1.931 1.931 0 011.771-1.192c.517-.009 1.034 0 1.553 0h15.294a.8.8 0 000-1.6z" fill="#1c1c1c"/></g><g data-name="グループ 394"><path data-name="パス 222" d="M44.878 49.35h-5.543a2.409 2.409 0 00-2.41 2.413c0 7.12.009 19.378.011 24.546a2.408 2.408 0 002.411 2.409l33.378-.015a2.41 2.41 0 002.41-2.412c0-7.612-.007-17.741-.01-24.543a2.409 2.409 0 00-2.412-2.409h-4.872" fill="#fff"/><path data-name="パス 223" d="M59.788 48.45h-6.92a.894.894 0 000 1.787h6.918a.894.894 0 000-1.787z" fill="#1c1c1c"/><path data-name="パス 224" d="M46.729 56.903h-1.845a1.154 1.154 0 00-.79.327 1.117 1.117 0 000 1.58 1.16 1.16 0 00.79.327h1.845a1.154 1.154 0 00.79-.327 1.117 1.117 0 000-1.58 1.16 1.16 0 00-.79-.327z" fill="#979bf3"/><path data-name="パス 225" d="M53.622 56.903h-1.845a1.154 1.154 0 00-.79.327 1.117 1.117 0 000 1.58 1.16 1.16 0 00.79.327h1.845a1.154 1.154 0 00.79-.327 1.117 1.117 0 000-1.58 1.16 1.16 0 00-.79-.327z" fill="#1c1c1c"/><path data-name="パス 226" d="M60.515 56.903H58.67a1.154 1.154 0 00-.79.327 1.117 1.117 0 000 1.58 1.16 1.16 0 00.79.327h1.845a1.154 1.154 0 00.79-.327 1.117 1.117 0 000-1.58 1.16 1.16 0 00-.79-.327z" fill="#1c1c1c"/><path data-name="パス 227" d="M67.408 56.903h-1.844a1.154 1.154 0 00-.79.327 1.117 1.117 0 000 1.58 1.161 1.161 0 00.79.327h1.844a1.154 1.154 0 00.79-.327 1.117 1.117 0 000-1.58 1.16 1.16 0 00-.79-.327z" fill="#1c1c1c"/><path data-name="パス 228" d="M46.729 63.536h-1.845a1.152 1.152 0 00-.79.327 1.117 1.117 0 000 1.58 1.16 1.16 0 00.79.327h1.845a1.154 1.154 0 00.79-.327 1.117 1.117 0 000-1.58 1.158 1.158 0 00-.79-.327z" fill="#979bf3"/><path data-name="パス 229" d="M53.622 63.536h-1.845a1.152 1.152 0 00-.79.327 1.117 1.117 0 000 1.58 1.16 1.16 0 00.79.327h1.845a1.154 1.154 0 00.79-.327 1.117 1.117 0 000-1.58 1.158 1.158 0 00-.79-.327z" fill="#1c1c1c"/><path data-name="パス 230" d="M60.515 63.536H58.67a1.152 1.152 0 00-.79.327 1.117 1.117 0 000 1.58 1.16 1.16 0 00.79.327h1.845a1.154 1.154 0 00.79-.327 1.117 1.117 0 000-1.58 1.158 1.158 0 00-.79-.327z" fill="#1c1c1c"/><path data-name="パス 231" d="M67.408 63.536h-1.844a1.154 1.154 0 00-.79.327 1.117 1.117 0 000 1.58 1.161 1.161 0 00.79.327h1.844a1.154 1.154 0 00.79-.327 1.117 1.117 0 000-1.58 1.158 1.158 0 00-.79-.327z" fill="#1c1c1c"/><path data-name="パス 232" d="M46.729 70.17h-1.845a1.154 1.154 0 00-.79.327 1.117 1.117 0 000 1.58 1.158 1.158 0 00.79.327h1.845a1.152 1.152 0 00.79-.327 1.117 1.117 0 000-1.58 1.16 1.16 0 00-.79-.327z" fill="#979bf3"/><path data-name="パス 233" d="M53.622 70.17h-1.845a1.154 1.154 0 00-.79.327 1.117 1.117 0 000 1.58 1.158 1.158 0 00.79.327h1.845a1.152 1.152 0 00.79-.327 1.117 1.117 0 000-1.58 1.16 1.16 0 00-.79-.327z" fill="#1c1c1c"/><path data-name="パス 234" d="M60.515 70.17H58.67a1.154 1.154 0 00-.79.327 1.117 1.117 0 000 1.58 1.158 1.158 0 00.79.327h1.845a1.152 1.152 0 00.79-.327 1.117 1.117 0 000-1.58 1.16 1.16 0 00-.79-.327z" fill="#1c1c1c"/><path data-name="パス 235" d="M67.408 70.17h-1.844a1.154 1.154 0 00-.79.327 1.117 1.117 0 000 1.58 1.159 1.159 0 00.79.327h1.844a1.152 1.152 0 00.79-.327 1.117 1.117 0 000-1.58 1.16 1.16 0 00-.79-.327z" fill="#1c1c1c"/><path data-name="パス 236" d="M44.878 48.457h-5.012a3.951 3.951 0 00-2.415.6 3.357 3.357 0 00-1.411 2.519c-.064.822-.008 1.669-.007 2.495v8.459q0 5.441.006 10.882v2.066a4.968 4.968 0 00.378 2.355 3.3 3.3 0 002.19 1.691 11.909 11.909 0 002.495.083l23.152-.009h7.839a4.051 4.051 0 002.565-.631 3.358 3.358 0 001.368-2.547c.055-1 0-2.015 0-3.014v-6.51q0-6.4-.005-12.795a23.038 23.038 0 00-.036-2.73 3.335 3.335 0 00-1.539-2.432 4.055 4.055 0 00-2.26-.492h-4.34a.894.894 0 000 1.787h4.171a2.475 2.475 0 011.632.314c.605.468.584 1.138.584 1.832v17.979c0 1.976.051 3.959 0 5.934a1.536 1.536 0 01-1.005 1.44 6.607 6.607 0 01-2.066.084h-4.833l-22.2.01c-1.558 0-3.116.012-4.674 0a1.57 1.57 0 01-1.5-.9 4.7 4.7 0 01-.124-1.815q0-4.756-.006-9.511v-13.29a1.95 1.95 0 01.582-1.75 2.694 2.694 0 011.764-.315h4.713a.894.894 0 000-1.787z" fill="#1c1c1c"/><path data-name="パス 237" d="M63.302 47.442v3.557a.894.894 0 101.787 0v-3.557a.894.894 0 10-1.787 0z" fill="#1c1c1c"/><path data-name="パス 238" d="M47.483 47.442v3.557a.894.894 0 101.787 0v-3.557a.894.894 0 00-1.787 0z" fill="#1c1c1c"/><path data-name="パス 239" d="M72.79 61.728A11.72 11.72 0 0060.837 73.61c0 7.168 4.99 12.1 11.955 12.1 7.233 0 11.956-4.983 11.956-12.1A11.716 11.716 0 0072.79 61.728z" fill="#fff"/><path data-name="パス 240" d="M72.79 60.836a13.012 13.012 0 00-7.8 2.524 12.708 12.708 0 00-4.465 6.353c-1.555 4.981-.055 10.971 4.13 14.223a13.9 13.9 0 0014.932.975c4.666-2.66 6.655-8.235 5.883-13.392a12.609 12.609 0 00-10.446-10.5 15.2 15.2 0 00-2.234-.183.894.894 0 000 1.787 11.338 11.338 0 016.791 2.2 10.743 10.743 0 013.765 5.409c1.317 4.286.136 9.43-3.384 12.286a12.082 12.082 0 01-12.816.941 11.2 11.2 0 01-5.313-11.453 10.77 10.77 0 019.065-9.244 12.008 12.008 0 011.892-.14.894.894 0 000-1.786z" fill="#1c1c1c"/><path data-name="パス 241" d="M72.797 74.615h4.088a.894.894 0 100-1.787h-4.084a.894.894 0 100 1.787z" fill="#1c1c1c"/><path data-name="パス 242" d="M71.903 67.534v6.184a.894.894 0 001.787 0v-6.184a.894.894 0 00-1.787 0z" fill="#1c1c1c"/></g></g></g></svg>