<svg xmlns="http://www.w3.org/2000/svg" width="140" height="140"><g data-name="グループ 747"><path data-name="パス 134" d="M128.148 11.852c21.517 21.517 12.926 64.993-19.188 97.108s-75.59 40.7-97.107 19.187S-1.073 63.154 31.04 31.04s75.591-40.7 97.108-19.188" fill="#fff"/><g data-name="グループ 408"><path data-name="パス 336" d="M87.267 53.387a2.25 2.25 0 011.626-.6 2.087 2.087 0 011.875 1.042 6.244 6.244 0 01.183 4.4 6.8 6.8 0 01-2 3.236 2.48 2.48 0 01-1.912.552l-.183-.031a14.6 14.6 0 01-.658 1.786c-.5 1.359-3.336 6.227-6.88 7.906.048.6.131 1.173.237 1.793.184 1.017.122 1.925 1.538 2.436.061.022 2.054.953 3.467 1.6 0 0-.66 8-11.775 8-10.5 0-11.608-7.893-11.608-7.893 1.413-.649 3.368-1.687 3.43-1.71 1.416-.512 1.354-1.419 1.538-2.436.109-.636.193-1.218.241-1.84a12.966 12.966 0 01-4.283-3.523 17.107 17.107 0 01-3.247-6.126 2.432 2.432 0 01-2.069-.518 6.8 6.8 0 01-2-3.236 6.24 6.24 0 01.183-4.4 2.088 2.088 0 011.875-1.042 2.25 2.25 0 011.626.6s-4.867-14.04 14.407-14.04 14.389 14.044 14.389 14.044z" fill="#fff"/><path data-name="パス 337" d="M78.992 116.306c-.756-2.942-1.662-6.308-2.262-8.286a32.944 32.944 0 015.634-1.994 21.357 21.357 0 016.286-1.078 14.891 14.891 0 014.7 1.16l.375.132c-.317 3.391-.673 6.7-1 9.054l-.368.33a7 7 0 01-2.425 1.454c-1.524.3-9.024.823-10.409.12l-.353-.178q-.089-.352-.183-.714z" fill="#fff"/><path data-name="パス 338" d="M56.141 100.219a80.765 80.765 0 00-1.167-1.056 3.209 3.209 0 00-1.7-.8 1.864 1.864 0 00-1.509.458 1.552 1.552 0 00-.235 1.719 6.9 6.9 0 001.536 1.728c-1.113-1.7-2.507-1.218-2.98-.682a1.271 1.271 0 00-.2 1.342 11.067 11.067 0 002.222 2.557c-.914-.162-1.587-.272-2.1.3a1.48 1.48 0 00-.213 1.289 3.528 3.528 0 00.638 1.027c.791 1.016 1.407 1.854 2.141 2.77l.236.295c2.359-.436 7.4-1.315 12.346-2.175l-.858-.876c-1.974-1.991-5.607-5.542-8.161-7.894z" fill="#fff"/><path data-name="パス 339" d="M61.789 48.094a5.863 5.863 0 00-.009 1.183 1.693 1.693 0 01-.124 1.121 2.95 2.95 0 01-.786.681 6.2 6.2 0 00-2.152 2.578 2.193 2.193 0 00-1.862-.866 2.671 2.671 0 00-.764.132 18.611 18.611 0 01-.767-9.145 16.259 16.259 0 013.715-7.746c5.951-6.8 19.095-8.962 25.215-1.1a27.5 27.5 0 012.587 2.121c4.08 3.911 4.813 10.813 2.9 15.9a2.623 2.623 0 00-.848-.161 2.25 2.25 0 00-1.626.6l-.349-.046a11.75 11.75 0 00-1.3-5.7 8.026 8.026 0 00-2.226-2.821 7.134 7.134 0 00-4.006-1.461 12.345 12.345 0 00-2.241.167 21.383 21.383 0 01-5.45.371c-1.206-.141-2.35-.518-3.57-.571a6.726 6.726 0 00-5.035 1.92 4.891 4.891 0 00-1.3 2.846z" fill="#fff"/><path data-name="パス 340" d="M72.876 28.864a18.556 18.556 0 00-5.743.755 19.334 19.334 0 00-9.669 6.832c-2.559 3.414-3.566 7.558-3.866 11.767a9.54 9.54 0 00-1.837 3.033 2.876 2.876 0 00.063 1.786.83.83 0 001.054.382 15.492 15.492 0 012.032-.574c2.184-.379 3.73-.5 5.63-.656 4.068-.347 8.258-.562 12.335-.587 4.077.025 8.268.24 12.335.587 1.9.161 3.446.278 5.63.656a15.492 15.492 0 012.032.574.83.83 0 001.054-.382 2.876 2.876 0 00.063-1.786 9.54 9.54 0 00-1.837-3.033c-.3-4.21-1.306-8.353-3.866-11.767a19.334 19.334 0 00-9.669-6.832 18.556 18.556 0 00-5.741-.755z" fill="#fff"/><path data-name="パス 341" d="M103.802 99.974c-.5-4.473-1.074-8.986-3.176-13.008a18.24 18.24 0 00-2.519-3.673 13.476 13.476 0 00-3.488-2.722 26.709 26.709 0 00-3.923-1.875c-1.015-.466-5.46-1.851-7.189-2.38a2.294 2.294 0 00-.417-.682c-.717-.785-1.62-1.92-2.353-2.7-.311.238-6.657 4.5-7.139 4.827h-1.239c-.481-.323-6.827-4.589-7.139-4.827-.732.775-1.636 1.91-2.353 2.7a2.323 2.323 0 00-.461.8l-.147.044c-1.8.54-5.607 1.651-6.8 2.147a29.476 29.476 0 00-7.189 3.542 13.133 13.133 0 00-4.677 6.434c-1.983 7.215-2.359 11.7-2.72 18.838a52.434 52.434 0 00.376 10.757 12.335 12.335 0 003.222 6.578c2.175 2.266 6.957 2.7 8.949 2.542a105.811 105.811 0 0014.987-2.455 101.789 101.789 0 0012.63 1.295c1.616.087 3.149.171 4.672.219a58.953 58.953 0 008.618-.289c3.082-.34 6.605-2.387 7.807-4.558a16.928 16.928 0 002.048-8.3 83.04 83.04 0 00-.381-13.264zm-50.988 11.19l-.236-.29c-.734-.916-1.351-1.755-2.141-2.77a3.528 3.528 0 01-.638-1.027 1.48 1.48 0 01.213-1.289c.512-.57 1.185-.46 2.1-.3a11.06 11.06 0 01-2.222-2.557 1.271 1.271 0 01.2-1.342 1.643 1.643 0 011.986-.285 3.067 3.067 0 01-.543-.76 1.552 1.552 0 01.235-1.719 1.866 1.866 0 011.509-.458 3.211 3.211 0 011.7.8c.351.311.744.667 1.167 1.056 2.554 2.352 6.187 5.9 8.161 7.894l.858.876c-4.95.86-9.987 1.739-12.346 2.175zm39.915 4.13l-.368.33a7 7 0 01-2.425 1.454c-1.524.3-9.024.823-10.409.12l-.352-.178q-.089-.352-.183-.714c-.756-2.942-1.662-6.308-2.262-8.286a32.975 32.975 0 015.629-1.995 21.357 21.357 0 016.286-1.078 14.892 14.892 0 014.7 1.16l.375.132c-.317 3.391-.674 6.7-1 9.054z" fill="#979af3"/><g fill="#1c1c1c"><path data-name="パス 342" d="M66.866 73.769c.123-.658.214-1.327.273-1.994a.76.76 0 00-.222-.536.757.757 0 00-1.071 0 .853.853 0 00-.222.536q-.035.39-.087.777l.027-.2c-.046.339-.1.679-.159 1.015a.812.812 0 00.076.583.757.757 0 001.036.272.747.747 0 00.348-.453z"/><path data-name="パス 343" d="M78.572 71.775c.034.38.082.758.136 1.135.046.325.111.648.155.973l-.027-.2v.034a.831.831 0 00.222.536.757.757 0 001.071 0 .728.728 0 00.222-.536c-.057-.452-.145-.9-.206-1.351l.027.2q-.053-.394-.089-.791a.814.814 0 00-.222-.536.757.757 0 00-1.071 0 .742.742 0 00-.222.536z"/><path data-name="パス 344" d="M91.826 115.088a4.929 4.929 0 01-2.091 1.259c-.109.023-.22.038-.33.055l-.094.013c-.1.015.156-.02.049-.007l-.251.031c-.389.045-.778.083-1.169.117a50.89 50.89 0 01-6.061.218c-.455-.015-.91-.041-1.362-.1-.114-.014.133.021.023 0l-.139-.022c-.085-.015-.169-.031-.252-.05s-.143-.039-.215-.059c-.025-.007-.05-.021-.075-.026-.126-.026.167.076.051.021a.777.777 0 00-1.036.272.764.764 0 00.272 1.036 5.839 5.839 0 002.227.415c1.039.059 2.082.044 3.121.009a39 39 0 005.541-.45 6.334 6.334 0 002.864-1.661c.728-.651-.346-1.719-1.071-1.071z"/><path data-name="パス 345" d="M77.625 108.44a30.093 30.093 0 013.642-1.31c1.241-.366 2.482-.744 3.745-1.021a14.194 14.194 0 014.182-.381 16.234 16.234 0 013.954 1.109.757.757 0 00.4-1.46 24.5 24.5 0 00-3.128-.981 11.57 11.57 0 00-3.732-.093 36.276 36.276 0 00-6.348 1.523 31.2 31.2 0 00-3.482 1.306.763.763 0 00-.272 1.036.776.776 0 001.036.272z"/><path data-name="パス 346" d="M64.837 107.576q-3.675-3.7-7.488-7.27c-1.243-1.16-2.649-2.854-4.522-2.7a2.266 2.266 0 00-2.177 1.857 3.145 3.145 0 001.232 2.728c1.671 1.619 3.324 3.255 4.995 4.874.7.679 1.773-.391 1.071-1.071-1.321-1.28-2.631-2.572-3.943-3.862-.331-.326-.668-.644-1-.966a3.318 3.318 0 01-.795-.957c-.319-.71.3-1.154.956-1.1a3.226 3.226 0 011.792 1.048q.828.749 1.641 1.515 1.816 1.7 3.6 3.443 1.8 1.751 3.573 3.53a.758.758 0 001.071-1.071z"/><path data-name="パス 347" d="M51.532 100.352a2.259 2.259 0 00-2.309 1.188 2.584 2.584 0 00.7 2.8c.647.766 1.4 1.457 2.1 2.174s1.435 1.452 2.2 2.134c.724.649 1.8-.418 1.071-1.071-1.223-1.1-2.343-2.3-3.5-3.469-.272-.275-.552-.544-.8-.839a1.812 1.812 0 01-.455-.779c-.085-.56.573-.677.992-.623a.761.761 0 00.757-.757.777.777 0 00-.757-.757z"/><path data-name="パス 348" d="M51.56 104.639a2.3 2.3 0 00-2.085.609 2.161 2.161 0 00-.358 2.156 9.107 9.107 0 001.408 2.043c.5.656 1 1.313 1.516 1.957a.762.762 0 001.071 0 .776.776 0 000-1.071 63.557 63.557 0 01-1.1-1.421c-.408-.535-.855-1.071-1.231-1.607a2.564 2.564 0 01-.218-.352c-.01-.022-.035-.106-.05-.145-.046-.129-.006.046-.011-.04v-.185c0-.134-.012.015 0-.06s.029-.12.046-.18c-.028.1 0 0 .024-.044.059-.1-.131.135.033-.039l.057-.054c-.046.032-.048.034-.005.006s.142-.08.04-.036a1.569 1.569 0 01.169-.05c.075-.022-.09 0 .05-.009h.191a4.083 4.083 0 01.456.04.761.761 0 00.757-.757.777.777 0 00-.757-.757z"/><path data-name="パス 349" d="M93.832 94.979c-.318 6.333-.9 12.679-1.685 18.971-.143 1.146-.281 2.259-.515 3.48a.777.777 0 00.529.932.764.764 0 00.932-.529c.495-2.572.742-5.2 1.015-7.806q.536-5.093.923-10.2c.123-1.614.235-3.23.316-4.847.049-.974-1.466-.972-1.515 0z"/><path data-name="パス 350" d="M51.874 112.052c2.208-.438 4.435-.8 6.65-1.192 2.436-.435 4.87-.879 7.308-1.3q4.3-.747 8.587-1.509l.888-.158a3.733 3.733 0 00.669-.116c-.018.06-.146-.253-.07.017.021.075.046.149.068.223q.086.28.168.562c.262.89.51 1.784.754 2.679q.859 3.152 1.648 6.322.328 1.314.642 2.631l.123.529c.017.074.031.151.051.225.033.118-.014-.077.026-.067-.076-.019-.332.119-.417.149l-.533.187q-.544.188-1.091.369a112.45 112.45 0 01-17.21 4.132 91.133 91.133 0 01-3.995.562c-1.086.127-2.186.272-3.28.3a14.776 14.776 0 01-5.654-.955 6.251 6.251 0 01-2.388-1.591 11.358 11.358 0 01-2.052-3.226 13.057 13.057 0 01-.871-3.392c-.19-1.445-.3-2.9-.354-4.357-.087-2.531.046-5.06.188-7.587.145-2.58.327-5.162.687-7.722a68.857 68.857 0 011.642-7.991 12.8 12.8 0 013.631-6.185 20.583 20.583 0 015.982-3.464c1.964-.808 3.969-1.466 6-2.08.928-.281 1.858-.555 2.786-.833a.758.758 0 00-.4-1.461c-4.346 1.3-8.831 2.509-12.76 4.851a16.018 16.018 0 00-2.922 2.143 12.764 12.764 0 00-2.2 2.867 18.581 18.581 0 00-.879 1.759 14.094 14.094 0 00-.732 2.146 74.432 74.432 0 00-1.011 4.354 93.839 93.839 0 00-1.534 16 47.765 47.765 0 00.515 8.629 12.7 12.7 0 003.5 6.918 10.681 10.681 0 006.038 2.5 17.151 17.151 0 002.86.19c1.156-.032 2.318-.186 3.466-.324a114.932 114.932 0 0017.76-3.628c1.5-.429 3-.891 4.48-1.4.647-.222 1.554-.379 1.971-.968a1.875 1.875 0 00.122-1.628 233.832 233.832 0 00-1.477-5.937c-.526-2.024-1.059-4.048-1.65-6.054a5.512 5.512 0 00-.418-1.23 1.574 1.574 0 00-1.829-.593q-2.074.371-4.149.736-5.17.91-10.339 1.824l-8.749 1.565c-.216.039-.433.075-.648.117a.765.765 0 00-.529.932.773.773 0 00.932.529z"/><path data-name="パス 351" d="M83.23 77.021c1.9.579 3.791 1.167 5.667 1.808.391.133.781.269 1.166.417l.206.081c.184.071-.128-.057.026.011.36.161.734.293 1.1.448a24.66 24.66 0 014.021 2.168 15.176 15.176 0 015.247 6.845 34.085 34.085 0 012.116 8.91 89.1 89.1 0 01.743 9.809q.04 2.511-.063 5.021a29.7 29.7 0 01-.377 4.162 13.982 13.982 0 01-1.1 3.468 8.412 8.412 0 01-.875 1.551 7.55 7.55 0 01-1.216 1.21 11.384 11.384 0 01-3.387 1.865 15.931 15.931 0 01-4.232.722 75.233 75.233 0 01-9.221-.012c-3.208-.162-6.418-.344-9.613-.685a76.091 76.091 0 01-2.235-.269.783.783 0 00-.932.529.763.763 0 00.529.932c3.346.459 6.715.709 10.085.893 3.138.171 6.279.345 9.422.232a33.3 33.3 0 004.926-.427 12.971 12.971 0 004.026-1.531 10.255 10.255 0 003.032-2.537 11.944 11.944 0 001.716-3.476 29.28 29.28 0 001.022-8.867 81.061 81.061 0 00-.476-10.329c-.7-6.253-1.7-13.053-6.38-17.71a22.179 22.179 0 00-7.578-4.424c-1.877-.747-3.84-1.309-5.768-1.907q-.6-.186-1.2-.369c-.934-.285-1.334 1.176-.4 1.461z"/><path data-name="パス 352" d="M80.201 73.47c.809.862 1.616 1.77 2.353 2.695a1.4 1.4 0 01.331 1.087c.026-.156-.056.142-.072.18l-.045.112c-.05.133-.095.268-.139.4a46.585 46.585 0 01-2.018 5.647l1.036-.272a18.261 18.261 0 01-4.1-2.9 44.1 44.1 0 01-3.412-3.2l-.153 1.189q3.088-2.07 6.165-4.158c.325-.221.66-.433.974-.67a.782.782 0 00.272-1.036.763.763 0 00-1.036-.272c-.776.585-1.611 1.1-2.416 1.647q-1.829 1.235-3.661 2.467l-1.062.714a.769.769 0 00-.153 1.189 44.025 44.025 0 003.495 3.268 19.466 19.466 0 004.325 3.064.77.77 0 001.036-.272 56.571 56.571 0 002.231-6.189c.026-.075.184-.45.061-.184a2.126 2.126 0 00.211-.845 2.92 2.92 0 00-.549-1.734c-.37-.515-.833-.974-1.244-1.458-.444-.523-.887-1.048-1.356-1.549-.668-.713-1.738.36-1.071 1.071z"/><path data-name="パス 353" d="M64.683 72.4c-.47.5-.912 1.026-1.356 1.549-.411.483-.874.943-1.244 1.458a2.921 2.921 0 00-.549 1.734 2.148 2.148 0 00.21.845c-.122-.267.034.109.06.184a55.235 55.235 0 002.216 6.189.774.774 0 001.036.272 19.6 19.6 0 004.333-3.064 43.689 43.689 0 003.5-3.268.769.769 0 00-.153-1.189q-3.088-2.07-6.165-4.158c-.325-.221-.66-.433-.974-.67a.762.762 0 00-1.036.272.776.776 0 00.272 1.036c.776.585 1.611 1.1 2.416 1.647q1.829 1.235 3.661 2.467l1.062.714-.153-1.189a43.448 43.448 0 01-3.42 3.2 18.368 18.368 0 01-4.109 2.9l1.036.272a45.478 45.478 0 01-2-5.647c-.042-.127-.083-.255-.13-.38a5.334 5.334 0 00-.053-.134c.041.1-.111-.325-.087-.21a1.562 1.562 0 01.314-1.02c.358-.463.78-.891 1.159-1.338.4-.472.8-.944 1.226-1.4.666-.711-.4-1.784-1.071-1.071z"/><path data-name="パス 354" d="M69.086 84.783q.009 6.52 0 13.041v6.775a.758.758 0 001.515 0V84.783a.758.758 0 00-1.515 0z"/><path data-name="パス 355" d="M75.567 84.601q.009 6.237 0 12.475v6.478a.758.758 0 001.515 0V84.601a.758.758 0 00-1.515 0z"/><path data-name="パス 356" d="M57.182 95.515h6.922a.758.758 0 000-1.515h-6.922a.758.758 0 000 1.515z"/><path data-name="パス 357" d="M81.488 95.515h7.078a.758.758 0 000-1.515h-7.078a.758.758 0 000 1.515z"/><path data-name="パス 358" d="M56.819 52.709c-.026-.081-.054-.161-.076-.243a.568.568 0 00-.136-.257.574.574 0 00-.212-.2.566.566 0 00-.281-.09.575.575 0 00-.3.014l-.181.076a.757.757 0 00-.272.272l-.076.181a.765.765 0 000 .4c.022.082.05.162.076.243a.568.568 0 00.136.257.574.574 0 00.212.2.566.566 0 00.281.09.575.575 0 00.3-.014l.181-.076a.758.758 0 00.272-.272l.076-.181a.765.765 0 000-.4z"/><path data-name="パス 359" d="M70.191 65.561a5.887 5.887 0 002.836.657 4.619 4.619 0 002.867-.848.759.759 0 000-1.071.781.781 0 00-1.071 0c.231-.18.057-.046 0-.008s-.115.07-.175.1l-.093.047c-.1.051-.037-.027.035-.012-.049-.01-.191.071-.241.087a4.282 4.282 0 01-.674.154c.114-.017-.007 0-.058 0a6.963 6.963 0 01-1.108.014c-.066 0-.131-.01-.2-.016-.013 0-.249-.038-.089-.009a5.582 5.582 0 01-.63-.14c-.088-.027-.174-.058-.261-.088-.192-.066.117.06-.056-.022q-.162-.076-.32-.16a.758.758 0 00-.765 1.308z"/><path data-name="パス 360" d="M72.631 58.894a13.286 13.286 0 01.312 1.427l-.027-.2a.857.857 0 01.005.2l.027-.2a.479.479 0 01-.022.089l.076-.181a.358.358 0 01-.031.057l.118-.153a.322.322 0 01-.047.046l.153-.118a.943.943 0 01-.113.06l.181-.076a.82.82 0 01-.191.056l.2-.027a.754.754 0 01-.179 0l.2.027c-.068-.009-.133-.026-.2-.035a.575.575 0 00-.3-.014.56.56 0 00-.281.09.757.757 0 00-.272 1.036.726.726 0 00.453.348c.156.021.307.061.465.068a1.492 1.492 0 00.689-.164 1 1 0 00.552-.658 1.64 1.64 0 00-.007-.706c-.078-.46-.184-.915-.3-1.366a.757.757 0 00-1.46.4z"/><path data-name="パス 361" d="M65.08 54.846c-.238.774-.083 2.556 1.384 2.708 1.939-.012 2.042-2.166 1.39-3.178a1.535 1.535 0 00-2.774.471z"/><path data-name="パス 362" d="M80.669 54.847c.238.774.083 2.556-1.384 2.708-1.939-.012-2.043-2.166-1.39-3.178a1.535 1.535 0 012.774.471z"/><path data-name="パス 363" d="M59.018 52.851a3.207 3.207 0 00-3.53-.494 3.087 3.087 0 00-1.564 2.12 8.057 8.057 0 001.212 6.269 3.914 3.914 0 003.772 2.009.762.762 0 00.529-.932.778.778 0 00-.932-.529c-1.109.149-1.968-1.062-2.416-1.9a6.894 6.894 0 01-.825-2.707 4.336 4.336 0 01.471-2.627c-.052.068.1-.111.121-.129a.522.522 0 01.158-.131 1.5 1.5 0 01.552-.216 1.6 1.6 0 011.382.343c.723.651 1.8-.417 1.071-1.071z"/><path data-name="パス 364" d="M87.8 53.921a1.611 1.611 0 012.233.159c-.107-.132.036.062.053.09a2.065 2.065 0 01.117.211 3.326 3.326 0 01.207.709 5.953 5.953 0 01.073 1.59 6.88 6.88 0 01-.8 2.658c-.447.856-1.314 2.1-2.442 1.953a.784.784 0 00-.932.529.762.762 0 00.529.932c2.646.356 4.185-2.224 4.87-4.411a7.6 7.6 0 00.2-3.433 3.454 3.454 0 00-1.343-2.375 3.177 3.177 0 00-3.839.316c-.726.654.348 1.722 1.071 1.071z"/><path data-name="パス 365" d="M86.401 60.737a17.911 17.911 0 01-.978 2.967c-.035.087.067-.152.026-.062l-.038.086c-.025.054-.049.108-.075.161-.072.151-.147.3-.225.448-.175.334-.364.661-.559.983a17.95 17.95 0 01-3.846 4.585 7.115 7.115 0 01-2.885 1.505c-.949.22-.548 1.68.4 1.461a10.81 10.81 0 005.439-3.762 19.5 19.5 0 003.056-4.617q.073-.163.14-.328c.02-.048.11-.259.024-.06.121-.277.239-.555.345-.838a14.271 14.271 0 00.633-2.126.776.776 0 00-.529-.932.765.765 0 00-.932.529z"/><path data-name="パス 366" d="M57.842 61.086a18.065 18.065 0 002.538 5.975 15.27 15.27 0 005.091 4.955 10.088 10.088 0 003.425 1.171.782.782 0 00.932-.529.763.763 0 00-.529-.932c-4.25-.629-7.423-4.3-9.045-8.073a17.09 17.09 0 01-.951-2.968c-.215-.95-1.676-.548-1.461.4z"/><path data-name="パス 367" d="M86.148 52.336c.019.334.022.669.013 1a.779.779 0 00.757.757.766.766 0 00.536-.222.8.8 0 00.222-.536 11.89 11.89 0 00-.013-1 .8.8 0 00-.222-.536.843.843 0 00-.536-.222.766.766 0 00-.536.222.757.757 0 00-.222.536z"/><path data-name="パス 368" d="M59.04 51.737a7.166 7.166 0 00-.617.84 6.439 6.439 0 00-.449.905.575.575 0 00-.014.3.56.56 0 00.09.281.757.757 0 001.037.274l.153-.118a.756.756 0 00.195-.334l.009-.022-.076.181a5.456 5.456 0 01.7-1.185l-.118.153q.08-.1.164-.2a.811.811 0 00.222-.536.77.77 0 00-.222-.536.761.761 0 00-.536-.222.744.744 0 00-.536.222z"/><path data-name="パス 369" d="M59.637 63.348l-2.8-10.277-.617 1.087 1.581-.24-1.118-.852c.017 5.05.67 10.231 3.747 14.411a15.6 15.6 0 0024.9 0c3.077-4.18 3.73-9.361 3.747-14.411l-1.118.852 1.581.24-.617-1.087-2.807 10.277a.884.884 0 001.7.47l2.8-10.277a.889.889 0 00-.617-1.087l-1.581-.24a.9.9 0 00-1.118.852c-.015 4.4-.477 8.837-2.894 12.632a13.817 13.817 0 01-23.075 0c-2.422-3.789-2.879-8.24-2.894-12.632a.9.9 0 00-1.118-.852l-1.581.24a.892.892 0 00-.617 1.087l2.8 10.277a.884.884 0 001.7-.47z"/><path data-name="パス 370" d="M72.879 28.106a19.776 19.776 0 00-6.369.919 19.659 19.659 0 00-5.3 2.722 19.379 19.379 0 00-7.092 9.583 28.215 28.215 0 00-1.274 6.889l.222-.536c-.967 1.237-2.183 2.689-2.172 4.35a2.051 2.051 0 001.082 2.087c.83.322 1.766-.211 2.576-.413a33.445 33.445 0 015.215-.7c2.054-.175 4.109-.331 6.167-.44 4.142-.221 8.276-.254 12.42-.072q3.128.138 6.25.4c1.723.141 3.45.274 5.16.536a16.415 16.415 0 011.642.326c.471.122.927.318 1.4.43a1.644 1.644 0 002-1.5c.306-1.949-.984-3.563-2.111-5.005l.222.536c-.3-4.156-1.277-8.376-3.729-11.82a20.186 20.186 0 00-9.278-7.138 19.536 19.536 0 00-7.031-1.154.758.758 0 000 1.515 17.977 17.977 0 015.542.728 18.723 18.723 0 014.631 2.2 17.8 17.8 0 016.586 7.757 22.1 22.1 0 011.448 5.18c.141.863.225 1.73.3 2.6a2.141 2.141 0 00.617 1.163 10.52 10.52 0 01.644.922 3.51 3.51 0 01.689 2.1c-.014.14-.074.278-.084.415 0 .017-.057.111-.025.06.115-.182.059-.024.033-.029-.373-.073-.758-.219-1.139-.327a30.011 30.011 0 00-5.507-.832c-4.061-.361-8.13-.617-12.207-.689-4.19-.074-8.392.138-12.569.463-1.813.141-3.628.282-5.431.527a19.957 19.957 0 00-2.844.548q-.3.087-.6.187a3.335 3.335 0 00-.465.131c-.038.023-.08-.181.021.021.011.023-.01.143-.025-.06-.013-.179-.083-.346-.091-.53a3.735 3.735 0 01.724-2.026 10.625 10.625 0 01.616-.876c.1-.133.206-.264.309-.4a1.354 1.354 0 00.313-.835 27.224 27.224 0 01.894-5.269 17.823 17.823 0 015.569-8.79 17.475 17.475 0 019.151-4.186 23.886 23.886 0 012.9-.154.758.758 0 000-1.514z"/><path data-name="パス 371" d="M58.894 48.116a33.958 33.958 0 014.05-.559c2.047-.2 4.1-.329 6.156-.407a102.942 102.942 0 0113.043.345 37.377 37.377 0 014.717.621c.95.208 1.356-1.252.4-1.461a37.507 37.507 0 00-4.334-.6c-2.062-.2-4.131-.336-6.2-.416a102.713 102.713 0 00-13.3.359 40.294 40.294 0 00-4.935.659c-.952.208-.549 1.669.4 1.461z"/></g><g data-name="グループ 406"><path data-name="パス 373" d="M105.187 48.486a9.566 9.566 0 00-3.72 3.877 9.934 9.934 0 00.107 9.054c1.381 2.565 3.52 4.461 4.011 7.292l.4 2.323h8.941l.4-2.323c.49-2.831 2.629-4.728 4.011-7.292a9.933 9.933 0 00.107-9.054 10.181 10.181 0 00-8.99-5.321 10.5 10.5 0 00-5.271 1.444z" fill="#fff"/><path data-name="パス 374" d="M106.245 68.525a12.791 12.791 0 00-2.47-4.963 13.244 13.244 0 01-2.488-4.974 8.943 8.943 0 013.816-9.243 9.766 9.766 0 019.6-.626 8.9 8.9 0 014.37 11.665 15.116 15.116 0 01-1.555 2.625c-1.19 1.713-2.476 3.413-2.858 5.516a.707.707 0 00.48.846.694.694 0 00.846-.48 13.02 13.02 0 012.59-5 12.784 12.784 0 002.467-5.513 10.735 10.735 0 00-.88-6.094 10.156 10.156 0 00-3.711-4.151 11.165 11.165 0 00-10.805-.666 10.585 10.585 0 00-4.216 3.6 10.271 10.271 0 00-1.7 5.722 10.974 10.974 0 001.765 5.875c1 1.6 2.339 3.057 3.024 4.834a7.706 7.706 0 01.391 1.4.694.694 0 00.846.48.7.7 0 00.48-.846z" fill="#1c1c1c"/><path data-name="パス 375" d="M106.543 75.798a4.964 4.964 0 01-.772-2.707v-1.6a.458.458 0 01.458-.458h8.452a.458.458 0 01.458.458v1.6a4.365 4.365 0 01-4.685 4.571 4.435 4.435 0 01-3.911-1.864z" fill="#fff"/><path data-name="パス 376" d="M107.137 75.45a5.459 5.459 0 01-.678-3.11v-.516a.974.974 0 000-.265v-.069a.229.229 0 01-.229.229c0 .006.057 0 .063 0a2.6 2.6 0 00.5 0h7.555a1.235 1.235 0 00.325 0c-.172.236-.178-.421-.225-.151a3.159 3.159 0 000 .513v1a4.044 4.044 0 01-.892 2.638c-1.54 1.739-5.054 1.77-6.424-.268-.491-.731-1.683-.043-1.188.694a5.76 5.76 0 007.631 1.355 4.906 4.906 0 002.1-3.088 12.641 12.641 0 00.145-2.789 1.194 1.194 0 00-1.148-1.279c-.115-.005-.229 0-.344 0h-7.421c-.212 0-.425-.006-.637 0a1.2 1.2 0 00-1.2 1.284 7.808 7.808 0 00.866 4.517c.488.745 1.678.055 1.201-.695z" fill="#1c1c1c"/><path data-name="パス 377" d="M106.63 74.51h7.652a.688.688 0 000-1.375h-7.652a.688.688 0 000 1.375z" fill="#1c1c1c"/><path data-name="パス 378" d="M110.872 59.883a89.067 89.067 0 01-2.194-1.582c1.315-1.392 2.9-3.018 4.317-4.475-.878 1.394-1.7 2.59-2.6 3.912.831.388 2.031.9 2.814 1.243a779.54 779.54 0 01-5.217 4.687 344.236 344.236 0 012.88-3.785z" fill="#979af3"/><path data-name="パス 379" d="M111.219 59.29a75.74 75.74 0 01-2.194-1.582l.139 1.08a404.92 404.92 0 014.317-4.475l-1.08-.833a133.947 133.947 0 01-2.6 3.912.69.69 0 00.247.941c.93.431 1.876.827 2.813 1.243l-.139-1.08q-2.594 2.359-5.216 4.687l1.08.833c.548-.739 1.107-1.469 1.666-2.2l.775-1.011.286-.371c.021-.029.129-.167.044-.057s-.013.016.006-.008a.71.71 0 000-.972.692.692 0 00-.972 0c-1.01 1.3-2.012 2.6-2.992 3.925a.681.681 0 00.177.888.7.7 0 00.9-.054q2.616-2.336 5.217-4.687a.692.692 0 00-.139-1.08c-.937-.415-1.883-.812-2.814-1.243l.247.941a118.916 118.916 0 002.6-3.912.69.69 0 00-1.08-.833c-1.446 1.484-2.894 2.969-4.317 4.475a.7.7 0 00.139 1.08 73.88 73.88 0 002.194 1.582.694.694 0 00.941-.247.7.7 0 00-.245-.942z" fill="#979af3"/></g><g data-name="グループ 407"><path d="M35.788 73.295a.837.837 0 00.525-.231.645.645 0 00.19-.468.6.6 0 00-.216-.495.719.719 0 00-.554-.137 6.2 6.2 0 01-3.448-.963 4.847 4.847 0 01-2.357-3.6 1.049 1.049 0 00-.25-.533.6.6 0 00-.445-.177.667.667 0 00-.5.221.724.724 0 00-.124.662 6.176 6.176 0 002.9 4.488 7.637 7.637 0 004.279 1.233z" fill="#979af3"/><path data-name="water_drop_24dp_1F1F1F_FILL0_wght200_GRAD0_opsz24" d="M35.534 77a10.046 10.046 0 01-7.524-3.105A10.67 10.67 0 0125 66.164a10.009 10.009 0 01.932-4.125 21.964 21.964 0 012.331-3.987 35.628 35.628 0 013.02-3.6q1.622-1.692 3.011-2.944a2.07 2.07 0 01.591-.375 1.7 1.7 0 01.654-.132 1.7 1.7 0 01.654.132 2.07 2.07 0 01.591.375q1.39 1.252 3.011 2.944a35.626 35.626 0 013.02 3.6 21.964 21.964 0 012.331 3.987 10.009 10.009 0 01.932 4.125 10.66 10.66 0 01-3.015 7.731A10.064 10.064 0 0135.534 77zm.005-1.505a8.612 8.612 0 006.474-2.654 9.237 9.237 0 002.559-6.681 11.667 11.667 0 00-2.277-6.21 42.068 42.068 0 00-6.756-7.565 42.068 42.068 0 00-6.756 7.565 11.667 11.667 0 00-2.277 6.21 9.237 9.237 0 002.559 6.681 8.612 8.612 0 006.474 2.653z" fill="#1c1c1c"/></g></g></g></svg>