<svg xmlns="http://www.w3.org/2000/svg" width="140" height="140"><g data-name="グループ 744"><path data-name="パス 134" d="M128.148 11.852c21.517 21.517 12.926 64.993-19.188 97.108s-75.59 40.7-97.107 19.187S-1.073 63.154 31.04 31.04s75.591-40.7 97.108-19.188" fill="#fff"/><g data-name="3175"><path data-name="パス 135" d="M92.973 47.248a2.22 2.22 0 011.777-.52 2.1 2.1 0 011.508 1 2.958 2.958 0 01.311 1.192 8.885 8.885 0 01-.907 4.71 5.646 5.646 0 01-1.46 1.916 3.744 3.744 0 01-1.741.785l-.3.047c-.143.534-.3.985-.382 1.223a18.782 18.782 0 01-5.865 7.269 12.664 12.664 0 00.373 2.95c.211 1.2.145 2.281 1.819 2.885.111.04 1.968.9 2.218 1.008 0 0-2.5 7.19-12.171 7.19s-10.54-7.779-10.54-7.779c.2-.088 1.029-.378 1.14-.42 1.674-.6 1.607-1.679 1.819-2.884a20.5 20.5 0 00.346-2.558 13.436 13.436 0 01-3.792-3.222 15.112 15.112 0 01-2.88-5.621l-.568-.087a3.744 3.744 0 01-1.741-.785 5.645 5.645 0 01-1.46-1.916 8.882 8.882 0 01-.907-4.71 2.963 2.963 0 01.311-1.192 2.1 2.1 0 011.508-1 2.221 2.221 0 011.777.52s.7-11.766 14.756-11.766 15.051 11.765 15.051 11.765z" fill="#fff"/><path data-name="パス 136" d="M53.703 77.006c.5-.4 9.573-4.978 14.183-7.184l3.293-1.388c.76 1.46 1.86 3.365 2.269 4.086 1.116 1.97 3.236 5.486 4.606 7.36l.067.091.426-.6c.721-1.011 2.747-3.908 3.2-4.546.781-1.1 2.7-4.33 3.947-6.444 1.164.473 2.206.894 2.206.894 4.014 1.782 11.5 5.46 14.376 6.985l.47.233c4.529 2.241 9.937 9.469 15.414 17.159 1.8 2.521 5.855 7.307 5.339 10.6-.55 3.511-3.519 8.474-5.645 11.232-2.911 3.777-5.905 8.069-9.034 11.03-2.326-1.758-5.7-5.235-7.967-7.11 1.537-3.178 6.986-12.517 7.766-14.61 1.672 1.048-5.511-6.1-7.9-8.427l-.052-.052-.02.165c-.036 1.485-.052 16.35-.061 27.164h-43.7c0-4.7.01-11.453.009-17.069a23.694 23.694 0 01-1.918 3.817 17.678 17.678 0 01-2.632 3.653c-2.31 2.527-5.55 3.954-9.164 2.4-3.535-1.52-4.756-4.734-6.363-7.667a135.331 135.331 0 01-7.873-18.153c1.4-.841 9.245-5.155 10.168-5.336.73 1.034 5.5 10.064 7.65 13.682l.21-.846c.164-.692.721-4.111 1.116-5.43.959-4.084 1.892-8.036 2.482-10.3a13.354 13.354 0 012.214-4.77 8.329 8.329 0 011.133-.777" fill="#979af3"/><path data-name="パス 137" d="M30.502 89.347c-.825-1.292-2.484-2.434-3.348-3.816a25.768 25.768 0 01-2.358-6.071c-.754-1.825.383-4.172 1.95-5.333a11.4 11.4 0 013.756-1.882c.723-2.53-.224-4.87 2.163-4.687 1.961.151 1.99 3.321 2.042 4.855.672 1.627.614 1.954-.311 2.584a1.828 1.828 0 012.229.967 1.994 1.994 0 01-1.123 2.361c1.389-.448 1.735.548 1.944 1.114a1.639 1.639 0 01-.806 2.133c2.1.28.982 3.341-.3 3.868l.552.785z" fill="#fff"/><path data-name="パス 138" d="M108.422 126.558c0 1.054-1.819 2.881-3.647 3.017a8.291 8.291 0 01-4.36-1.166 2.8 2.8 0 00-1.93-.106 9.583 9.583 0 00-2.125 1.421 19.4 19.4 0 01-3.513 2.057 2.949 2.949 0 01-1.751-.255 1.261 1.261 0 01-.246-1.918 1.525 1.525 0 01-2.206-.244 1.588 1.588 0 01.6-2.349 1.379 1.379 0 01-2-.334 1.845 1.845 0 01.03-2.077 32.85 32.85 0 014.036-3.135l.771-.386c-1.388.006-3.2 0-4.1-.022-.831-.022-2.157-.02-2.18-1.27a1.59 1.59 0 011.487-1.677c.8-.026 2.691-.054 3.516-.054 1.026 0 2.863 0 3.813-.027a11.674 11.674 0 016.583 1.493z" fill="#fff"/><path data-name="パス 139" d="M88.1 68.258a15.16 15.16 0 00-1.641-1.182c-.947 1.627-3.486 5.943-4.565 7.539.462.29.752.474.752.474.879.558 6.259 2.133 6.935 1.982.04-1.982.04-6.021-.032-7.355a8.4 8.4 0 00-1.449-1.458z" fill="#979af3"/><path data-name="パス 140" d="M69.248 68.132a15.3 15.3 0 011.32-.951c.557 1.306 2.332 4.377 2.878 5.34.363.638.829 1.438 1.341 2.292l-.688.437c-.879.558-5.81 1.97-6.485 1.82-.04-1.982-.04-6.021.032-7.355a8.861 8.861 0 011.602-1.583z" fill="#979af3"/><path data-name="パス 141" d="M26.569 74.138l.453-.2a10.967 10.967 0 013.476-1.69 9.38 9.38 0 00.3-1.739c-.317-.8-.612-1.607-.78-2.027-.528-1.314-1.015-2.423-.466-3.834a18.374 18.374 0 001.318-4.029c.408-2.686-2.542-6.008-4.941-6.508.089.752.4 4.039.441 4.827a11.463 11.463 0 01-2.16 1.4 8.037 8.037 0 01-2.256-.74c-.171-.809-.82-4.346-.975-4.869a6.693 6.693 0 00-3.064 3.947 5.135 5.135 0 00.3 4.186 9.96 9.96 0 003.948 3.158c1.368.782 1.9 2.322 2.5 3.624.352.752 1.652 4.003 1.906 4.494z" fill="#c3c3c3"/><path data-name="パス 142" d="M93.336 30.93a18.911 18.911 0 00-15.266-7.86c-6.861 0-16.923 5.377-17.8 15.022a27.437 27.437 0 00.245 7.537l.546.233c1.292.555 5.844-1.251 8.142-1.8a32.233 32.233 0 0117.746 0c2.3.552 6.85 2.358 8.142 1.8l.546-.233a27.438 27.438 0 00.245-7.537 15.131 15.131 0 00-2.541-7.162z" fill="#969af2"/><path data-name="パス 143" d="M71.237 67.625a21.332 21.332 0 00.307-2.363.626.626 0 00-.622-.622.636.636 0 00-.622.622q-.033.535-.1 1.067l.022-.165a30.93 30.93 0 01-.181 1.131.671.671 0 00.063.479.622.622 0 001.137-.148z" fill="#1c1c1c"/><path data-name="パス 144" d="M85.296 65.072a10.617 10.617 0 00.12 1.459c.064.41.155.816.231 1.224a.625.625 0 00.765.434.639.639 0 00.435-.765c-.074-.4-.163-.794-.227-1.194l-.018-.119c-.016-.1.017.136.008.058l-.008-.062q-.017-.141-.028-.283c-.02-.25-.029-.5-.033-.752a.622.622 0 00-1.244 0z" fill="#1c1c1c"/><path data-name="パス 145" d="M67.158 69.486c-4.181 2.013-8.348 4.074-12.449 6.246a9.71 9.71 0 00-1.445.837.625.625 0 000 .88.638.638 0 00.88 0c-.23.179-.042.039.022 0 .082-.05.165-.1.249-.144.253-.143.51-.28.767-.416.815-.433 1.635-.855 2.456-1.276q3.291-1.686 6.61-3.322 1.766-.873 3.54-1.73a.628.628 0 00.223-.851.635.635 0 00-.851-.223z" fill="#1c1c1c"/><path data-name="パス 146" d="M89.325 70.61c4.167 1.925 8.311 3.925 12.375 6.058.311.163.62.327.926.5.1.052.191.107.285.163.067.041.292.2.062.026a.642.642 0 00.88 0 .626.626 0 000-.88 8.1 8.1 0 00-1.2-.709c-.782-.415-1.572-.818-2.362-1.218q-3.276-1.656-6.588-3.242-1.869-.9-3.751-1.771a.64.64 0 00-.851.223.627.627 0 00.223.851z" fill="#1c1c1c"/><path data-name="パス 147" d="M53.604 76.308a4.639 4.639 0 00-1.376 1.018 10.141 10.141 0 00-1.318 2.243 26.233 26.233 0 00-1.361 4.335 524.485 524.485 0 00-1.292 5.373c-.382 1.616-.81 3.227-1.146 4.854-.263 1.272-.443 2.566-.737 3.83-.181.777 1.018 1.111 1.2.331.25-1.077.408-2.178.622-3.263.291-1.475.674-2.931 1.018-4.394.43-1.823.861-3.646 1.305-5.466a38.926 38.926 0 011.133-4.138 11.744 11.744 0 011.216-2.485 4.86 4.86 0 01.356-.484.94.94 0 01.087-.079c-.094.085.107-.078.13-.092a9.055 9.055 0 01.792-.509c.7-.39.073-1.465-.628-1.074z" fill="#1c1c1c"/><path data-name="パス 148" d="M57.532 124.271h30.351a.622.622 0 000-1.244H57.532a.622.622 0 000 1.244z" fill="#1c1c1c"/><path data-name="パス 149" d="M27.105 73.824c-.2-.4-.337-.762-.484-1.112-.255-.61-.507-1.222-.761-1.832a26.982 26.982 0 00-1.665-3.637 5.089 5.089 0 00-1.847-1.837 18.138 18.138 0 01-2.2-1.365 5.287 5.287 0 01-1.653-1.961 4.421 4.421 0 01-.138-2.562 6.764 6.764 0 012.06-3.687 3.264 3.264 0 01.386-.314c.073-.049.148-.094.225-.137.026-.015.053-.028.08-.041.094-.046-.126.045.03-.011l-.765-.434c.259.9.391 1.857.569 2.778.1.531.2 1.063.307 1.594a5.029 5.029 0 00.1.5c.1.318.381.436.657.554a9.368 9.368 0 001.72.577 1.284 1.284 0 00.868-.048 5.65 5.65 0 00.7-.389c.292-.184.578-.378.858-.58s.719-.431.814-.777a1.8 1.8 0 00-.006-.588c-.02-.273-.044-.546-.067-.818-.1-1.2-.2-2.394-.344-3.586l-.787.6a5.628 5.628 0 012.733 1.689 6.349 6.349 0 011.719 3.017 6.887 6.887 0 01-.749 3.777 8.868 8.868 0 00-.76 2.354 4.979 4.979 0 00.339 2.143 39.257 39.257 0 001.751 4.259c.357.717 1.43.087 1.074-.628-.6-1.207-1.067-2.5-1.543-3.756a4.148 4.148 0 01-.363-2.073 11.7 11.7 0 01.829-2.286A7.267 7.267 0 0031.395 59a7.59 7.59 0 00-1.894-3.351 6.885 6.885 0 00-3.406-2.141c-.352-.078-.837.174-.787.6.187 1.6.352 3.217.441 4.827l.181-.441a12.225 12.225 0 01-1.046.75c-.189.123-.38.244-.576.355-.078.044-.174.08-.247.131s.121-.06.118-.012c0 0 .052.013-.036-.008l-.111-.023a5.722 5.722 0 01-.287-.073 11.263 11.263 0 01-.616-.194 3.327 3.327 0 01-.862-.361l.285.372c-.177-.845-.33-1.694-.494-2.542-.149-.773-.264-1.57-.482-2.327a.628.628 0 00-.765-.434 4.531 4.531 0 00-1.8 1.37 8.417 8.417 0 00-1.516 2.461 7.49 7.49 0 00-.5 2.92 4.851 4.851 0 001.116 2.9 8.284 8.284 0 002.07 1.806 13.5 13.5 0 012.26 1.425 6.781 6.781 0 011.325 2.159c.14.313.282.625.421.939.045.1.088.2.131.3l.123.292c.523 1.246.978 2.544 1.583 3.753.359.716 1.432.087 1.074-.628z" fill="#1c1c1c"/><path data-name="パス 150" d="M27.056 74.664a11.086 11.086 0 015.382-2.163 3.77 3.77 0 011.237.048.745.745 0 01.591.435 4.024 4.024 0 01.232.709q.017.072.03.144c-.005-.054 0-.044 0 .03 0 .026.006.273.005.115a.236.236 0 01-.095.183 2.042 2.042 0 01-.363.294.625.625 0 00.479 1.137 1.21 1.21 0 011.526.7.963.963 0 01-.114.712 1.975 1.975 0 01-.783.779.625.625 0 00.479 1.137 1.43 1.43 0 01.55-.088.44.44 0 01.246.093c-.087-.069.078.078.095.095.1.1-.026-.049.042.057.041.064.075.13.112.2l.047.1q-.035-.087-.01-.026c.271.654.293 1.34-.424 1.683a.628.628 0 00.149 1.137 1.162 1.162 0 01.482.156c.062.038-.06-.054.026.02.012.01.112.116.059.054-.029-.033.069.112.092.157-.055-.111 0-.007 0 .024s.023.087.035.13c.031.116 0-.049.007.026 0 .047.007.094.008.142a2.3 2.3 0 01-.011.264c-.006.068.015-.07-.007.044-.01.051-.02.1-.032.151a2.753 2.753 0 01-.452 1 .528.528 0 01-.107.138c-.065.072-.13.141-.2.207-.011.01-.126.106-.063.058s-.067.044-.067.044a1.81 1.81 0 01-.221.116.626.626 0 00-.223.851.638.638 0 00.851.223c1.843-.8 2.74-4.613.149-5l.148 1.137a2.177 2.177 0 001.178-1.481 2.759 2.759 0 00-.2-1.656 2.306 2.306 0 00-.837-1.116 2.093 2.093 0 00-1.755-.13l.479 1.137a2.688 2.688 0 001.447-2.965 2.468 2.468 0 00-3.034-1.5l.479 1.137a1.911 1.911 0 001.063-1.729 2.754 2.754 0 00-1.228-2.252 4.316 4.316 0 00-2.516-.248 11.52 11.52 0 00-2.843.729 14.135 14.135 0 00-2.754 1.557.639.639 0 00-.223.851.628.628 0 00.851.223z" fill="#1c1c1c"/><path data-name="パス 151" d="M29.421 77.853c.953-.389 1.893-.811 2.836-1.224l1.555-.681.579-.252.207-.09c.168-.072-.143.059.013-.005a.642.642 0 00.434-.765.626.626 0 00-.765-.435c-.855.35-1.7.734-2.542 1.1l-1.624.709-.667.287c-.054.023-.35.147-.149.064l-.212.088a.642.642 0 00-.434.765.626.626 0 00.765.434z" fill="#1c1c1c"/><path data-name="パス 152" d="M30.813 81.084c1.653-.933 3.288-1.436 4.98-2.212a.626.626 0 00.223-.851.636.636 0 00-.851-.223l-.134.059-.078.033c-.1.044.151-.063.012 0l-.537.224q-.742.308-1.482.622a27.349 27.349 0 00-2.761 1.279.623.623 0 00.628 1.074z" fill="#1c1c1c"/><path data-name="パス 153" d="M32.706 84.077c1.472-.649 2.909-1.376 4.358-2.076a.628.628 0 00.223-.851.635.635 0 00-.852-.223c-1.448.7-2.885 1.425-4.357 2.076a.626.626 0 00-.223.851.637.637 0 00.851.223z" fill="#1c1c1c"/><path data-name="パス 154" d="M26.427 73.591a6.422 6.422 0 00-2.229 3.053 4.68 4.68 0 00-.255 1.869 8.531 8.531 0 00.343 1.486 29.581 29.581 0 001.031 3.108 13.106 13.106 0 001.638 3.226c.907 1.188 2.187 2.075 3.006 3.328.436.668 1.514.045 1.074-.628a22.93 22.93 0 00-2.568-2.829 9.532 9.532 0 01-1.705-2.825 29.477 29.477 0 01-1.086-3.046 6.117 6.117 0 01-.469-2.6 4.89 4.89 0 011.849-3.071.642.642 0 00.223-.851.627.627 0 00-.851-.223z" fill="#1c1c1c"/><path data-name="パス 155" d="M31.525 69.27c0-.04.009-.079.014-.119 0 .026-.019.115 0-.007l.033-.191a3.086 3.086 0 01.105-.394c.048-.144-.036.041.02-.045a2.8 2.8 0 00.09-.153c-.058.1-.02.023.026-.024l.063-.059c.048-.045-.119.057 0 .006.027-.012.161-.081.09-.052s.088-.025.115-.031l.105-.022c-.026.005-.122.007.006 0 .085-.005.17-.01.256-.009s.176.006.264.014c-.126-.011 0 0 .052.015s.1.033.155.046c.1.026 0 0-.022-.011.033.017.067.033.1.052s.087.056.132.082c.091.052 0 0-.02-.017.022.02.046.038.067.059.038.037.075.073.111.112.02.022.039.046.06.068.049.054-.061-.1 0 0s.13.2.185.305c.026.052.051.1.076.156.012.026.044.109 0-.01l.046.119a5.437 5.437 0 01.22.795c.026.126.048.252.068.379 0 .028.033.249.016.108l.026.218c.061.572.078 1.148.1 1.722a.622.622 0 001.244 0 10.711 10.711 0 00-.537-3.719 2.728 2.728 0 00-1.241-1.494 2.55 2.55 0 00-2.258.019 2.514 2.514 0 00-1.007 2.082.626.626 0 00.622.622.637.637 0 00.622-.622z" fill="#1c1c1c"/><path data-name="パス 156" d="M57.499 123.633l.009-13.087q0-5.8-.01-11.592a20.1 20.1 0 00-.046-2.666c-.1-.748-.233-1.494-.355-2.239q-.769-4.728-1.553-9.454c-.408-2.488-.843-4.973-1.2-7.468a4.922 4.922 0 00-.016-.12.641.641 0 00-.622-.622.626.626 0 00-.622.622c.086.769.226 1.535.348 2.3q.342 2.139.695 4.276.8 4.9 1.608 9.789c.159.974.321 1.947.471 2.922.016.1.026.2.046.3-.032-.169-.013-.158-.013-.038v.205c.006.434.008.868.01 1.3.019 3.609.015 7.218.015 10.826q0 6.669-.008 13.338v1.4a.622.622 0 001.244 0z" fill="#1c1c1c"/><path data-name="パス 157" d="M102.31 77.142c-.181 1.647-.385 3.293-.58 4.939l-1 8.409-.686 5.75a16.1 16.1 0 00-.047 1.81q-.015 2.268-.019 4.537-.02 7.157-.023 14.313v2.059a.622.622 0 001.244 0q.007-7.464.022-14.93.006-2.549.017-5.1c0-.818-.042-1.659.026-2.474.139-1.669.4-3.337.6-5l1-8.413c.224-1.9.452-3.791.67-5.688l.024-.214a.626.626 0 00-.622-.622.636.636 0 00-.622.622z" fill="#1c1c1c"/><path data-name="パス 158" d="M77.57 79.881c0 1.835.009 3.67.015 5.505l.036 10.162.044 11.831.038 10.3q.01 2.857.018 5.715v.235a.622.622 0 001.244 0c0-1.653-.009-3.306-.015-4.959l-.036-9.882-.044-11.815-.038-10.552q-.01-3.113-.018-6.227v-.313a.622.622 0 00-1.244 0z" fill="#1c1c1c"/><path data-name="パス 159" d="M48.087 99.904a23.856 23.856 0 01-1.282-2.094 222.049 222.049 0 01-1.928-3.437c-1.337-2.422-2.65-4.857-3.994-7.274a23.854 23.854 0 00-1.233-2.122.651.651 0 00-.7-.285 6.309 6.309 0 00-1.354.572c-.752.363-1.494.746-2.233 1.134q-2.518 1.319-5 2.708c-.579.323-1.16.644-1.728.985a.634.634 0 00-.285.7c.771 2.471 1.778 4.88 2.773 7.267 1.349 3.232 2.773 6.441 4.376 9.556a137.502 137.502 0 002.274 4.274 12.8 12.8 0 003.011 3.822 8.816 8.816 0 005.2 2 8.216 8.216 0 004.915-1.564 14.168 14.168 0 003.578-3.771 31.981 31.981 0 002.618-4.682c.144-.328.284-.66.411-.995a.627.627 0 00-.434-.765.636.636 0 00-.765.434 28.18 28.18 0 01-2.377 4.535 15.372 15.372 0 01-2.832 3.5 7.623 7.623 0 01-4.24 2.028 7.312 7.312 0 01-4.837-1.333 10.414 10.414 0 01-2.954-3.445c-.782-1.34-1.484-2.734-2.206-4.107-1.555-2.958-2.931-6.012-4.235-9.089-1.037-2.444-2.049-4.911-2.9-7.428q-.1-.283-.185-.568l-.285.7c1.236-.743 2.511-1.425 3.776-2.113 1.607-.875 3.218-1.746 4.859-2.555.316-.156.634-.311.957-.452.088-.039.181-.073.055-.024l.146-.058a1.607 1.607 0 01.227-.071l-.7-.285a20.4 20.4 0 011.045 1.781c.609 1.088 1.207 2.183 1.805 3.277 1.354 2.475 2.7 4.957 4.095 7.406a27.064 27.064 0 001.495 2.465.64.64 0 00.851.223.627.627 0 00.223-.851z" fill="#1c1c1c"/><path data-name="パス 160" d="M100.272 96.812c2.339 2.279 4.672 4.575 6.894 6.968.231.249.461.5.685.756.084.1.167.193.248.291l.11.137c-.084-.1-.044-.058.007.012a.64.64 0 00.851.223.627.627 0 00.223-.851 26.808 26.808 0 00-2.592-2.864 285.086 285.086 0 00-3.833-3.867q-.854-.846-1.714-1.685c-.574-.559-1.454.32-.88.88z" fill="#1c1c1c"/><path data-name="パス 161" d="M111.971 103.294c.413-.126.837-.214 1.253-.329a11.2 11.2 0 001.759-.629.625.625 0 00.223-.851.639.639 0 00-.851-.223l-.193.086c-.07.031.107-.042 0 0l-.089.035q-.2.078-.4.146c-.269.091-.541.171-.815.246-.4.11-.812.2-1.211.317a.622.622 0 00.331 1.2z" fill="#1c1c1c"/><path data-name="パス 162" d="M34.367 93.999c2.361-1.289 4.678-2.665 7.077-3.882.714-.363.085-1.436-.628-1.074-2.4 1.218-4.717 2.593-7.077 3.882-.703.383-.076 1.458.628 1.074z" fill="#1c1c1c"/><path data-name="パス 163" d="M103.624 116.018a32.909 32.909 0 015.208 4.256c.544.59 1.422-.292.88-.88a34.55 34.55 0 00-5.463-4.451.627.627 0 00-.851.223.635.635 0 00.226.852z" fill="#1c1c1c"/><path data-name="パス 164" d="M101.516 118.989a12.327 12.327 0 00-5.971-1.581c-.966-.02-1.935.023-2.9.027-.846 0-1.693 0-2.54.007a140.6 140.6 0 00-2.6.044 2.253 2.253 0 00-2.2 1.515 1.9 1.9 0 00.8 2.346 4.767 4.767 0 002.109.34c1.766.035 3.536.032 5.3.006a.622.622 0 000-1.244c-1.448.022-2.9.019-4.345.007-.617-.005-1.237 0-1.853-.048a1.8 1.8 0 01-.694-.2.638.638 0 01-.141-.158c.024.051-.037-.111-.043-.147a1.044 1.044 0 01-.008-.209 1.057 1.057 0 01.394-.787 1.349 1.349 0 01.853-.184q1.215-.03 2.431-.039c1.6-.015 3.207-.016 4.81-.037a11.429 11.429 0 015.974 1.414.622.622 0 00.628-1.074z" fill="#1c1c1c"/><path data-name="パス 165" d="M90.997 120.93a6.089 6.089 0 00-.745.492c-.392.28-.777.569-1.158.862a23.4 23.4 0 00-2.261 1.879.622.622 0 00.88.88c.289-.288.6-.552.916-.812q.3-.253.614-.5l.281-.222.162-.126.081-.062c.378-.291.761-.577 1.15-.854a5.857 5.857 0 01.713-.469.622.622 0 00-.628-1.074z" fill="#1c1c1c"/><path data-name="パス 166" d="M94.531 122.302c-1.954 1.365-3.848 2.815-5.733 4.274a.625.625 0 000 .88.638.638 0 00.88 0c1.774-1.374 3.619-2.778 5.481-4.08a.638.638 0 00.223-.851.627.627 0 00-.851-.223z" fill="#1c1c1c"/><path data-name="パス 167" d="M96.298 124.855c-1.977 1.322-3.839 2.818-5.763 4.216a.64.64 0 00-.223.851.627.627 0 00.851.223c1.923-1.4 3.786-2.893 5.763-4.216a.637.637 0 00.223-.851.628.628 0 00-.851-.223z" fill="#1c1c1c"/><path data-name="パス 168" d="M86.833 124.164a2.367 2.367 0 00-.221 2.682 2.035 2.035 0 002.94.7.622.622 0 00-.628-1.074 2.237 2.237 0 00-.9 3.081 2.167 2.167 0 003.136.586l-.754-.977a1.911 1.911 0 00-.222 2.316 2.5 2.5 0 002 .957 3.752 3.752 0 002.168-.688c.711-.4 1.384-.863 2.061-1.317s1.253-1.033 1.959-1.414a2.532 2.532 0 012.358.21c1.555.715 3.317 1.336 5.028.774a5.606 5.606 0 002.289-1.468 3.164 3.164 0 001-1.982.622.622 0 00-1.244 0c0 .024-.028.188 0 .055a1.576 1.576 0 01-.048.176 1.1 1.1 0 01-.1.224 3.158 3.158 0 01-.482.648 4.42 4.42 0 01-1.562 1.085 5.272 5.272 0 01-4.069-.5 5.053 5.053 0 00-2.345-.677 3.867 3.867 0 00-2.255.941 24.7 24.7 0 01-3.476 2.321c-.169.09-.341.178-.516.255a4.04 4.04 0 01-.181.074c-.023.009-.235.063-.173.055a2.35 2.35 0 01-.925-.123c-.238-.071-.374-.113-.478-.365a.627.627 0 01.1-.671c.449-.5-.14-1.394-.754-.977-.484.329-1.079.42-1.434-.14a.984.984 0 01.451-1.379l-.628-1.074a.743.743 0 01-.8.145.982.982 0 01-.449-.43 1.581 1.581 0 01-.106-.708 1.1 1.1 0 01.052-.291c.033-.105-.008-.059.1-.15.607-.524-.276-1.4-.88-.88z" fill="#1c1c1c"/><path data-name="パス 169" d="M102.429 77.037a16.447 16.447 0 013.846 2.838 49.585 49.585 0 014.2 4.583c2.881 3.494 5.43 7.23 8.132 10.859a40.706 40.706 0 013.01 4.46 12.132 12.132 0 011.028 2.3 6.673 6.673 0 01.24 1.044 4.5 4.5 0 01.031.542c0 .082 0 .164-.008.246 0 .044-.023.236-.015.178a16.924 16.924 0 01-1.885 5.2 39.15 39.15 0 01-3.058 5.018c-1.292 1.8-2.669 3.552-4.017 5.313a64.465 64.465 0 01-4.421 5.313q-.555.584-1.139 1.14l.754-.1c-2.791-2.12-5.145-4.776-7.841-7.013l.1.754c.959-1.976 2.055-3.887 3.116-5.809 1.206-2.183 2.428-4.359 3.58-6.572a22 22 0 001.13-2.375.627.627 0 00-.435-.765.636.636 0 00-.765.435c-.02.054-.043.108-.064.163-.045.115.063-.144.011-.026l-.043.1a14.38 14.38 0 01-.226.488 44.88 44.88 0 01-.571 1.14 151.664 151.664 0 01-1.621 3.029c-1.229 2.248-2.483 4.483-3.7 6.735-.508.937-1.018 1.874-1.483 2.833a.637.637 0 00.1.754c2.78 2.307 5.212 5.019 8.093 7.207a.625.625 0 00.754-.1c3.459-3.287 6.163-7.3 9.06-11.064a38.878 38.878 0 003.141-4.794 24.756 24.756 0 002.4-5.577 6.5 6.5 0 00.273-2.4 8.941 8.941 0 00-.726-2.542 25.364 25.364 0 00-2.893-4.769c-2.631-3.624-5.217-7.289-8-10.8a63.2 63.2 0 00-4.369-5.042 22.991 22.991 0 00-4.147-3.479q-.459-.287-.943-.529c-.714-.357-1.345.716-.628 1.074z" fill="#1c1c1c"/><path data-name="パス 170" d="M69.923 67.237a42.823 42.823 0 002.562 4.851 140.136 140.136 0 003.029 5.1c.641 1.02 1.293 2.036 2 3.01a.64.64 0 00.851.223.627.627 0 00.223-.851c-1.3-1.778-2.438-3.674-3.561-5.564q-1.357-2.284-2.634-4.616c-.263-.479-.523-.96-.773-1.447l-.3-.6a11.657 11.657 0 01-.13-.276l-.057-.126c-.055-.124.037.092-.014-.034a.642.642 0 00-.765-.434.626.626 0 00-.431.764z" fill="#1c1c1c"/><path data-name="パス 171" d="M85.929 66.758a304.937 304.937 0 01-3.156 5.307c-.889 1.456-1.843 2.852-2.823 4.248-.644.918-1.286 1.837-1.937 2.75a.627.627 0 00.223.851.636.636 0 00.851-.223c1.07-1.5 2.121-3.013 3.181-4.521 1.133-1.612 2.111-3.342 3.116-5.034q.815-1.372 1.618-2.751a.622.622 0 00-1.073-.627z" fill="#1c1c1c"/><path data-name="パス 172" d="M70.209 66.535a13.287 13.287 0 00-2.243 1.853 6.741 6.741 0 00-.8.929 1.659 1.659 0 00-.166.909 128.117 128.117 0 00-.037 4.427c0 .806.009 1.611.026 2.417a.631.631 0 00.457.6 3.818 3.818 0 001.463-.133 29.361 29.361 0 002-.5c.689-.194 1.374-.4 2.051-.64a7.378 7.378 0 001.451-.609c.68-.421.055-1.5-.628-1.074a2.443 2.443 0 01-.23.123l-.111.052c-.158.074.043-.015-.065.028-.248.1-.5.193-.75.281-.653.228-1.314.43-1.979.619-.648.184-1.3.356-1.955.5a9.26 9.26 0 01-.722.133c.186-.028-.078.007-.138.01-.13.006-.219-.018-.058.014l.457.6c-.048-2.445-.1-4.912.032-7.355l-.085.314a10.161 10.161 0 012.652-2.419c.668-.436.045-1.513-.628-1.074z" fill="#1c1c1c"/><path data-name="パス 173" d="M86.349 67.737a10.021 10.021 0 012.663 2.288l-.085-.314c.128 2.443.08 4.91.032 7.355l.457-.6c-.069.013.2.009.067-.012a1.043 1.043 0 00-.107 0c-.044 0-.087-.008-.13-.011-.176-.014.1.017-.026 0q-.4-.067-.8-.158c-.7-.158-1.4-.348-2.1-.549a42.009 42.009 0 01-2.119-.67q-.42-.147-.834-.311c-.109-.044.1.05-.055-.024-.047-.022-.094-.042-.14-.065a2.331 2.331 0 01-.211-.114c-.683-.423-1.308.653-.628 1.074a6.131 6.131 0 001.088.478c.533.2 1.073.376 1.616.544a34.279 34.279 0 003.4.911 3.424 3.424 0 001.3.11.628.628 0 00.457-.6c.029-1.487.032-2.974.024-4.461 0-.7-.01-1.4-.027-2.1-.006-.242-.008-.485-.026-.727a1.848 1.848 0 00-.655-1.065 14.176 14.176 0 00-2.543-2.049c-.674-.437-1.3.639-.628 1.074z" fill="#1c1c1c"/><path data-name="パス 174" d="M95.098 87.157c-2.535.012-5.07.038-7.6.059l-1.807.015a8.69 8.69 0 00-1.62.048 1.532 1.532 0 00-.946.622 1.729 1.729 0 00-.228 1.1l.027 1.192a2.916 2.916 0 00.16 1.29c.524 1.009 1.786.814 2.736.81l3.191-.015c2.025-.011 4.061.04 6.085-.026a1.5 1.5 0 001.549-1.419c.013-.363 0-.731 0-1.095 0-.381.014-.766 0-1.147a1.507 1.507 0 00-1.543-1.431c-.8-.031-.8 1.213 0 1.244.285.011.3.132.3.359v1.1c0 .3.02.616 0 .919-.015.227-.243.222-.473.223-1.835 0-3.669.015-5.5.024l-2.949.015h-1.2a4.042 4.042 0 01-.887-.01c-.189-.045-.189-.109-.206-.256-.044-.389-.017-.8-.026-1.194l-.013-.59a1.248 1.248 0 010-.371c.056-.136.233-.14.374-.144.993-.033 1.991-.014 2.985-.023 2.535-.021 5.07-.047 7.6-.059a.622.622 0 00-.009-1.24z" fill="#1c1c1c"/><path data-name="パス 175" d="M83.431 93.712c0 1.481.036 2.962.05 4.442.009.881.017 1.764.015 2.646a1.987 1.987 0 00.389 1.443 1.836 1.836 0 001.508.518l6.326.007h2.848a1.636 1.636 0 001.5-.748 2.849 2.849 0 00.2-1.578c-.057-2.174-.165-4.349-.168-6.524a.622.622 0 00-1.244 0c0 1.805.085 3.612.137 5.416l.038 1.4c.007.287.116.732-.273.791a7.376 7.376 0 01-1.063-.007h-1.4l-6.134-.007a8.57 8.57 0 01-1.122 0c-.347-.048-.293-.357-.292-.634 0-.8 0-1.607-.011-2.409-.014-1.587-.052-3.175-.053-4.762a.622.622 0 00-1.244 0z" fill="#1c1c1c"/><path data-name="パス 176" d="M72.724 87.157c-2.566.014-5.13.045-7.694.07l-1.831.017a5.248 5.248 0 00-1.659.1 1.567 1.567 0 00-1.027 1.509c0 .164 0 .329.008.492q.078 5.195.151 10.39l.024 1.638a1.819 1.819 0 00.284 1.072 1.841 1.841 0 001.731.648q3.775-.08 7.551-.147l1.752-.026a2.344 2.344 0 001.807-.463 1.935 1.935 0 00.447-1.5V89.4a7.733 7.733 0 00-.015-.874 1.555 1.555 0 00-1.529-1.369c-.8-.034-.8 1.21 0 1.244.368.015.3.429.3.69v11.077c0 .373.011.748 0 1.121 0 .125 0 .233-.116.322-.143.108-.4.06-.57.062l-.781.01c-2.464.035-4.927.085-7.39.136l-1.455.031c-.309.007-.715.109-.768-.294a10.528 10.528 0 01-.017-1.183l-.147-10.151c-.006-.441-.016-.883-.02-1.325 0-.322.162-.4.47-.4l1.48-.012c2.506-.023 5.012-.052 7.519-.072l1.5-.011a.623.623 0 00-.005-1.245z" fill="#1c1c1c"/><path data-name="パス 177" d="M61.529 94.12a32.287 32.287 0 005.782 2.921 29.317 29.317 0 005.9 1.757.64.64 0 00.765-.434.627.627 0 00-.435-.765 29.208 29.208 0 01-5.805-1.717 30.805 30.805 0 01-5.583-2.835c-.671-.441-1.3.636-.628 1.074z" fill="#1c1c1c"/><path data-name="パス 178" d="M93.414 47.687a1.577 1.577 0 012.212.2 2.6 2.6 0 01.349 1.491 7.963 7.963 0 01-.1 1.613c-.339 1.967-1.384 4.364-3.576 4.738a.627.627 0 00-.434.765.637.637 0 00.765.435c2.211-.378 3.529-2.441 4.158-4.429a9.34 9.34 0 00.422-3.352 3.062 3.062 0 00-1.38-2.7 2.869 2.869 0 00-3.293.351.628.628 0 000 .88.635.635 0 00.88 0z" fill="#1c1c1c"/><path data-name="パス 179" d="M91.817 54.68a7.465 7.465 0 01-.348 1.872c-.07.238-.148.473-.227.708-.023.069-.045.138-.07.207l-.023.059c-.049.14.021-.044 0 0a15.237 15.237 0 01-.982 1.8 17.732 17.732 0 01-3.976 4.587 7.552 7.552 0 01-2.934 1.482c-.78.179-.45 1.378.331 1.2a11.043 11.043 0 005.526-3.774 19 19 0 003.071-4.579 9.66 9.66 0 00.876-3.56c.026-.8-1.218-.8-1.244 0z" fill="#1c1c1c"/><path data-name="パス 180" d="M63.609 46.809a2.857 2.857 0 00-2.89-.539 2.79 2.79 0 00-1.743 2.43 9.073 9.073 0 001.589 6.278 4.718 4.718 0 002.951 1.956.641.641 0 00.765-.435.627.627 0 00-.435-.765c-2.192-.374-3.237-2.772-3.576-4.738a7.963 7.963 0 01-.1-1.613 2.608 2.608 0 01.349-1.491 1.577 1.577 0 012.212-.2.638.638 0 00.88 0 .627.627 0 000-.88z" fill="#1c1c1c"/><path data-name="パス 181" d="M63.166 54.454a17.854 17.854 0 002.237 6.244 14.239 14.239 0 005.363 5.191 10.321 10.321 0 003.767 1.136.626.626 0 00.622-.622.636.636 0 00-.622-.622c-4.479-.463-7.966-4.475-9.37-8.511a19.875 19.875 0 01-.8-3.146.627.627 0 00-.765-.434.636.636 0 00-.434.765z" fill="#1c1c1c"/><path data-name="パス 182" d="M61.225 45.815a9.4 9.4 0 01-.447-2.888c-.055-1.16-.04-2.325.017-3.485a15.193 15.193 0 011.442-6.111 17.8 17.8 0 019.215-8.208 20.278 20.278 0 012.849-.939 15.952 15.952 0 012.661-.447 16.933 16.933 0 015.848.615 17.607 17.607 0 0110.253 7.3 14.622 14.622 0 012.191 6.442c.093 1.009.132 2.025.14 3.038a22.521 22.521 0 01-.168 3.383 6.363 6.363 0 01-.311 1.3.627.627 0 00.434.765.636.636 0 00.765-.435 10.744 10.744 0 00.491-3.219 36.483 36.483 0 00-.021-3.562 17.541 17.541 0 00-1.629-6.868 18.21 18.21 0 00-10.213-8.829 19.5 19.5 0 00-6.447-1.216 17.757 17.757 0 00-5.818.969 19.91 19.91 0 00-10.5 7.857 15.206 15.206 0 00-2.321 6.727 28.248 28.248 0 00.064 6.842 6.385 6.385 0 00.311 1.3.639.639 0 00.765.435.627.627 0 00.434-.765z" fill="#1c1c1c"/><path data-name="パス 183" d="M78.071 35.741a14.687 14.687 0 00-3.945.447 28.485 28.485 0 00-4.191 1.341 20.986 20.986 0 00-7.105 4.329 7.154 7.154 0 00-2.4 4.006.633.633 0 00.457.6 4.44 4.44 0 002.43-.082c1.082-.228 2.142-.558 3.2-.885.972-.3 1.941-.62 2.93-.857a56.606 56.606 0 013.9-.8 28.14 28.14 0 018.348-.166 43.8 43.8 0 017.1 1.565c1.207.373 2.412.766 3.642 1.056a11.156 11.156 0 001.633.279 2.633 2.633 0 001.18-.116.639.639 0 00.457-.6 6.562 6.562 0 00-1.948-3.541 15.584 15.584 0 00-3.39-2.761 29.241 29.241 0 00-7.808-3.238 15.417 15.417 0 00-4.491-.581c-.8.036-.8 1.28 0 1.244a18.965 18.965 0 017.583 1.656 20.041 20.041 0 016.538 3.864 10.722 10.722 0 011.572 1.8 5.787 5.787 0 01.5.879 3.029 3.029 0 01.12.333c.02.065.038.13.052.2.005.024.042.264.03.15l.457-.6c-.062.026-.125.039-.188.06-.161.052.064.01-.082.014a5.321 5.321 0 01-.546 0 3.8 3.8 0 01-.52-.068 13.145 13.145 0 01-.736-.151c-1.076-.249-2.132-.581-3.188-.909a48.445 48.445 0 00-6.86-1.617 29.135 29.135 0 00-8.4-.151 44.064 44.064 0 00-7.141 1.529c-1.185.364-2.366.752-3.569 1.053-.279.07-.56.136-.842.192a7.601 7.601 0 01-.652.107 4.092 4.092 0 01-.625.024l-.1-.007c-.156-.011.125.033-.016 0a1.751 1.751 0 01-.23-.069l.457.6c-.014.128.014-.079.015-.085.014-.066.029-.13.047-.2a3.182 3.182 0 01.114-.338 5.339 5.339 0 01.378-.715 9.5 9.5 0 011.323-1.638 14.754 14.754 0 013.076-2.394 28.375 28.375 0 017.37-3 14.072 14.072 0 014.069-.513c.795.034.793-1.209-.005-1.246z" fill="#1c1c1c"/><path data-name="パス 184" d="M75.506 59.132a5.826 5.826 0 002.806.648 4.539 4.539 0 002.807-.818.625.625 0 000-.88.638.638 0 00-.88 0c.181-.141.014-.015-.033.015s-.117.071-.177.1c-.037.019-.238.108-.095.05q-.121.049-.245.089a4.407 4.407 0 01-1.471.2 4.584 4.584 0 01-1.4-.189c-.09-.026-.177-.059-.265-.089-.029-.01-.057-.023-.086-.033.156.057.024.011-.006 0a7.563 7.563 0 01-.325-.162.635.635 0 00-.851.223.629.629 0 00.223.851z" fill="#1c1c1c"/><path data-name="パス 185" d="M78.051 52.448a13.524 13.524 0 01.317 1.449l-.022-.165a.877.877 0 01.005.2l.022-.165a.47.47 0 01-.022.09l.063-.148a.367.367 0 01-.032.058l.1-.126a.3.3 0 01-.047.047l.126-.1a.974.974 0 01-.115.061l.148-.063a.839.839 0 01-.193.056l.165-.022a.774.774 0 01-.181 0l.165.022c-.068-.01-.136-.026-.2-.035a.687.687 0 00-.479.062.622.622 0 00-.223.851.6.6 0 00.372.285c.145.02.285.057.434.063a1.361 1.361 0 00.625-.147.876.876 0 00.492-.581 1.5 1.5 0 00-.007-.639 15.77 15.77 0 00-.307-1.388.622.622 0 00-1.2.331z" fill="#1c1c1c"/><path data-name="パス 186" d="M70.273 48.376c-.242.787-.084 2.6 1.406 2.75 1.97-.012 2.073-2.2 1.411-3.228a1.559 1.559 0 00-2.817.478z" fill="#1c1c1c"/><path data-name="パス 187" d="M86.042 48.376c.242.787.084 2.6-1.406 2.75-1.97-.012-2.073-2.2-1.411-3.228a1.559 1.559 0 012.817.478z" fill="#1c1c1c"/></g></g></svg>