<svg xmlns="http://www.w3.org/2000/svg" width="335" height="89.252"><defs><clipPath id="a"><path data-name="パス 442" d="M0 0h31.669v25H0z" fill="none"/></clipPath><clipPath id="b"><path data-name="パス 437" d="M0 0h31.5v31.251H0z" fill="none"/></clipPath><clipPath id="c"><path data-name="パス 453" d="M0 0h27.5v27.5H0z" fill="none"/></clipPath><clipPath id="d"><path data-name="パス 447" d="M0 0h29.628v30H0z" fill="none"/></clipPath></defs><g data-name="グループ 665"><g data-name="グループ 573"><g data-name="グループ 212"><path data-name="パス 443" d="M236.703 19.086a10.119 10.119 0 01-.1 1.717h1.87a10.837 10.837 0 01-.087-1.628 4.5 4.5 0 01.884 1.424 11.57 11.57 0 002.635-1.649 10.344 10.344 0 003.332 1.768 9.039 9.039 0 01.867-1.666 10.126 10.126 0 01-3.009-1.207 13.1 13.1 0 001.938-2.907 2.556 2.556 0 01.272-.493l-.884-.97a7.841 7.841 0 01-1.271.069h-2.86a10.151 10.151 0 01-1.428-.069v1.6a9.456 9.456 0 011.275-.068h.442l-1.445.646a13.443 13.443 0 001.547 2.158 8.616 8.616 0 01-2.295 1.207v-6.222h5.9a12.863 12.863 0 011.784.085v-1.649a9.5 9.5 0 01-1.768.1h-12.019a9.293 9.293 0 01-1.751-.1v1.649a11.731 11.731 0 011.683-.085v5.27c-.714.051-1.19.085-1.462.085a1.655 1.655 0 01-.272-.017l.391 1.751c.425-.085 1.02-.187 2.38-.374 1.836-.272 1.836-.272 3.451-.578zm0-1.547c-1.6.238-1.989.289-2.822.374v-1.054h2.822zm0-1.921h-2.822v-.816h2.822zm0-2.057h-2.822v-.765h2.822zm6.426 1.445a7.046 7.046 0 01-1.258 1.785 6.929 6.929 0 01-1.207-1.785zm1.122-7.99a11.483 11.483 0 01.068-1.479c-.578.051-1.02.068-1.8.068h-8.369a18.07 18.07 0 01-1.8-.068 12 12 0 01.068 1.479v2.3a11.878 11.878 0 01-.068 1.459 24.75 24.75 0 011.751-.051h8.636c.578 0 1.19.017 1.581.051a11.483 11.483 0 01-.068-1.481zm-10.081-.1h8.313v.68h-8.313zm0 1.853h8.313v.7h-8.313zm16.252.119a45.1 45.1 0 01-.068 2.669h-1.224a8.72 8.72 0 01-1.666-.1v1.938a8.95 8.95 0 011.649-.1h1.054a8.406 8.406 0 01-2.958 5.417 9.054 9.054 0 011.207 1.547 10.262 10.262 0 002.822-4.267 9.576 9.576 0 001.921 2.329 9.206 9.206 0 011.224-1.564 7.857 7.857 0 01-2.6-2.873c.051-.272.068-.357.1-.595h.731a12.178 12.178 0 011.479.068V11.47a8.449 8.449 0 01-1.428.085h-.594c.034-.595.068-1.5.085-2.669h.153a13.286 13.286 0 011.53.068v-1.8a8.815 8.815 0 01-1.513.085h-1.938c.1-.323.153-.51.221-.8a9.939 9.939 0 01.323-1.122l-1.782-.307a7 7 0 01-.238 1.326 9.762 9.762 0 01-1.72 3.587 6.528 6.528 0 011.394 1.152 10.581 10.581 0 001.19-2.193zm4.913 9.467a12.1 12.1 0 01-1.717-.085v1.921a11.957 11.957 0 011.717-.085h6.086a11.957 11.957 0 011.717.085V18.27a12.1 12.1 0 01-1.717.085h-1a21.19 21.19 0 001.36-3.332l-1.785-.595a18.176 18.176 0 01-1.38 3.927zm-1.139-10.71a16.346 16.346 0 011.717-.07h5.219a16.346 16.346 0 011.717.068V5.756a11.532 11.532 0 01-1.717.085h-5.219a11.532 11.532 0 01-1.717-.085zm7.9 2.72a13.672 13.672 0 01.068-1.581 15.343 15.343 0 01-1.717.068h-4.143a14.96 14.96 0 01-1.717-.068 14.249 14.249 0 01.068 1.581v2.4a13.8 13.8 0 01-.068 1.547 14.709 14.709 0 011.615-.068h4.348a14.909 14.909 0 011.615.068 10.311 10.311 0 01-.068-1.547zm-5.695.153h3.91v2.04h-3.905zm1.569 6.936a15.479 15.479 0 00-1.479-3.026l-1.581.7a12.7 12.7 0 011.411 3.023z" fill="#1c1c1c"/><path data-name="パス 446" d="M311.029 23.893a8.449 8.449 0 01-.1.986 6.577 6.577 0 01-2.229 3.876 8.022 8.022 0 01-2.635 1.564 6.033 6.033 0 011.241 1.666 9.847 9.847 0 004.318-3.74 9.045 9.045 0 001.326-4.352h3.264v.986a16.7 16.7 0 01-.527 4.522c-.153.255-.34.323-.969.323a13.975 13.975 0 01-2.057-.221 7.3 7.3 0 01.514 1.989c1.135.051 1.407.068 1.747.068 1.513 0 2.125-.235 2.499-.986.425-.9.714-3.587.714-7.106v-.578a17.335 17.335 0 002.108 1.785 7.915 7.915 0 011.292-1.836 13.183 13.183 0 01-4.709-4.93 6.354 6.354 0 01-.663-1.479l-1.888.731a6.973 6.973 0 01.357.714 17 17 0 002.806 4.267c-.408.017-.646.017-1.054.017h-6.256a8.786 8.786 0 01-.884-.034 18.908 18.908 0 002.737-4.131 4.807 4.807 0 01.459-.869l-2.04-.731a5.285 5.285 0 01-.68 1.717 13.107 13.107 0 01-4.471 4.881 5.91 5.91 0 011.309 1.666 16.9 16.9 0 002.125-1.887v1.207a11.813 11.813 0 011.445-.085z" fill="#0044f2"/><path data-name="パス 445" d="M277.725 3.525h-4.36l-4.24 3.04v4.68l3.96-2.72v22.6h4.64zm22.4 19.52v-11.44c0-5.84-4.08-8.44-8.68-8.44s-8.68 2.6-8.68 8.48v11.4c0 5.72 4.08 8.44 8.68 8.44s8.68-2.72 8.68-8.44zm-4.64-11.16v10.88c0 2.96-1.56 4.68-4.04 4.68-2.52 0-4.08-1.72-4.08-4.68v-10.88c0-2.96 1.56-4.68 4.08-4.68 2.48 0 4.04 1.72 4.04 4.68z" fill="#0044f2"/><path data-name="パス 444" d="M234.385 27.347h.152a3.991 3.991 0 01.56.032v-.7a3.642 3.642 0 01-.56.032h-.152v-.476h.16a3.847 3.847 0 01.56.032v-.7a3.777 3.777 0 01-.56.032h-.16v-.5h.216a5.313 5.313 0 01.672.032v-.756a6.734 6.734 0 01-.864.04h-1.272a5.91 5.91 0 01-.9-.04 8.777 8.777 0 01.032.928v2.48a6.227 6.227 0 01-.032.792 8.6 8.6 0 01.7-.024h1.608c0 .312-.008.584-.032 1.056a5.424 5.424 0 00-.248-.872l-.344.1a5.172 5.172 0 01.288 1.14l.3-.144-.024.176c-.008.1-.016.16-.016.184-.048.44-.1.52-.384.52a2.948 2.948 0 01-.608-.072 2.213 2.213 0 01.136.8c.208.016.3.016.44.016.688 0 .936-.176 1.048-.744a13.777 13.777 0 00.176-2.008c.016-.672.016-.672.032-.84a4.316 4.316 0 01-.656.032h-.264zm-.712 0v.544h-.624v-.544zm0-.64h-.624v-.472h.624zm0-1.112h-.624v-.5h.624zm5.5 3.768a14.905 14.905 0 00-.9-1.5c.168-.44.36-1.048.48-1.5a6.064 6.064 0 01.172-.632l-.82-.216a6.967 6.967 0 01-.368 1.584c-.272-.368-.3-.408-.656-.856-.056-.064-.136-.168-.24-.3l-.512.52v-1.2h2.1a5.457 5.457 0 01.808.048v-.864a6.925 6.925 0 01-.864.048h-2.176c-.336 0-.536-.008-.72-.024a6.469 6.469 0 01.032.712v5.452a7.151 7.151 0 01-.048.888h.864v-.368h2.128a6.313 6.313 0 01.852.048v-.88a4.727 4.727 0 01-.832.052h-2.148v-.712a1.726 1.726 0 01.608.584 8.037 8.037 0 00.936-1.512 8.681 8.681 0 01.676 1.24zm-2.848-2.808c.408.5.656.84 1.048 1.416a6.766 6.766 0 01-1.048 1.672zm-4.056 2.24a6.613 6.613 0 01-.408 2.1l.568.256a8.418 8.418 0 00.396-2.236zm.608.12a10.085 10.085 0 01.072 1.216c0 .24-.008.4-.024.736l.488-.08a13.263 13.263 0 00-.12-1.928zm.544-.032a7.35 7.35 0 01.204 1.64l.44-.12a9.479 9.479 0 00-.256-1.584zm9.144-1.864h.12c.1 0 .128 0 .36.016.208.008.5.016.728.016.4 0 .816-.008 1.088-.032.008.264.008.336.008.5a3.16 3.16 0 01-.556 2.256 3.3 3.3 0 01-1.224.872 3.151 3.151 0 01.776.748 5.2 5.2 0 00.872-.608 3 3 0 00.912-1.552 7.937 7.937 0 00.168-1.912c0-.144 0-.216-.008-.384a5.651 5.651 0 00.776-.136 3.9 3.9 0 01.448-.08l-.056-.948a4.4 4.4 0 01-1.192.3c-.016-.512-.032-.816-.032-.9-.016-.36-.016-.432-.016-.512a1.744 1.744 0 01.016-.272l-1.016.016a12.353 12.353 0 01.1 1.768c-.416.024-.544.032-.848.032a7.127 7.127 0 01-1.424-.1zm-.512 1.032a8.254 8.254 0 00-.528 1.324c0-.128-.008-.176-.016-.3v-.144c-.008-.392-.008-.528-.008-.616-.008-.128-.008-.224-.008-.248 0-.152.016-.384.056-.912a10.777 10.777 0 01.212-1.58 7.729 7.729 0 01.232-.976l-1.056-.1a3.521 3.521 0 01-.056.592 17.2 17.2 0 00-.3 3.032 11.511 11.511 0 00.288 2.6 1.3 1.3 0 01.056.3l.932-.048a6.96 6.96 0 01.912-2.568zm6.34-.936a2.918 2.918 0 01.64-.224 11.4 11.4 0 013.152-.568 2.085 2.085 0 011.032.216 1.172 1.172 0 01.608 1.036 1.764 1.764 0 01-.088.568 2.216 2.216 0 01-1.212 1.188 6.869 6.869 0 01-2.632.472 3.467 3.467 0 01.412 1.032 7.515 7.515 0 002.82-.66 2.839 2.839 0 001.776-2.56c0-1.36-1.032-2.248-2.616-2.248a12.628 12.628 0 00-3.184.456 5.719 5.719 0 01-.936.16zm10.176-.1h.12c.1 0 .128 0 .36.016.208.008.5.016.728.016.4 0 .816-.008 1.088-.032.008.264.008.336.008.5a3.16 3.16 0 01-.56 2.248 3.3 3.3 0 01-1.224.872 3.151 3.151 0 01.776.76 5.2 5.2 0 00.872-.608 3 3 0 00.912-1.552 7.937 7.937 0 00.168-1.912c0-.144 0-.216-.008-.384a5.651 5.651 0 00.776-.136 3.9 3.9 0 01.448-.08l-.056-.948a4.4 4.4 0 01-1.192.3c-.016-.512-.032-.816-.032-.9-.016-.36-.016-.432-.016-.512a1.744 1.744 0 01.016-.272l-1.016.016a12.353 12.353 0 01.1 1.768c-.416.024-.544.032-.848.032a7.127 7.127 0 01-1.424-.1zm-.512 1.032a8.254 8.254 0 00-.532 1.328c0-.128-.008-.176-.016-.3v-.144c-.008-.392-.008-.528-.008-.616-.008-.128-.008-.224-.008-.248 0-.152.016-.384.056-.912a10.777 10.777 0 01.212-1.58 7.729 7.729 0 01.232-.976l-1.056-.1a3.521 3.521 0 01-.056.592 17.2 17.2 0 00-.3 3.032 11.511 11.511 0 00.288 2.6 1.3 1.3 0 01.056.3l.932-.048a6.96 6.96 0 01.912-2.568z" fill="#1c1c1c"/></g><g data-name="グループ 297"><g data-name="マスクグループ 66" clip-path="url(#a)" transform="translate(189.75 5.625)"><path data-name="パス 108" d="M15.831 0a16.067 16.067 0 013.142.3 14.168 14.168 0 012.922.919 2.965 2.965 0 011.008.721.813.813 0 01.256.984 1.4 1.4 0 01-1.059.617 2.511 2.511 0 01-1.346-.049 11.988 11.988 0 00-2.385-.747 12.862 12.862 0 00-2.537-.245 12.855 12.855 0 00-9.437 3.9 12.855 12.855 0 00-3.9 9.438 12.761 12.761 0 00.479 3.458A13.663 13.663 0 004.331 22.5h23a12.162 12.162 0 001.4-3.292 14.218 14.218 0 00.437-3.542 12.961 12.961 0 00-.236-2.422 11.008 11.008 0 00-.739-2.386 1.751 1.751 0 01-.083-1.038 1.441 1.441 0 01.562-.839 1 1 0 01.9-.167 1.013 1.013 0 01.687.589 15.213 15.213 0 011.054 3.091 16.009 16.009 0 01-.15 7.4 17.025 17.025 0 01-1.612 3.941 2.318 2.318 0 01-.929.854 2.734 2.734 0 01-1.288.311h-23a2.6 2.6 0 01-1.258-.321 2.513 2.513 0 01-.954-.911 17.017 17.017 0 01-1.538-3.634A15.1 15.1 0 010 15.832a15.336 15.336 0 011.24-6.14 16.155 16.155 0 013.383-5.036A15.878 15.878 0 019.661 1.25 15.428 15.428 0 0115.831 0" fill="#1c1c1c"/><path data-name="パス 109" d="M13.504 18.076a2.955 2.955 0 002.287.843 2.406 2.406 0 002.053-1.009l6.722-9.737a.76.76 0 00-1.06-1.06l-9.75 6.707a2.433 2.433 0 00-1.06 2.008 2.8 2.8 0 00.808 2.245" fill="#fc4076"/></g></g></g><g data-name="グループ 264"><path data-name="パス 438" d="M59.3 11.619a2.6 2.6 0 01-1.232 1.833 6.5 6.5 0 01-2.535.858 4.079 4.079 0 01.754 1.274 6.648 6.648 0 003.3-1.56 3.987 3.987 0 001.235-2.405h1.17v2.535c0 .975.39 1.157 2.548 1.157 1.469 0 2.028-.1 2.392-.442.325-.312.455-.793.585-2.236a5.384 5.384 0 01-1.337-.546 4.128 4.128 0 01-.234 1.664c-.156.221-.416.273-1.417.273s-1.129-.039-1.129-.403v-2h1.118c.533 0 1.04.013 1.378.039a9.7 9.7 0 01-.065-1.378V5.535a15.47 15.47 0 01.065-1.625 10.042 10.042 0 01-1.378.065h-5.993a9.951 9.951 0 01-1.365-.065 15.838 15.838 0 01.065 1.625v4.745a10.043 10.043 0 01-.065 1.378c.338-.026.78-.039 1.4-.039zm-.712-6.344h5.863v.845h-5.863zm0 2.067h5.863v.871h-5.863zm0 2.093h5.863v.923h-5.863zm14.027-1.222a8.364 8.364 0 011.209-.065h5.408a8.364 8.364 0 011.209.065V7.03a7.733 7.733 0 01-1.209.065h-2.158V6.64h1.638c.559 0 .767.013 1.079.039V5.665a8 8 0 01-1.091.052h-1.626v-.442h1.885a7.418 7.418 0 011.157.065V4.196a8.84 8.84 0 01-1.261.078h-1.781a3.579 3.579 0 01.078-.845h-1.469a3.108 3.108 0 01.078.845h-1.534a8.31 8.31 0 01-1.235-.065V5.34a7.142 7.142 0 011.144-.065h1.625v.442h-1.456a7.734 7.734 0 01-1.053-.052v1.01c.312-.026.52-.039 1.053-.039h1.456v.455h-1.937a10.516 10.516 0 01-1.066-.039v-.429a4.915 4.915 0 01-.858.052h-.312V5.002a11.57 11.57 0 001.131-.4c.117-.039.143-.052.221-.078l-.754-1.149a2.544 2.544 0 01-.533.26 11.434 11.434 0 01-3.107.767 4.942 4.942 0 01.494 1.211c.65-.117.845-.156 1.235-.26v1.322h-.611a5.658 5.658 0 01-1.027-.065v1.378a5.457 5.457 0 01.988-.065h.546a9.539 9.539 0 01-.494 1.443 7.207 7.207 0 01-1.313 2.175 5.594 5.594 0 01.728 1.222 8.032 8.032 0 001.274-2.613 23.86 23.86 0 00-.091 1.937v1.833a12.387 12.387 0 01-.075 1.521h1.469a8.969 8.969 0 01-.081-1.534v-2.782c-.039-1.105-.039-1.105-.078-1.55a6.615 6.615 0 00.99 1.563 4.157 4.157 0 01.624-1.04 4.983 4.983 0 01-1.094-1.339 3.8 3.8 0 01-.4-.832h.247a6.227 6.227 0 01.741.039zm2.054 5.278a7.124 7.124 0 01-2.561.9 5.235 5.235 0 01.676 1.144 7.629 7.629 0 003.016-1.42l-.6-.624h2.381l-.546.624a8.2 8.2 0 003.016 1.417 4.4 4.4 0 01.715-1.209 9.434 9.434 0 01-2.587-.832h.442c.416 0 .741.013 1.092.039a8.423 8.423 0 01-.052-1.183v-2.7a8 8 0 01.052-1.157 7.913 7.913 0 01-1.113.035h-4.295c-.546 0-.78 0-1.079-.026a7.592 7.592 0 01.039 1.092v2.769a9.875 9.875 0 01-.052 1.17c.287-.026.287-.026 1.118-.039zm-.117-3.978h3.809v.429h-3.809zm0 1.261h3.809v.429h-3.809zm0 1.248h3.809v.453h-3.809zm9.412-8.359a3.055 3.055 0 01-.039.442l-.2 1.612c-.1.9-.182 2.34-.182 3.393 0 .26.026 1.222.039 1.6v.247a1.011 1.011 0 01-.013.169l1.56-.026v-.273a6.233 6.233 0 011.638-4.2 1.935 1.935 0 011.4-.689c1.118 0 1.742 1.04 1.742 2.912a3.963 3.963 0 01-2.2 3.978 7.589 7.589 0 01-2.847.741 4.973 4.973 0 01.779 1.534 11.087 11.087 0 002.548-.728 5.464 5.464 0 003.354-5.343 5.444 5.444 0 00-.936-3.457 2.722 2.722 0 00-2.223-1.17 3.1 3.1 0 00-2.47 1.326 5.256 5.256 0 00-.819 1.544 2.854 2.854 0 01-.078.286h-.039c.026-.312.078-.754.169-1.3a12.752 12.752 0 01.468-2.509z" fill="#1c1c1c"/><path data-name="パス 439" d="M59.615 22.082c.3 0 .52.013.819.039v-1.378a3.853 3.853 0 01-.832.065h-.741v-1.066a8.775 8.775 0 01.078-1.339h-1.534a8.4 8.4 0 01.078 1.352v1.053h-.806a4.6 4.6 0 01-.962-.065v1.391a6.368 6.368 0 01.949-.052h.637a10.863 10.863 0 01-1.989 4.056 4.978 4.978 0 01.715 1.417 7.673 7.673 0 00.767-1.326 10.784 10.784 0 00.78-1.976 22.099 22.099 0 00-.091 1.95v2.678a13.192 13.192 0 01-.078 1.6h1.534a13.044 13.044 0 01-.078-1.6V25.54c0-.715-.013-1.027-.052-1.781a8.5 8.5 0 001.235 2.184 3.974 3.974 0 01.52-1.105c.039-.052.091-.143.156-.247a6.858 6.858 0 01-1.742-2.509zm2.613 8.346v-.767h3.263v.741h1.482a17.78 17.78 0 01-.065-1.651v-8.567c0-.6.013-.949.039-1.326a7.713 7.713 0 01-1.118.052h-3.9c-.559 0-.806-.013-1.157-.039.039.624.052.936.052 1.378v8.515c0 .637-.026 1.183-.065 1.664zm0-10.192h3.263v1.846h-3.263zm0 3.081h3.263v1.833h-3.263zm0 3.068h3.263v1.976h-3.263zm13.715-2.626a6.79 6.79 0 01.039.806 4.746 4.746 0 01-.962 3.31 4.6 4.6 0 01-2.21 1.4v-2.188a7.763 7.763 0 01.039-.936 3.97 3.97 0 01-.78.039h-2.236a5.279 5.279 0 01-.871-.052 8.394 8.394 0 01.052 1.014v1.989c0 .416-.026.871-.065 1.274h1.339v-.676h1.287v.536h1.3c-.026-.289-.039-.432-.052-.9a5.889 5.889 0 01.624 1.183 5.145 5.145 0 003.289-3.25 6.562 6.562 0 003.237 3.224 5.111 5.111 0 01.741-1.378 5.759 5.759 0 01-2.47-1.7 4.414 4.414 0 01-.9-2.964 4.262 4.262 0 01.056-.731zm-5.694 3.484H71.6v1.378h-1.351zm-1.222-7.215a11.52 11.52 0 011.053-.039h1.664c.468 0 .7.013 1.053.039v-1.253a5.624 5.624 0 01-1.053.065H70.08a5.54 5.54 0 01-1.053-.065zm-.507 1.924a7.77 7.77 0 011.04-.052h2.6a5.976 5.976 0 01.988.052v-1.339a7.061 7.061 0 01-1.04.052H69.56a5.726 5.726 0 01-1.04-.065zm.507 1.807a6.584 6.584 0 01.819-.039h2.132a6.493 6.493 0 01.806.039V22.55a5.941 5.941 0 01-.806.039h-2.132a6.584 6.584 0 01-.819-.039zm0 1.807a6.584 6.584 0 01.819-.039h2.119a6.441 6.441 0 01.819.039v-1.209a5.941 5.941 0 01-.806.039h-2.132a6.584 6.584 0 01-.819-.039zm4.992-6.422a4.77 4.77 0 01-.793 2.067l1.222.494a7.512 7.512 0 00.858-2.249zm5.057-.156a6.518 6.518 0 01-1.287 2.067 3.9 3.9 0 011.1.663 10.359 10.359 0 001.448-2.236zm-5.122 5.8a5.022 5.022 0 01-.871 2.132l1.209.546a7.806 7.806 0 00.923-2.291zm5.109-.13a6.661 6.661 0 01-1.183 2.026 4.137 4.137 0 011.092.676 9.575 9.575 0 001.339-2.2zm-3.094-6.11a6.65 6.65 0 01.039.728 4.5 4.5 0 01-.572 2.499 4.189 4.189 0 01-2.522 1.776 4.218 4.218 0 01.754 1.17 5.8 5.8 0 002.158-1.469 4.887 4.887 0 00.9-1.508 4.946 4.946 0 00.91 1.391 6.527 6.527 0 002.21 1.586 5.273 5.273 0 01.715-1.287 5.407 5.407 0 01-1.651-.806 3.691 3.691 0 01-1.225-1.469 5.041 5.041 0 01-.325-1.872 4.847 4.847 0 01.052-.741zm10.907 9.75a15.07 15.07 0 011.235-.325l2.756-.624v1.571a9.426 9.426 0 01-.078 1.547h1.573a9.533 9.533 0 01-.078-1.534v-1.9l.13-.026a9.5 9.5 0 011.248-.232l-.273-1.482a7.928 7.928 0 01-1.1.325v-5.643a9.188 9.188 0 01.078-1.495h-1.578a8.9 8.9 0 01.078 1.508v5.941l-3.042.676a8.706 8.706 0 01-1.2.182 7.58 7.58 0 01.364-.728 6.9 6.9 0 01-1.673-1.984h.468a7.561 7.561 0 011.027.052v-1.352a6.584 6.584 0 01-1 .052H85.2v-3.098a7.761 7.761 0 01.065-1.261h-1.483a8.044 8.044 0 01.065 1.274v3.081h-.871a6.456 6.456 0 01-1.17-.065v1.378a6.726 6.726 0 011.17-.061h.676a10.961 10.961 0 01-.689 1.469 8.548 8.548 0 01-1.4 1.924 3.916 3.916 0 01.659 1.335 8.98 8.98 0 001.69-2.928 27.94 27.94 0 00-.052 1.56v1.68a8.418 8.418 0 01-.091 1.378h1.508a7.689 7.689 0 01-.077-1.352v-2.145c0-.416-.013-.6-.078-1.482a9.617 9.617 0 001.313 1.833c.065-.208.078-.273.143-.442zm-5.161-8.623a10.49 10.49 0 01.806 2.782l1.092-.468a15.811 15.811 0 00-.793-2.808zm4.472-.52a10.814 10.814 0 01-.9 2.808l.949.494a15.732 15.732 0 001.04-2.821zm1.235 1.183a10.982 10.982 0 012.3 2l.884-1.092a12.627 12.627 0 00-2.275-1.911zm-.4 3.211a11.371 11.371 0 012.288 2l.884-1.053a11.862 11.862 0 00-2.262-1.911z" fill="#1c1c1c"/><path data-name="パス 441" d="M124.701 23.48h10.115v4.148c0 .408-.1.459-.765.459-.612 0-1.462-.068-2.584-.187a6.541 6.541 0 01.527 1.836c.663.034 1.6.068 2.261.068a4.181 4.181 0 001.785-.238c.493-.255.7-.731.7-1.6v-10.9a16.73 16.73 0 01.068-1.853 15.584 15.584 0 01-1.853.068h-10.339a18.264 18.264 0 01-1.887-.068 14.646 14.646 0 01.068 1.637v11.118a16.148 16.148 0 01-.1 2.04h2.091a12.5 12.5 0 01-.087-1.972zm4.029-1.785h-4.029v-4.607h4.029zm1.836 0v-4.607h4.25v4.607z" fill="#0044f2"/><path data-name="パス 440" d="M118.85 23.218V11.492c0-5.986-4.182-8.651-8.9-8.651s-8.9 2.665-8.9 8.692v11.685c0 5.863 4.186 8.651 8.9 8.651s8.9-2.788 8.9-8.651zm-4.758-11.439v11.152c0 3.034-1.6 4.8-4.141 4.8-2.583 0-4.182-1.763-4.182-4.8V11.779c0-3.034 1.6-4.8 4.182-4.8 2.542.003 4.141 1.766 4.141 4.8z" fill="#0044f2"/></g><g data-name="グループ 296"><g data-name="マスクグループ 65" clip-path="url(#b)" transform="translate(11.5)"><path data-name="パス 106" d="M16.207 10.126l4.3 4.172a2.919 2.919 0 00.945.587 2.941 2.941 0 003.049-.587l4.323-4.173a10.792 10.792 0 001.908-2.453 5.856 5.856 0 00.763-2.941 4.561 4.561 0 00-1.38-3.35A4.563 4.563 0 0026.769 0a4.72 4.72 0 00-2.379.621A6.771 6.771 0 0022.504 2.2 6.794 6.794 0 0020.617.622 4.72 4.72 0 0018.238 0a4.56 4.56 0 00-3.349 1.381 4.564 4.564 0 00-1.38 3.35 5.783 5.783 0 00.779 2.942 11.121 11.121 0 001.919 2.452m.371-7.058a2.259 2.259 0 011.663-.681 2.54 2.54 0 011.382.394 4.39 4.39 0 011.107 1l.711.857a1.332 1.332 0 001.067.5 1.316 1.316 0 001.063-.5l.709-.857a4.422 4.422 0 011.107-1 2.545 2.545 0 011.384-.394 2.325 2.325 0 012.343 2.344 3.557 3.557 0 01-.629 2.044 11.243 11.243 0 01-1.431 1.711l-4.212 4.087a.481.481 0 01-.673 0l-4.214-4.087a11.316 11.316 0 01-1.43-1.711 3.557 3.557 0 01-.63-2.044 2.258 2.258 0 01.681-1.662" fill="#fc4076"/><path data-name="パス 107" d="M27.628 22.398H23.65a4.038 4.038 0 00-.716-2.393 3.777 3.777 0 00-1.8-1.418l-9.271-3.415a4.534 4.534 0 00-.478-.129 2.424 2.424 0 00-.506-.055h-8a2.77 2.77 0 00-2.031.845A2.77 2.77 0 000 17.869v9.485a2.77 2.77 0 00.845 2.031 2.77 2.77 0 002.031.845h2.2a2.993 2.993 0 001.769-.6 2.815 2.815 0 001.107-1.586l10.788 3.093a2.839 2.839 0 001.66-.022l9.653-3a2.4 2.4 0 001.084-.655 1.607 1.607 0 00.363-1.085 3.939 3.939 0 00-1.08-2.87 3.729 3.729 0 00-2.792-1.106M5.569 27.354a.463.463 0 01-.137.375.537.537 0 01-.353.114h-2.2a.471.471 0 01-.49-.489V17.87a.472.472 0 01.489-.49h2.691zm14.071 1.451a.325.325 0 01-.276 0L7.955 25.577v-8.2H10.9a.414.414 0 01.084.008.644.644 0 01.084.022l9.231 3.39a1.321 1.321 0 01.7.578 1.889 1.889 0 01.266 1.019h-.426q-1.422-.024-2.315-.121a8.28 8.28 0 01-1.616-.326l-2.068-.725a1.179 1.179 0 00-.923.069 1.14 1.14 0 00-.592.7 1.25 1.25 0 00.058.938 1.1 1.1 0 00.692.612l2.5.817a6.719 6.719 0 001.5.349 16.576 16.576 0 001.77.079h7.791a1.4 1.4 0 01.866.289 1.374 1.374 0 01.5.831z" fill="#1c1c1c"/></g></g><g data-name="グループ 571"><path data-name="パス 454" d="M59.843 68.217c0 1.133.533 1.391 2.912 1.391 3.029 0 3.237-.208 3.523-3.627a5.191 5.191 0 01-1.378-.494 6.766 6.766 0 01-.312 2.457c-.156.273-.6.364-1.755.364-1.235 0-1.573-.091-1.573-.416v-.91a14.355 14.355 0 001.965-1.872 22.009 22.009 0 003.263-4.94c.351-.728.351-.728.507-1l-1.495-.6a11.779 11.779 0 01-1.458 3.16 18.658 18.658 0 01-2.782 3.406v-3.211a9.922 9.922 0 01.078-1.287h-1.573a9.627 9.627 0 01.078 1.326v4.368a16.614 16.614 0 01-3.328 1.937 4.5 4.5 0 01.975 1.235 16.7 16.7 0 002.353-1.43zm-.13-9.373a15.257 15.257 0 013.812 1.989l.858-1.248a19.853 19.853 0 00-3.8-1.859zm-1.976 2.964a14.632 14.632 0 01-1.248 4.511l1.352.676a18.985 18.985 0 001.274-4.927zm7.761.767a19.415 19.415 0 011.9 5l1.378-.741a26.576 26.576 0 00-2-4.888zm10.335-4.2a3.913 3.913 0 01.065.767l.013.819a627.4 627.4 0 01-3.146.078c-1.677.065-1.885.065-2.21.065a5.661 5.661 0 01-.637-.026l.052 1.56a23.718 23.718 0 012.655-.22q.955-.058 3.315-.117c0 .39 0 .754.013 1.105v.078a.229.229 0 00.013.078 2.146 2.146 0 00-1.352-.39 2.389 2.389 0 00-2.574 2.366 2.031 2.031 0 00.9 1.755 2.358 2.358 0 001.5.468 2.142 2.142 0 001.911-.923c-.208 1.3-1.6 2.288-3.718 2.652a4.614 4.614 0 01.923 1.469 9.633 9.633 0 002.342-1.053 4.176 4.176 0 001.937-3.523 3.956 3.956 0 00-.416-1.833v-2.275c1.339-.013 1.339-.013 1.586-.013 1 0 1.7.026 2.171.065l-.013-1.5a12.257 12.257 0 01-1.248.052c-.286 0-.312 0-.585.013l.819-.377a8.341 8.341 0 00-1.2-1.911l-.936.416a7.887 7.887 0 011.183 1.872c-.624.013-1.222.013-1.794.013a10.383 10.383 0 01.065-1.534zm-1 4.992a1.3 1.3 0 01.845.312.721.721 0 01.247.585 1.188 1.188 0 01-1.261 1.17 1.031 1.031 0 01-1.1-1.014 1.138 1.138 0 011.268-1.052zm7.176-4.225a8.3 8.3 0 00-1.2-1.794l-.871.4a8.942 8.942 0 011.157 1.859zm5.811 5.785h-3.758a8.918 8.918 0 01-1.4-.065v1.235a9.31 9.31 0 011.43-.065h3.731v.559h-3.111a9.442 9.442 0 01-1.235-.052v1.211a8.861 8.861 0 011.287-.065h3.055v.624c0 .234-.1.3-.507.3a14.743 14.743 0 01-1.651-.119 3.7 3.7 0 01.4 1.287c.416.026.936.052 1.248.052 1.586 0 1.911-.247 1.911-1.417v-.728h2.873v.507h1.456a9.774 9.774 0 01-.065-1.4v-.754a7.724 7.724 0 011.131.065v-1.239a7.345 7.345 0 01-1.131.065v-.455a8.8 8.8 0 01.041-1.183c-.364.026-.624.039-1.391.039h-2.909v-.494h2.99c.416 0 .754.013 1.04.039a8.215 8.215 0 01-.039-.871v-.853a8.849 8.849 0 01.039-.91c-.312.026-.6.039-1.092.039h-2.938v-.499h3.731a12.536 12.536 0 011.521.078v-1.287a12.194 12.194 0 01-1.6.078h-3.652a3.673 3.673 0 01.091-.884h-1.575a4.8 4.8 0 01.078.884h-3.484a12.059 12.059 0 01-1.6-.078v1.287a12.536 12.536 0 011.521-.078h3.562v.494h-2.742c-.494 0-.767-.013-1.1-.039.026.312.039.546.039.91v.858c0 .325-.013.6-.039.871.3-.026.624-.039 1.092-.039h2.756v.494h-3.06a9.73 9.73 0 01-1.222-.052v1.131a10.8 10.8 0 011.2-.052h3.081zm1.4 0v-.572h2.873v.572zm0 1.105h2.873v.559h-2.868zm-1.4-4.745v.533h-2.432v-.533zm1.4 0h2.613v.533h-2.608zm7.995-1.807a8.742 8.742 0 01-1.39-.077v1.4a8.274 8.274 0 011.391-.078h8.829a7.915 7.915 0 011.391.078v-1.4a9.438 9.438 0 01-1.391.078h-2a12.991 12.991 0 001.04-1.417l-1.469-.4a6.818 6.818 0 01-1.144 1.82h-1.757a11 11 0 00-1.209-1.834l-1.4.4a8.132 8.132 0 011.053 1.43zm.676 7.553h2.134v1.1c0 .234-.065.286-.377.286a7.706 7.706 0 01-.91-.078 5.08 5.08 0 01.313 1.28c.468.013.624.013.819.013 1.209 0 1.495-.247 1.495-1.248v-5.59c0-.689.013-.988.039-1.3a7.541 7.541 0 01-1.157.052h-2.522a11.147 11.147 0 01-1.222-.052c.026.325.039.533.039 1.17v5.6a11.519 11.519 0 01-.065 1.484h1.495a7.828 7.828 0 01-.078-1.39zm0-1.222v-.91h2.134v.91zm0-2.132v-.91h2.134v.91zm4.644-1.949a7.814 7.814 0 01.065 1.22v2.81a11.407 11.407 0 01-.052 1.39h1.469a11.111 11.111 0 01-.052-1.4v-2.785a7.4 7.4 0 01.06-1.235zm2.743-.351a8.371 8.371 0 01.065 1.339v5.278c0 .364-.065.416-.6.416a11.1 11.1 0 01-1.586-.143 4.615 4.615 0 01.405 1.381c.819.039 1.092.052 1.4.052.836-.003 1.187-.094 1.463-.352a1.516 1.516 0 00.3-1.12v-5.473a7.666 7.666 0 01.078-1.378zm6.279 7.683c-.013-.169-.013-.273-.013-.351a10.672 10.672 0 011.157-3.939l-1.04-.468a13.258 13.258 0 00-.676 1.716c.013-.325.026-.429.026-.715a21.705 21.705 0 01.195-2.873 17.923 17.923 0 01.819-3.882l-1.716-.182a8.506 8.506 0 01-.195 1.209 24.957 24.957 0 00-.533 5.083 22.676 22.676 0 00.338 3.887c.039.3.052.377.065.611zm1.794-7.787a15.432 15.432 0 002.34.143 23.286 23.286 0 002.782-.156c.624-.078.819-.1.923-.117l-.078-1.573a14.336 14.336 0 01-3.536.351 9.373 9.373 0 01-2.4-.208zm.9 2.145a4.247 4.247 0 00-1.2 2.678 2.178 2.178 0 00.39 1.274c.572.767 1.612 1.131 3.224 1.131a16.031 16.031 0 002.691-.247 4.345 4.345 0 01.533-.078l-.13-1.651a9.136 9.136 0 01-3.094.494c-1.352 0-2.067-.39-2.067-1.131a2.941 2.941 0 01.927-1.872z" fill="#1c1c1c"/><path data-name="パス 455" d="M62.108 81.225a10.241 10.241 0 013.072-.524c1.712 0 2.832.9 2.832 2.272a1.644 1.644 0 01-1.612 1.776 1.107 1.107 0 01-1.012-.544 3.083 3.083 0 01-.224-1.408 5.548 5.548 0 01.032-.7 6.75 6.75 0 01-1.776.7 5.345 5.345 0 00.272 2.048 2.583 2.583 0 002.624 1.78 3.554 3.554 0 003.632-3.648c0-2.272-1.9-3.9-4.576-3.9a11.1 11.1 0 00-3.264.448v-2.08c.608-.064.928-.112 1.456-.208 1.1-.192 1.408-.24 1.7-.288l-.064-1.8a17.844 17.844 0 01-3.088.608v-1.024a9.823 9.823 0 01.1-1.744h-2a10.963 10.963 0 01.1 1.84v1.056c-.176 0-.256 0-.64.016-.224.016-.4.016-.56.016a9.813 9.813 0 01-1.936-.144l.004 1.792a3 3 0 01.336-.016c.048 0 .192 0 .4.016.192 0 .64.016.88.016.4 0 .624 0 .864-.016.528-.032.528-.032.656-.032l.016 2.464A8.56 8.56 0 0058 81.357a3.415 3.415 0 00-1.38 2.368 2.35 2.35 0 00.88 1.808 4.984 4.984 0 003.024 1.136A1.406 1.406 0 0062 85.741a4.764 4.764 0 00.128-1.36zm-1.792 2.916c0 .528-.08.672-.352.672a1.923 1.923 0 01-1.024-.352c-.368-.224-.528-.464-.528-.736 0-.576.7-1.28 1.9-1.92zm10.336-6.752a13.571 13.571 0 00-3.168-3.28l-1.5 1.008a13.663 13.663 0 013.2 3.456zm6.148 5.344a3.206 3.206 0 01-1.52 2.256 7.994 7.994 0 01-3.124 1.056 5.02 5.02 0 01.928 1.568 8.182 8.182 0 004.064-1.92 4.907 4.907 0 001.52-2.96h1.44v3.12c0 1.2.48 1.424 3.136 1.424 1.808 0 2.5-.128 2.944-.544.4-.384.56-.976.72-2.752a6.627 6.627 0 01-1.648-.672 5.081 5.081 0 01-.288 2.048c-.192.272-.512.336-1.744.336-1.248 0-1.392-.048-1.392-.5v-2.46h1.376c.656 0 1.28.016 1.7.048a11.94 11.94 0 01-.08-1.7v-5.84a19.041 19.041 0 01.08-2 12.36 12.36 0 01-1.7.08h-7.376a12.247 12.247 0 01-1.68-.08 19.492 19.492 0 01.08 2v5.84a12.36 12.36 0 01-.08 1.7c.416-.032.96-.048 1.728-.048zm-.88-7.808h7.216v1.04h-7.22zm0 2.544h7.216v1.072h-7.22zm0 2.576h7.216v1.136h-7.22zm17.264-1.5a10.294 10.294 0 011.488-.08h6.656a10.294 10.294 0 011.488.08v-1.46a9.517 9.517 0 01-1.488.08h-2.66v-.56h2.016c.688 0 .944.016 1.328.048v-1.248a9.849 9.849 0 01-1.344.064h-2v-.544h2.32a9.13 9.13 0 011.424.08v-1.408a10.88 10.88 0 01-1.552.1h-2.192a4.4 4.4 0 01.1-1.04h-1.812a3.825 3.825 0 01.1 1.04h-1.892a10.228 10.228 0 01-1.52-.08v1.392a8.79 8.79 0 011.408-.08h2v.544H95.26a9.518 9.518 0 01-1.3-.064v1.248c.384-.032.64-.048 1.3-.048h1.792v.56h-2.384a12.943 12.943 0 01-1.312-.048v-.528a6.049 6.049 0 01-1.056.064h-.384v-2.064a14.24 14.24 0 001.392-.5c.144-.048.176-.064.272-.1l-.928-1.408a3.131 3.131 0 01-.656.32 14.073 14.073 0 01-3.824.944 6.082 6.082 0 01.608 1.488c.8-.144 1.04-.192 1.52-.32v1.632h-.752a6.963 6.963 0 01-1.264-.08v1.7a6.716 6.716 0 011.216-.08h.672a11.74 11.74 0 01-.608 1.776 8.87 8.87 0 01-1.616 2.672 6.884 6.884 0 01.9 1.5 9.885 9.885 0 001.564-3.212c-.064.768-.112 1.6-.112 2.384v2.256a15.245 15.245 0 01-.1 1.872h1.808a11.039 11.039 0 01-.1-1.888v-3.424c-.048-1.36-.048-1.36-.1-1.9a8.141 8.141 0 001.216 1.92 5.117 5.117 0 01.768-1.28 6.133 6.133 0 01-1.332-1.652 4.68 4.68 0 01-.5-1.024h.3a7.664 7.664 0 01.912.048zm2.528 6.5a8.768 8.768 0 01-3.152 1.1 6.443 6.443 0 01.832 1.408 9.39 9.39 0 003.708-1.748l-.736-.768h2.928l-.672.768a10.1 10.1 0 003.712 1.744 5.413 5.413 0 01.88-1.488 11.611 11.611 0 01-3.184-1.024h.544c.512 0 .912.016 1.344.048a10.367 10.367 0 01-.064-1.46v-3.324a9.84 9.84 0 01.064-1.424 9.738 9.738 0 01-1.376.048h-5.28c-.672 0-.96 0-1.328-.032a9.344 9.344 0 01.048 1.344v3.408a12.154 12.154 0 01-.064 1.44c.352-.032.352-.032 1.376-.048zm-.144-4.9h4.688v.528h-4.692zm0 1.552h4.688v.528h-4.692zm0 1.536h4.688v.56h-4.692zm11.58-10.292a3.76 3.76 0 01-.048.544l-.24 1.984c-.128 1.1-.224 2.88-.224 4.176 0 .32.032 1.5.048 1.968v.3a1.244 1.244 0 01-.016.212l1.92-.032v-.336a7.671 7.671 0 012.012-5.168 2.381 2.381 0 011.728-.848c1.376 0 2.144 1.28 2.144 3.584 0 2.432-.848 3.952-2.7 4.9a9.34 9.34 0 01-3.5.912 6.12 6.12 0 01.94 1.888 13.645 13.645 0 003.136-.9 6.725 6.725 0 004.128-6.576 6.7 6.7 0 00-1.152-4.256 3.351 3.351 0 00-2.736-1.44 3.82 3.82 0 00-3.04 1.632 6.468 6.468 0 00-1.008 1.9 3.514 3.514 0 01-.1.352h-.04c.032-.384.1-.928.208-1.6a15.7 15.7 0 01.576-3.088z" fill="#0044f2"/></g><g data-name="グループ 570"><g data-name="マスクグループ 68" clip-path="url(#c)" transform="translate(13.5 60.624)"><path data-name="パス 110" d="M7.529 19.973v2.271a.965.965 0 101.929 0v-2.271h2.271a.965.965 0 100-1.929H9.458v-2.271a.965.965 0 10-1.929 0v2.271H5.258a.965.965 0 100 1.929zm-1.867-11h5.662a.965.965 0 100-1.929H5.662a.965.965 0 100 1.929zM2.925 27.5a2.822 2.822 0 01-2.075-.849A2.822 2.822 0 010 24.576V2.925A2.822 2.822 0 01.85.85 2.822 2.822 0 012.925 0h21.651a2.822 2.822 0 012.075.85 2.822 2.822 0 01.849 2.075v21.651a2.9 2.9 0 01-2.924 2.924zm0-2.426h21.651a.536.536 0 00.5-.5V2.926a.473.473 0 00-.156-.342.473.473 0 00-.342-.156H2.925a.473.473 0 00-.342.156.473.473 0 00-.156.342v21.651a.473.473 0 00.156.342.473.473 0 00.342.156M19.41 9.414L21 11a.949.949 0 00.671.294.915.915 0 00.688-.294.969.969 0 00.025-1.356l-1.611-1.636 1.586-1.586a.946.946 0 00.294-.671.915.915 0 00-.294-.687.913.913 0 00-1.356 0L19.416 6.65l-1.59-1.587a.946.946 0 00-.671-.294.915.915 0 00-.688.294.913.913 0 000 1.356l1.586 1.586-1.61 1.637a1 1 0 00-.269.671.915.915 0 00.294.688.913.913 0 001.356 0z" fill="#1c1c1c"/><path data-name="パス 111" d="M16.581 21.995h5.662a.965.965 0 100-1.929h-5.662a.965.965 0 100 1.929z" fill="#fc4076"/><path data-name="パス 112" d="M16.581 17.951h5.662a.965.965 0 100-1.929h-5.662a.965.965 0 100 1.929z" fill="#fc4076"/></g></g><g data-name="グループ 574"><path data-name="パス 452" d="M242.64 85.936a27.452 27.452 0 00-2.3-4.528l-1.38.752a16.706 16.706 0 01.816 1.472c-.688.224-1.472.432-2.56.672v-3.328h3.5c.56 0 .864.016 1.312.048a15.91 15.91 0 01-.048-1.376v-4.992a11.365 11.365 0 01.052-1.456 12.139 12.139 0 01-1.5.064h-3.556a12.644 12.644 0 01-1.5-.064 16.454 16.454 0 01.064 1.648v9.776a7.486 7.486 0 01-1.04.112l.4 1.856c.224-.048.288-.08.48-.112a47.529 47.529 0 005.068-1.38c.224.56.336.848.64 1.728zm-5.424-9.536v-1.568h3.084V76.4zm0 1.472h3.084v1.616h-3.084zm11.648-3.2a12.4 12.4 0 01.064-1.472 13.434 13.434 0 01-1.44.064h-2.96a14.24 14.24 0 01-1.44-.064c.032.4.048.784.048 1.488v10.88a16.821 16.821 0 01-.08 1.888h1.856a13.028 13.028 0 01-.1-1.888v-10.7h2.368V83.1c0 .368-.1.448-.624.448a10.384 10.384 0 01-1.392-.128 5.187 5.187 0 01.372 1.78c.384.016.8.032 1.12.032 1.664 0 2.208-.432 2.208-1.744zm4.864.352h-1.456a11.527 11.527 0 01-1.584-.1v1.744a10.294 10.294 0 011.488-.08h2.96a15.515 15.515 0 01-.624 3.392c-.608-.7-.88-1.008-1.008-1.136-.944-.976-.944-.976-1.264-1.3l-1.168 1.192a29.108 29.108 0 012.72 2.944 11.1 11.1 0 01-3.28 3.92 5.726 5.726 0 011.216 1.488 15.725 15.725 0 003.184-3.952 22.981 22.981 0 011.84 2.764l1.264-1.4c-1.136-1.6-1.264-1.78-2.272-3.06a16.39 16.39 0 001.088-4.848 11.939 11.939 0 011.248.048v-1.712a8.545 8.545 0 01-1.536.1h-1.136v-.9a12.7 12.7 0 01.08-1.5h-1.856a7.578 7.578 0 01.1 1.5zm8.256 2.432v7.632c0 .336-.1.384-.96.384a16.075 16.075 0 01-1.936-.192 5.3 5.3 0 01.5 1.776c.64.048 1.232.064 1.888.064 1.056 0 1.632-.16 1.936-.544.24-.288.288-.56.288-1.392v-7.728h.2a9.3 9.3 0 011.12.048l.368.048V75.76a9.175 9.175 0 01-1.5.1h-.188v-1.264a14.408 14.408 0 01.1-1.9h-1.92a10.734 10.734 0 01.112 1.9v1.264h-2.04a9.717 9.717 0 01-1.52-.08v1.76a9.97 9.97 0 011.52-.08zm-4.368 1.776a14.264 14.264 0 012.24 3.868l1.456-.96a20.092 20.092 0 00-2.256-3.7zM274 75.68l-1.232 1.088a15.394 15.394 0 014.064 2.932l1.232-1.36a20.378 20.378 0 00-4-2.656h5.3a15.484 15.484 0 011.872.08v-1.776a13.65 13.65 0 01-1.888.1H275.2V73.4a3.613 3.613 0 01.08-.928h-1.936a4.12 4.12 0 01.08.912v.7h-4.08A12.868 12.868 0 01267.68 74c.048.544.064 1.088.064 2.24a44.885 44.885 0 01-.336 6.768 7.774 7.774 0 01-1.04 2.784 6.138 6.138 0 011.44 1.376c1.344-2.5 1.632-4.528 1.648-11.488zm-3.056 10.432a20.9 20.9 0 001.264-6.32l-1.664-.432a19.926 19.926 0 01-.352 3.088 9.692 9.692 0 01-.864 2.624zm1.984-7.7a7.123 7.123 0 01.1 1.488v6.02c0 .96.56 1.2 2.784 1.2 1.36 0 2.016-.176 2.368-.624s.5-1.248.624-3.44a6.986 6.986 0 01-1.7-.56c0 2.88-.016 2.944-1.28 2.944-.96 0-1.088-.064-1.088-.5v-5.02a11.547 11.547 0 01.08-1.5zm8.56 6.592a28.734 28.734 0 00-2.032-5.724l-1.52.752a19.209 19.209 0 011.84 5.792z" fill="#0044f2"/><g data-name="グループ 268" fill="#1c1c1c"><path data-name="パス 448" d="M242.915 67.14h-4.76l2.84-3.34c.88-1.04 2.08-2.46 2.08-4.28a4.1 4.1 0 00-4.36-4 4.083 4.083 0 00-4.34 4h2.48a1.646 1.646 0 011.72-1.68 1.614 1.614 0 011.72 1.68 4.226 4.226 0 01-1.28 2.74l-4.62 5.44v1.8h8.52zm5.16-11.44l-4.72 9.9v1.94h6.12v1.96h2.8v-1.96h1.26v-2.38h-1.26v-3.52h-2.8v3.52h-2.64l4.3-9.46z"/><path data-name="パス 450" d="M267.539 63.56h1.02c1.42 0 2.12.72 2.12 1.94a1.727 1.727 0 01-1.8 1.82 1.826 1.826 0 01-2.04-1.52h-2.46c.1 2.24 1.76 3.88 4.68 3.88 2.84 0 4.4-1.8 4.4-4.04a3.53 3.53 0 00-2.08-3.3 3.376 3.376 0 001.88-3.02c0-2.06-1.84-3.8-4.36-3.8a4.062 4.062 0 00-4.34 3.8h2.48a1.642 1.642 0 011.72-1.48 1.6 1.6 0 011.72 1.6 1.7 1.7 0 01-1.92 1.76h-1.02zm13.72-7.86h-3l-2.78 5.62a9.61 9.61 0 00-1.26 3.94c0 3.06 2.08 4.42 4.66 4.42 2.56 0 4.62-1.38 4.62-4.44a3.877 3.877 0 00-3.78-4.12 2.974 2.974 0 00-1.34.26zm-4.24 9.66a1.745 1.745 0 011.86-1.94 1.735 1.735 0 011.82 1.94 1.742 1.742 0 01-1.82 1.96 1.752 1.752 0 01-1.86-1.96zm11.68-2.96c1.12 0 1.6.86 1.6 2.54 0 1.62-.6 2.38-1.6 2.38a1.586 1.586 0 01-1.64-1.38h-2.76c.22 2.44 2.16 3.74 4.48 3.74 2.84 0 4.32-1.62 4.32-4.88 0-3.3-1.48-4.92-3.6-4.92a2.816 2.816 0 00-2.04.72v-2.36h5.12V55.7h-7.86v7.72h2.52a1.552 1.552 0 011.46-1.02z"/><path data-name="パス 449" d="M260.211 56.885v.57h-.618a4.615 4.615 0 01-.666-.036v.636c.186-.018.408-.03.66-.03h1.422v.51h-1.422a4.452 4.452 0 01-.654-.034v.654a5.374 5.374 0 01.642-.036h1.434v1.282c0 .132-.036.162-.222.162a5.345 5.345 0 01-.672-.048 1.547 1.547 0 01.142.63l.47.006a1.682 1.682 0 00.66-.1c.18-.084.24-.228.24-.576v-1.352h.078a3.262 3.262 0 01.594.036v-.658a3.659 3.659 0 01-.594.03h-.078v-.51h.1a3.9 3.9 0 01.588.03v-.636a4.428 4.428 0 01-.654.036h-.826v-.57h.66a4.353 4.353 0 01.618.03v-.636a4.424 4.424 0 01-.624.036h-.654v-.162a3.19 3.19 0 01.03-.448h-.69a2.682 2.682 0 01.036.45v.162h-.528a4.365 4.365 0 01-.626-.034v.636a5.081 5.081 0 01.642-.03zm-3.174 3.21a5.466 5.466 0 01-.036.714h.63v-.508h.546v.3h.612a6.623 6.623 0 01-.018-.6v-3.428a4.5 4.5 0 01.018-.594 5.39 5.39 0 01-.522.018h-.726a5.2 5.2 0 01-.528-.018 5.625 5.625 0 01.024.606zm.6-3.528h.54v1.254h-.54zm0 1.806h.54v1.35h-.54zm2.826 1.74a4.6 4.6 0 00-.786-.918l-.51.336a4.583 4.583 0 01.768.984zm.288 5.632c0-.234.006-.384.018-.54a4.825 4.825 0 01-.558.024h-1.338a4.892 4.892 0 01-.558-.028c.012.162.018.33.018.54v1.468a4.136 4.136 0 01-.042.6h.636v-.336h1.272c.048 0 .162 0 .336.006a2.279 2.279 0 01.156.618c.306.018.33.018.414.018a1.828 1.828 0 00.678-.072c.216-.09.288-.246.288-.606v-3.93c0-.3.006-.45.024-.666a5.382 5.382 0 01-.618.024h-1.152a5.134 5.134 0 01-.612-.024c.012.186.018.354.018.558v.918c0 .258-.006.372-.018.546.15-.012.342-.018.552-.018h1.182v2.508c0 .12-.054.162-.222.162-.108 0-.324-.018-.456-.03a6.22 6.22 0 01-.018-.522zm-.426-2.394h1.122v.3h-1.122zm0 .726h1.122v.306h-1.122zm-1.398 1.656h1.224v.36h-1.224zm0 .846h1.224v.39h-1.224zm-1.254-1.734h1.084c.21 0 .4.006.552.018a5.716 5.716 0 01-.018-.546v-.916c0-.234.006-.366.018-.558a5.07 5.07 0 01-.612.024h-1.06a5.45 5.45 0 01-.618-.024 6.652 6.652 0 01.024.672v3.916a5.364 5.364 0 01-.036.744h.7a5.2 5.2 0 01-.036-.738zm0-1.494h1.032v.3h-1.032zm0 .726h1.032v.306h-1.032z"/><path data-name="パス 451" d="M296.149 67.528a6.293 6.293 0 01-.036.726h.718v-.36h2.79v.36h.726a6.078 6.078 0 01-.036-.726v-3.876a5.421 5.421 0 01.03-.612 4.828 4.828 0 01-.648.03h-2.9a5.3 5.3 0 01-.666-.03c.018.2.03.408.03.642zm.682-3.822h2.79v1.392h-2.79zm0 2.022h2.79v1.536h-2.79z"/></g><g data-name="グループ 299"><g data-name="マスクグループ 67" clip-path="url(#d)" transform="translate(191.5 59.248)"><path data-name="パス 113" d="M15 30a14.572 14.572 0 01-5.851-1.181 15.056 15.056 0 01-7.967-7.967A14.572 14.572 0 010 15a14.572 14.572 0 011.182-5.849A15.053 15.053 0 019.15 1.182 14.572 14.572 0 0115 0a14.765 14.765 0 016.326 1.4 14.978 14.978 0 015.144 3.938V2.481a1.324 1.324 0 112.647 0v6.04a1.566 1.566 0 01-1.594 1.6h-6.04a1.323 1.323 0 110-2.646h3.292a13.329 13.329 0 00-4.354-3.534A11.8 11.8 0 0015 2.651a11.918 11.918 0 00-8.758 3.6A11.919 11.919 0 002.648 15a11.918 11.918 0 003.6 8.758A11.918 11.918 0 0015 27.355a11.967 11.967 0 007.61-2.625 11.978 11.978 0 004.343-6.714 1.489 1.489 0 01.6-.838 1.374 1.374 0 01.971-.214 1.225 1.225 0 01.889.512 1.1 1.1 0 01.171.967 14.423 14.423 0 01-5.2 8.312A14.585 14.585 0 0115 30" fill="#1c1c1c"/><path data-name="パス 114" d="M16.324 14.466l4.853 4.853a1.278 1.278 0 01.375.921 1.245 1.245 0 01-.375.938 1.32 1.32 0 01-1.859 0l-5.162-5.162a1.592 1.592 0 01-.363-.54 1.635 1.635 0 01-.115-.6v-7.37a1.323 1.323 0 112.646 0z" fill="#fc4076"/></g></g></g><path data-name="線 33" fill="none" stroke="#ccc" d="M166.313.312v88"/><path data-name="線 34" fill="none" stroke="#ccc" d="M0 45.812h335"/></g></svg>